<svg xmlns="http://www.w3.org/2000/svg" width="24" height="24" viewBox="0 0 24 24">
  <path d="M11.90619,12.65619A6.3281,6.3281,0,1,0,5.57813,6.32813,6.33525,6.33525,0,0,0,11.90619,12.65619Zm0-10.78119A4.4531,4.4531,0,1,1,7.45313,6.32813,4.45821,4.45821,0,0,1,11.90619,1.875Zm3.9032,14.30493a6.61143,6.61143,0,0,0-3.10626-.77374H11.29688A6.66381,6.66381,0,0,0,4.64063,22.0625a.9375.9375,0,0,1-1.875,0,8.541,8.541,0,0,1,8.53125-8.53131h1.40625a8.47438,8.47438,0,0,1,5.025,1.6524A4.955,4.955,0,0,0,15.80939,16.17993ZM22.5,20.5a1,1,0,0,1-1,1H20V23a1,1,0,0,1-2,0V21.5H16.5a1,1,0,0,1,0-2H18V18a1,1,0,0,1,2,0v1.5h1.5A1,1,0,0,1,22.5,20.5Z" style="fill: #a6a6a6"/>
</svg>
