<svg xmlns="http://www.w3.org/2000/svg" width="512" height="512" viewBox="0 0 512 512">
  <path d="M124.32,491.61262a395.84,395.84,0,0,0,131.68,20c99.28,0,199.44-28.48,199.44-92a199.28,199.28,0,0,0-124-184.48,129.52,129.52,0,1,0-150.88,0,199.2,199.2,0,0,0-124,184.48C56.56,441.05263,68.32,470.97264,124.32,491.61262Zm34.16-361.52a97.52,97.52,0,1,1,97.6,97.44l-.08,0A97.68,97.68,0,0,1,158.48,130.09264Zm65.52,125.28a126.4,126.4,0,0,0,64,0,167.2,167.2,0,0,1,135.44,164.24c0,33.68-73.52,60-167.44,60s-167.44-26.32-167.44-60A167.2,167.2,0,0,1,224,255.37265Z"/>
</svg>
