<svg xmlns="http://www.w3.org/2000/svg" width="15.99996" height="16" viewBox="0 0 15.99996 16">
  <path d="M12.66666,2.66667h-.7333c-.1548-.75239-.5641-1.42844-1.1592-1.91419C10.17916.26673,9.43476.00097,8.66667,0h-1.33334c-.76813.00097-1.51245.26673-2.1075.75248-.59504.48575-1.00443,1.1618-1.15916,1.91419h-.73334c-.88373.00106-1.73096.35258-2.35585.97748C.35259,4.26904.00106,5.11627,0,6v2h15.99996v-2c-.001-.88373-.3525-1.73096-.9774-2.35585-.6249-.6249-1.4722-.97642-2.3559-.97748ZM5.456,2.66667c.13739-.38861.39149-.72528.72753-.96394.33605-.23867.73763-.36769,1.1498-.3694h1.33334c.41217.00171.81379.13073,1.14979.3694.3361.23866.5902.57533.7275.96394h-5.08796ZM8.66667,10c0,.1769-.07024.3464-.19526.4714-.12503.1251-.2946.1953-.47141.1953s-.34638-.0702-.4714-.1953c-.12503-.125-.19527-.2945-.19527-.4714v-.66663H0v3.33333c.00106.8837.35259,1.731.97748,2.3559s1.47212.9764,2.35585.9774h9.33333c.8837-.001,1.731-.3525,2.3559-.9774s.9764-1.4722.9774-2.3559v-3.33333h-7.33329v.66663Z"/>
</svg>