<svg xmlns="http://www.w3.org/2000/svg" width="22" height="22" viewBox="0 0 22 22">
  <path d="M19.26085,5.63045h-.8261V3.97826A2.48127,2.48127,0,0,0,15.95655,1.5H2.73911A2.48129,2.48129,0,0,0,.26085,3.97826V14.7174a2.48135,2.48135,0,0,0,2.47826,2.4783h1.6522v.826A2.48128,2.48128,0,0,0,6.86957,20.5H19.26085a2.48129,2.48129,0,0,0,2.4783-2.4783v-9.913A2.48136,2.48136,0,0,0,19.26085,5.63045ZM2.73911,15.5435a.82693.82693,0,0,1-.82607-.8261V3.97831a.82691.82691,0,0,1,.82607-.82608H15.95655a.82689.82689,0,0,1,.826.82608V14.7174a.8269.8269,0,0,1-.826.8261ZM20.087,18.0218a.82692.82692,0,0,1-.8261.8261H6.86953a.82693.82693,0,0,1-.82608-.8261v-.8261h9.9131a2.48126,2.48126,0,0,0,2.4782-2.4783V7.28265h.8261a.8269.8269,0,0,1,.8261.82607ZM13.47815,6.45654H5.2173a.82608.82608,0,1,0,0,1.65215h8.26085a.82608.82608,0,1,0,0-1.65215Zm-1.6525,4.13037H6.86915a.8261.8261,0,0,0,0,1.65219h4.9565a.8261.8261,0,1,0,0-1.65219Z"/>
</svg>
