<svg xmlns="http://www.w3.org/2000/svg" width="20" height="20" viewBox="0 0 20 20">
  <path d="M19.7994,8.02607A9.99819,9.99819,0,0,0,8.33869.13949l-.05.0075A10.00176,10.00176,0,0,0,.46129,12.9941a7.4825,7.4825,0,0,1-.3816,5.3987.83271.83271,0,0,0,.97311,1.1581L4.787,18.5312A9.90964,9.90964,0,0,0,9.97663,20a10.07458,10.07458,0,0,0,1.99457-.2A9.99738,9.99738,0,0,0,19.7994,8.02607ZM16.9359,14.6112A8.329,8.329,0,0,1,5.38519,16.9365a.836.836,0,0,0-.46156-.1391.84946.84946,0,0,0-.2191.0292l-2.54358.694a9.16448,9.16448,0,0,0-.10832-5.023,8.23064,8.23064,0,0,1-.2616-1.074,8.34056,8.34056,0,0,1,6.7443-9.62781c.015-.00168.03-.00418.045-.00668A8.3303,8.3303,0,0,1,16.9359,14.6112ZM13.3303,7.49951H6.66518a.83315.83315,0,1,0,0,1.6663H13.3303a.83315.83315,0,1,0,0-1.6663Zm0,3.33279H6.66518a.83315.83315,0,1,0,0,1.6663H13.3303a.83315.83315,0,1,0,0-1.6663Z"/>
</svg>
