<svg xmlns="http://www.w3.org/2000/svg" width="25" height="25" viewBox="0 0 25 25">
  <path d="M12.5,25A12.5,12.5,0,1,1,25,12.5,12.51408,12.51408,0,0,1,12.5,25Zm0-23A10.5,10.5,0,1,0,23,12.5,10.51211,10.51211,0,0,0,12.5,2Zm6.3326,7.671-.5582-.51613a.64326.64326,0,0,0-.8372,0l-5.8325,5.471L8.56279,11.7613a.64315.64315,0,0,0-.83721,0l-.55814.5161a.53119.53119,0,0,0,0,.7742L11.186,16.8452A.59327.59327,0,0,0,11.6047,17a.64362.64362,0,0,0,.4186-.1548l6.8093-6.3742A.56163.56163,0,0,0,18.8326,9.671Z"/>
</svg>
