<svg width="20" height="20" viewBox="0 0 20 20" xmlns="http://www.w3.org/2000/svg">
<path d="M18.7132 7.98525C18.4793 7.78801 18.09 7.45899 18.0413 7.30307C17.9917 7.14113 18.1198 6.62005 18.1966 6.30996C18.3809 5.56148 18.6107 4.63037 18.0958 3.89739C17.5834 3.16958 16.6619 3.10583 15.9214 3.05413C15.6147 3.03174 15.1007 2.9964 14.9709 2.89821C14.8395 2.79917 14.642 2.29184 14.5238 1.98778C14.232 1.23412 13.8998 0.37967 13.089 0.107486C12.2824 -0.167263 11.5452 0.31938 10.8964 0.747441C10.6104 0.935194 10.1798 1.21947 9.99965 1.21947C9.82691 1.21947 9.40129 0.93092 9.11863 0.739706C8.49465 0.316774 7.71445 -0.206915 6.89211 0.0842407C6.08297 0.371081 5.75406 1.22032 5.46231 1.96796C5.34496 2.26941 5.14988 2.77242 5.01602 2.87493C4.88543 2.97568 4.36227 3.01187 4.04984 3.03341C3.26883 3.08853 2.38367 3.15057 1.88613 3.8844C1.3977 4.60533 1.61668 5.49422 1.81008 6.2789C1.88613 6.5907 2.01504 7.11268 1.96875 7.26855C1.91918 7.41755 1.53402 7.74746 1.30426 7.9447C0.723164 8.44437 0 9.06535 0 9.99561C0 10.9198 0.709141 11.5339 1.27855 12.0266C1.52566 12.2402 1.8984 12.5632 1.94883 12.7234C1.9984 12.8819 1.86949 13.397 1.7918 13.7045C1.60336 14.4599 1.36781 15.4005 1.90254 16.1395C2.42406 16.8578 3.34145 16.9215 4.07949 16.9732C4.38613 16.9956 4.89937 17.0301 5.02996 17.1292C5.16055 17.2282 5.35727 17.7347 5.47543 18.0387C5.76801 18.7924 6.09941 19.6468 6.91102 19.9199C7.07383 19.9759 7.235 20 7.39203 20C8.01355 20 8.58711 19.621 9.10449 19.2816C9.38961 19.0939 9.81941 18.8096 9.99957 18.8096C10.1756 18.8096 10.5988 19.0904 10.8781 19.2765C11.498 19.6873 12.2716 20.2024 13.0923 19.9095C13.9005 19.6227 14.2295 18.7743 14.5212 18.025C14.6386 17.7244 14.8337 17.2205 14.9675 17.118C15.0989 17.0172 15.6188 16.9811 15.9296 16.9595C16.7048 16.9044 17.5842 16.8433 18.0892 16.1206C18.5975 15.3945 18.3793 14.4961 18.1867 13.7045C18.1115 13.3953 17.9859 12.8794 18.0313 12.7243C18.0809 12.5753 18.4661 12.2454 18.695 12.0482C19.2768 11.5486 20 10.9267 20 9.99646C20 9.07398 19.2859 8.47018 18.7132 7.98525ZM17.6445 10.72C17.1611 11.1343 16.661 11.5641 16.4643 12.18C16.2635 12.807 16.4271 13.4788 16.585 14.1283C16.6618 14.4453 16.7907 14.975 16.7734 15.0844C16.6478 15.1825 16.1296 15.2196 15.8196 15.2403C15.2056 15.2833 14.5097 15.3316 13.9915 15.7278C13.4782 16.1197 13.2295 16.7596 12.9889 17.3781C12.8716 17.683 12.6732 18.1938 12.5914 18.2713C12.441 18.2713 12.0203 17.9896 11.7682 17.8226C11.2484 17.478 10.6591 17.0861 10.0004 17.0861C9.34086 17.0861 8.7466 17.4789 8.22098 17.8252C7.96641 17.9923 7.53996 18.2748 7.44906 18.2954C7.32098 18.1998 7.1259 17.6951 7.00855 17.3936C6.76559 16.7675 6.51434 16.1206 5.99613 15.7321C5.48125 15.3454 4.825 15.2997 4.18945 15.2558C3.89109 15.2351 3.33488 15.1964 3.23402 15.1249C3.18277 14.9724 3.31254 14.4514 3.39105 14.1413C3.54395 13.5271 3.71836 12.8312 3.52164 12.1955C3.3241 11.5607 2.7993 11.1051 2.33562 10.7037C2.10918 10.5073 1.68684 10.1412 1.65129 10.0086C1.68848 9.84665 2.12238 9.47371 2.35543 9.27476C2.83891 8.85961 3.33895 8.4298 3.53566 7.81394C3.73816 7.18257 3.57121 6.50557 3.41086 5.85096C3.33316 5.53485 3.20258 5.00599 3.2125 4.90524C3.33895 4.81051 3.85301 4.77432 4.16047 4.75278C4.80594 4.708 5.47457 4.66061 5.99277 4.26528C6.50602 3.87337 6.7548 3.23427 6.99531 2.61585C7.11266 2.31008 7.31188 1.80015 7.38789 1.7235C7.54078 1.72606 7.96559 2.01376 8.21934 2.18518C8.74332 2.54005 9.3384 2.9423 10.0004 2.9423C10.6591 2.9423 11.255 2.54953 11.779 2.20415C12.0336 2.03619 12.46 1.75456 12.5509 1.73388C12.6782 1.8295 12.8741 2.33422 12.9914 2.63568C13.2344 3.26102 13.4857 3.90785 14.0039 4.2963C14.5187 4.6839 15.1758 4.72953 15.8122 4.77346C16.1263 4.79585 16.6528 4.8329 16.7511 4.8949C16.8015 5.0465 16.6734 5.57019 16.5957 5.88198C16.4445 6.49869 16.2725 7.19723 16.4701 7.83462C16.6693 8.47633 17.2023 8.92678 17.6726 9.32386C17.8875 9.50644 18.2834 9.83981 18.3445 10C18.2859 10.1679 17.8702 10.5253 17.6445 10.72Z"/>
<path d="M13.6966 6.75117C13.3445 6.44454 12.8246 6.49449 12.5329 6.85884L8.84763 11.4506L7.27978 9.81754C6.95662 9.48075 6.43427 9.48075 6.11115 9.81754C5.78798 10.1543 5.78798 10.6987 6.11115 11.0354L8.31787 13.3352C8.4724 13.498 8.68318 13.5876 8.9022 13.5876C8.91376 13.5876 8.92619 13.5876 8.93775 13.5859C9.1708 13.5755 9.38654 13.4636 9.53529 13.2784L13.7999 7.96391C14.0924 7.59874 14.047 7.05608 13.6966 6.75117Z"/>
</svg>
