<svg xmlns="http://www.w3.org/2000/svg" width="17" height="17" viewBox="0 0 17 17">
  <path d="M16.46936,4.19464l-5.612,5.612c-.6258.62417-1.47353.97466-2.35736.97466s-1.73158-.35049-2.35733-.97466L.53067,4.19464c-.00933.10533-.03067.20067-.03067.30533v8.00003c.00106.8837.35259,1.7309.97748,2.3558s1.47212.9764,2.35585.9775h9.33333c.8837-.0011,1.731-.3526,2.3559-.9775s.9764-1.4721.9774-2.3558V4.49997c0-.10466-.0213-.2-.0306-.30533ZM9.91476,8.86402l6.0893-6.09c-.295-.48912-.711-.89397-1.208-1.17551-.497-.28154-1.0581-.43026-1.6293-.43182H3.83343c-.57119.00156-1.13233.15028-1.62932.43182-.49698.28154-.91303.68639-1.20802,1.17551l6.08934,6.09c.37571.37421.88439.58431,1.41466.58431s1.03896-.2101,1.41467-.58431Z"/>
</svg>