<svg xmlns="http://www.w3.org/2000/svg" width="20" height="20" viewBox="0 0 20 20">
  <path d="M19.087,15.78255H16.8871a2.8724,2.8724,0,0,0-5.5133,0H.913a.8261.8261,0,0,0,0,1.6522H11.3738a2.8724,2.8724,0,0,0,5.5133,0h2.1998a.8261.8261,0,0,0,.0001-1.6522Zm-4.9566,2.0652a1.2391,1.2391,0,1,1,1.2392-1.2391A1.24062,1.24062,0,0,1,14.1304,17.84775ZM19.087,2.56526H16.8871a2.8724,2.8724,0,0,0-5.5133,0H.913a.82608.82608,0,0,0,0,1.65216H11.3738a2.87239,2.87239,0,0,0,5.5133,0H19.087a.8261.8261,0,1,0,0-1.65219ZM14.1304,4.63047a1.23914,1.23914,0,1,1,1.2392-1.23913A1.24065,1.24065,0,0,1,14.1304,4.63047ZM19.087,9.17415H8.6262a2.87239,2.87239,0,0,0-5.51329,0H.913a.8261.8261,0,0,0,0,1.6522H3.11287a2.8724,2.8724,0,0,0,5.5133,0H19.0869a.8261.8261,0,0,0,.0001-1.6522ZM5.86952,11.23935a1.23913,1.23913,0,1,1,1.23913-1.23912A1.2406,1.2406,0,0,1,5.86952,11.23935Z"/>
</svg>
