<svg xmlns="http://www.w3.org/2000/svg" width="24" height="24" viewBox="0 0 24 24">
  <path d="M7.105,8.79007A3.00092,3.00092,0,0,0,10,11.0001h4a5.0009,5.0009,0,0,1,4.927,4.146,3.00308,3.00308,0,1,1-2.032.064,3.00094,3.00094,0,0,0-2.895-2.21H10a4.97758,4.97758,0,0,1-3-1v3.17a3.001,3.001,0,1,1-2,0v-6.34a3.001,3.001,0,1,1,2.105-.04ZM6,7.00007a1,1,0,1,0-.70711-.29289A1,1,0,0,0,6,7.00007Zm0,12a1,1,0,1,0-.70711-.2929A.99972.99972,0,0,0,6,19.0001Zm12,0a1,1,0,1,0-.7071-.2929A.99992.99992,0,0,0,17.9999,19.0001Z"/>
</svg>
