<svg xmlns="http://www.w3.org/2000/svg" width="17" height="17" viewBox="0 0 17 17">
    <path d="M14.19046,9.04126h-1.2373c.1261.34531.195.71797.195,1.10638v4.67656c0,.1619-.0282.3174-.0795.4619h2.0457c.7641,0,1.3858-.6216,1.3858-1.3858v-2.5494c0-1.27351-1.0361-2.30964-2.3097-2.30964ZM3.85204,10.14764c0-.38844.0689-.76107.19503-1.10638h-1.23738c-1.27356,0-2.30969,1.03613-2.30969,2.30974v2.5494c0,.7641.62166,1.3858,1.38582,1.3858h2.04569c-.05128-.1446-.07947-.3001-.07947-.462v-4.67656ZM9.91386,7.83801h-2.82878c-1.27356,0-2.30969,1.03613-2.30969,2.30969v4.6766c0,.2551.20681.4619.46194.4619h6.52433c.2551,0,.4619-.2068.4619-.4619v-4.6766c0-1.27356-1.0361-2.30969-2.3097-2.30969ZM8.50035,1.71375c-1.53163,0-2.77769,1.24606-2.77769,2.77772,0,1.03891.5734,1.94625,1.42022,2.42263.40166.22594.86472.35506,1.35747.35506s.95581-.12912,1.35751-.35506c.8468-.47638,1.4202-1.38375,1.4202-2.42263,0-1.53163-1.2461-2.77772-2.77771-2.77772ZM3.62227,4.30273c-1.14547,0-2.07735.93188-2.07735,2.07735s.93188,2.07735,2.07735,2.07735c.29056,0,.56725-.06019.8186-.16838.43456-.18709.79287-.51828,1.01459-.93312.15563-.29116.24416-.62332.24416-.97585,0-1.14544-.93188-2.07735-2.07735-2.07735ZM13.37616,4.30273c-1.1455,0-2.0773.93188-2.0773,2.07735,0,.35257.0885.68472.2441.97585.2217.41487.5801.74606,1.0146.93312.2514.10819.5281.16838.8186.16838,1.1455,0,2.0774-.93188,2.0774-2.07735s-.9319-2.07735-2.0774-2.07735Z"/>
</svg>