<svg xmlns="http://www.w3.org/2000/svg" width="21" height="21" viewBox="0 0 21 21">
  <path d="M12.943,11.4896l-1.40786-1.2425L11.375,9.87962V7.875a.875.875,0,1,0-1.75,0V10.5a.87535.87535,0,0,0,.29576.6562l1.86375,1.645A.875.875,0,1,0,12.943,11.4896Zm1.93207-6.587V1.75A1.75179,1.75179,0,0,0,13.125,0H7.875a1.75176,1.75176,0,0,0-1.75,1.75V4.90264a7.08927,7.08927,0,0,0,0,11.19476V19.25A1.75178,1.75178,0,0,0,7.875,21h5.25a1.7518,1.7518,0,0,0,1.75005-1.75V16.0974a7.08934,7.08934,0,0,0,0-11.19476ZM13.125,1.75V3.89464a7.03332,7.03332,0,0,0-5.25086,0V1.75Zm0,17.5H7.875V17.1054a7.031,7.031,0,0,0,5.25,0ZM10.5,15.8637A5.36372,5.36372,0,1,1,15.86375,10.5,5.36987,5.36987,0,0,1,10.5,15.8637Z"/>
</svg>
