<svg width="55" height="55" viewBox="0 0 55 55" fill="none" xmlns="http://www.w3.org/2000/svg">
<path d="M25.2007 45.7609L25.1985 45.7588C18.8591 39.877 13.7232 35.1022 10.1536 30.6338C6.60254 26.1885 4.75841 22.2338 4.75841 18.0183C4.75841 11.1159 10.0093 5.81737 16.6469 5.81737C20.4166 5.81737 24.0714 7.62134 26.4563 10.4646L27.6719 11.9137L28.8874 10.4646C31.2724 7.62134 34.9272 5.81737 38.6969 5.81737C45.3344 5.81737 50.5853 11.1159 50.5853 18.0183C50.5853 22.2338 48.7412 26.1885 45.1901 30.6338C41.6205 35.1022 36.4847 39.877 30.1453 45.7588L30.143 45.7609L27.6719 48.0627L25.2007 45.7609Z" stroke="#CC0000" stroke-width="3.17308"/>
</svg>
