<svg xmlns="http://www.w3.org/2000/svg" width="20" height="20.00003" viewBox="0 0 20 20.00003">
  <path d="M18.43857,1.56189c-2.08307-2.08252-5.46008-2.08252-7.54256,0l-2.97602,2.97485c.23559-.02563.47365-.03664.71291-.03664.75315,0,1.48551.11965,2.17885.35032l1.68638-1.68579c.5792-.57982,1.34945-.89842,2.16854-.89842.81916,0,1.58942.3186,2.16862.89842.57924.57861.89772,1.34766.89772,2.16795,0,.81909-.31849,1.58934-.89772,2.16795l-3.29951,3.29955c-.57916.57986-1.34945.89838-2.16854.89838-.82034,0-1.58934-.31852-2.16913-.89838-.282-.28079-.50169-.60795-.65307-.9644-.37599.02074-.72752.177-.99608.44552l-.87889.88006c.24048.44552.54931.86545.9253,1.24273,2.08248,2.0826,5.46008,2.0826,7.54315,0l3.3001-3.30076c2.08186-2.0824,2.08186-5.45883-.00004-7.54135h0ZM11.40259,15.49858c-.7544,0-1.49411-.12207-2.20327-.36255l-1.69798,1.69806c-.57861.57986-1.34883.89842-2.16791.89842s-1.58809-.31856-2.16795-.89842c-.57982-.57865-.89842-1.34883-.89842-2.16795s.3186-1.58942.89842-2.16916l3.29951-3.29951c.57982-.57861,1.34887-.89721,2.16795-.89721.8203,0,1.58934.3186,2.1685.89721.28204.28196.50224.60912.65432.96554.3772-.01953.72936-.177.99792-.44552l.87768-.87889c-.24048-.44681-.54994-.8667-.92651-1.2439-2.08248-2.08252-5.46008-2.08252-7.54256,0l-3.29951,3.30076c-2.08369,2.0826-2.08369,5.45891,0,7.54264,2.08248,2.0826,5.45891,2.0826,7.54135,0l2.9711-2.97114c-.22153.02066-.44552.03176-.67139.03176l-.00125-.00012Z"/>
</svg>