<svg xmlns="http://www.w3.org/2000/svg" width="21" height="21" viewBox="0 0 21 21">
  <path d="M16.625,7V6.125a6.125,6.125,0,1,0-12.25,0V7A2.62822,2.62822,0,0,0,1.75,9.625v8.75A2.62824,2.62824,0,0,0,4.375,21h12.25a2.6282,2.6282,0,0,0,2.625-2.625V9.625A2.62816,2.62816,0,0,0,16.625,7Zm-10.5-.875a4.375,4.375,0,1,1,8.75,0V7H6.125ZM17.5,18.375a.8759.8759,0,0,1-.875.875H4.375a.87586.87586,0,0,1-.875-.875V9.625a.87587.87587,0,0,1,.875-.875h12.25a.87582.87582,0,0,1,.875.875Zm-7-8.3125a2.61863,2.61863,0,0,0-.875,5.089V16.625a.875.875,0,1,0,1.75,0V15.1515a2.61863,2.61863,0,0,0-.875-5.089Zm0,3.5a.875.875,0,1,1,.875-.875A.87586.87586,0,0,1,10.5,13.5625Z"/>
</svg>
