<svg xmlns="http://www.w3.org/2000/svg" width="16" height="16" viewBox="0 0 16 16">
  <path d="M14.4,1.82857H1.6a1.60914,1.60914,0,0,0-1.6,1.6v9.14286a1.60919,1.60919,0,0,0,1.6,1.6H14.4a1.60924,1.60924,0,0,0,1.6-1.6V3.42857a1.60919,1.60919,0,0,0-1.6-1.6Zm.22857,1.6V4.95543h-.192a1.32594,1.32594,0,0,1-.32914,0h-.11886a1.64653,1.64653,0,0,1-.30171-.09143h-.10972a1.18005,1.18005,0,0,1-.34743-.256A1.44486,1.44486,0,0,1,12.8,3.584a1.32725,1.32725,0,0,1,.05486-.37486H14.4a.22861.22861,0,0,1,.22857.21943ZM1.6,3.2H3.14514A1.32581,1.32581,0,0,1,3.2,3.57486a1.44463,1.44463,0,0,1-.42971,1.024,1.36238,1.36238,0,0,1-.34743.256H2.304a1.02457,1.02457,0,0,1-.28343.09143h-.128a1.3269,1.3269,0,0,1-.32914,0h-.192V3.42857A.22855.22855,0,0,1,1.6,3.2Zm-.22857,9.37143V11.04457h.192a1.3221,1.3221,0,0,1,.32914,0h.11886a1.15371,1.15371,0,0,1,.30171.09143h.10972a1.36427,1.36427,0,0,1,.34743.256A1.44449,1.44449,0,0,1,3.2,12.416a1.326,1.326,0,0,1-.05486.37486H1.6a.22867.22867,0,0,1-.22857-.21943ZM4.544,12.8a2.495,2.495,0,0,0,0-.37486A2.743,2.743,0,0,0,3.712,10.432a2.40207,2.40207,0,0,0-.448-.35657l-.15543-.10057a3.09162,3.09162,0,0,0-.32914-.14629l-.18286-.07314A3.04,3.04,0,0,0,2.112,9.65486a1.42484,1.42484,0,0,0-.28343,0H1.37143V6.37257h.77714a2.47966,2.47966,0,0,0,.36572-.09143l.20114-.064a2.267,2.267,0,0,0,.40228-.18285L3.264,5.952a3.12711,3.12711,0,0,0,.47543-.384,2.74285,2.74285,0,0,0,.832-1.99314,2.495,2.495,0,0,0,0-.37486h6.912a2.48973,2.48973,0,0,0,0,.37486,2.743,2.743,0,0,0,.832,1.99314,2.654,2.654,0,0,0,.47543.384l.14628.08229a2.268,2.268,0,0,0,.40229.18285l.20114.064a2.47724,2.47724,0,0,0,.37486.08229h.768V9.61829h-.45714a1.48119,1.48119,0,0,0-.28343,0,3.03911,3.03911,0,0,0-.48457.10057l-.18286.07314a3.09917,3.09917,0,0,0-.35657.16457l-.15543.10057a2.40077,2.40077,0,0,0-.448.35657,2.74313,2.74313,0,0,0-.832,1.99315,2.4896,2.4896,0,0,0,0,.37485Zm9.856,0H12.85486A1.32741,1.32741,0,0,1,12.8,12.42514a1.44472,1.44472,0,0,1,.42971-1.024,1.18076,1.18076,0,0,1,.34743-.256h.10972a1.8886,1.8886,0,0,1,.30171-.09143h.11886a1.3221,1.3221,0,0,1,.32914,0h.192v1.51772A.2285.2285,0,0,1,14.4,12.8ZM8,4.8a3.2,3.2,0,1,0,2.26277.93726A3.20015,3.20015,0,0,0,8,4.8ZM8,9.82857A1.82862,1.82862,0,1,1,9.293,9.293,1.82813,1.82813,0,0,1,8,9.82857Z"/>
</svg>
