<svg xmlns="http://www.w3.org/2000/svg" width="17" height="17" viewBox="0 0 17 17">
  <path d="M.57582,4.66c0,5.09333,6.75333,11.84,11.83997,11.84,1.1134,0,2.1534-.42,2.92-1.1867l.6667-.7666c.7733-.7734.7733-2.08-.0333-2.8867-.02-.02-1.6267-1.25334-1.6267-1.25334-.8-.76-2.06-.76-2.8533,0l-.9734.78004c-2.13331-.9067-3.64664-2.4267-4.61997-4.63337l.77333-.97333c.76667-.79334.76667-2.06,0-2.85334,0,0-1.23333-1.60667-1.25333-1.62666-.80667-.80667-2.11334-.80667-2.92,0l-.7.60667c-.8.79334-1.22,1.83334-1.22,2.94667v.00667Z"/>
</svg>