<svg xmlns="http://www.w3.org/2000/svg" width="20" height="20" viewBox="0 0 20 20">
  <path d="M10.57843,11.21869a3.28229,3.28229,0,0,0,0-6.56458H8.78363a.81908.81908,0,0,0-.81818.81818v4.11H6.95563a.81821.81821,0,0,0,0,1.63641H7.96545v.436H6.95563a.81818.81818,0,1,0,0,1.63636H7.96545v1.23681a.81818.81818,0,1,0,1.63636,0V13.29108h2.67187a.81818.81818,0,1,0,0-1.63636H9.60181v-.436Zm0-1.63641H9.60181V6.29047h.97662a1.64591,1.64591,0,1,1,0,3.29181ZM9.99908.00916a9.99094,9.99094,0,1,0,9.991,9.991A10.00227,10.00227,0,0,0,9.99908.00916Zm0,17.94543a7.95453,7.95453,0,1,1,7.95459-7.95447A7.96357,7.96357,0,0,1,9.99908,17.95459Z"/>
</svg>
