<svg xmlns="http://www.w3.org/2000/svg" width="25" height="25" viewBox="0 0 25 25">
  <path d="M23.46268,17.29613a.95406.95406,0,0,1-1.34772,0l-1.45005-1.45006a.95266.95266,0,1,1,1.34772-1.34681l1.45,1.45005A.95408.95408,0,0,1,23.46268,17.29613Zm0-11.42134a.97475.97475,0,0,0-1.3468,0L20.66582,7.32436a.9525.9525,0,0,0,1.34535,1.34872l.00146-.00146,1.45-1.45005a.955.955,0,0,0,0-1.34681Zm.58477,4.75813H21.99709a.95255.95255,0,1,0,0,1.90509h2.05036a.95255.95255,0,1,0,0-1.90509ZM19.965,1.991V21.17939a.9517.9517,0,0,1-1.44.81775l-7.57374-4.5L7.49379,23.48559a.95584.95584,0,0,1-.82508.476.9457.9457,0,0,1-.46645-.12244l-3.17058-1.779a.951.951,0,0,1-.36512-1.29439l.00695-.01221,2.38707-4.13545a3.35175,3.35175,0,0,1-1.07224-1.08092H2.31762A2.32049,2.32049,0,0,1,0,13.21913V9.95127A2.32038,2.32038,0,0,1,2.31762,7.6337H3.99291A3.12751,3.12751,0,0,1,4.49909,7.016a3.01176,3.01176,0,0,1,2.26509-.8301l3.57626-.00046,8.1745-5.00672A.95255.95255,0,0,1,19.965,1.991ZM11.56162,7.67157v7.97164l6.4983,3.86224V3.69191Zm-4.601,9.46648-2.155,3.73342,1.509.84606,2.64384-4.57948Zm-.18822-1.90416L9.65605,15.233V8.0905C6.69517,8.09005,6.6833,8.08913,6.6737,8.08868c-.02421-.00138-.04888-.00228-.07309-.00228a1.15243,1.15243,0,0,0-.79585.31705,1.2843,1.2843,0,0,0-.39563.93376v4.4959A1.44149,1.44149,0,0,0,6.77241,15.23389ZM3.50362,9.53873h-1.186a.413.413,0,0,0-.41254.41254v3.26786a.41336.41336,0,0,0,.41254.413H3.50454Z"/>
</svg>
