<svg xmlns="http://www.w3.org/2000/svg" width="17.82303" height="17" viewBox="0 0 17.82303 17">
  <path d="M14.89507.7826C10.97437-.26087,6.84896-.26087,2.92826.7826,1.61085,1.13458.6091,2.20641.34688,3.54458-.11563,5.91238-.11563,8.3473.34688,10.7151c.26223,1.33817,1.26398,2.41,2.58139,2.76198,2.37091.63181,4.82685.88458,7.27675.74892.31869-.01593.63207.08498.8764.29213l2.88414,2.44329c.07844.0616.19196.04796.25357-.03048.02528-.03219.03888-.07201.03856-.11293v-2.83103c0-.20184.14341-.38243.33994-.42492l.29744-.08498c1.31741-.35198,2.31916-1.42381,2.58139-2.76198.4621-2.36362.4621-4.80159,0-7.17052-.26223-1.33817-1.26398-2.41-2.58139-2.76198ZM12.62706,3.15684c.26557,0,.48335.21777.48335.48866v1.69968c0,.26557-.21246.48335-.48335.48335h-1.69968c-.26557,0-.48866.21777-.48866.48866v4.61038c0,.26557-.21246.48866-.48335.48866h-1.94401c-.2678-.00291-.48336-.22084-.48335-.48866v-4.60507c0-.26557-.21777-.48866-.48335-.48866h-1.69968c-.26557,0-.48866-.21246-.48866-.48335v-1.69968c0-.26557.21777-.48866.48866-.48866h7.27675l.00531-.00531Z" fill-rule="evenodd"/>
</svg>