<svg xmlns="http://www.w3.org/2000/svg" width="21" height="21" viewBox="0 0 21 21">
  <path d="M15.1957,12.6713l-1.3912-.3042a.85552.85552,0,0,1-.6251-.5662,4.75117,4.75117,0,0,0,2.0741-3.92371V4.75347a4.75348,4.75348,0,0,0-9.507,0V7.87719A4.75117,4.75117,0,0,0,7.80513,11.79a.8567.8567,0,0,1-.6289.5779L5.801,12.6696A5.03908,5.03908,0,0,0,1.8419,17.5914v2.5598A.84885.84885,0,0,0,2.69073,21H18.3093a.84884.84884,0,0,0,.8488-.8488V17.5938A5.06862,5.06862,0,0,0,15.1957,12.6713ZM7.44421,4.75347A3.05552,3.05552,0,0,1,13.3588,3.67528l-.059.059a5.84416,5.84416,0,0,1-4.1597,1.723H7.44421Zm0,3.12372V7.15491H9.1401a7.52264,7.52264,0,0,0,4.4157-1.41908V7.87719a3.0558,3.0558,0,1,1-6.11159,0ZM12.2656,13.4101a3.14159,3.14159,0,0,1-3.54186-.0075,2.58653,2.58653,0,0,0,.63111-.9123,4.73607,4.73607,0,0,0,2.27267.0041A2.58617,2.58617,0,0,0,12.2656,13.4101Zm5.1949,5.8922H3.53957v-1.711a3.36134,3.36134,0,0,1,2.62519-3.2635l.83882-.1839a.84584.84584,0,0,0,.08.094,4.8371,4.8371,0,0,0,6.833,0,.8399.8399,0,0,0,.0781-.0915l.8384.1834a3.36084,3.36084,0,0,1,2.6274,3.264Z"/>
</svg>
