<svg width="243" height="37" viewBox="0 0 243 37" fill="none" xmlns="http://www.w3.org/2000/svg">
<g clip-path="url(#clip0_4_4083)">
<path fill-rule="evenodd" clip-rule="evenodd" d="M18.098 0H11.1765C9.58128 0 8.01174 1.31224 7.65151 2.90751L6.03051 9.98331C5.97905 10.1892 6.13343 10.4207 6.365 10.4207H15.8852C16.0396 10.4207 16.1939 10.3178 16.2197 10.1377L18.4325 0.437412C18.5096 0.231571 18.3295 0 18.098 0ZM14.4443 16.1586H4.92411C4.76973 16.1586 4.61535 16.2615 4.58962 16.4416L0.00964877 36.5626C-0.0160814 36.6655 0.00964906 36.7684 0.0868396 36.8713C0.16403 36.9485 0.24122 37 0.369871 37H6.77669C8.62926 37 10.5333 35.4819 10.945 33.6294L14.8045 16.6217C14.8302 16.5188 14.8045 16.4159 14.7273 16.3129C14.6501 16.21 14.5472 16.1586 14.4443 16.1586ZM30.7572 16.1586L21.237 16.1328C21.0827 16.1328 20.9283 16.2357 20.9026 16.4159L18.664 26.1419C18.6383 26.2448 18.664 26.3477 18.7412 26.4506C18.8184 26.5278 18.8956 26.5793 19.0243 26.5793H25.8428C27.438 26.5793 29.1105 25.2928 29.4964 23.7232L31.1432 16.6217C31.1689 16.5188 31.1432 16.4159 31.066 16.3129C30.9631 16.21 30.8859 16.1586 30.7572 16.1586ZM32.0695 0H24.9422C24.7878 0 24.6334 0.10292 24.6077 0.283032L22.3434 10.009C22.3177 10.112 22.3434 10.2149 22.4206 10.3178C22.4978 10.395 22.575 10.4465 22.7037 10.4465H32.2753C32.4297 10.4465 32.5841 10.3435 32.6098 10.1634L34.308 2.90751C34.6682 1.28651 33.6647 0 32.0695 0Z" fill="#CC0000"/>
<path fill-rule="evenodd" clip-rule="evenodd" d="M65.2805 7.24731C65.2098 7.07066 65.0332 7 64.7505 7H49.6998C49.4171 7 49.2051 7.07066 49.0992 7.21198C48.9578 7.3533 48.8872 7.52996 48.8518 7.74194L44.9654 27.6684C44.9301 27.8802 44.9301 28.057 45.0361 28.1982C45.1067 28.3395 45.3187 28.375 45.566 28.375H49.3818C49.6644 28.375 49.8411 28.3042 49.9471 28.1277C50.0531 27.9509 50.1237 27.8097 50.1591 27.6684L53.3034 11.381H59.3802L56.2359 27.6684C56.2005 27.8802 56.2005 28.057 56.3065 28.1982C56.3772 28.3395 56.5892 28.375 56.8365 28.375H60.6522C60.9349 28.375 61.1468 28.3042 61.2528 28.1277C61.3588 27.9509 61.3942 27.8097 61.4295 27.6684L65.3158 7.74194C65.3511 7.56529 65.3511 7.38863 65.2805 7.24731ZM80.9672 12.4762H77.3635C77.0809 12.4762 76.8689 12.5469 76.7629 12.7235C76.6569 12.9002 76.5862 13.0415 76.5509 13.1828L74.6431 23.0753C74.2898 23.2167 73.7952 23.3933 73.1944 23.6053C72.5938 23.8173 72.064 23.9233 71.5692 23.9233C70.8981 23.9233 70.4387 23.7466 70.2267 23.3933C70.0147 23.04 69.9794 22.4041 70.156 21.5208L71.7812 13.1475C71.8167 12.9355 71.8167 12.7589 71.746 12.6175C71.6752 12.4762 71.4987 12.4409 71.2159 12.4409H67.5769C67.259 12.4409 67.0823 12.5115 66.9763 12.6882C66.8703 12.8649 66.7997 13.0062 66.7643 13.1475L64.9625 22.3334C64.8212 23.146 64.7152 23.9233 64.6092 24.6652C64.5385 25.4071 64.6092 26.0784 64.7859 26.6437C64.9625 27.2091 65.3511 27.6684 65.9164 28.0217C66.4817 28.375 67.3296 28.5515 68.4602 28.5515C69.2021 28.5515 70.0854 28.4103 71.0393 28.0922C72.0285 27.7744 72.9471 27.3503 73.7952 26.785L73.8658 26.8203L73.6892 27.5976C73.6538 27.7744 73.6892 27.9157 73.7245 28.0922C73.7598 28.2335 73.9365 28.3042 74.2544 28.3042H77.8935C78.1761 28.3042 78.3527 28.2335 78.4587 28.1277C78.5647 27.9862 78.6354 27.8449 78.6707 27.5976L81.4971 13.1475C81.6738 12.7235 81.4618 12.4762 80.9672 12.4762ZM94.8167 19.1183C95.3467 18.553 95.9473 17.6698 96.5832 16.4686L98.2792 13.2888C98.3852 13.1122 98.4205 12.9355 98.3852 12.7589C98.3497 12.5822 98.1732 12.5115 97.8904 12.5115H94.6401C94.1808 12.5115 93.8628 12.5822 93.6861 12.6882C93.5095 12.7942 93.3328 13.0415 93.1562 13.3595L91.425 16.3626C91.0011 17.1045 90.5771 17.5991 90.1885 17.7758C89.7645 17.9878 89.3405 18.0938 88.8812 18.0938H88.1393L89.0932 13.1828C89.1286 13.0415 89.1286 12.9002 89.0932 12.7235C89.0226 12.5822 88.8812 12.5115 88.5986 12.5115H84.9243C84.677 12.5115 84.465 12.5822 84.359 12.6882C84.2177 12.8295 84.1469 12.9708 84.1117 13.1828L81.3205 27.7036C81.2852 27.8802 81.2852 28.057 81.3558 28.1982C81.4265 28.3395 81.6031 28.375 81.8504 28.375H85.5249C85.8075 28.375 86.0195 28.3042 86.0902 28.163C86.1608 28.0217 86.2315 27.8802 86.2668 27.7036L87.3267 22.1921H88.4926C88.9519 22.1921 89.3759 22.3334 89.7998 22.616C90.2238 22.8987 90.4711 23.4286 90.5771 24.2059L90.9657 27.2443C91.0364 27.6684 91.107 27.9509 91.2484 28.1277C91.3544 28.269 91.6723 28.3395 92.2023 28.3395H95.17C95.4527 28.3395 95.6293 28.269 95.7353 28.0922C95.8413 27.9157 95.8766 27.7389 95.8413 27.5624L95.4173 24.2059C95.3113 23.2167 95.0994 22.3687 94.7461 21.6621C94.3928 20.9555 93.8628 20.4609 93.0855 20.2489L93.1209 20.1782C93.6861 20.0723 94.2868 19.6836 94.8167 19.1183ZM111.987 13.4655C111.917 13.2888 111.74 13.1122 111.457 13.0062C110.821 12.7235 110.08 12.4762 109.161 12.3702C108.278 12.2289 107.43 12.1936 106.652 12.1936C105.063 12.1936 103.755 12.4056 102.731 12.8295C101.706 13.2535 100.858 13.8188 100.222 14.5254C99.5864 15.232 99.0918 16.0446 98.7385 16.9985C98.3852 17.9171 98.1379 18.9064 97.9259 19.9663C97.8199 20.4609 97.7491 20.9909 97.6786 21.5561C97.6078 22.1214 97.6078 22.6514 97.6078 23.1107C97.6078 23.8526 97.7139 24.5592 97.8904 25.2305C98.0672 25.9018 98.3852 26.5024 98.8445 26.997C99.3036 27.5269 99.9397 27.9157 100.752 28.2335C101.565 28.5163 102.59 28.6928 103.826 28.6928C104.215 28.6928 104.639 28.6928 105.063 28.6575C105.486 28.6223 105.946 28.5868 106.405 28.5163C106.864 28.4455 107.288 28.375 107.712 28.269C108.136 28.163 108.525 28.057 108.843 27.9509C109.373 27.7389 109.691 27.5269 109.832 27.3503C109.938 27.1736 110.009 26.8558 110.009 26.467V24.6299C110.009 24.2766 109.938 24.0646 109.797 24.0293C109.656 23.9939 109.408 23.9939 109.055 24.0293C108.348 24.0999 107.677 24.1706 107.006 24.2059C106.335 24.2412 105.769 24.2766 105.345 24.2766C104.497 24.2766 103.897 24.0999 103.508 23.7466C103.119 23.3933 102.907 22.828 102.907 22.0154C102.907 21.7681 102.907 21.5208 102.943 21.2382C102.978 20.9555 103.013 20.6376 103.049 20.2489C103.296 18.9417 103.685 17.9878 104.285 17.4225C104.851 16.8572 105.699 16.5392 106.758 16.5392C107.253 16.5392 107.748 16.5745 108.242 16.6099C108.737 16.6452 109.302 16.7159 109.974 16.7865C110.185 16.8219 110.362 16.8219 110.503 16.8219C110.645 16.8219 110.786 16.8219 110.857 16.7865C110.927 16.7512 111.033 16.6805 111.069 16.6099C111.139 16.5039 111.21 16.3626 111.245 16.2212L111.846 14.2427C112.058 13.8894 112.058 13.6421 111.987 13.4655ZM126.331 14.6667C126.014 14.1367 125.59 13.6775 125.095 13.3242C124.565 12.9708 123.964 12.7235 123.258 12.5469C122.551 12.3702 121.845 12.2996 121.102 12.2996C119.583 12.2996 118.312 12.5115 117.287 12.9002C116.262 13.3242 115.414 13.8541 114.708 14.49C114.036 15.1613 113.471 15.9033 113.118 16.7159C112.729 17.5285 112.447 18.3411 112.235 19.1537C112.058 19.8249 111.917 20.4962 111.811 21.2028C111.705 21.9094 111.634 22.5807 111.634 23.2873C111.634 24.2412 111.775 25.0892 112.093 25.7604C112.376 26.4317 112.8 26.997 113.33 27.4564C113.86 27.8802 114.496 28.1982 115.273 28.4103C116.015 28.5868 116.863 28.6928 117.781 28.6928C118.241 28.6928 118.7 28.6928 119.23 28.6575C119.76 28.6223 120.255 28.5868 120.785 28.5163C121.315 28.4455 121.809 28.375 122.268 28.3042C122.728 28.1982 123.152 28.0922 123.505 27.9509C123.964 27.7744 124.282 27.5976 124.424 27.4209C124.565 27.2443 124.635 26.9263 124.635 26.5024V24.9478C124.635 24.6652 124.565 24.4885 124.424 24.4179C124.282 24.3472 124.071 24.3472 123.858 24.4179C122.975 24.5239 122.162 24.5945 121.491 24.6299C120.819 24.6652 120.113 24.7005 119.371 24.7005C118.983 24.7005 118.63 24.7005 118.312 24.6652C117.994 24.6299 117.711 24.5945 117.464 24.4885C117.216 24.4179 117.04 24.2766 116.934 24.0999C116.792 23.9233 116.757 23.7113 116.757 23.3933C116.757 23.1107 116.792 22.828 116.898 22.5807C117.887 22.5454 118.947 22.4394 120.113 22.2627C121.279 22.0861 122.375 21.8035 123.364 21.3795C124.388 20.9555 125.201 20.3549 125.872 19.613C126.544 18.8357 126.897 17.8111 126.897 16.5745C126.827 15.8326 126.65 15.1967 126.331 14.6667ZM121.174 18.1644C120.891 18.4471 120.537 18.6591 120.113 18.8357C119.689 19.0124 119.23 19.1537 118.7 19.2243C118.17 19.295 117.675 19.3657 117.216 19.401C117.322 19.0477 117.464 18.6591 117.57 18.2704C117.711 17.8818 117.887 17.5285 118.1 17.2105C118.312 16.8925 118.594 16.6452 118.912 16.4332C119.23 16.2212 119.619 16.1153 120.113 16.1153C120.572 16.1153 120.926 16.2212 121.174 16.3979C121.421 16.5745 121.527 16.8219 121.527 17.1398C121.597 17.5638 121.456 17.8818 121.174 18.1644ZM144.703 13.0415C144.703 12.9002 144.668 12.7942 144.598 12.6882C144.526 12.5822 144.35 12.5115 144.103 12.5115H134.846C134.316 12.5115 133.893 12.5469 133.539 12.6529C133.186 12.7235 132.867 12.9002 132.656 13.0768C132.408 13.2888 132.197 13.5361 132.056 13.8894C131.878 14.2427 131.737 14.6667 131.596 15.1613L129.935 21.6621C129.688 22.5807 129.334 23.3227 128.875 23.8526C128.415 24.3826 127.745 24.7712 126.861 24.9832C126.544 25.0892 126.331 25.1951 126.225 25.3365C126.12 25.4425 126.048 25.6191 126.048 25.8664L126.19 28.1277C126.225 28.375 126.261 28.5515 126.367 28.6575C126.472 28.7636 126.685 28.8343 127.002 28.8343C128.345 28.8343 129.475 28.6575 130.36 28.269C131.243 27.8802 131.948 27.3856 132.514 26.7497C133.044 26.1137 133.468 25.3718 133.786 24.5239C134.069 23.676 134.351 22.7927 134.599 21.8388L135.836 16.5039H139.156C138.803 18.4117 138.414 20.2489 138.062 22.1214C137.707 23.9586 137.319 25.8311 136.966 27.7389V27.8449C136.966 27.8802 136.966 27.9157 136.966 27.9157V27.9509C136.966 28.269 137.179 28.4103 137.602 28.4103H141.17C141.489 28.4103 141.7 28.3395 141.806 28.1982C141.912 28.057 141.983 27.9157 142.019 27.7389L144.809 13.1828V13.0415H144.703ZM158.2 17.9524C157.74 17.6345 157.211 17.4225 156.61 17.2812C156.01 17.1752 155.374 17.1045 154.737 17.1045C154.067 17.1045 153.395 17.1752 152.794 17.2812C152.194 17.3872 151.558 17.5638 150.956 17.7405C150.956 17.7051 150.956 17.7051 150.922 17.7051C151.062 16.9985 151.204 16.2919 151.345 15.5853C151.486 14.8787 151.628 14.1721 151.734 13.4655C151.769 13.2535 151.805 13.1122 151.805 13.0062C151.805 12.6529 151.558 12.4762 151.098 12.4762H147.742C147.353 12.4762 147.106 12.5469 146.999 12.7235C146.893 12.9002 146.823 13.1475 146.752 13.5008C146.329 15.5853 145.94 17.7051 145.552 19.7896C145.163 21.8741 144.739 23.9586 144.315 26.0784C144.279 26.1844 144.279 26.2904 144.279 26.361C144.279 26.4317 144.279 26.5377 144.279 26.6085C144.279 26.8558 144.315 27.0323 144.42 27.2091C144.526 27.3856 144.703 27.5269 144.95 27.6684C145.303 27.8449 145.763 27.9862 146.293 28.1277C146.823 28.269 147.389 28.375 147.953 28.4455C148.555 28.5163 149.155 28.5868 149.755 28.6223C150.392 28.6576 150.992 28.6575 151.558 28.6575C152.935 28.6575 154.137 28.5163 155.091 28.1982C156.044 27.9157 156.821 27.4916 157.458 26.9618C158.094 26.4317 158.588 25.8311 158.907 25.1598C159.224 24.4532 159.471 23.7113 159.613 22.934C159.648 22.7574 159.684 22.5101 159.718 22.2274C159.754 21.9448 159.754 21.7328 159.754 21.5561C159.754 20.6376 159.613 19.8956 159.33 19.295C159.013 18.7297 158.658 18.2704 158.2 17.9524ZM153.959 23.9586C153.642 24.4179 152.971 24.6652 151.981 24.6652C151.592 24.6652 151.204 24.6652 150.815 24.6299C150.426 24.5945 150.074 24.5592 149.755 24.5239L150.356 21.4502C150.815 21.3088 151.204 21.2028 151.592 21.1322C151.946 21.0615 152.369 21.0262 152.865 21.0262C153.465 21.0262 153.889 21.1675 154.101 21.4148C154.314 21.6621 154.419 21.9801 154.455 22.3334C154.455 22.934 154.278 23.4993 153.959 23.9586ZM188.62 7.24731C188.548 7.07066 188.372 7 188.09 7H173.039C172.756 7 172.543 7.07066 172.437 7.21198C172.296 7.3533 172.226 7.52996 172.19 7.74194L168.304 27.6684C168.269 27.8802 168.269 28.057 168.374 28.1982C168.446 28.3395 168.657 28.375 168.904 28.375H172.72C173.003 28.375 173.18 28.3042 173.286 28.1277C173.392 27.9509 173.462 27.8097 173.497 27.6684L176.642 11.381H182.719L179.575 27.6684C179.539 27.8802 179.539 28.057 179.645 28.1982C179.716 28.3395 179.928 28.375 180.175 28.375H183.955C184.238 28.375 184.449 28.3042 184.557 28.1277C184.662 27.9509 184.698 27.8097 184.732 27.6684L188.62 7.74194C188.69 7.56529 188.654 7.38863 188.62 7.24731ZM205.225 13.0415C205.225 12.9002 205.189 12.7942 205.119 12.6882C205.048 12.5822 204.872 12.5115 204.623 12.5115H195.403C194.873 12.5115 194.448 12.5469 194.096 12.6529C193.743 12.7235 193.424 12.9002 193.213 13.0768C192.964 13.2888 192.753 13.5361 192.611 13.8894C192.435 14.2427 192.294 14.6667 192.153 15.1613L190.491 21.6621C190.244 22.5807 189.891 23.3227 189.431 23.8526C188.972 24.3826 188.301 24.7712 187.418 24.9832C187.1 25.0892 186.888 25.1951 186.782 25.3365C186.675 25.4425 186.605 25.6191 186.605 25.8664L186.747 28.1277C186.782 28.375 186.817 28.5515 186.924 28.6575C187.03 28.7636 187.241 28.8343 187.56 28.8343C188.902 28.8343 190.033 28.6575 190.915 28.269C191.798 27.8802 192.505 27.3856 193.071 26.7497C193.601 26.1137 194.024 25.3718 194.343 24.5239C194.626 23.676 194.908 22.7927 195.156 21.8388L196.391 16.5039H199.713C199.36 18.4117 198.971 20.2489 198.617 22.1214C198.264 23.9586 197.876 25.8311 197.523 27.7389V27.8449C197.523 27.8802 197.523 27.9157 197.523 27.9157V27.9509C197.523 28.269 197.734 28.4103 198.159 28.4103H201.727C202.045 28.4103 202.256 28.3395 202.363 28.1982C202.469 28.057 202.539 27.9157 202.575 27.7389L205.366 13.1828V13.0415H205.225ZM226.211 13.8894C225.716 13.3595 225.08 12.9708 224.303 12.6529C223.525 12.3702 222.537 12.1936 221.335 12.1936C220.064 12.1936 218.932 12.3702 218.014 12.7235C217.095 13.0768 216.318 13.5715 215.682 14.1367C215.047 14.702 214.552 15.3733 214.164 16.0799C213.775 16.7865 213.492 17.4931 213.279 18.1997H211.584C211.761 17.3518 211.902 16.5392 212.078 15.6913C212.219 14.8434 212.396 13.9954 212.574 13.1475V12.9355C212.574 12.7942 212.538 12.6882 212.468 12.5822C212.396 12.4762 212.255 12.4056 212.008 12.4056H208.405C208.122 12.4056 207.909 12.4762 207.803 12.6175C207.698 12.7589 207.592 12.9355 207.556 13.1475L204.765 27.5624V27.7744C204.765 28.0922 204.942 28.269 205.295 28.269H208.935C209.216 28.269 209.429 28.1982 209.535 28.057C209.641 27.9157 209.712 27.7389 209.746 27.5624C209.923 26.6085 210.101 25.6544 210.276 24.7005C210.453 23.7466 210.665 22.7927 210.842 21.8388H212.608C212.608 21.9448 212.608 22.0508 212.608 22.1921C212.608 22.3334 212.608 22.4394 212.608 22.5454C212.608 23.3933 212.715 24.2059 212.962 24.9125C213.174 25.6544 213.526 26.2904 214.022 26.8203C214.516 27.3503 215.152 27.7744 215.929 28.057C216.707 28.3395 217.661 28.5163 218.755 28.5163C219.887 28.5163 220.875 28.4103 221.724 28.163C222.571 27.9157 223.278 27.5976 223.878 27.1736C224.48 26.7497 224.974 26.2552 225.363 25.7251C225.751 25.1598 226.07 24.5945 226.317 23.9586C226.564 23.3226 226.776 22.6867 226.917 22.0508C227.059 21.4148 227.2 20.7789 227.306 20.1782C227.447 19.507 227.519 18.6944 227.519 17.7405C227.519 16.9985 227.411 16.3272 227.236 15.6206C227.023 15.02 226.706 14.4194 226.211 13.8894ZM222.324 20.4256C222.077 21.7328 221.724 22.722 221.3 23.358C220.875 24.0293 220.17 24.3472 219.215 24.3472C218.58 24.3472 218.12 24.1706 217.872 23.8526C217.625 23.5346 217.52 23.0047 217.52 22.3334C217.52 22.0861 217.555 21.8035 217.59 21.4502C217.625 21.1322 217.697 20.7789 217.767 20.4256C218.014 19.1537 218.367 18.1644 218.791 17.5285C219.215 16.8925 219.851 16.5392 220.7 16.5392C221.441 16.5392 221.935 16.7159 222.183 17.0338C222.43 17.3518 222.571 17.8818 222.571 18.5531C222.537 19.083 222.465 19.719 222.324 20.4256ZM242.886 13.4655C242.816 13.2888 242.639 13.1122 242.356 13.0062C241.721 12.7235 240.979 12.4762 240.061 12.3702C239.178 12.2289 238.329 12.1936 237.552 12.1936C235.962 12.1936 234.655 12.4056 233.63 12.8295C232.606 13.2535 231.757 13.8188 231.122 14.5254C230.486 15.232 229.991 16.0446 229.637 16.9985C229.284 17.9171 229.037 18.9064 228.826 19.9663C228.719 20.4609 228.649 20.9909 228.577 21.5561C228.507 22.1214 228.507 22.6514 228.507 23.1107C228.507 23.8526 228.613 24.5592 228.79 25.2305C228.967 25.9018 229.284 26.5024 229.744 26.997C230.203 27.5269 230.839 27.9157 231.652 28.2335C232.464 28.5163 233.489 28.6928 234.726 28.6928C235.115 28.6928 235.537 28.6928 235.962 28.6575C236.386 28.6223 236.845 28.5868 237.305 28.5163C237.763 28.4455 238.188 28.375 238.612 28.269C239.036 28.163 239.425 28.057 239.742 27.9509C240.272 27.7389 240.591 27.5269 240.732 27.3503C240.838 27.1736 240.908 26.8558 240.908 26.467V24.6299C240.908 24.2766 240.838 24.0646 240.696 24.0293C240.555 23.9939 240.308 23.9939 239.955 24.0293C239.248 24.0999 238.576 24.1706 237.905 24.2059C237.233 24.2412 236.669 24.2766 236.245 24.2766C235.396 24.2766 234.796 24.0999 234.407 23.7466C234.019 23.3933 233.807 22.828 233.807 22.0154C233.807 21.7681 233.807 21.5208 233.842 21.2382C233.877 20.9555 233.913 20.6376 233.947 20.2489C234.196 18.9417 234.585 17.9878 235.185 17.4225C235.75 16.8572 236.598 16.5392 237.658 16.5392C238.152 16.5392 238.648 16.5745 239.142 16.6099C239.636 16.6452 240.202 16.7159 240.873 16.7865C241.085 16.8219 241.262 16.8219 241.403 16.8219C241.543 16.8219 241.685 16.8219 241.756 16.7865C241.826 16.7512 241.932 16.6805 241.968 16.6099C242.039 16.5039 242.109 16.3626 242.145 16.2212L242.745 14.2427C242.958 13.8894 242.992 13.6421 242.886 13.4655Z" fill="white"/>
</g>
<defs>
<clipPath id="clip0_4_4083">
<rect width="243" height="37" fill="white"/>
</clipPath>
</defs>
</svg>
