<svg width="243" height="37" viewBox="0 0 243 37" fill="none" xmlns="http://www.w3.org/2000/svg">
<g clip-path="url(#clip0_4_4079)">
<path fill-rule="evenodd" clip-rule="evenodd" d="M18.098 0H11.1765C9.58128 0 8.01174 1.31224 7.65151 2.90751L6.03051 9.98331C5.97905 10.1892 6.13343 10.4207 6.365 10.4207H15.8852C16.0396 10.4207 16.1939 10.3178 16.2197 10.1377L18.4325 0.437412C18.5096 0.231571 18.3295 0 18.098 0ZM14.4443 16.1586H4.92411C4.76973 16.1586 4.61535 16.2615 4.58962 16.4416L0.00964877 36.5626C-0.0160814 36.6655 0.00964906 36.7684 0.0868396 36.8713C0.16403 36.9485 0.24122 37 0.369871 37H6.77669C8.62926 37 10.5333 35.4819 10.945 33.6294L14.8045 16.6217C14.8302 16.5188 14.8045 16.4159 14.7273 16.3129C14.6501 16.21 14.5472 16.1586 14.4443 16.1586ZM30.7572 16.1586L21.237 16.1328C21.0827 16.1328 20.9283 16.2357 20.9026 16.4159L18.664 26.1419C18.6383 26.2448 18.664 26.3477 18.7412 26.4506C18.8184 26.5278 18.8956 26.5793 19.0243 26.5793H25.8428C27.438 26.5793 29.1105 25.2928 29.4964 23.7232L31.1432 16.6217C31.1689 16.5188 31.1432 16.4159 31.066 16.3129C30.9631 16.21 30.8859 16.1586 30.7572 16.1586ZM32.0695 0H24.9422C24.7878 0 24.6334 0.10292 24.6077 0.283032L22.3434 10.009C22.3177 10.112 22.3434 10.2149 22.4206 10.3178C22.4978 10.395 22.575 10.4465 22.7037 10.4465H32.2753C32.4297 10.4465 32.5841 10.3435 32.6098 10.1634L34.308 2.90751C34.6682 1.28651 33.6647 0 32.0695 0Z" fill="#CC0000"/>
<path fill-rule="evenodd" clip-rule="evenodd" d="M65.2805 8.24731C65.2098 8.07066 65.0332 8 64.7505 8H49.6998C49.4171 8 49.2051 8.07066 49.0992 8.21198C48.9578 8.3533 48.8872 8.52996 48.8518 8.74194L44.9654 28.6683C44.9301 28.8803 44.9301 29.0569 45.0361 29.1982C45.1067 29.3396 45.3187 29.3749 45.566 29.3749H49.3818C49.6644 29.3749 49.8411 29.3042 49.9471 29.1276C50.0531 28.9509 50.1237 28.8096 50.1591 28.6683L53.3034 12.381H59.3802L56.2359 28.6683C56.2005 28.8803 56.2005 29.0569 56.3065 29.1982C56.3772 29.3396 56.5892 29.3749 56.8365 29.3749H60.6522C60.9349 29.3749 61.1468 29.3042 61.2528 29.1276C61.3588 28.9509 61.3942 28.8096 61.4295 28.6683L65.3158 8.74194C65.3511 8.56529 65.3511 8.38863 65.2805 8.24731ZM80.9672 13.4762H77.3635C77.0809 13.4762 76.8689 13.5469 76.7629 13.7235C76.6569 13.9002 76.5862 14.0415 76.5509 14.1828L74.6431 24.0754C74.2898 24.2167 73.7952 24.3933 73.1944 24.6053C72.5938 24.8173 72.064 24.9233 71.5692 24.9233C70.8981 24.9233 70.4387 24.7466 70.2267 24.3933C70.0147 24.04 69.9794 23.4041 70.156 22.5208L71.7812 14.1475C71.8167 13.9355 71.8167 13.7589 71.746 13.6175C71.6752 13.4762 71.4987 13.4409 71.2159 13.4409H67.5769C67.259 13.4409 67.0823 13.5115 66.9763 13.6882C66.8703 13.8649 66.7997 14.0062 66.7643 14.1475L64.9625 23.3334C64.8212 24.146 64.7152 24.9233 64.6092 25.6652C64.5385 26.4072 64.6092 27.0784 64.7859 27.6437C64.9625 28.209 65.3511 28.6683 65.9164 29.0216C66.4817 29.3749 67.3296 29.5516 68.4602 29.5516C69.2021 29.5516 70.0854 29.4102 71.0393 29.0923C72.0285 28.7743 72.9471 28.3503 73.7952 27.785L73.8658 27.8204L73.6892 28.5976C73.6538 28.7743 73.6892 28.9156 73.7245 29.0923C73.7598 29.2336 73.9365 29.3042 74.2544 29.3042H77.8935C78.1761 29.3042 78.3527 29.2336 78.4587 29.1276C78.5647 28.9863 78.6354 28.8449 78.6707 28.5976L81.4971 14.1475C81.6738 13.7235 81.4618 13.4762 80.9672 13.4762ZM94.8167 20.1183C95.3467 19.5531 95.9473 18.6698 96.5832 17.4686L98.2792 14.2888C98.3852 14.1122 98.4205 13.9355 98.3852 13.7589C98.3497 13.5822 98.1732 13.5115 97.8904 13.5115H94.6401C94.1808 13.5115 93.8628 13.5822 93.6861 13.6882C93.5095 13.7942 93.3328 14.0415 93.1562 14.3595L91.425 17.3626C91.0011 18.1045 90.5771 18.5991 90.1885 18.7758C89.7645 18.9878 89.3405 19.0938 88.8812 19.0938H88.1393L89.0932 14.1828C89.1286 14.0415 89.1286 13.9002 89.0932 13.7235C89.0226 13.5822 88.8812 13.5115 88.5986 13.5115H84.9243C84.677 13.5115 84.465 13.5822 84.359 13.6882C84.2177 13.8295 84.1469 13.9708 84.1117 14.1828L81.3205 28.7036C81.2852 28.8803 81.2852 29.0569 81.3558 29.1982C81.4265 29.3396 81.6031 29.3749 81.8504 29.3749H85.5249C85.8075 29.3749 86.0195 29.3042 86.0902 29.1629C86.1608 29.0216 86.2315 28.8803 86.2668 28.7036L87.3267 23.1921H88.4926C88.9519 23.1921 89.3759 23.3334 89.7998 23.6161C90.2238 23.8987 90.4711 24.4287 90.5771 25.2059L90.9657 28.2443C91.0364 28.6683 91.107 28.9509 91.2484 29.1276C91.3544 29.2689 91.6723 29.3396 92.2023 29.3396H95.17C95.4527 29.3396 95.6293 29.2689 95.7353 29.0923C95.8413 28.9156 95.8766 28.739 95.8413 28.5623L95.4173 25.2059C95.3113 24.2167 95.0994 23.3688 94.7461 22.6622C94.3928 21.9556 93.8628 21.4609 93.0855 21.2489L93.1209 21.1783C93.6861 21.0723 94.2868 20.6836 94.8167 20.1183ZM111.987 14.4655C111.917 14.2888 111.74 14.1122 111.457 14.0062C110.821 13.7235 110.08 13.4762 109.161 13.3702C108.278 13.2289 107.43 13.1936 106.652 13.1936C105.063 13.1936 103.755 13.4056 102.731 13.8295C101.706 14.2535 100.858 14.8188 100.222 15.5254C99.5864 16.232 99.0918 17.0446 98.7385 17.9985C98.3852 18.9171 98.1379 19.9064 97.9259 20.9663C97.8199 21.4609 97.7491 21.9909 97.6786 22.5562C97.6078 23.1215 97.6078 23.6514 97.6078 24.1107C97.6078 24.8526 97.7139 25.5592 97.8904 26.2305C98.0672 26.9018 98.3852 27.5024 98.8445 27.997C99.3036 28.527 99.9397 28.9156 100.752 29.2336C101.565 29.5162 102.59 29.6929 103.826 29.6929C104.215 29.6929 104.639 29.6929 105.063 29.6575C105.486 29.6222 105.946 29.5869 106.405 29.5162C106.864 29.4456 107.288 29.3749 107.712 29.2689C108.136 29.1629 108.525 29.0569 108.843 28.9509C109.373 28.739 109.691 28.527 109.832 28.3503C109.938 28.1737 110.009 27.8557 110.009 27.4671V25.6299C110.009 25.2766 109.938 25.0646 109.797 25.0293C109.656 24.994 109.408 24.994 109.055 25.0293C108.348 25.1 107.677 25.1706 107.006 25.2059C106.335 25.2413 105.769 25.2766 105.345 25.2766C104.497 25.2766 103.897 25.1 103.508 24.7466C103.119 24.3933 102.907 23.8281 102.907 23.0155C102.907 22.7682 102.907 22.5208 102.943 22.2382C102.978 21.9556 103.013 21.6376 103.049 21.2489C103.296 19.9417 103.685 18.9878 104.285 18.4225C104.851 17.8572 105.699 17.5392 106.758 17.5392C107.253 17.5392 107.748 17.5746 108.242 17.6099C108.737 17.6452 109.302 17.7159 109.974 17.7865C110.185 17.8219 110.362 17.8219 110.503 17.8219C110.645 17.8219 110.786 17.8219 110.857 17.7865C110.927 17.7512 111.033 17.6805 111.069 17.6099C111.139 17.5039 111.21 17.3626 111.245 17.2212L111.846 15.2427C112.058 14.8894 112.058 14.6421 111.987 14.4655ZM126.331 15.6667C126.014 15.1368 125.59 14.6775 125.095 14.3242C124.565 13.9708 123.964 13.7235 123.258 13.5469C122.551 13.3702 121.845 13.2996 121.102 13.2996C119.583 13.2996 118.312 13.5115 117.287 13.9002C116.262 14.3241 115.414 14.8541 114.708 15.4901C114.036 16.1613 113.471 16.9033 113.118 17.7159C112.729 18.5285 112.447 19.3411 112.235 20.1537C112.058 20.825 111.917 21.4962 111.811 22.2029C111.705 22.9095 111.634 23.5808 111.634 24.2874C111.634 25.2413 111.775 26.0892 112.093 26.7605C112.376 27.4317 112.8 27.997 113.33 28.4563C113.86 28.8803 114.496 29.1983 115.273 29.4102C116.015 29.5869 116.863 29.6929 117.781 29.6929C118.241 29.6929 118.7 29.6929 119.23 29.6575C119.76 29.6222 120.255 29.5869 120.785 29.5162C121.315 29.4456 121.809 29.3749 122.268 29.3042C122.728 29.1983 123.152 29.0923 123.505 28.9509C123.964 28.7743 124.282 28.5976 124.424 28.421C124.565 28.2443 124.635 27.9264 124.635 27.5024V25.9479C124.635 25.6652 124.565 25.4886 124.424 25.4179C124.282 25.3473 124.071 25.3473 123.858 25.4179C122.975 25.5239 122.162 25.5946 121.491 25.6299C120.819 25.6652 120.113 25.7006 119.371 25.7006C118.983 25.7006 118.63 25.7006 118.312 25.6652C117.994 25.6299 117.711 25.5946 117.464 25.4886C117.216 25.4179 117.04 25.2766 116.934 25.1C116.792 24.9233 116.757 24.7113 116.757 24.3933C116.757 24.1107 116.792 23.8281 116.898 23.5808C117.887 23.5454 118.947 23.4394 120.113 23.2628C121.279 23.0861 122.375 22.8035 123.364 22.3795C124.388 21.9556 125.201 21.3549 125.872 20.613C126.544 19.8357 126.897 18.8111 126.897 17.5746C126.827 16.8326 126.65 16.1967 126.331 15.6667ZM121.174 19.1644C120.891 19.4471 120.537 19.659 120.113 19.8357C119.689 20.0123 119.23 20.1537 118.7 20.2243C118.17 20.295 117.675 20.3657 117.216 20.401C117.322 20.0477 117.464 19.659 117.57 19.2704C117.711 18.8818 117.887 18.5285 118.1 18.2105C118.312 17.8925 118.594 17.6452 118.912 17.4332C119.23 17.2212 119.619 17.1153 120.113 17.1153C120.572 17.1153 120.926 17.2212 121.174 17.3979C121.421 17.5745 121.527 17.8219 121.527 18.1398C121.597 18.5638 121.456 18.8818 121.174 19.1644ZM144.703 14.0415C144.703 13.9002 144.668 13.7942 144.598 13.6882C144.526 13.5822 144.35 13.5115 144.103 13.5115H134.846C134.316 13.5115 133.893 13.5469 133.539 13.6529C133.186 13.7235 132.867 13.9002 132.656 14.0768C132.408 14.2888 132.197 14.5361 132.056 14.8894C131.878 15.2427 131.737 15.6667 131.596 16.1613L129.935 22.6622C129.688 23.5808 129.334 24.3227 128.875 24.8526C128.415 25.3826 127.745 25.7712 126.861 25.9832C126.544 26.0892 126.331 26.1952 126.225 26.3365C126.12 26.4425 126.048 26.6191 126.048 26.8665L126.19 29.1276C126.225 29.3749 126.261 29.5516 126.367 29.6575C126.472 29.7635 126.685 29.8342 127.002 29.8342C128.345 29.8342 129.475 29.6575 130.36 29.2689C131.243 28.8803 131.948 28.3857 132.514 27.7497C133.044 27.1138 133.468 26.3718 133.786 25.5239C134.069 24.676 134.351 23.7927 134.599 22.8388L135.836 17.5039H139.156C138.803 19.4117 138.414 21.2489 138.062 23.1215C137.707 24.9586 137.319 26.8311 136.966 28.739V28.8449C136.966 28.8803 136.966 28.9156 136.966 28.9156V28.9509C136.966 29.2689 137.179 29.4102 137.602 29.4102H141.17C141.489 29.4102 141.7 29.3396 141.806 29.1982C141.912 29.0569 141.983 28.9156 142.019 28.739L144.809 14.1828V14.0415H144.703ZM158.2 18.9524C157.74 18.6345 157.211 18.4225 156.61 18.2812C156.01 18.1752 155.374 18.1045 154.737 18.1045C154.067 18.1045 153.395 18.1752 152.794 18.2812C152.194 18.3872 151.558 18.5638 150.956 18.7405C150.956 18.7051 150.956 18.7051 150.922 18.7051C151.062 17.9985 151.204 17.2919 151.345 16.5853C151.486 15.8787 151.628 15.1721 151.734 14.4655C151.769 14.2535 151.805 14.1122 151.805 14.0062C151.805 13.6529 151.558 13.4762 151.098 13.4762H147.742C147.353 13.4762 147.106 13.5469 146.999 13.7235C146.893 13.9002 146.823 14.1475 146.752 14.5008C146.329 16.5853 145.94 18.7051 145.552 20.7896C145.163 22.8741 144.739 24.9586 144.315 27.0784C144.279 27.1844 144.279 27.2904 144.279 27.3611C144.279 27.4317 144.279 27.5377 144.279 27.6084C144.279 27.8557 144.315 28.0324 144.42 28.209C144.526 28.3857 144.703 28.527 144.95 28.6683C145.303 28.8449 145.763 28.9863 146.293 29.1276C146.823 29.2689 147.389 29.3749 147.953 29.4456C148.555 29.5162 149.155 29.5869 149.755 29.6222C150.392 29.6575 150.992 29.6575 151.558 29.6575C152.935 29.6575 154.137 29.5162 155.091 29.1982C156.044 28.9156 156.821 28.4916 157.458 27.9617C158.094 27.4317 158.588 26.8311 158.907 26.1599C159.224 25.4533 159.471 24.7113 159.613 23.9341C159.648 23.7574 159.684 23.5101 159.718 23.2275C159.754 22.9448 159.754 22.7328 159.754 22.5562C159.754 21.6376 159.613 20.8956 159.33 20.295C159.013 19.7297 158.658 19.2704 158.2 18.9524ZM153.959 24.9586C153.642 25.4179 152.971 25.6652 151.981 25.6652C151.592 25.6652 151.204 25.6652 150.815 25.6299C150.426 25.5946 150.074 25.5592 149.755 25.5239L150.356 22.4502C150.815 22.3089 151.204 22.2029 151.592 22.1322C151.946 22.0616 152.369 22.0262 152.865 22.0262C153.465 22.0262 153.889 22.1674 154.101 22.4149C154.314 22.6622 154.419 22.9801 154.455 23.3334C154.455 23.9341 154.278 24.4993 153.959 24.9586ZM188.62 8.24731C188.548 8.07066 188.372 8 188.09 8H173.039C172.756 8 172.543 8.07066 172.437 8.21198C172.296 8.3533 172.226 8.52996 172.19 8.74194L168.304 28.6683C168.269 28.8803 168.269 29.0569 168.374 29.1982C168.446 29.3396 168.657 29.3749 168.904 29.3749H172.72C173.003 29.3749 173.18 29.3042 173.286 29.1276C173.392 28.9509 173.462 28.8096 173.497 28.6683L176.642 12.381H182.719L179.575 28.6683C179.539 28.8803 179.539 29.0569 179.645 29.1982C179.716 29.3396 179.928 29.3749 180.175 29.3749H183.955C184.238 29.3749 184.449 29.3042 184.557 29.1276C184.662 28.9509 184.698 28.8096 184.732 28.6683L188.62 8.74194C188.69 8.56529 188.654 8.38863 188.62 8.24731ZM205.225 14.0415C205.225 13.9002 205.189 13.7942 205.119 13.6882C205.048 13.5822 204.872 13.5115 204.623 13.5115H195.403C194.873 13.5115 194.448 13.5469 194.096 13.6529C193.743 13.7235 193.424 13.9002 193.213 14.0768C192.964 14.2888 192.753 14.5361 192.611 14.8894C192.435 15.2427 192.294 15.6667 192.153 16.1613L190.491 22.6622C190.244 23.5808 189.891 24.3227 189.431 24.8526C188.972 25.3826 188.301 25.7712 187.418 25.9832C187.1 26.0892 186.888 26.1952 186.782 26.3365C186.675 26.4425 186.605 26.6191 186.605 26.8665L186.747 29.1276C186.782 29.3749 186.817 29.5516 186.924 29.6575C187.03 29.7635 187.241 29.8342 187.56 29.8342C188.902 29.8342 190.033 29.6575 190.915 29.2689C191.798 28.8803 192.505 28.3857 193.071 27.7497C193.601 27.1138 194.024 26.3718 194.343 25.5239C194.626 24.676 194.908 23.7927 195.156 22.8388L196.391 17.5039H199.713C199.36 19.4117 198.971 21.2489 198.617 23.1215C198.264 24.9586 197.876 26.8311 197.523 28.739V28.8449C197.523 28.8803 197.523 28.9156 197.523 28.9156V28.9509C197.523 29.2689 197.734 29.4102 198.159 29.4102H201.727C202.045 29.4102 202.256 29.3396 202.363 29.1982C202.469 29.0569 202.539 28.9156 202.575 28.739L205.366 14.1828V14.0415H205.225ZM226.211 14.8894C225.716 14.3595 225.08 13.9708 224.303 13.6529C223.525 13.3702 222.537 13.1936 221.335 13.1936C220.064 13.1936 218.932 13.3702 218.014 13.7235C217.095 14.0768 216.318 14.5715 215.682 15.1368C215.047 15.702 214.552 16.3733 214.164 17.0799C213.775 17.7865 213.492 18.4931 213.279 19.1998H211.584C211.761 18.3518 211.902 17.5392 212.078 16.6913C212.219 15.8434 212.396 14.9954 212.574 14.1475V13.9355C212.574 13.7942 212.538 13.6882 212.468 13.5822C212.396 13.4762 212.255 13.4056 212.008 13.4056H208.405C208.122 13.4056 207.909 13.4762 207.803 13.6175C207.698 13.7589 207.592 13.9355 207.556 14.1475L204.765 28.5623V28.7743C204.765 29.0923 204.942 29.2689 205.295 29.2689H208.935C209.216 29.2689 209.429 29.1983 209.535 29.0569C209.641 28.9156 209.712 28.739 209.746 28.5623C209.923 27.6084 210.101 26.6545 210.276 25.7006C210.453 24.7466 210.665 23.7927 210.842 22.8388H212.608C212.608 22.9448 212.608 23.0508 212.608 23.1921C212.608 23.3334 212.608 23.4394 212.608 23.5454C212.608 24.3933 212.715 25.2059 212.962 25.9125C213.174 26.6545 213.526 27.2904 214.022 27.8204C214.516 28.3503 215.152 28.7743 215.929 29.0569C216.707 29.3396 217.661 29.5162 218.755 29.5162C219.887 29.5162 220.875 29.4102 221.724 29.1629C222.571 28.9156 223.278 28.5976 223.878 28.1737C224.48 27.7497 224.974 27.2551 225.363 26.7251C225.751 26.1599 226.07 25.5946 226.317 24.9586C226.564 24.3227 226.776 23.6867 226.917 23.0508C227.059 22.4149 227.2 21.7789 227.306 21.1783C227.447 20.507 227.519 19.6944 227.519 18.7405C227.519 17.9985 227.411 17.3272 227.236 16.6206C227.023 16.02 226.706 15.4194 226.211 14.8894ZM222.324 21.4256C222.077 22.7328 221.724 23.7221 221.3 24.358C220.875 25.0293 220.17 25.3473 219.215 25.3473C218.58 25.3473 218.12 25.1706 217.872 24.8526C217.625 24.5347 217.52 24.0047 217.52 23.3334C217.52 23.0861 217.555 22.8035 217.59 22.4502C217.625 22.1322 217.697 21.7789 217.767 21.4256C218.014 20.1537 218.367 19.1644 218.791 18.5285C219.215 17.8925 219.851 17.5392 220.7 17.5392C221.441 17.5392 221.935 17.7159 222.183 18.0338C222.43 18.3518 222.571 18.8818 222.571 19.5531C222.537 20.083 222.465 20.719 222.324 21.4256ZM242.886 14.4655C242.816 14.2888 242.639 14.1122 242.356 14.0062C241.721 13.7235 240.979 13.4762 240.061 13.3702C239.178 13.2289 238.329 13.1936 237.552 13.1936C235.962 13.1936 234.655 13.4056 233.63 13.8295C232.606 14.2535 231.757 14.8188 231.122 15.5254C230.486 16.232 229.991 17.0446 229.637 17.9985C229.284 18.9171 229.037 19.9064 228.826 20.9663C228.719 21.4609 228.649 21.9909 228.577 22.5562C228.507 23.1215 228.507 23.6514 228.507 24.1107C228.507 24.8526 228.613 25.5592 228.79 26.2305C228.967 26.9018 229.284 27.5024 229.744 27.997C230.203 28.527 230.839 28.9156 231.652 29.2336C232.464 29.5162 233.489 29.6929 234.726 29.6929C235.115 29.6929 235.537 29.6929 235.962 29.6575C236.386 29.6222 236.845 29.5869 237.305 29.5162C237.763 29.4456 238.188 29.3749 238.612 29.2689C239.036 29.1629 239.425 29.0569 239.742 28.9509C240.272 28.739 240.591 28.527 240.732 28.3503C240.838 28.1737 240.908 27.8557 240.908 27.4671V25.6299C240.908 25.2766 240.838 25.0646 240.696 25.0293C240.555 24.994 240.308 24.994 239.955 25.0293C239.248 25.1 238.576 25.1706 237.905 25.2059C237.233 25.2413 236.669 25.2766 236.245 25.2766C235.396 25.2766 234.796 25.1 234.407 24.7466C234.019 24.3933 233.807 23.8281 233.807 23.0155C233.807 22.7682 233.807 22.5208 233.842 22.2382C233.877 21.9556 233.913 21.6376 233.947 21.2489C234.196 19.9417 234.585 18.9878 235.185 18.4225C235.75 17.8572 236.598 17.5392 237.658 17.5392C238.152 17.5392 238.648 17.5746 239.142 17.6099C239.636 17.6452 240.202 17.7159 240.873 17.7865C241.085 17.8219 241.262 17.8219 241.403 17.8219C241.543 17.8219 241.685 17.8219 241.756 17.7865C241.826 17.7512 241.932 17.6805 241.968 17.6099C242.039 17.5039 242.109 17.3626 242.145 17.2212L242.745 15.2427C242.958 14.8894 242.992 14.6421 242.886 14.4655Z" fill="black"/>
</g>
<defs>
<clipPath id="clip0_4_4079">
<rect width="243" height="37" fill="white"/>
</clipPath>
</defs>
</svg>
