<svg width="38" height="19" viewBox="0 0 38 19" fill="none" xmlns="http://www.w3.org/2000/svg">
<g clip-path="url(#clip0_418_595)">
<mask id="mask0_418_595" style="mask-type:luminance" maskUnits="userSpaceOnUse" x="-160" y="-43" width="361" height="360">
<path d="M-159.686 316.975H200.124V-42.8346H-159.686V316.975Z" fill="white"/>
</mask>
<g mask="url(#mask0_418_595)">
<path d="M19.7181 16.0673C18.9837 16.0183 18.1369 15.8896 17.469 15.6961C17.3438 15.6599 16.8258 15.4695 16.6941 15.409C14.3688 14.3319 12.7489 11.9806 12.7489 9.25279C12.7489 5.5113 15.7928 2.46371 19.5367 2.46371C23.2474 2.46371 26.2708 5.45932 26.3228 9.1585H28.775C28.723 4.10779 24.6001 0.0145149 19.5367 0.0145149C14.4431 0.0145149 10.2973 4.15796 10.2973 9.25279C10.2973 12.7652 12.2726 15.82 15.1648 17.3807C15.6871 17.6569 16.4366 17.9416 16.691 18.0196C17.5155 18.265 18.5273 18.4282 19.4279 18.4965C19.7338 18.5195 20.8018 18.5316 21.1131 18.5328H38V16.0902H21.1415C20.9173 16.0902 19.9375 16.0818 19.7181 16.0673ZM21.1415 12.2321C20.9632 12.2321 20.0306 12.226 19.8583 12.2115C19.5664 12.1867 19.1433 12.1432 18.8713 12.081C18.5642 11.9988 18.2759 11.89 18.1459 11.8186C17.235 11.326 16.6143 10.3625 16.6143 9.25279C16.6143 7.63833 17.9217 6.32911 19.5367 6.32911C21.118 6.32911 22.4036 7.58695 22.455 9.1585H24.8111C24.7615 6.2874 22.4211 3.9736 19.5367 3.9736C16.6203 3.9736 14.2563 6.33697 14.2563 9.25279C14.2563 11.3091 15.435 13.0849 17.1516 13.9547C17.4158 14.1095 17.9126 14.2715 18.0541 14.3083C18.5388 14.4359 19.1898 14.5229 19.7181 14.5616C19.9133 14.5779 20.8695 14.5852 21.0714 14.5864V14.59H37.9994V12.2321H21.1415ZM8.78616 18.5237H6.31762V2.46915H2.71031V7.62939e-06H8.78616V18.5237ZM0 3.70282V6.07706H2.71031V18.5237H5.08214V3.70282H0Z" fill="#D91920"/>
<path d="M33.6383 0.172414C32.7491 0.172414 32.0117 0.881423 32.0117 1.77116C32.0117 2.6609 32.7491 3.39832 33.6383 3.39832C34.5546 3.39832 35.2636 2.6609 35.2636 1.77116C35.2636 0.881423 34.5546 0.172414 33.6383 0.172414ZM33.6383 3.13599C32.9039 3.13599 32.271 2.55875 32.271 1.77116C32.271 1.02347 32.9039 0.431719 33.6383 0.431719C34.3721 0.431719 35.0019 1.02347 35.0019 1.77116C35.0019 2.55875 34.3721 3.13599 33.6383 3.13599Z" fill="#D91920"/>
<path d="M34.2574 2.20928C34.2574 2.02976 34.2308 1.86293 34.0253 1.79705C34.2828 1.70759 34.3082 1.53895 34.3082 1.4368C34.3082 1.02397 33.9335 0.971383 33.7793 0.971383H33.0703V2.57013H33.3659V1.91431H33.5986C33.9335 1.91431 33.9613 2.06844 33.9613 2.20928C33.9613 2.48188 33.9613 2.53326 34.0253 2.57013H34.3215C34.2574 2.50545 34.2828 2.45529 34.2574 2.20928ZM33.7146 1.681H33.3659V1.1775H33.6645C33.8712 1.1775 34.0114 1.24278 34.0114 1.4368C34.0114 1.53895 33.9613 1.681 33.7146 1.681Z" fill="#D91920"/>
</g>
</g>
<defs>
<clipPath id="clip0_418_595">
<rect width="38" height="18.5328" fill="white"/>
</clipPath>
</defs>
</svg>
