<svg width="38" height="9" viewBox="0 0 38 9" fill="none" xmlns="http://www.w3.org/2000/svg">
<g clip-path="url(#clip0_418_679)">
<path d="M9.48242 6.58364V0.733459H12.9401V1.46691H10.1984V3.26563H12.6607V3.99908H10.1984V5.83272H13.1322V6.56618H9.48242V6.58364Z" fill="#E43225"/>
<path d="M16.7644 6.58364L15.5769 5.02941L14.3894 6.58364H13.5512L15.1753 4.50551L13.4639 2.35754H14.4069L15.5769 3.96415L16.7644 2.35754H17.69L16.0659 4.50551L17.6027 6.58364H16.7644Z" fill="#E43225"/>
<path d="M18.7555 5.95497V8.8364H18.0396V4.52298C18.0396 3.42279 18.8778 2.25276 20.1875 2.25276C21.5147 2.25276 22.5101 3.09099 22.5101 4.47059C22.5101 5.81526 21.4973 6.74081 20.3447 6.74081C19.7859 6.74081 19.035 6.49633 18.7555 5.95497ZM21.7592 4.47059C21.7592 3.52757 21.148 2.96875 20.0653 3.02114C19.5414 3.0386 18.7381 3.42279 18.8079 4.76746C18.8254 5.20404 19.2794 6.02482 20.2748 6.02482C21.1305 6.02482 21.7592 5.53585 21.7592 4.47059Z" fill="#E43225"/>
<path d="M23.1211 6.58364V2.35754H23.8371V2.81158C24.1864 2.40993 24.7277 2.27023 25.304 2.27023V3.03861C25.2167 3.02114 24.361 2.91636 23.8371 4.03401V6.60111H23.1211V6.58364Z" fill="#E43225"/>
<path d="M25.4961 4.47059C25.4961 3.24816 26.3693 2.25276 27.5742 2.25276C29.0761 2.25276 29.6349 3.24816 29.6349 4.52298V4.87224H26.2819C26.3343 5.67555 27.0503 6.09467 27.7139 6.07721C28.2029 6.05974 28.5347 5.92004 28.884 5.57077L29.3555 6.05974C28.9189 6.47886 28.3601 6.75827 27.679 6.75827C26.4042 6.74081 25.4961 5.79779 25.4961 4.47059ZM27.5218 2.96875C26.8408 2.96875 26.3169 3.5625 26.2819 4.20864H28.884C28.884 3.57996 28.4299 2.96875 27.5218 2.96875Z" fill="#E43225"/>
<path d="M30.002 5.98989L30.5259 5.51839C30.5084 5.51839 30.7878 5.79779 30.8227 5.81526C30.945 5.92004 31.0672 5.98989 31.2244 6.02482C31.6784 6.14706 32.4992 6.11213 32.5691 5.48346C32.604 5.13419 32.342 4.9421 32.0452 4.81985C31.661 4.68015 31.2418 4.62776 30.8577 4.45313C30.4211 4.26103 30.1417 3.92923 30.1417 3.44026C30.1417 2.16544 31.9578 1.95588 32.7786 2.54963C32.8135 2.58456 33.2152 2.95129 33.1977 2.95129L32.6738 3.37041C32.4119 3.05607 32.1674 2.8989 31.6086 2.8989C31.3292 2.8989 30.945 3.02114 30.8751 3.31802C30.7703 3.73714 31.2418 3.8943 31.5562 3.98162C31.9753 4.0864 32.4293 4.15625 32.7961 4.38327C33.3025 4.69761 33.4247 5.37868 33.2327 5.90257C33.0231 6.47886 32.3944 6.70588 31.8356 6.72335C31.172 6.75827 30.5957 6.54871 30.1242 6.07721C30.0893 6.07721 30.002 5.98989 30.002 5.98989Z" fill="#E43225"/>
<path d="M33.6865 5.98989L34.2104 5.51839C34.193 5.51839 34.4724 5.79779 34.5073 5.81526C34.6295 5.92004 34.7518 5.98989 34.9089 6.02482C35.363 6.14706 36.1838 6.11213 36.2536 5.48346C36.2885 5.13419 36.0266 4.9421 35.7297 4.81985C35.3455 4.68015 34.9264 4.62776 34.5422 4.45313C34.1056 4.26103 33.8262 3.92923 33.8262 3.44026C33.8262 2.16544 35.6424 1.95588 36.4632 2.54963C36.4981 2.58456 36.8998 2.95129 36.8823 2.95129L36.3584 3.37041C36.0964 3.05607 35.852 2.8989 35.2931 2.8989C35.0137 2.8989 34.6295 3.02114 34.5597 3.31802C34.4549 3.73714 34.9264 3.8943 35.2408 3.98162C35.6599 4.0864 36.1139 4.15625 36.4806 4.38327C36.9871 4.69761 37.1093 5.37868 36.9172 5.90257C36.7077 6.47886 36.079 6.70588 35.5202 6.72335C34.8566 6.75827 34.2803 6.54871 33.8088 6.07721C33.7738 6.07721 33.6865 5.98989 33.6865 5.98989Z" fill="#E43225"/>
<path d="M37.0917 2.35754V1.90349H36.9346V1.81618H37.3537V1.90349H37.1965V2.35754H37.0917Z" fill="#E43225"/>
<path d="M37.8775 2.35754V1.93842L37.7203 2.35754H37.6854L37.5282 1.93842V2.35754H37.4409V1.81618H37.5806L37.7203 2.18291L37.86 1.81618H37.9997V2.35754H37.8775Z" fill="#E43225"/>
<path d="M4.62776 6.58364L4.10386 5.18658H1.27482L0.75092 6.58364H0L2.27022 0.733459H3.09099L5.34375 6.58364H4.62776ZM2.65441 1.5717L1.58916 4.47059H3.80699L2.65441 1.5717Z" fill="#F7971D"/>
<path d="M5.81543 6.58364V0.733459H6.54888V6.58364H5.81543Z" fill="#F7971D"/>
<path d="M7.64893 6.58364V2.44485H8.38238V6.58364H7.64893Z" fill="#F7971D"/>
<path d="M9.08097 1.10018C9.08097 1.08272 9.08097 1.08272 9.08097 1.06526C9.08097 1.04779 9.08097 1.04779 9.08097 1.03033C8.52214 1.01287 8.0681 0.558824 8.05064 0C8.03317 0 8.01571 0 7.99825 0C7.98078 0 7.96332 0 7.94586 0C7.92839 0.558824 7.47435 1.01287 6.91553 1.03033C6.91553 1.04779 6.91553 1.04779 6.91553 1.06526C6.91553 1.08272 6.91553 1.08272 6.91553 1.10018C7.47435 1.11764 7.92839 1.57169 7.94586 2.13051C7.96332 2.13051 7.98078 2.13051 7.99825 2.13051C8.01571 2.13051 8.03317 2.13051 8.05064 2.13051C8.0681 1.57169 8.52214 1.11764 9.08097 1.10018Z" fill="#F7971D"/>
</g>
<defs>
<clipPath id="clip0_418_679">
<rect width="38" height="8.8364" fill="white"/>
</clipPath>
</defs>
</svg>
