<svg width="38" height="8" viewBox="0 0 38 8" fill="none" xmlns="http://www.w3.org/2000/svg">
<g clip-path="url(#clip0_418_932)">
<path d="M6.0222 4.87168C6.13617 4.87168 6.1932 5.01758 6.1932 5.30932C6.18065 5.51676 6.114 5.71738 6.00003 5.89123C5.86115 6.12343 5.68647 6.3322 5.48236 6.50953C5.26997 6.69686 5.03159 6.85222 4.77466 6.97099C4.5376 7.08624 4.27818 7.14798 4.01474 7.15181C3.67911 7.15181 3.45431 6.85688 3.34034 6.26697C3.17615 6.53566 2.95311 6.76336 2.68805 6.93289C2.36483 7.12233 1.99345 7.21335 1.61942 7.19457C1.42046 7.2032 1.22185 7.17025 1.03628 7.09791C0.850663 7.02553 0.682111 6.91543 0.541268 6.77434C0.409251 6.64213 0.305728 6.48393 0.23712 6.30993C0.168513 6.13594 0.136245 5.94978 0.142326 5.76279C0.142326 4.68455 0.500123 3.83468 1.21572 3.21304C1.46234 2.98711 1.75129 2.81248 2.06588 2.69935C2.33501 2.61583 2.61528 2.57425 2.89706 2.57557C3.14403 2.56763 3.38908 2.62216 3.60947 2.73412C3.69813 2.55031 3.7994 2.45831 3.91342 2.45831C4.03288 2.46229 4.15043 2.48995 4.25911 2.53967C4.36783 2.58955 4.46556 2.66041 4.54668 2.74844C4.71297 2.88119 4.81998 3.07446 4.84435 3.28606C4.73033 3.54441 4.60023 3.7954 4.45487 4.03761C4.39637 4.444 4.37097 4.85437 4.37886 5.26493C4.37886 5.79339 4.44536 6.05772 4.57836 6.05772C4.74298 6.05772 5.14198 5.72787 5.77523 5.06828C5.8892 4.9372 5.97154 4.87168 6.0222 4.87168ZM1.5387 5.44874C1.5387 5.93713 1.71916 6.18135 2.0801 6.18135C2.46639 6.17502 2.78618 5.96891 3.03952 5.563C3.13692 5.40333 3.21048 5.23017 3.258 5.04916C3.24755 4.43483 3.31135 3.82153 3.44798 3.22251C2.93517 3.32397 2.46688 3.58349 2.10864 3.96458C1.91964 4.16153 1.77188 4.39428 1.674 4.64909C1.57611 4.90395 1.53011 5.17593 1.5387 5.44874Z" fill="#7A8CA7"/>
<path d="M10.2109 4.23756C10.2109 4.02615 10.0907 3.92052 9.85001 3.92052C9.68534 3.92052 9.50168 4.07901 9.29905 4.39611C9.09744 4.71364 8.94983 5.06246 8.8621 5.42845V5.44743C8.86362 5.67297 8.89721 5.89723 8.96185 6.11345C9.01378 6.26733 9.04727 6.4272 9.06154 6.58904C9.06154 6.80045 8.79241 7.01191 8.25415 7.22332C8.18475 7.25226 8.11075 7.26839 8.03567 7.27089C7.96118 7.2729 7.88816 7.24946 7.82862 7.20454C7.76909 7.15962 7.72657 7.09592 7.70794 7.02353C7.64016 6.80663 7.60966 6.57991 7.61775 6.35281C7.61775 6.07053 7.62565 5.80621 7.64144 5.56003C7.65728 5.31365 7.67312 5.08228 7.68896 4.86552C7.7048 4.65411 7.72064 4.46697 7.73648 4.30411C7.75227 4.14144 7.76021 4.00982 7.76021 3.90938C7.76021 3.69792 7.66208 3.59229 7.46573 3.59229C7.26942 3.59229 7.04143 3.82219 6.78181 4.28199C6.52219 4.74174 6.39234 5.10655 6.39234 5.37603C6.39003 5.62854 6.42357 5.87992 6.49208 6.12296C6.54407 6.277 6.57756 6.43667 6.59183 6.59855C6.59183 6.80996 6.3227 7.02138 5.78443 7.23279C5.71504 7.26177 5.64104 7.27791 5.56596 7.28041C5.49147 7.28222 5.41864 7.25858 5.35915 7.21366C5.29972 7.16894 5.2571 7.10524 5.23822 7.03305C5.16726 6.78584 5.13676 6.52882 5.14799 6.27199C5.13279 5.62005 5.16775 4.96816 5.25249 4.32157C5.35008 3.72489 5.57003 3.15465 5.8984 2.64714C5.93288 2.57524 5.98491 2.51306 6.04964 2.46662C6.11437 2.42008 6.18975 2.39046 6.26885 2.3808C6.47997 2.3808 6.67309 2.55215 6.84831 2.8945C6.89416 2.97316 6.93236 3.05599 6.96228 3.14186C7.08385 2.96899 7.24441 2.82726 7.43091 2.72815C7.61736 2.62884 7.82455 2.5751 8.03567 2.57113C8.30426 2.56975 8.56413 2.66607 8.76711 2.84227C8.86823 2.92392 8.94939 3.02754 9.00427 3.14548C9.05914 3.26342 9.08636 3.39235 9.08371 3.52246V3.62706C9.24628 3.40368 9.45916 3.22169 9.70505 3.0961C9.95099 2.97051 10.223 2.90465 10.4991 2.90411C10.6401 2.89401 10.7817 2.91245 10.9155 2.9582C11.0493 3.00395 11.1726 3.07614 11.278 3.17045C11.3647 3.25597 11.433 3.35827 11.4788 3.47121C11.5245 3.584 11.5467 3.70508 11.544 3.82685C11.546 4.06273 11.5269 4.29847 11.487 4.53102C11.449 4.74243 11.4063 4.93888 11.3587 5.12073C11.3112 5.30252 11.2685 5.46587 11.2305 5.61078C11.1981 5.71906 11.179 5.83083 11.1735 5.94377C11.1735 6.02297 11.1989 6.06274 11.2495 6.06274C11.3837 6.0441 11.5077 5.9804 11.6009 5.88193C11.7403 5.76129 11.8796 5.62971 12.0189 5.48701L12.4036 5.09223C12.5251 4.9685 12.6069 4.90676 12.649 4.90676C12.7376 4.90676 12.782 5.01239 12.782 5.22386C12.782 5.66782 12.5588 6.09917 12.1123 6.51768C11.7382 6.90726 11.2269 7.13485 10.6875 7.15197C10.2315 7.15197 10.0036 6.7366 10.0036 5.90571C10.0129 5.61461 10.0478 5.32483 10.1081 5.03986C10.1645 4.77588 10.1989 4.50738 10.2109 4.23756Z" fill="#7A8CA7"/>
<path d="M15.4354 6.31465C15.2221 6.58927 14.9493 6.81182 14.6374 6.96507C14.3255 7.11842 13.9828 7.1986 13.6353 7.19943C12.9356 7.19943 12.4115 7.02029 12.0633 6.6618C11.8914 6.4858 11.7571 6.27635 11.669 6.04664C11.5807 5.81674 11.5404 5.57125 11.5503 5.32521C11.5302 4.60776 11.7851 3.90991 12.2627 3.37493C12.4975 3.10664 12.7889 2.89404 13.1158 2.75266C13.4429 2.61108 13.7972 2.54419 14.153 2.5567C14.4439 2.54606 14.734 2.59127 15.008 2.68994C15.3816 2.84211 15.5684 2.98487 15.5684 3.11791C15.5684 3.22374 15.3071 3.27666 14.7847 3.27666C14.5407 3.27214 14.2985 3.3179 14.073 3.41122C13.8475 3.50455 13.6436 3.64328 13.4737 3.81895C13.2993 3.9976 13.1625 4.20984 13.0721 4.44274C12.9814 4.67577 12.9388 4.92465 12.9466 5.17446C12.9385 5.43698 13.0283 5.69316 13.1983 5.89276C13.2886 5.99177 13.4001 6.06896 13.5242 6.11883C13.6483 6.1689 13.782 6.19018 13.9156 6.18141C14.1833 6.19121 14.4482 6.1253 14.6803 5.99108C14.4627 5.84852 14.2861 5.65158 14.1678 5.41967C14.0495 5.18761 13.9936 4.92897 14.0057 4.66881C14.0014 4.35888 14.1192 4.05978 14.3335 3.83621C14.4414 3.7138 14.5747 3.61646 14.7239 3.55079C14.8731 3.48508 15.0349 3.45261 15.198 3.4558C15.5493 3.4558 15.8011 3.55246 15.953 3.74592C16.1122 3.96499 16.1925 4.23162 16.1811 4.50227C16.1747 4.83878 16.1004 5.17049 15.9626 5.47739H16.0196C16.2864 5.47523 16.5425 5.37229 16.7367 5.18878C16.8127 5.11277 16.8777 5.04608 16.9315 4.98899C16.9508 4.96486 16.9747 4.94491 17.002 4.93015C17.0291 4.91548 17.059 4.90631 17.0898 4.90332C17.1785 4.90332 17.2227 5.00915 17.2227 5.22056C17.2349 5.3821 17.2103 5.54427 17.1512 5.69498C17.092 5.84568 16.9995 5.98113 16.8809 6.09107C16.6731 6.27203 16.4071 6.37168 16.132 6.37168C15.8984 6.37516 15.6652 6.35604 15.4354 6.31465ZM15.3498 5.20477C15.4515 4.99718 15.5055 4.76979 15.5082 4.53871C15.5082 4.3273 15.4385 4.22166 15.2993 4.22166C15.2422 4.22166 15.1948 4.26291 15.1567 4.34524C15.1208 4.41944 15.1013 4.5006 15.0998 4.58314C15.0963 4.69941 15.1168 4.815 15.1598 4.92313C15.2028 5.03112 15.2675 5.12905 15.3498 5.2111V5.20477Z" fill="#7A8CA7"/>
<path d="M36.9523 7.19783C37.4769 7.19783 37.9023 6.77181 37.9023 6.2465C37.9023 5.72098 37.4769 5.29517 36.9523 5.29517C36.4276 5.29517 36.0024 5.72098 36.0024 6.2465C36.0024 6.77181 36.4276 7.19783 36.9523 7.19783Z" fill="#0079F6"/>
<path d="M27.1543 5.04599C27.2598 5.04599 27.3125 5.19188 27.3125 5.48362C27.2971 5.68959 27.2284 5.88801 27.1131 6.05921C26.9743 6.29161 26.7995 6.50018 26.5954 6.67766C26.3832 6.86514 26.1448 7.02055 25.8877 7.13913C25.6599 7.25143 25.4103 7.31312 25.1563 7.31979C24.9635 7.33058 24.772 7.28418 24.6054 7.18669C24.4697 7.09636 24.3603 6.9716 24.2886 6.82507C24.1832 6.61366 24.0945 6.20309 24.0228 5.59308C23.9834 5.16575 23.9137 4.74189 23.8137 4.32451C23.6559 4.29607 23.5075 4.22903 23.3815 4.12958C23.323 4.08799 23.2751 4.03277 23.2423 3.96872C23.2096 3.90468 23.1927 3.83362 23.1932 3.76163C23.1881 3.69508 23.2042 3.62839 23.2392 3.5715C23.2741 3.51461 23.3262 3.47018 23.3879 3.44453C23.5274 3.37902 23.6802 3.3466 23.8343 3.3494C23.9934 3.34709 24.1499 3.39 24.2855 3.47317C24.4596 3.33346 24.6062 3.16246 24.7178 2.9688C24.8371 2.71678 24.8916 2.43882 24.876 2.16017C24.8825 2.0078 24.8553 1.85578 24.7962 1.71503C24.737 1.57448 24.6475 1.44874 24.5342 1.34674C24.3156 1.14283 23.9843 1.04068 23.5399 1.04068C23.1994 1.02935 22.8591 1.06461 22.5282 1.14528C22.3212 1.20467 22.1195 1.28103 21.925 1.37371C21.7572 1.4562 21.6084 1.53221 21.4785 1.60209C21.3673 1.66683 21.2415 1.70272 21.1129 1.70674C20.999 1.70674 20.9419 1.67031 20.9419 1.59729C20.9697 1.46453 21.0319 1.34144 21.1224 1.24047C21.2723 1.04916 21.4518 0.883163 21.6544 0.748891C22.2374 0.337198 22.9358 0.121276 23.6492 0.132261C24.2866 0.110438 24.9188 0.256332 25.4824 0.555624C25.7482 0.698675 25.9683 0.913568 26.1178 1.17608C26.2672 1.43859 26.34 1.73784 26.3279 2.03978C26.3515 2.52964 26.2 3.01205 25.9004 3.40015C25.6183 3.7553 25.2435 4.02527 24.8175 4.18033C24.9153 4.39787 24.9933 4.62395 25.0502 4.85586C25.1104 5.0967 25.169 5.3188 25.226 5.52173C25.2718 5.69656 25.3371 5.86575 25.4206 6.02591C25.4421 6.08064 25.4784 6.1284 25.5254 6.16366C25.5724 6.19892 25.6282 6.2204 25.6866 6.2257C25.8304 6.2081 25.9643 6.14287 26.0665 6.04023C26.2154 5.91665 26.3627 5.78174 26.5084 5.63584C26.654 5.48995 26.7839 5.35524 26.8978 5.23161C27.0181 5.10788 27.1036 5.04599 27.1543 5.04599ZM23.0222 1.62107C23.1046 1.62107 23.1457 1.72685 23.1457 1.93826C23.1463 2.14173 23.1337 2.34515 23.1078 2.5471C23.0552 2.89362 22.9822 3.2366 22.8892 3.57464C22.6613 4.43715 22.5472 4.94134 22.5472 5.08723V6.48571C22.5608 6.62876 22.5308 6.7725 22.4613 6.89824C22.3918 7.02383 22.286 7.12549 22.1577 7.18988L21.8111 7.34838C21.693 7.40061 21.5649 7.4266 21.4358 7.42439C21.1698 7.42439 21.0369 7.11848 21.0369 6.50636C21.068 5.71769 21.2119 4.93751 21.4644 4.1898C21.6694 3.44404 21.9694 2.72776 22.3572 2.0587C22.4349 1.94792 22.5275 1.84862 22.6327 1.76378C22.7411 1.6708 22.8795 1.62024 23.0222 1.62107Z" fill="#0079F6"/>
<path d="M35.3329 5.04622C35.4384 5.04622 35.4913 5.19211 35.4913 5.48385C35.4748 5.69016 35.405 5.88843 35.2885 6.05944C35.1498 6.29184 34.9751 6.50041 34.7708 6.67793C34.5586 6.86522 34.3202 7.02058 34.0632 7.1392C33.806 7.2593 33.5254 7.321 33.2416 7.32002C33.1154 7.32683 32.9893 7.3052 32.8725 7.25646C32.7557 7.20806 32.6514 7.13371 32.5671 7.03941C32.4099 6.86571 32.3235 6.63948 32.3249 6.40512C32.3297 6.13977 32.368 5.87598 32.439 5.62028C32.5191 5.33266 32.6035 5.03042 32.6922 4.71318C32.9329 3.86749 33.0563 3.27464 33.0626 2.93411C33.0684 2.81881 33.049 2.70356 33.0057 2.59641C32.9856 2.55664 32.954 2.52408 32.9149 2.50275C32.876 2.48146 32.8314 2.47264 32.7872 2.47749C32.5972 2.47749 32.3946 2.59161 32.1793 2.81999C31.9391 3.08363 31.7347 3.37792 31.5713 3.69531C31.1583 4.42326 30.9209 5.23767 30.878 6.07376L30.9159 6.34004C30.9289 6.43469 30.9354 6.53003 30.9349 6.62551C30.9302 6.73482 30.901 6.84177 30.849 6.93824C30.7973 7.03455 30.7243 7.11792 30.6356 7.18211C30.4505 7.34478 30.2124 7.43428 29.9661 7.43413C29.898 7.43413 29.8315 7.41368 29.7751 7.37558C29.7187 7.33747 29.675 7.28323 29.6494 7.22022C29.5748 7.05436 29.5392 6.8739 29.5449 6.69206C29.5575 6.40193 29.6054 6.11451 29.6874 5.83586C29.7824 5.47439 29.8879 5.09065 30.004 4.68474C30.3079 3.61282 30.4631 2.81366 30.4695 2.28717C30.4793 2.07124 30.4453 1.85551 30.3696 1.65288C30.3378 1.57902 30.2837 1.51719 30.2144 1.47609C30.1454 1.43514 30.065 1.417 29.985 1.4247C29.643 1.4247 29.3042 1.66887 28.9686 2.15726C28.633 2.64565 28.3322 3.40352 28.0662 4.43106C27.9965 4.69739 27.9438 4.92896 27.9078 5.12556L27.8984 5.30623C27.988 5.68148 28.0483 6.06326 28.0789 6.44783C28.0789 6.81583 27.9491 7.06319 27.6894 7.18991L27.3426 7.34861C27.2308 7.39951 27.1094 7.4255 26.9865 7.42467C26.6699 7.42467 26.5115 7.12189 26.5115 6.51605C26.5115 5.9104 26.6751 4.72799 27.0023 2.96902C27.1227 2.33473 27.1827 1.97958 27.1827 1.90357C27.1827 1.38973 27.053 1.13291 26.7933 1.13291C26.7067 1.13222 26.622 1.15885 26.5512 1.20892C26.4783 1.25968 26.4054 1.31254 26.3325 1.36761C26.2599 1.42249 26.1843 1.48075 26.1063 1.54195C26.0288 1.5932 25.9378 1.61963 25.845 1.61811C25.7468 1.61811 25.6978 1.53249 25.6978 1.36129C25.6981 1.18881 25.743 1.01943 25.8279 0.869415C25.9127 0.719352 26.0348 0.593956 26.1822 0.504948C26.5114 0.267887 26.9089 0.145481 27.3142 0.156123C27.8841 0.156123 28.2197 0.42045 28.3211 0.948908C28.3464 1.10745 28.3655 1.27561 28.3781 1.45314C28.8467 0.575809 29.4387 0.137146 30.1544 0.137146C30.9385 0.137146 31.3835 0.511272 31.489 1.25967C31.5281 1.48904 31.544 1.72178 31.5366 1.95433V2.03034C31.9481 1.45961 32.4357 1.17415 32.9994 1.17415C33.7972 1.17415 34.1963 1.65622 34.1963 2.6202C34.1865 3.11595 34.1211 3.609 34.0015 4.09003C33.8717 4.65149 33.7767 5.05421 33.7165 5.29838C33.6651 5.48307 33.6349 5.67285 33.6262 5.86445C33.6262 6.10534 33.7102 6.22593 33.8781 6.22593C34.0457 6.22593 34.4463 5.89608 35.0796 5.23649C35.1979 5.10958 35.2824 5.04622 35.3329 5.04622Z" fill="#0079F6"/>
<path d="M21.8029 3.78249C21.9613 3.78249 22.0436 3.94103 22.0436 4.24062C22.0354 4.57993 21.9634 4.91448 21.8313 5.22687C21.6793 5.59864 21.465 5.94183 21.1982 6.24176C20.8958 6.58479 20.5317 6.86771 20.1248 7.07583C19.6474 7.31603 19.1184 7.43466 18.5844 7.42152C18.0103 7.42833 17.4551 7.21638 17.0312 6.82847C16.5869 6.43208 16.3647 5.86066 16.3647 5.11442C16.3569 4.42491 16.4638 3.73889 16.6814 3.08484C16.8685 2.51892 17.1478 1.98811 17.5078 1.51335C17.8238 1.09499 18.2206 0.744495 18.6745 0.48267C19.0518 0.25326 19.4823 0.126344 19.9237 0.114868C20.6087 0.114868 20.9512 0.420438 20.9512 1.03143C20.9653 1.32454 20.8985 1.61579 20.7581 1.8733C20.6293 2.08476 20.4984 2.1904 20.3653 2.1904C20.2771 2.1904 20.1898 2.17157 20.1093 2.13533C20.0288 2.09889 19.9569 2.04583 19.8984 1.97962C19.8432 1.91543 19.7754 1.863 19.6996 1.82539C19.6237 1.78783 19.5411 1.76586 19.4567 1.76071C19.2984 1.76071 18.8614 1.74325 18.4926 2.33791C18.3477 2.5349 18.2404 2.75696 18.1759 2.99284C17.9596 3.54842 17.8521 4.14063 17.8593 4.73701C17.9168 5.16665 18.1401 5.55657 18.4814 5.82305C18.6841 5.96394 18.9291 6.03015 19.1748 6.01019C19.6113 5.96178 20.0133 5.74988 20.3004 5.41719C20.5159 5.18563 20.7058 4.96686 20.9099 4.73068C21.1142 4.49445 21.2947 4.2772 21.4499 4.07741C21.6049 3.87762 21.7222 3.78249 21.8029 3.78249Z" fill="#0079F6"/>
</g>
<defs>
<clipPath id="clip0_418_932">
<rect width="38" height="7.54086" fill="white"/>
</clipPath>
</defs>
</svg>
