<svg width="38" height="38" viewBox="0 0 38 38" fill="none" xmlns="http://www.w3.org/2000/svg">
<g clip-path="url(#clip0_418_756)">
<path d="M15.3328 37.7809C12.0091 37.0937 8.90761 35.5607 6.47283 33.4015C0.222168 27.8585 -1.70963 19.1506 1.59246 11.4026C2.40337 9.49988 3.72169 7.5689 5.35512 5.89132L6.79518 4.41233L6.89675 13.0688C6.99397 21.3545 7.01588 21.7719 7.40842 22.816C8.19371 24.9049 9.03561 26.2348 10.4849 27.676C14.2288 31.3988 19.7203 32.3279 24.3885 30.0284C28.7763 27.8669 31.5426 23.1671 31.2211 18.4198C31.0052 15.231 29.9312 12.8927 27.6124 10.5629C25.859 8.80123 23.7961 7.65051 21.5502 7.1813C19.2651 6.70392 19.3748 6.63416 19.3748 8.56538V10.2326L20.6275 10.4631C25.479 11.3557 28.6877 16.1125 27.6764 20.9132C27.3534 22.4464 26.633 23.8003 25.4766 25.0475C23.7192 26.9429 21.2466 27.8489 19.0877 27.8447C15.5178 27.8378 12.5369 25.8123 11.0921 22.817C11.0921 22.817 10.7137 21.9608 10.592 21.4318C9.87677 18.3204 10.334 11.7708 10.334 11.7708L10.2786 2.19416L10.8448 1.90181C11.1562 1.74102 11.4549 1.60946 11.5085 1.60946C11.5621 1.60946 11.6302 6.008 11.6597 11.384C11.6597 11.384 10.9722 18.4312 11.8218 21.1318C11.9444 21.5215 12.1772 22.1879 12.1772 22.1879C12.922 23.7031 14.1158 25.0359 15.6669 25.7695C16.8443 26.3264 17.4371 26.5784 19.1791 26.5784C20.3172 26.5784 21.3254 26.2197 22.4856 25.6869C23.8532 25.0589 25.4221 23.3937 26.0018 21.8734C27.5991 17.6846 25.375 13.1781 21.0902 11.9214C19.3391 11.4079 19.3748 11.3796 19.3748 13.2809V14.9416L20.2154 15.1661C23.2453 15.9752 24.1698 20.0303 21.7912 22.1139C20.9509 22.8501 20.1936 23.1755 18.8689 23.1755C17.4535 23.1755 16.0948 22.32 15.3963 21.008C14.9767 20.2198 14.9413 19.4722 14.9413 19.1299C14.9413 15.9671 14.8727 10.279 14.8727 10.279L14.816 0.521828L15.251 0.413948C15.4903 0.354614 16.4573 0.207797 17.3999 0.087688C20.5968 -0.319653 25.3264 0.724972 28.5038 2.5402C32.8357 5.01498 36.1135 9.2663 37.4782 14.1801C37.9477 15.8704 38 16.3619 38 19.0809C38 21.7878 37.9465 22.2955 37.487 23.9488C35.6308 30.6273 30.9091 35.4015 24.1577 37.4263C22.7368 37.8524 22.0712 37.9337 19.5639 37.9871C17.5406 38.0302 16.2292 37.9663 15.3328 37.7809Z" fill="#C60C30"/>
</g>
<defs>
<clipPath id="clip0_418_756">
<rect width="38" height="38" fill="white"/>
</clipPath>
</defs>
</svg>
