<svg width="38" height="7" viewBox="0 0 38 7" fill="none" xmlns="http://www.w3.org/2000/svg">
<g clip-path="url(#clip0_418_902)">
<path d="M25.8203 4.92449H29.2501V4.16837H26.9895C27.3013 2.92755 29.2111 2.65612 29.2111 1.27959C29.2111 0.542857 28.7044 0 27.6326 0C26.9701 0 26.3854 0.193878 25.9957 0.387755L26.2295 1.08571C26.5803 0.911224 26.9895 0.756122 27.4962 0.756122C27.886 0.756122 28.2562 0.930612 28.2562 1.37653C28.2562 2.38469 26.0152 2.46224 25.8203 4.92449ZM29.3475 3.72245H31.5495V4.92449H32.4265V3.72245H33.167V2.98571H32.4265V0H31.7834L29.3475 3.14082V3.72245ZM30.3413 3.02449L31.5885 1.35714C31.5885 1.49286 31.5495 1.91939 31.5495 2.30714V3.0051H30.9649C30.7895 3.0051 30.4583 3.02449 30.3413 3.02449Z" fill="#005893"/>
<path d="M0.915897 4.18778V2.65614H1.28615C1.61744 2.65614 1.89026 2.69492 2.08513 2.81125C2.28 2.92757 2.39692 3.12145 2.39692 3.43165C2.39692 3.95512 2.08513 4.18778 1.34462 4.18778H0.915897ZM0.0194872 4.92451H1.32513C2.78667 4.92451 3.31282 4.28472 3.31282 3.39288C3.31282 2.79186 3.05949 2.38472 2.61128 2.15206C2.26051 1.95818 1.81231 1.90002 1.26667 1.90002H0.915897V0.736756H2.8841L3.11795 0.0194092H0V4.92451H0.0194872ZM3.91692 4.92451H4.77436L5.88513 3.33472C6.09949 3.0439 6.25538 2.75308 6.35282 2.59798H6.37231C6.35282 2.81125 6.33333 3.08267 6.33333 3.3541V4.90512H7.21026V1.41533H6.35282L5.24205 3.00512C5.04718 3.29594 4.8718 3.58676 4.77436 3.74186H4.75487C4.77436 3.52859 4.79385 3.25716 4.79385 2.98574V1.43472H3.91692V4.92451ZM8.71077 4.92451H9.60718V2.15206H10.6595L10.8933 1.41533H7.63898V2.15206H8.71077V4.92451ZM11.2051 6.6888H12.0821V4.92451C12.2574 4.98267 12.4328 5.00206 12.6277 5.00206C13.7385 5.00206 14.4595 4.24594 14.4595 3.16023C14.4595 2.03574 13.7969 1.31839 12.5303 1.31839C12.0431 1.31839 11.5754 1.41533 11.1856 1.53165V6.6888H11.2051ZM12.0821 4.16839V2.11329C12.2185 2.07451 12.3354 2.05512 12.4913 2.05512C13.1344 2.05512 13.5436 2.4041 13.5436 3.16023C13.5436 3.8388 13.2123 4.26533 12.5497 4.26533C12.3744 4.26533 12.238 4.22655 12.0821 4.16839ZM14.9856 4.92451H15.8431L16.9538 3.33472C17.1682 3.0439 17.3241 2.75308 17.4215 2.59798H17.441C17.4215 2.81125 17.4021 3.08267 17.4021 3.3541V4.90512H18.279V1.41533H17.4215L16.3108 3.00512C16.1159 3.29594 15.9405 3.58676 15.8431 3.74186H15.8236C15.8431 3.52859 15.8626 3.25716 15.8626 2.98574V1.43472H14.9856V4.92451ZM18.9805 4.92451H19.8769V3.47043H20.4031C20.5005 3.47043 20.598 3.56737 20.7149 3.80002L21.1631 4.92451H22.118L21.4749 3.58676C21.358 3.3541 21.241 3.21839 21.0656 3.16023V3.14084C21.358 2.96635 21.3969 2.46227 21.5723 2.21023C21.6308 2.13267 21.7087 2.0939 21.8256 2.0939C21.8841 2.0939 21.9621 2.0939 22.0205 2.13267V1.37655C21.9231 1.33778 21.7477 1.31839 21.6503 1.31839C21.3385 1.31839 21.1436 1.43472 21.0072 1.62859C20.7149 2.05512 20.7149 2.79186 20.2862 2.79186H19.8769V1.41533H18.9805V4.92451ZM24.1056 5.00206C24.5928 5.00206 25.041 4.84696 25.3138 4.65308L25.0605 4.05206C24.8072 4.18778 24.5733 4.28472 24.2421 4.28472C23.638 4.28472 23.2482 3.89696 23.2482 3.17961C23.2482 2.53982 23.638 2.03574 24.3005 2.03574C24.6513 2.03574 24.9046 2.13267 25.158 2.30716V1.55104C24.9631 1.43472 24.6513 1.31839 24.2031 1.31839C23.1508 1.31839 22.3323 2.0939 22.3323 3.199C22.3323 4.20716 22.9559 5.00206 24.1056 5.00206Z" fill="#0BBBEF"/>
<path d="M36.0708 3.72244C37.0257 3.72244 37.8051 2.94693 37.8051 1.99693C37.8051 1.04693 37.0257 0.271423 36.0708 0.271423C35.1159 0.271423 34.3364 1.04693 34.3364 1.99693C34.3559 2.94693 35.1159 3.72244 36.0708 3.72244Z" stroke="#005893" stroke-width="1.7688"/>
<path d="M37.1618 1.99694H36.2069V1.04694H35.9536V2.24898H37.1618V1.99694Z" fill="#005893"/>
</g>
<defs>
<clipPath id="clip0_418_902">
<rect width="38" height="6.78571" fill="white"/>
</clipPath>
</defs>
</svg>
