<svg width="38" height="38" viewBox="0 0 38 38" fill="none" xmlns="http://www.w3.org/2000/svg">
<g clip-path="url(#clip0_418_267)">
<path fill-rule="evenodd" clip-rule="evenodd" d="M6.09448 21.7245H4.45312C1.89288 21.7245 3.7529 16.2645 5.90836 16.2645H8.50162C8.91729 16.2645 9.65037 16.3413 10.0115 15.3088L10.5696 13.7048H7.01351C5.08776 13.7048 3.58875 14.3858 2.50557 15.5285C0.634488 17.484 -2.20537e-06 20.5381 0.448533 21.9991C0.875265 23.3505 2.03507 24.2402 3.85133 24.2622L5.26282 24.2732H7.0026L7.42934 22.9879C7.74658 22.076 7.03531 21.7245 6.09448 21.7245ZM26.0736 19.4614L26.6098 17.7146H20.8874C19.9355 17.7146 19.5088 17.9783 19.3447 18.5276L18.8084 20.2744H24.531C25.4829 20.2744 25.9096 20.0107 26.0736 19.4614ZM17.9551 22.5375L17.4189 24.2841H23.1413C24.0823 24.2841 24.5199 24.0206 24.6841 23.4713L25.2203 21.7245H19.4977C18.5569 21.7245 18.1302 21.9882 17.9551 22.5375ZM27.4086 15.4625L27.9447 13.7158H22.2223C21.2704 13.7158 20.8437 13.9793 20.6795 14.5286L20.1433 16.2754H25.8659C26.8069 16.2754 27.2334 16.0118 27.4086 15.4625ZM18.7647 15.8141C18.5241 14.1882 17.6597 13.7158 15.5589 13.7158H11.7294L9.49727 20.2744H10.9088C11.7512 20.2744 12.1779 20.2853 12.6266 19.0769L13.5565 16.2645H14.9789C16.1935 16.2645 15.9199 17.7916 15.3072 19.2746C14.7601 20.582 13.8082 21.7354 12.6593 21.7354H10.285C9.33312 21.7354 8.89549 21.9991 8.72043 22.5484L8.12955 24.2952H9.86918L11.5761 24.2841C13.086 24.2732 14.3225 24.1634 15.7668 22.856C17.2985 21.4609 19.0712 17.8794 18.7647 15.8141ZM38 13.7048H34.6847L31.5663 17.0334C31.2053 17.418 30.8332 17.8025 30.4722 18.2529H30.4394L31.993 13.7048H29.2905L25.6471 24.2841H28.3495L29.5093 20.9555L30.7129 19.9338L31.6649 22.944C31.9602 23.8778 32.2667 24.2841 32.9231 24.2841H34.9911L32.8685 18.3737L38 13.7048Z" fill="#00B33C"/>
</g>
<defs>
<clipPath id="clip0_418_267">
<rect width="38" height="38" fill="white"/>
</clipPath>
</defs>
</svg>
