<svg width="38" height="15" viewBox="0 0 38 15" fill="none" xmlns="http://www.w3.org/2000/svg">
<g clip-path="url(#clip0_418_223)">
<mask id="mask0_418_223" style="mask-type:luminance" maskUnits="userSpaceOnUse" x="0" y="0" width="38" height="15">
<path d="M38 0.950439H0V14.9812H38V0.950439Z" fill="white"/>
</mask>
<g mask="url(#mask0_418_223)">
<path d="M16.4972 12.0315C16.9822 12.0315 17.318 11.8076 17.318 11.3013C17.318 10.7951 16.9822 10.5712 16.4972 10.5712H15.5591V12.0309L16.4972 12.0315ZM15.0688 10.1712H16.5506C17.2117 10.1712 17.8085 10.4858 17.8085 11.3005C17.8085 12.1105 17.2329 12.4091 16.5611 12.4091H15.5591V13.9025H15.0688V10.1712Z" fill="#0B1E46"/>
<path d="M18.9488 13.6305C19.5085 13.6305 19.839 13.2416 19.839 12.7032V12.5327L19.0607 12.6128C18.6128 12.6553 18.3721 12.8365 18.3721 13.1565C18.3729 13.4176 18.5434 13.6305 18.9488 13.6305ZM19.0073 12.3143L19.8388 12.2341V11.9692C19.8388 11.6442 19.636 11.3828 19.1777 11.388C18.7993 11.388 18.501 11.5533 18.4793 11.9317H18.0477C18.0692 11.2982 18.5594 11.047 19.1769 11.047C19.9123 11.047 20.3015 11.4051 20.3015 12.0598V13.9038H19.8765V13.3281C19.706 13.7225 19.338 13.9677 18.8106 13.9677C18.1815 13.9677 17.9097 13.616 17.9097 13.1736C17.9094 12.6553 18.2878 12.3837 19.0073 12.3143Z" fill="#0B1E46"/>
<path d="M23.4478 11.1096H23.8793V11.6387C24.0339 11.26 24.3591 11.047 24.7907 11.047C25.2171 11.047 25.5261 11.2495 25.6275 11.6546C25.782 11.2654 26.1177 11.047 26.5548 11.047C27.0933 11.047 27.4395 11.3828 27.4395 12.0171V13.9038H26.9713V12.1383C26.9713 11.7012 26.7785 11.4293 26.3956 11.4293C25.9585 11.4293 25.6759 11.7758 25.6759 12.3515V13.9026H25.2118V12.1385C25.2118 11.7015 25.0143 11.4296 24.6307 11.4296C24.1936 11.4296 23.9165 11.7761 23.9165 12.3517V13.9029H23.4483L23.4478 11.1096Z" fill="#0B1E46"/>
<path d="M30.0068 12.3299C29.9963 11.7488 29.687 11.3863 29.2129 11.3863C28.7543 11.3863 28.4141 11.7064 28.3706 12.3299H30.0068ZM29.2131 11.0453C30.0118 11.0453 30.471 11.5304 30.471 12.575V12.6389H28.3657C28.4031 13.2892 28.7493 13.625 29.2506 13.625C29.6236 13.625 29.8741 13.4322 29.9916 13.1452L30.4339 13.1727C30.2898 13.6578 29.8797 13.9668 29.2494 13.9668C28.4444 13.9668 27.8955 13.4922 27.8955 12.507C27.8963 11.5251 28.4505 11.0453 29.2131 11.0453Z" fill="#0B1E46"/>
<path d="M30.9629 11.1092H31.3943V11.6477C31.5542 11.2693 31.9006 11.0453 32.3911 11.0453C32.9985 11.0453 33.3452 11.3759 33.3452 12.0581V13.9021H32.8769V12.2071C32.8769 11.7008 32.6796 11.429 32.2321 11.429C31.7089 11.429 31.4332 11.7915 31.4332 12.3511V13.9023H30.9652V11.1092H30.9629Z" fill="#0B1E46"/>
<path d="M34.6919 11.4667V13.0984C34.6919 13.4501 34.7668 13.5622 35.05 13.5622C35.1591 13.5603 35.2675 13.5511 35.3754 13.5346V13.9076C35.24 13.9337 35.1026 13.9463 34.965 13.945C34.4213 13.945 34.224 13.7316 34.224 13.1722V11.4667H33.6367V11.1203H34.0842C34.207 11.1203 34.2549 11.0723 34.2549 10.955V10.4967H34.6919V11.1095H35.3745V11.4676L34.6919 11.4667Z" fill="#0B1E46"/>
<path d="M36.1265 13.0871C36.1636 13.46 36.4407 13.6255 36.8833 13.6255C37.2989 13.6255 37.576 13.4763 37.576 13.1937C37.576 12.986 37.4214 12.8632 37.0376 12.7461L36.4354 12.5701C36.0037 12.4423 35.7851 12.1812 35.7851 11.8025C35.7851 11.2643 36.2276 11.0459 36.8084 11.0459C37.427 11.0459 37.9172 11.2963 37.9704 11.8722L37.5439 11.8997C37.4959 11.548 37.1925 11.388 36.8084 11.388C36.4676 11.3775 36.2437 11.5257 36.2437 11.7879C36.2437 12.0118 36.4033 12.1396 36.6965 12.225L37.3039 12.401C37.7722 12.5343 38.0396 12.7687 38.0396 13.1738C38.0396 13.6908 37.5971 13.9679 36.8722 13.9679C36.1899 13.9679 35.7476 13.7068 35.6997 13.1097L36.1265 13.0871Z" fill="#0B1E46"/>
<path d="M23.0224 11.115L21.983 14.2273C21.7902 14.8349 21.5883 15.0376 21.0449 15.0376C20.9598 15.0376 20.8521 15.0324 20.7358 15.0216V14.6592C20.832 14.6644 20.9331 14.6699 21.0184 14.6699C21.306 14.6699 21.4285 14.5633 21.5566 14.1582L21.6368 13.9078L20.5811 11.115H21.0925L21.8679 13.3184L22.5206 11.115H23.0216H23.0224Z" fill="#0B1E46"/>
<path d="M0.0732422 12.1283C0.0732422 11.0842 0.848843 10.2934 1.90813 10.2934C2.75479 10.2934 3.41362 10.8154 3.62157 11.5706H2.84596C2.67878 11.2056 2.33917 10.9828 1.90318 10.9828C1.24931 10.9828 0.803123 11.4643 0.803123 12.1283C0.803123 12.7924 1.24931 13.2738 1.90318 13.2738C2.33917 13.2738 2.67878 13.051 2.84596 12.6861H3.62157C3.41362 13.441 2.75479 13.9632 1.90813 13.9632C0.848843 13.963 0.0732422 13.1725 0.0732422 12.1283Z" fill="#0B1E46"/>
<path d="M4.7176 10.1712H3.99268V13.9025H4.7176V10.1712Z" fill="#0B1E46"/>
<path d="M5.86179 12.5087C5.86179 12.97 6.17634 13.2741 6.58177 13.2741C6.9872 13.2741 7.30173 12.9711 7.30173 12.5087C7.30173 12.0526 6.9872 11.7433 6.58177 11.7433C6.17634 11.7433 5.86179 12.0518 5.86179 12.5087ZM8.03767 12.5087C8.03767 13.3501 7.39895 13.9635 6.58285 13.9635C5.77173 13.9635 5.1333 13.3452 5.1333 12.5087C5.1333 11.6675 5.78219 11.0539 6.58285 11.0539C7.38737 11.0539 8.0363 11.6662 8.0363 12.5087H8.03767Z" fill="#0B1E46"/>
<path d="M11.0311 11.115V13.9023H10.3062V13.5167C10.1034 13.8004 9.82967 13.9626 9.44464 13.9626C8.83126 13.9626 8.45117 13.542 8.45117 12.8628V11.115H9.17609V12.7067C9.17609 13.0716 9.3138 13.2743 9.6881 13.2743C10.0886 13.2743 10.3064 13.0361 10.3064 12.58V11.115H11.0311Z" fill="#0B1E46"/>
<path d="M13.5823 12.5085C13.5823 12.0524 13.2729 11.7431 12.8678 11.7431C12.4626 11.7431 12.1644 12.0516 12.1644 12.5085C12.1644 12.9699 12.4673 13.2739 12.8689 13.2739C13.2729 13.2739 13.5823 12.9699 13.5823 12.5085ZM14.3072 10.1712V13.9025H13.5823V13.5273C13.3895 13.7909 13.0956 13.9633 12.7053 13.9633C11.9804 13.9633 11.4331 13.3651 11.4331 12.5085C11.4331 11.6467 11.9856 11.0537 12.7001 11.0537C12.8728 11.0503 13.0437 11.0898 13.1975 11.1685C13.3513 11.2472 13.4832 11.3628 13.5815 11.5049V10.1712H14.3072Z" fill="#0B1E46"/>
<path d="M21.6483 7.26481C23.0798 5.83326 23.0798 3.51231 21.6483 2.08078C20.2168 0.64926 17.8958 0.64926 16.4643 2.08079C15.0327 3.51231 15.0327 5.83326 16.4643 7.26481C17.8958 8.69633 20.2168 8.69633 21.6483 7.26481Z" fill="#6496DC"/>
<path d="M18.2686 5.69737L20.6424 3.32346C20.7011 3.26472 20.7708 3.21812 20.8474 3.18633C20.9241 3.15454 21.0063 3.13818 21.0893 3.13818C21.1723 3.13818 21.2545 3.15454 21.3312 3.18633C21.4079 3.21812 21.4775 3.26472 21.5362 3.32346H21.5376C21.6558 3.44218 21.7222 3.60292 21.7222 3.77047C21.7222 3.93802 21.6558 4.09876 21.5376 4.2175L20.0588 5.69737C19.8213 5.93451 19.4993 6.06769 19.1637 6.06769C18.828 6.06769 18.5061 5.93451 18.2686 5.69737Z" fill="white"/>
<path d="M19.8439 3.64786L17.47 6.02177C17.4113 6.08052 17.3416 6.12712 17.2649 6.15892C17.1882 6.19069 17.106 6.20706 17.0229 6.20706C16.9399 6.20706 16.8577 6.19069 16.781 6.15892C16.7043 6.12712 16.6346 6.08052 16.5759 6.02177C16.5172 5.96307 16.4706 5.89339 16.4388 5.81668C16.407 5.73998 16.3906 5.65779 16.3906 5.57474C16.3906 5.49173 16.407 5.4095 16.4388 5.3328C16.4706 5.2561 16.5172 5.18641 16.5759 5.12772L18.0547 3.64896C18.2921 3.41201 18.6137 3.27883 18.949 3.27862C19.2844 3.27841 19.6062 3.4112 19.8439 3.64786Z" fill="white"/>
</g>
</g>
<defs>
<clipPath id="clip0_418_223">
<rect width="38" height="14.0308" fill="white" transform="translate(0 0.950439)"/>
</clipPath>
</defs>
</svg>
