<svg width="38" height="38" viewBox="0 0 38 38" fill="none" xmlns="http://www.w3.org/2000/svg">
<path d="M34.4956 3H3.50448C2.33705 3 1.3877 3.94962 1.3877 5.11687V32.8831C1.3877 34.0504 2.33705 34.9999 3.50448 34.9999H34.4957C35.6628 34.9999 36.6122 34.0504 36.6122 32.8831V5.11687C36.6124 3.94971 35.6627 3 34.4956 3ZM28.1133 6.55465C28.1133 6.12299 28.4632 5.77298 28.8948 5.77298H29.6765C30.1083 5.77298 30.458 6.1229 30.458 6.55465V7.4405C30.458 7.87216 30.108 8.22208 29.6765 8.22208H28.8948C28.4632 8.22208 28.1133 7.87216 28.1133 7.4405V6.55465ZM24.4787 6.55465C24.4787 6.12299 24.8288 5.77298 25.2604 5.77298H26.0419C26.4735 5.77298 26.8236 6.1229 26.8236 6.55465V7.4405C26.8236 7.87216 26.4735 8.22208 26.0419 8.22208H25.2604C24.8288 8.22208 24.4787 7.87216 24.4787 7.4405V6.55465ZM34.072 32.4596H3.92787V10.57H34.072V32.4596ZM34.0926 7.4405C34.0926 7.87216 33.7426 8.22208 33.3111 8.22208H32.5294C32.0975 8.22208 31.7478 7.87216 31.7478 7.4405V6.55465C31.7478 6.12299 32.0977 5.77298 32.5294 5.77298H33.3111C33.7427 5.77298 34.0926 6.1229 34.0926 6.55465V7.4405Z" fill="#0F3759"/>
<path d="M8.9489 22.3404L14.6148 24.9752C14.7613 25.043 14.9173 25.0774 15.0785 25.0774C15.2885 25.0774 15.4932 25.0178 15.6711 24.9046C15.9897 24.701 16.18 24.354 16.18 23.9764V23.9475C16.18 23.5207 15.9298 23.1288 15.5426 22.949L11.999 21.3024L15.5426 19.6558C15.9298 19.4758 16.18 19.0839 16.18 18.6573V18.6286C16.18 18.2505 15.9897 17.9034 15.6711 17.7005C15.495 17.5879 15.2897 17.5284 15.0778 17.5284C14.9181 17.5284 14.7578 17.5635 14.6144 17.6301L8.94881 20.2647C8.56197 20.4447 8.31201 20.8368 8.31201 21.2632V21.342C8.31192 21.7678 8.5617 22.1597 8.9489 22.3404Z" fill="#0F3759"/>
<path d="M16.2307 27.707C16.4374 27.9899 16.7698 28.1588 17.1199 28.1588H17.1483C17.629 28.1588 18.0501 27.8511 18.1966 27.3938L21.9289 15.829C22.036 15.4953 21.9766 15.1269 21.7699 14.8435C21.5632 14.5606 21.2308 14.3917 20.8806 14.3917H20.8523C20.3714 14.3917 19.9498 14.6993 19.8033 15.1566L16.0707 26.7223C15.9644 27.0565 16.0242 27.4244 16.2307 27.707Z" fill="#0F3759"/>
<path d="M21.8198 18.6572C21.8198 19.0834 22.0698 19.4753 22.4571 19.6562L26.0008 21.3024L22.4571 22.9488C22.07 23.1288 21.8198 23.5207 21.8198 23.9473V23.9763C21.8198 24.3539 22.01 24.7009 22.3289 24.9046C22.5062 25.0176 22.711 25.0774 22.9212 25.0774C23.0823 25.0774 23.2381 25.043 23.3856 24.9748L29.0512 22.3401C29.438 22.1597 29.688 21.7678 29.688 21.3418V21.263C29.688 20.8366 29.438 20.4445 29.0508 20.2645L23.3852 17.63C23.2423 17.5635 23.0823 17.5284 22.9225 17.5284C22.711 17.5284 22.5055 17.5877 22.3293 17.7001C22.0104 17.9034 21.8201 18.2504 21.8201 18.6285V18.6571H21.8198V18.6572Z" fill="#0F3759"/>
</svg>
