<svg width="38" height="28" viewBox="0 0 38 28" fill="none" xmlns="http://www.w3.org/2000/svg">
<path d="M3.45821 24.9081L0 0H38L34.5381 24.9042L18.9768 27.6745L3.45821 24.9081Z" fill="#264DE4"/>
<path d="M31.7273 23.4401L34.6224 1.97681H19.4224V25.6978L31.7273 23.4401Z" fill="#2965F1"/>
<path d="M7.66516 11.183L8.11786 14.2664H19.422V11.183H7.66516ZM7.2146 8.02541H19.422V4.94189H6.75537L7.2146 8.02541ZM19.422 19.1911L19.3999 19.1947L13.774 18.2674L13.4144 15.8082H8.34345L9.05124 20.6497L19.3988 22.4032L19.422 22.3992V19.1911Z" fill="#EBEBEB"/>
<path d="M19 11.1835V14.2672H25.019L24.4517 18.2666L19 19.1949V22.4032L29.0206 20.6511L29.0941 20.1301L30.2427 12.0116L30.362 11.1835L31.2444 4.94189H19V8.02568H25.8877L25.4428 11.1835H19Z" fill="white"/>
</svg>
