<svg width="38" height="17" viewBox="0 0 38 17" fill="none" xmlns="http://www.w3.org/2000/svg">
<g clip-path="url(#clip0_418_273)">
<path fill-rule="evenodd" clip-rule="evenodd" d="M24.4514 12.8047C23.7597 13.0009 22.8589 13.0827 22.0867 13.0827C20.0759 13.0827 18.7568 12.0197 18.7568 10.0737C18.7568 8.22574 19.9955 7.03196 21.7971 7.03196C22.1993 7.03196 22.6336 7.08102 22.891 7.21185V4.52988H24.4514V12.8047ZM22.891 8.58552C22.6497 8.47105 22.3119 8.40563 21.9258 8.40563C20.9768 8.40563 20.3494 8.99436 20.3494 10.0246C20.3494 11.1203 21.025 11.7417 22.135 11.7417C22.328 11.7417 22.6336 11.7417 22.891 11.6763V8.58552ZM37.2725 12.8047C36.5808 13.0009 35.6799 13.0827 34.8917 13.0827C32.8969 13.0827 31.5617 12.0197 31.5617 10.0737C31.5617 8.22574 32.8004 7.03196 34.6021 7.03196C35.0204 7.03196 35.4386 7.08102 35.696 7.21185V4.52988H37.2725V12.8047ZM35.696 8.58552C35.4547 8.47105 35.133 8.40563 34.7469 8.40563C33.7817 8.40563 33.1543 8.99436 33.1543 10.0246C33.1543 11.1203 33.846 11.7417 34.956 11.7417C35.1491 11.7417 35.4386 11.7417 35.696 11.6763V8.58552ZM26.9127 8.58552C27.1701 8.47105 27.5401 8.43834 27.8457 8.43834C28.8109 8.43834 29.4705 8.99436 29.4705 9.99192C29.4705 11.1693 28.7305 11.709 27.7492 11.7254V13.0827H27.8296C29.8566 13.0827 31.0631 11.9543 31.0631 9.94286C31.0631 8.11127 29.7761 7.03196 27.8779 7.03196C26.9127 7.03196 25.9636 7.26091 25.3362 7.52254V15.2904H26.9127V8.58552Z" fill="#3F3F42"/>
<path fill-rule="evenodd" clip-rule="evenodd" d="M12.998 3.25433L13.2554 3.5487L13.4002 3.46693L12.998 3.25433Z" fill="#DC0032"/>
<path fill-rule="evenodd" clip-rule="evenodd" d="M12.6118 3.04172L13.1105 3.63044L13.2874 3.53232L13.0944 3.30337L12.6118 3.04172Z" fill="#DC0032"/>
<path fill-rule="evenodd" clip-rule="evenodd" d="M12.2095 2.82913L12.9655 3.71222L13.1425 3.6141L12.7082 3.09079L12.2095 2.82913Z" fill="#DC0032"/>
<path fill-rule="evenodd" clip-rule="evenodd" d="M11.8237 2.61655L12.8211 3.794L12.9981 3.69588L12.3063 2.8782L11.8237 2.61655ZM13.738 4.69342L13.6254 4.75883L13.738 4.88966V4.69342Z" fill="#DC0032"/>
<path fill-rule="evenodd" clip-rule="evenodd" d="M11.4375 2.40393L12.6762 3.87574L12.8531 3.77762L11.9201 2.66559L11.4375 2.40393ZM13.6735 4.7261L13.4966 4.84058L13.7379 5.13494V4.82422L13.6735 4.7261Z" fill="#DC0032"/>
<path fill-rule="evenodd" clip-rule="evenodd" d="M11.0352 2.19135L12.5312 3.95752L12.7243 3.8594L11.5338 2.453L11.0352 2.19135ZM13.5286 4.80788L13.3516 4.92236L13.7377 5.38025V5.06954L13.5286 4.80788Z" fill="#DC0032"/>
<path fill-rule="evenodd" clip-rule="evenodd" d="M10.6494 1.97876L12.4029 4.03929L12.5798 3.94117L11.132 2.24041L10.6494 1.97876ZM13.3841 4.90601L13.2072 5.00413L13.738 5.64191V5.3312L13.3841 4.90601Z" fill="#DC0032"/>
<path fill-rule="evenodd" clip-rule="evenodd" d="M10.2632 1.76617L12.2579 4.12107L12.4349 4.02295L10.7458 2.02783L10.2632 1.76617ZM13.2392 4.98778L13.0622 5.0859L13.7379 5.88722V5.57651L13.2392 4.98778Z" fill="#DC0032"/>
<path fill-rule="evenodd" clip-rule="evenodd" d="M9.86084 1.55356L12.113 4.20281L12.2899 4.10469L10.3595 1.81521L9.86084 1.55356ZM13.0942 5.06953L12.9173 5.16765L13.7377 6.1325V5.82179L13.0942 5.06953Z" fill="#DC0032"/>
<path fill-rule="evenodd" clip-rule="evenodd" d="M9.4751 1.34097L11.9685 4.30094L12.1455 4.18647L9.9577 1.60263L9.4751 1.34097ZM12.9498 5.1513L12.7728 5.24942L13.738 6.39417V6.08345L12.9498 5.1513Z" fill="#DC0032"/>
<path fill-rule="evenodd" clip-rule="evenodd" d="M9.07275 1.12839L11.8236 4.38272L12.0005 4.26824L9.57144 1.39004L9.07275 1.12839ZM12.8209 5.23308L12.6279 5.3312L13.7378 6.63948V6.32876L12.8209 5.23308Z" fill="#DC0032"/>
<path fill-rule="evenodd" clip-rule="evenodd" d="M8.68652 0.915802L11.6786 4.46447L11.8717 4.35002L9.18521 1.17746L8.68652 0.915802ZM12.676 5.31485L12.499 5.41297L13.7377 6.90114V6.57407L12.676 5.31485Z" fill="#DC0032"/>
<path fill-rule="evenodd" clip-rule="evenodd" d="M8.30078 0.703186L11.5503 4.54622L11.7272 4.43174L8.78338 0.96484L8.30078 0.703186ZM12.5316 5.3966L12.3546 5.49472L13.738 7.14642V6.8357L12.5316 5.3966Z" fill="#DC0032"/>
<path fill-rule="evenodd" clip-rule="evenodd" d="M7.89844 0.474243L11.4053 4.62799L11.5823 4.51352L8.39712 0.75225L7.89844 0.474243ZM12.3866 5.47837L12.2096 5.57649L13.7379 7.39171V7.08101L12.3866 5.47837Z" fill="#DC0032"/>
<path fill-rule="evenodd" clip-rule="evenodd" d="M7.51221 0.261658L11.2604 4.70976L11.4373 4.61164L8.01089 0.539665L7.51221 0.261658ZM12.2417 5.56015L12.0647 5.65827L13.7377 7.65337V7.32632L12.2417 5.56015Z" fill="#DC0032"/>
<path fill-rule="evenodd" clip-rule="evenodd" d="M7.12646 0.0653992L11.1159 4.79151L11.2929 4.69339L7.60904 0.327053L7.12646 0.0653992ZM12.0972 5.6419L11.9202 5.74002L13.738 7.89865V7.58794L12.0972 5.6419Z" fill="#DC0032"/>
<path fill-rule="evenodd" clip-rule="evenodd" d="M6.86914 0L10.9712 4.8733L11.1482 4.77518L7.22305 0.114474L7.12653 0.0654135C7.04609 0.0163534 6.96566 0 6.86914 0ZM11.9525 5.72368L11.7755 5.8218L13.7381 8.14397V7.83326L11.9525 5.72368Z" fill="#DC0032"/>
<path fill-rule="evenodd" clip-rule="evenodd" d="M6.86882 0C6.80447 0 6.74013 0.0163534 6.67578 0.0327068L10.8261 4.95506L11.0191 4.85694L6.91708 0C6.90099 0 6.88491 0 6.86882 0ZM11.8235 5.80544L11.6465 5.90357L13.7378 8.40563V8.07856L11.8235 5.80544Z" fill="#DC0032"/>
<path fill-rule="evenodd" clip-rule="evenodd" d="M6.72429 0.0163574C6.69212 0.0327108 6.64386 0.0490641 6.62777 0.0654176L6.53125 0.114478L10.6977 5.03683L10.8746 4.93871L6.72429 0.0163574ZM11.6789 5.88722L11.502 6.00169L13.738 8.65093V8.34022L11.6789 5.88722Z" fill="#DC0032"/>
<path fill-rule="evenodd" clip-rule="evenodd" d="M6.56318 0.0817566L6.38623 0.179877L10.5526 5.11859L10.7296 5.02047L6.56318 0.0817566ZM11.5339 5.96897L11.357 6.08344L13.7378 8.89622V8.58551L11.5339 5.96897Z" fill="#DC0032"/>
<path fill-rule="evenodd" clip-rule="evenodd" d="M6.41865 0.163544L6.2417 0.261664L10.4081 5.20038L10.5851 5.10225L6.41865 0.163544ZM11.3894 6.05076L11.2124 6.16523L13.738 9.1579V8.84718L11.3894 6.05076Z" fill="#DC0032"/>
<path fill-rule="evenodd" clip-rule="evenodd" d="M6.27363 0.2453L6.09668 0.343421L10.2631 5.28213L10.44 5.18401L6.27363 0.2453ZM11.2444 6.13251L11.0674 6.24699L13.7378 9.40319V9.09247L11.2444 6.13251Z" fill="#DC0032"/>
<path fill-rule="evenodd" clip-rule="evenodd" d="M6.1291 0.327057L5.95215 0.425178L10.1186 5.36389L10.2955 5.26577L6.1291 0.327057ZM11.0998 6.21427L10.9229 6.32875L13.738 9.64848V9.33777L11.0998 6.21427Z" fill="#DC0032"/>
<path fill-rule="evenodd" clip-rule="evenodd" d="M5.98408 0.408844L5.80713 0.506963L9.97355 5.44568L10.1505 5.34756L5.98408 0.408844ZM10.9709 6.29606L10.794 6.41053L13.7378 9.91016V9.59944L10.9709 6.29606Z" fill="#DC0032"/>
<path fill-rule="evenodd" clip-rule="evenodd" d="M5.83955 0.474243L5.6626 0.588718L9.84511 5.52743L10.0221 5.42931L5.83955 0.474243ZM10.8264 6.39417L10.6494 6.49229L13.738 10.1554V9.84473L10.8264 6.39417Z" fill="#DC0032"/>
<path fill-rule="evenodd" clip-rule="evenodd" d="M5.69453 0.556L5.51758 0.654121L9.70009 5.60919L9.87704 5.51107L5.69453 0.556ZM10.6814 6.47592L10.5044 6.57404L13.7378 10.4171V10.09L10.6814 6.47592Z" fill="#DC0032"/>
<path fill-rule="evenodd" clip-rule="evenodd" d="M5.55 0.637787L5.37305 0.735908L9.55556 5.70733L9.73251 5.59285L5.55 0.637787ZM10.5368 6.55771L10.3599 6.65583L13.738 10.6624V10.3517L10.5368 6.55771Z" fill="#DC0032"/>
<path fill-rule="evenodd" clip-rule="evenodd" d="M5.40498 0.719543L5.22803 0.817662L9.41054 5.78909L9.58749 5.67461L5.40498 0.719543ZM10.3918 6.63947L10.2149 6.73759L13.7378 10.9077V10.597L10.3918 6.63947Z" fill="#DC0032"/>
<path fill-rule="evenodd" clip-rule="evenodd" d="M5.26045 0.8013L5.0835 0.899421L9.26601 5.87084L9.44296 5.75637L5.26045 0.8013ZM10.2473 6.72123L10.0703 6.81935L13.7381 11.1693V10.8423L10.2473 6.72123Z" fill="#DC0032"/>
<path fill-rule="evenodd" clip-rule="evenodd" d="M5.11543 0.883087L4.93848 0.981208L9.12099 5.95263L9.29794 5.83816L5.11543 0.883087ZM10.1184 6.80301L9.94141 6.90113L13.7378 11.4147V11.1039L10.1184 6.80301Z" fill="#DC0032"/>
<path fill-rule="evenodd" clip-rule="evenodd" d="M4.97087 0.948486L4.77783 1.04661L8.99252 6.03438L9.16947 5.91991L4.97087 0.948486ZM9.9738 6.88477L9.79685 6.98289L13.738 11.6599V11.3492L9.9738 6.88477Z" fill="#DC0032"/>
<path fill-rule="evenodd" clip-rule="evenodd" d="M4.82585 1.03027L4.63281 1.12839L8.86358 6.13253C8.87967 6.09982 8.89576 6.08347 8.92793 6.06711L9.02445 6.0017L4.82585 1.03027ZM9.82878 6.96655L9.65183 7.06467L13.7056 11.8726C13.7217 11.8235 13.7378 11.7744 13.7378 11.7254V11.5945L9.82878 6.96655Z" fill="#DC0032"/>
<path fill-rule="evenodd" clip-rule="evenodd" d="M4.68132 1.11203L4.48828 1.21015L8.81557 6.32876V6.26334C8.81557 6.21428 8.84774 6.14887 8.87992 6.09981L4.68132 1.11203ZM9.68425 7.04831L9.55556 7.13008C9.53947 7.13008 9.52339 7.14643 9.5073 7.14643L13.6254 12.0361C13.6737 11.9707 13.7059 11.9053 13.722 11.8398L9.68425 7.04831Z" fill="#DC0032"/>
<path fill-rule="evenodd" clip-rule="evenodd" d="M4.53628 1.19379L4.34326 1.29191L8.81531 6.5904V6.26333L4.53628 1.19379ZM9.23357 7.06465L13.5126 12.1505C13.5608 12.1178 13.6091 12.0524 13.6574 12.0034L9.53921 7.13007C9.47486 7.16277 9.37835 7.16277 9.314 7.13007L9.23357 7.06465Z" fill="#DC0032"/>
<path fill-rule="evenodd" clip-rule="evenodd" d="M4.39175 1.27557L4.19873 1.37369L13.368 12.2323L13.4967 12.1669C13.5128 12.1506 13.5289 12.1342 13.545 12.1179L9.33033 7.13009H9.31424L8.94425 6.90114C8.91208 6.88478 8.89599 6.85208 8.86382 6.81937C8.83165 6.77031 8.83165 6.7376 8.81556 6.7049V6.52501L4.39175 1.27557Z" fill="#DC0032"/>
<path fill-rule="evenodd" clip-rule="evenodd" d="M4.24675 1.35733L4.05371 1.45545L13.223 12.3141L13.4 12.216L4.24675 1.35733Z" fill="#DC0032"/>
<path fill-rule="evenodd" clip-rule="evenodd" d="M4.10222 1.42273L3.90918 1.52085L13.0946 12.3958L13.2715 12.2977L4.10222 1.42273Z" fill="#DC0032"/>
<path fill-rule="evenodd" clip-rule="evenodd" d="M3.9572 1.50452L3.76416 1.60264L12.9496 12.4776L13.1265 12.3795L3.9572 1.50452Z" fill="#DC0032"/>
<path fill-rule="evenodd" clip-rule="evenodd" d="M3.81267 1.58627L3.61963 1.68439L12.8051 12.5594L12.982 12.4613L3.81267 1.58627Z" fill="#DC0032"/>
<path fill-rule="evenodd" clip-rule="evenodd" d="M3.65156 1.66803L3.47461 1.76615L12.66 12.6575L12.837 12.543L3.65156 1.66803Z" fill="#DC0032"/>
<path fill-rule="evenodd" clip-rule="evenodd" d="M3.50703 1.74982L3.33008 1.84794L12.5155 12.7393L12.6925 12.6248L3.50703 1.74982Z" fill="#DC0032"/>
<path fill-rule="evenodd" clip-rule="evenodd" d="M3.36201 1.83157L3.18506 1.92969L12.3866 12.821L12.5635 12.7066L3.36201 1.83157Z" fill="#DC0032"/>
<path fill-rule="evenodd" clip-rule="evenodd" d="M3.21748 1.897L3.04053 1.99512L12.242 12.9028L12.419 12.7884L3.21748 1.897Z" fill="#DC0032"/>
<path fill-rule="evenodd" clip-rule="evenodd" d="M3.07246 1.97876L2.89551 2.07688L12.097 12.9846L12.274 12.8865L3.07246 1.97876Z" fill="#DC0032"/>
<path fill-rule="evenodd" clip-rule="evenodd" d="M2.92793 2.06052L2.75098 2.15864L7.22305 7.45712L7.36781 7.55524C7.43215 7.58795 7.4965 7.66971 7.4965 7.75148V7.76784L11.9525 13.0663L12.1294 12.9682L2.92793 2.06052Z" fill="#DC0032"/>
<path fill-rule="evenodd" clip-rule="evenodd" d="M2.78291 2.1423L2.60596 2.24042L6.80456 7.22821L7.33539 7.52255L2.78291 2.1423ZM7.48017 7.70244C7.48017 7.71879 7.49626 7.73515 7.49626 7.7515V8.02951L11.8075 13.1481L11.9844 13.05L7.48017 7.70244Z" fill="#DC0032"/>
<path fill-rule="evenodd" clip-rule="evenodd" d="M2.63838 2.22406L2.46143 2.32218L6.38655 6.9829L6.91741 7.27727L2.63838 2.22406ZM7.49651 7.96409V8.27481L11.679 13.2299L11.856 13.1318L7.49651 7.96409Z" fill="#DC0032"/>
<path fill-rule="evenodd" clip-rule="evenodd" d="M2.49336 2.30582L2.31641 2.40394L5.98414 6.73759L6.49892 7.03195L2.49336 2.30582ZM7.49627 8.20938V8.53645L11.534 13.3116L11.711 13.2135L7.49627 8.20938Z" fill="#DC0032"/>
<path fill-rule="evenodd" clip-rule="evenodd" d="M2.34883 2.37125L2.17188 2.46937L5.56614 6.4923L6.08091 6.80302L2.34883 2.37125ZM7.49652 8.47105V8.78177L11.3895 13.3934L11.5664 13.2953L7.49652 8.47105Z" fill="#DC0032"/>
<path fill-rule="evenodd" clip-rule="evenodd" d="M2.2038 2.453L2.02686 2.55112L5.14764 6.24699L5.66241 6.55771L2.2038 2.453ZM7.49627 8.71635V9.02706L11.2444 13.4752L11.4214 13.377L7.49627 8.71635Z" fill="#DC0032"/>
<path fill-rule="evenodd" clip-rule="evenodd" d="M2.05928 2.53476L1.88232 2.63288L4.72963 6.01803L5.24441 6.31239L2.05928 2.53476ZM7.49652 8.96164V9.28871L11.0999 13.5733L11.2769 13.4588L7.49652 8.96164Z" fill="#DC0032"/>
<path fill-rule="evenodd" clip-rule="evenodd" d="M1.91426 2.61655L1.7373 2.71467L4.31116 5.77275L4.82592 6.06711L1.91426 2.61655ZM7.49628 9.22331V9.53403L10.971 13.6551L11.1479 13.5406L7.49628 9.22331Z" fill="#DC0032"/>
<path fill-rule="evenodd" clip-rule="evenodd" d="M1.76972 2.6983L1.59277 2.79642L3.89316 5.52743L4.424 5.8218L1.76972 2.6983ZM7.49653 9.4686V9.77932L10.8264 13.7368L11.0034 13.6223L7.49653 9.4686Z" fill="#DC0032"/>
<path fill-rule="evenodd" clip-rule="evenodd" d="M1.62471 2.78006L1.44775 2.87818L3.47466 5.28212L4.00552 5.59284L1.62471 2.78006ZM5.83938 8.07855L6.25764 8.56915V8.38926C6.25764 8.35656 6.22546 8.3075 6.19329 8.29114L5.83938 8.07855ZM7.49629 9.71389V10.041L10.6814 13.8186L10.8584 13.7041L7.49629 9.71389Z" fill="#DB0032"/>
<path fill-rule="evenodd" clip-rule="evenodd" d="M1.48017 2.84549L1.30322 2.94361L3.05666 5.03684L3.58752 5.34755L1.48017 2.84549ZM5.42137 7.83326L6.25788 8.81447V8.50375L5.95224 8.14398L5.42137 7.83326ZM7.49653 9.97557V10.2863L10.5369 13.9004L10.7138 13.8022L7.49653 9.97557Z" fill="#DC0032"/>
<path fill-rule="evenodd" clip-rule="evenodd" d="M1.33515 2.92725L1.1582 3.02537L2.65425 4.80788L3.16902 5.10224L1.33515 2.92725ZM5.00288 7.6043L6.25764 9.07611V8.7654L5.53374 7.89866L5.00288 7.6043ZM7.49629 10.2209V10.5316L10.3919 13.9821L10.5688 13.884L7.49629 10.2209Z" fill="#DC0032"/>
<path fill-rule="evenodd" clip-rule="evenodd" d="M1.19062 3.00903L1.01367 3.10715L2.23624 4.56259L2.75102 4.85696L1.19062 3.00903ZM4.60096 7.35904L6.25789 9.32144V9.01072L5.11574 7.65338L4.60096 7.35904ZM7.49654 10.4825V10.7932L10.2634 14.0639L10.4404 13.9658L7.49654 10.4825Z" fill="#DC0032"/>
<path fill-rule="evenodd" clip-rule="evenodd" d="M1.0456 3.09079L0.868652 3.18891L1.81776 4.3173L2.33252 4.61164L1.0456 3.09079ZM4.18249 7.11373L6.25765 9.56673V9.25601L4.69724 7.42442L4.18249 7.11373ZM7.4963 10.7278V11.0385L10.1184 14.1457L10.2954 14.0475L7.4963 10.7278Z" fill="#DC0032"/>
<path fill-rule="evenodd" clip-rule="evenodd" d="M0.901072 3.17255L0.724121 3.27067L1.39975 4.07199L1.91452 4.3827L0.901072 3.17255ZM3.76448 6.86841L6.2579 9.82837V9.51766L4.27926 7.17913L3.76448 6.86841ZM7.49655 10.9731V11.2838L9.97389 14.2274L10.1508 14.1293L7.49655 10.9731Z" fill="#DC0032"/>
<path fill-rule="evenodd" clip-rule="evenodd" d="M0.756053 3.25433L0.579102 3.35245L0.981266 3.82671L1.51212 4.13742L0.756053 3.25433ZM3.34599 6.63948L6.25766 10.0737V9.76298L3.86076 6.93385L3.34599 6.63948ZM7.49631 11.2348V11.5455L9.82887 14.3092L10.0058 14.2111L7.49631 11.2348Z" fill="#DC0032"/>
<path fill-rule="evenodd" clip-rule="evenodd" d="M0.611495 3.31973L0.418457 3.41785L0.563235 3.59774L1.09409 3.8921L0.611495 3.31973ZM2.92796 6.39417L6.25788 10.3353V10.0083L3.45882 6.68853L2.92796 6.39417ZM7.49653 11.4801V11.7908L9.68431 14.4073L9.86127 14.2928L7.49653 11.4801Z" fill="#DC0032"/>
<path fill-rule="evenodd" clip-rule="evenodd" d="M0.466608 3.40149L0.354004 3.4669L0.675735 3.64679L0.466608 3.40149ZM2.5096 6.14885L6.25777 10.5806V10.2699L3.04046 6.45957L2.5096 6.14885ZM7.49642 11.7253V12.0524L9.55552 14.4891L9.73247 14.3746L7.49642 11.7253Z" fill="#DC0032"/>
<path fill-rule="evenodd" clip-rule="evenodd" d="M2.10742 5.90356L6.25775 10.8259V10.5152L2.62219 6.21428L2.10742 5.90356ZM7.49641 11.987V12.2977L9.41072 14.5708L9.58767 14.4564L7.49641 11.987Z" fill="#DC0032"/>
<path fill-rule="evenodd" clip-rule="evenodd" d="M1.68896 5.67462L6.25755 11.0876V10.7605L2.20373 5.96898L1.68896 5.67462ZM7.4962 12.2323V12.543L9.26573 14.6526L9.44269 14.5381L7.4962 12.2323Z" fill="#DC0032"/>
<path fill-rule="evenodd" clip-rule="evenodd" d="M1.271 5.42932L6.25783 11.3329V11.0222L1.78577 5.72368L1.271 5.42932ZM7.49648 12.4776V12.8047L9.12124 14.7344L9.29819 14.6363L7.49648 12.4776Z" fill="#DC0032"/>
<path fill-rule="evenodd" clip-rule="evenodd" d="M0.852539 5.18402L6.25762 11.5782V11.2675L1.36731 5.49474L0.852539 5.18402ZM7.49627 12.7393V13.05L8.97625 14.8162L9.1532 14.718L7.49627 12.7393Z" fill="#DB0032"/>
<path fill-rule="evenodd" clip-rule="evenodd" d="M0.43457 4.93872L6.2579 11.8398V11.5291L0.949339 5.24944L0.43457 4.93872ZM7.49655 12.9846V13.2953L8.84783 14.8979L9.02479 14.7998L7.49655 12.9846Z" fill="#DA0032"/>
<path fill-rule="evenodd" clip-rule="evenodd" d="M0.0161133 4.70975L6.2577 12.0851V11.7744L0.546969 5.00411L0.0161133 4.70975ZM7.49635 13.2299V13.5569L8.70285 14.9797L8.8798 14.8816L7.49635 13.2299Z" fill="#D90032"/>
<path fill-rule="evenodd" clip-rule="evenodd" d="M0 4.69342V4.92237L6.25767 12.3305V12.0197L0.128692 4.75883L0 4.69342ZM7.49632 13.4915V13.6878C7.49632 13.7205 7.48024 13.7532 7.46415 13.7695L8.55804 15.0615L8.735 14.9633L7.49632 13.4915Z" fill="#D80032"/>
<path fill-rule="evenodd" clip-rule="evenodd" d="M0 4.85693V5.184L6.25767 12.5921V12.2814L0 4.85693ZM7.48024 13.7368C7.46415 13.8022 7.41589 13.8676 7.36763 13.884L7.35154 13.9003L8.41326 15.1432L8.59022 15.0451L7.48024 13.7368Z" fill="#D70032"/>
<path fill-rule="evenodd" clip-rule="evenodd" d="M0 5.11859V5.42931L6.25767 12.8374V12.5267L0 5.11859ZM7.38372 13.8676C7.38372 13.884 7.38372 13.884 7.36763 13.884L7.20678 13.9821L8.26848 15.225L8.44544 15.1269L7.38372 13.8676Z" fill="#D60032"/>
<path fill-rule="evenodd" clip-rule="evenodd" d="M0 5.36389V5.67461L6.25767 13.0827V12.772L0 5.36389ZM7.25502 13.9494L7.062 14.0639L8.13979 15.3231L8.31674 15.2086L7.25502 13.9494Z" fill="#D50032"/>
<path fill-rule="evenodd" clip-rule="evenodd" d="M0 5.62555V5.93627L6.25767 13.3443V13.0336L0 5.62555ZM7.11026 14.0312L6.99766 14.0966C6.96548 14.1129 6.93331 14.1129 6.90114 14.1129L7.99501 15.4049L8.17196 15.2904L7.11026 14.0312Z" fill="#D40032"/>
<path fill-rule="evenodd" clip-rule="evenodd" d="M0 5.87085V6.18157L6.25767 13.5896V13.2789L0 5.87085ZM6.61158 14.0312L7.85023 15.4866L8.02718 15.3722L6.9494 14.1129C6.93331 14.1129 6.90114 14.1293 6.88505 14.1293H6.86896C6.8207 14.1293 6.78853 14.1129 6.75636 14.0966L6.61158 14.0312Z" fill="#D30032"/>
<path fill-rule="evenodd" clip-rule="evenodd" d="M0 6.11615V6.44322L7.70545 15.5684L7.8824 15.4539L6.72418 14.0802L6.37028 13.884C6.30593 13.8513 6.25767 13.7695 6.25767 13.6877V13.5242L0 6.11615Z" fill="#D20032"/>
<path fill-rule="evenodd" clip-rule="evenodd" d="M0 6.37781V6.68852L7.56067 15.6502L7.73762 15.552L0 6.37781Z" fill="#D10032"/>
<path fill-rule="evenodd" clip-rule="evenodd" d="M0 6.62311V6.93382L7.41589 15.7319L7.59284 15.6338L0 6.62311Z" fill="#D00032"/>
<path fill-rule="evenodd" clip-rule="evenodd" d="M0 6.86841V7.19548L7.2872 15.8137L7.46415 15.7156L0 6.86841Z" fill="#CF0032"/>
<path fill-rule="evenodd" clip-rule="evenodd" d="M0 7.13007V7.44076L7.14244 15.8955L7.31937 15.7973L0 7.13007Z" fill="#CE0032"/>
<path fill-rule="evenodd" clip-rule="evenodd" d="M0 7.37537V7.68608L6.98157 15.9609C7.02983 15.9445 7.07809 15.9282 7.12635 15.9118L7.17461 15.8791L0 7.37537Z" fill="#CD0032"/>
<path fill-rule="evenodd" clip-rule="evenodd" d="M0 7.62067V7.94774L6.77245 15.9609C6.80462 15.9609 6.83679 15.9609 6.86897 15.9609C6.91723 15.9609 6.96549 15.9609 7.01375 15.9445L0 7.62067Z" fill="#CC0032"/>
<path fill-rule="evenodd" clip-rule="evenodd" d="M0 7.88232V8.19304L6.40245 15.781L6.62766 15.9118C6.67592 15.9445 6.75636 15.9609 6.8207 15.9609L0 7.88232Z" fill="#CB0032"/>
<path fill-rule="evenodd" clip-rule="evenodd" d="M0 8.12762V8.43834L5.9842 15.5357L6.51506 15.8464L0 8.12762Z" fill="#CA0032"/>
<path fill-rule="evenodd" clip-rule="evenodd" d="M0 8.38928V8.7L5.56594 15.2904L6.0968 15.6011L0 8.38928Z" fill="#C90032"/>
<path fill-rule="evenodd" clip-rule="evenodd" d="M0 8.63458V8.9453L5.14769 15.0451L5.66246 15.3558L0 8.63458Z" fill="#C80033"/>
<path fill-rule="evenodd" clip-rule="evenodd" d="M0 8.87988V9.1906L4.72944 14.7998L5.24421 15.1105L0 8.87988Z" fill="#C70033"/>
<path fill-rule="evenodd" clip-rule="evenodd" d="M0 9.14154V9.45226L4.29512 14.5381L4.82596 14.8489L0 9.14154Z" fill="#C60033"/>
<path fill-rule="evenodd" clip-rule="evenodd" d="M0 9.38684V9.69756L3.87687 14.2928L4.4077 14.6036L0 9.38684Z" fill="#C50033"/>
<path fill-rule="evenodd" clip-rule="evenodd" d="M0 9.63214V9.94286L3.45861 14.0475L3.98947 14.3583L0 9.63214Z" fill="#C40033"/>
<path fill-rule="evenodd" clip-rule="evenodd" d="M0 9.8938V10.2045L3.04036 13.8022L3.57122 14.113L0 9.8938Z" fill="#C30033"/>
<path fill-rule="evenodd" clip-rule="evenodd" d="M0 10.1391V10.4498L2.62211 13.5569L3.15297 13.8677L0 10.1391Z" fill="#C20033"/>
<path fill-rule="evenodd" clip-rule="evenodd" d="M0 10.3844V10.7114L2.20385 13.3116L2.71863 13.6223L0 10.3844Z" fill="#C10033"/>
<path fill-rule="evenodd" clip-rule="evenodd" d="M0 10.646V10.9567L1.76952 13.0663L2.30037 13.377L0 10.646Z" fill="#C00033"/>
<path fill-rule="evenodd" clip-rule="evenodd" d="M0 10.8913V11.202L1.35127 12.821L1.88213 13.1154L0 10.8913Z" fill="#BF0033"/>
<path fill-rule="evenodd" clip-rule="evenodd" d="M0 11.1366V11.4637L0.93302 12.5594L1.46388 12.8701L0 11.1366Z" fill="#BE0033"/>
<path fill-rule="evenodd" clip-rule="evenodd" d="M0 11.3983V11.709L0.514769 12.3141L1.04562 12.6248L0 11.3983Z" fill="#BD0033"/>
<path fill-rule="evenodd" clip-rule="evenodd" d="M0 11.6436V11.7254C0 11.8889 0.112606 12.0851 0.241298 12.1669L0.627376 12.3795L0 11.6436Z" fill="#BC0033"/>
<path fill-rule="evenodd" clip-rule="evenodd" d="M0.0966797 12.0197C0.128853 12.0524 0.144939 12.0851 0.177112 12.1015L0.0966797 12.0197Z" fill="#BB0033"/>
</g>
<defs>
<clipPath id="clip0_418_273">
<rect width="38" height="16.2247" fill="white"/>
</clipPath>
</defs>
</svg>
