<svg width="38" height="38" viewBox="0 0 38 38" fill="none" xmlns="http://www.w3.org/2000/svg">
<path d="M24.6919 8.00994C21.9845 5.40846 19.4162 2.87537 18.6524 0C17.8887 2.87537 15.3203 5.40903 12.6129 8.01051C8.58672 11.9814 4.00539 16.4998 4.00539 23.2777C3.79705 31.2195 10.2529 37.8606 18.3054 37.9977C26.3578 38.1348 33.0914 31.836 33.2304 23.8942V23.278C33.2994 16.4998 28.7181 11.9814 24.6919 8.01023V8.00994ZM11.5024 24.5782C11.086 25.1259 10.6696 25.7421 10.3916 26.3583C10.322 26.427 10.2526 26.5638 10.1142 26.5638L10.0449 26.5632C9.69782 26.5632 9.35047 25.947 9.35047 25.947C9.28083 25.8099 9.14213 25.605 9.07306 25.4679L9.00342 25.3314C8.10068 23.4139 8.86443 20.7443 8.86443 20.7443C9.21119 19.4439 9.83623 18.1426 10.6 17.0473C11.0857 16.3625 11.6414 15.6782 12.1965 14.9933L12.8909 15.6782L16.1537 18.9645C16.2927 19.1016 16.2927 19.3065 16.1537 19.4436L12.7519 23.2093L11.5021 24.5779L11.5024 24.5782ZM18.7914 34.0262C16.0147 34.0262 13.724 31.7667 13.7931 29.0285C13.7931 27.7958 14.2789 26.6325 15.0429 25.7421C16.0843 24.5095 17.4032 23.2774 18.8611 21.6344C20.527 23.4145 21.6378 24.5782 22.6792 25.9479C22.7489 26.0166 22.8182 26.1534 22.8876 26.2902C23.443 27.1115 23.7897 28.0703 23.7897 29.0974C23.8588 31.8357 21.5684 34.0268 18.7914 34.0268V34.0262ZM28.3017 26.0841C28.2321 26.2899 28.0243 26.4264 27.816 26.4948L27.7463 26.4954C27.538 26.4267 27.3995 26.2899 27.2606 26.1531C26.3584 24.8526 25.3866 23.62 24.2758 22.5245L22.9572 21.1553L18.5143 16.6369C17.6121 15.8155 16.7094 14.8568 15.8763 13.9667C15.8763 13.8983 15.8069 13.8983 15.8069 13.8983C15.6679 13.6929 15.5295 13.4877 15.4599 13.2135V13.0764C15.3209 12.3231 15.5989 11.5702 16.1543 11.0224C16.9871 10.201 17.8898 9.31069 18.7226 8.42092C19.6248 9.37937 20.5966 10.3378 21.569 11.2963C23.5126 13.0764 25.2482 15.062 26.8447 17.1844C28.1633 19.0326 28.8577 21.1553 28.8577 23.4148C28.7184 24.2362 28.5794 25.1946 28.302 26.0844L28.3017 26.0841Z" fill="#009CDE"/>
</svg>
