<svg width="26" height="38" viewBox="0 0 26 38" fill="none" xmlns="http://www.w3.org/2000/svg">
<g clip-path="url(#clip0_418_955)">
<path d="M6.83577 38C10.3318 38 13.1691 35.1626 13.1691 31.6666V25.3333H6.83577C3.33977 25.3333 0.502441 28.1706 0.502441 31.6666C0.502441 35.1626 3.33977 38 6.83577 38Z" fill="#0ACF83"/>
<path d="M0.502441 19C0.502441 15.504 3.33977 12.6667 6.83577 12.6667H13.1691V25.3334H6.83577C3.33977 25.3334 0.502441 22.496 0.502441 19Z" fill="#A259FF"/>
<path d="M0.502441 6.33333C0.502441 2.83733 3.33977 0 6.83577 0H13.1691V12.6667H6.83577C3.33977 12.6667 0.502441 9.82933 0.502441 6.33333Z" fill="#F24E1E"/>
<path d="M13.1694 0H19.5028C22.9988 0 25.8361 2.83733 25.8361 6.33333C25.8361 9.82933 22.9988 12.6667 19.5028 12.6667H13.1694V0Z" fill="#FF7262"/>
<path d="M25.8361 19C25.8361 22.496 22.9988 25.3334 19.5028 25.3334C16.0068 25.3334 13.1694 22.496 13.1694 19C13.1694 15.504 16.0068 12.6667 19.5028 12.6667C22.9988 12.6667 25.8361 15.504 25.8361 19Z" fill="#1ABCFE"/>
</g>
<defs>
<clipPath id="clip0_418_955">
<rect width="25.3384" height="38" fill="white" transform="translate(0.5)"/>
</clipPath>
</defs>
</svg>
