<svg width="38" height="28" viewBox="0 0 38 28" fill="none" xmlns="http://www.w3.org/2000/svg">
<path d="M3.45455 25.1432L0 0H38L34.5455 25.1432L18.9579 27.9855" fill="#E34F26"/>
<path d="M18.7866 26.1224L31.5794 23.8615L34.5844 2.13483H18.7866" fill="#EF652A"/>
<path d="M18.7866 11.2566H12.4723L12.0514 8.11654H18.7866V5.08478H18.7024H6.83154L6.91573 5.89686L8.0944 14.3425H18.7866V11.2566ZM18.7866 19.215H18.7024L13.3984 18.2946L13.0616 15.8584H10.5359H8.34697L8.93631 20.6767L18.7024 22.4091H18.7866V19.215Z" fill="#EBEBEB"/>
<path d="M18.7866 11.2566V14.3425H24.4695L23.9012 18.2946L18.7866 19.215V22.4091L28.2039 20.6767L28.2851 20.1353L29.3405 12.0687L29.5029 11.2566H28.2039H18.7866ZM18.7866 5.08478V6.97963V8.11654H29.9088L29.99 7.46688L30.2335 5.89686L30.3147 5.08478H18.7866Z" fill="white"/>
</svg>
