<svg width="39" height="38" viewBox="0 0 39 38" fill="none" xmlns="http://www.w3.org/2000/svg">
<g clip-path="url(#clip0_418_977)">
<path d="M7.22917 0H31.7708C35.4917 0 38.5 3.00833 38.5 6.72917V30.3208C38.5 34.0417 35.4917 37.05 31.7708 37.05H7.22917C3.50833 37.05 0.5 34.0417 0.5 30.3208V6.72917C0.5 3.00833 3.50833 0 7.22917 0Z" fill="#330000"/>
<path d="M18.8665 22.1667H12.9765L11.7732 25.8875C11.7415 26.03 11.6149 26.125 11.4724 26.1092H8.49571C8.32155 26.1092 8.27405 26.0142 8.32155 25.8242L13.4199 11.1467C13.4674 10.9884 13.5149 10.8142 13.5782 10.6242C13.6415 10.2917 13.6732 9.94336 13.6732 9.59503C13.6574 9.51586 13.7207 9.4367 13.7999 9.42086H17.9007C18.0274 9.42086 18.0907 9.46836 18.1065 9.54753L23.8857 25.8559C23.9332 26.03 23.8857 26.1092 23.7274 26.1092H20.4182C20.3074 26.125 20.1965 26.0459 20.1649 25.935L18.8665 22.1667ZM13.8949 18.9525H17.9165C17.8215 18.62 17.6949 18.2242 17.5524 17.8125C17.4099 17.385 17.2674 16.9259 17.1249 16.4509C16.9665 15.96 16.824 15.485 16.6657 14.9942C16.5074 14.5034 16.3649 14.0442 16.2382 13.585C16.1115 13.1417 16.0007 12.73 15.8899 12.35H15.8582C15.7157 13.0309 15.5415 13.7117 15.3199 14.3925C15.0824 15.1525 14.8449 15.9442 14.5915 16.7359C14.3699 17.5434 14.1324 18.2875 13.8949 18.9525ZM27.4165 12.1917C26.894 12.2075 26.3874 12.0017 26.0074 11.6375C25.6432 11.2417 25.4532 10.7192 25.469 10.1809C25.4532 9.64253 25.659 9.13586 26.039 8.7717C26.419 8.40753 26.9257 8.21753 27.4482 8.21753C28.0657 8.21753 28.5407 8.40753 28.889 8.7717C29.2374 9.1517 29.4274 9.65836 29.4115 10.1809C29.4274 10.7192 29.2374 11.2417 28.8574 11.6375C28.4932 12.0175 27.9549 12.2234 27.4165 12.1917ZM25.6432 25.935V13.7434C25.6432 13.585 25.7065 13.5217 25.849 13.5217H28.984C29.1265 13.5217 29.1899 13.6009 29.1899 13.7434V25.935C29.1899 26.1092 29.1265 26.1884 28.984 26.1884H25.8807C25.7224 26.1884 25.6432 26.0934 25.6432 25.935Z" fill="#FF9A00"/>
</g>
<defs>
<clipPath id="clip0_418_977">
<rect width="38" height="37.05" fill="white" transform="translate(0.5)"/>
</clipPath>
</defs>
</svg>
