<svg width="38" height="38" viewBox="0 0 38 38" fill="none" xmlns="http://www.w3.org/2000/svg">
<path d="M7.57974 18.5764L6.91648 17.9294C4.7846 15.85 4.16872 12.9388 4.92672 10.3048C2.79483 9.84275 1.23145 7.99436 1.23145 5.7763C1.23145 3.23477 3.36334 1.15533 5.96898 1.15533C8.33774 1.15533 10.2801 2.81888 10.6591 5.03695C13.2174 4.43622 16.0125 5.12936 18.0023 7.07017L18.2866 7.34743L14.7808 10.7669L14.4965 10.4897C13.3595 9.38065 11.5119 9.38065 10.3749 10.4897C9.23788 11.5987 9.23788 13.4009 10.3749 14.5099L18.2392 22.1807L14.7334 25.6002L11.0381 21.9959L7.57974 18.5764Z" fill="#7AC143"/>
<path d="M11.5117 14.7872L19.376 7.11637C21.4605 5.08315 24.4926 4.43621 27.1456 5.17557C27.4772 2.9113 29.467 1.20154 31.8357 1.20154C34.4414 1.20154 36.5733 3.28097 36.5733 5.8225C36.5733 8.17919 34.773 10.12 32.4516 10.3973C33.2096 12.985 32.5464 15.8962 30.4619 17.9294L30.1776 18.2067L26.7666 14.7872L27.0508 14.5099C28.1878 13.4009 28.1878 11.5987 27.0508 10.4897C25.9138 9.38065 24.0662 9.38065 22.9292 10.4897L15.0649 18.1605L11.5117 14.7872Z" fill="#F9A541"/>
<path d="M27.2877 32.0234C24.5873 32.8089 21.5553 32.2082 19.4234 30.1288L19.1392 29.8515L22.6449 26.432L22.9292 26.7092C24.0662 27.8183 25.9138 27.8183 27.0508 26.7092C28.1878 25.6002 28.1878 23.798 27.0508 22.689L19.1865 15.0182L22.6923 11.5987L30.604 19.3157C32.5938 21.2565 33.3044 24.0291 32.6885 26.5706C35.0099 26.8941 36.7628 28.8349 36.7628 31.1454C36.7628 33.6869 34.6309 35.7663 32.0252 35.7663C29.6565 35.7201 27.7141 34.1028 27.2877 32.0234Z" fill="#F44321"/>
<path d="M25.914 22.4118L18.0497 30.0826C16.0125 32.0696 13.17 32.7165 10.6118 32.1158C10.138 34.1952 8.24299 35.7201 5.96898 35.7201C3.36334 35.7201 1.23145 33.6407 1.23145 31.0992C1.23145 28.9273 2.79483 27.0789 4.87935 26.6168C4.21609 24.0291 4.87935 21.2565 6.91648 19.2695L7.20074 18.9922L10.7065 22.4118L10.4223 22.689C9.28525 23.7981 9.28525 25.6002 10.4223 26.7093C11.5593 27.8183 13.4069 27.8183 14.5439 26.7093L22.4082 19.0385L25.914 22.4118Z" fill="#5091CD"/>
</svg>
