<svg width="38" height="36" viewBox="0 0 38 36" fill="none" xmlns="http://www.w3.org/2000/svg">
<g clip-path="url(#clip0_418_77)">
<path d="M38 0H0V35.3488H38V0Z" fill="#F7DF1E"/>
<path d="M25.5263 27.6164C26.2917 28.779 27.2875 29.6335 29.0488 29.6335C30.5284 29.6335 31.4736 28.9456 31.4736 27.9952C31.4736 26.8561 30.5024 26.4527 28.8739 25.7901L27.9812 25.4338C25.4044 24.4126 23.6926 23.1333 23.6926 20.4288C23.6926 17.9376 25.7331 16.0411 28.9221 16.0411C31.1925 16.0411 32.8247 16.7761 34.0009 18.7007L31.2202 20.3615C30.608 19.3403 29.9475 18.938 28.9221 18.938C27.8762 18.938 27.2133 19.5552 27.2133 20.3615C27.2133 21.358 27.8768 21.7614 29.4089 22.3786L30.3016 22.7344C33.3356 23.9446 35.0486 25.1785 35.0486 27.9525C35.0486 30.9431 32.5231 32.5815 29.1314 32.5815C25.8152 32.5815 23.6727 31.1115 22.6244 29.1847L25.5263 27.6164ZM12.9121 27.9043C13.473 28.8301 13.9833 29.6128 15.2102 29.6128C16.3833 29.6128 17.1234 29.1858 17.1234 27.5255V16.2307H20.6942V27.5704C20.6942 31.0099 18.5264 32.5754 15.3622 32.5754C12.5031 32.5754 10.8474 31.199 10.0054 29.5412L12.9121 27.9043Z" fill="black"/>
</g>
<defs>
<clipPath id="clip0_418_77">
<rect width="38" height="35.3488" fill="white"/>
</clipPath>
</defs>
</svg>
