<svg width="38" height="21" viewBox="0 0 38 21" fill="none" xmlns="http://www.w3.org/2000/svg">
<path d="M14.7904 9.1656H16.4975V4.55916H18.7522V2.97751H14.79V9.16518L14.7904 9.1656ZM11.2632 7.78578C11.0767 7.79443 10.8904 7.76408 10.7163 7.69666C10.5422 7.62924 10.3841 7.52624 10.252 7.39423C10.12 7.26222 10.0169 7.10412 9.94944 6.93002C9.88196 6.75593 9.85156 6.56967 9.86016 6.38316H14.0697C14.0697 6.38316 14.098 6.0648 14.098 5.73758C14.098 3.86713 12.9892 2.83776 11.2586 2.83776C9.42991 2.83776 8.15733 4.17071 8.15733 6.07409C8.15733 7.97789 9.41133 9.348 11.24 9.348C12.9377 9.348 14.0794 8.36591 14.1119 6.92529H12.442C12.3919 7.19181 12.2421 7.4292 12.0231 7.58914C11.8041 7.74908 11.5323 7.81913 11.2632 7.78578ZM11.2632 4.2598C11.4039 4.24008 11.5471 4.24879 11.6843 4.28543C11.8216 4.32207 11.9501 4.38589 12.0622 4.4731C12.1744 4.56031 12.2679 4.66915 12.3372 4.79315C12.4065 4.91716 12.4502 5.05381 12.4657 5.19502H9.95347C10.0381 4.91275 10.215 4.6671 10.456 4.49749C10.697 4.32789 10.9879 4.24418 11.2822 4.2598H11.2632ZM5.18278 2.97793L4.009 6.77076L2.86689 2.97793H0.982089L0 9.1656H1.56687L2.16093 5.31662L3.31613 9.1656H4.6588L5.85622 5.24611L6.42707 9.1656H8.01716L7.03971 2.97793H5.18278ZM21.8812 2.82847C20.0615 2.82847 19.0279 3.72189 19.0747 5.24189H20.843C20.843 4.59631 21.1795 4.30624 21.8859 4.30624C22.3913 4.30624 22.7092 4.51693 22.7092 4.83487C22.7092 5.04049 22.6298 5.12029 22.3208 5.20896L20.9177 5.5974C19.5518 5.96642 18.9438 6.53262 18.9438 7.46784C18.9438 8.57618 19.7482 9.31507 20.9317 9.31507C21.3093 9.35282 21.6893 9.26999 22.0169 9.07847C22.3446 8.88694 22.6032 8.59655 22.7557 8.24896V9.18418H24.3884V5.05484C24.3648 3.56271 23.4202 2.82847 21.8812 2.82847ZM21.2732 7.87487C20.8384 7.87487 20.6277 7.66418 20.6277 7.35553C20.6277 7.04731 20.7776 6.88813 21.245 6.74331L22.7232 6.32658V6.43889C22.7277 6.62987 22.6932 6.81976 22.6217 6.99693C22.5503 7.1741 22.4434 7.33481 22.3077 7.46922C22.1719 7.60363 22.0101 7.7089 21.8323 7.77858C21.6544 7.84826 21.4642 7.8813 21.2732 7.87487ZM32.7564 10.8165V12.3973H34.5247V17.0037H36.2317V12.3973H38V10.8165H32.7564ZM26.6101 10.8165H24.73L23.4017 13.113H22.7232V10.8165H21.0161V17.0042H22.7232V14.633H23.392L24.8191 17.0042H26.7461L24.8609 13.8472L26.6101 10.8165ZM11.3709 10.667C9.55109 10.667 8.51285 11.5604 8.56436 13.0804H10.3326C10.3326 12.4344 10.6691 12.1448 11.3755 12.1448C11.8809 12.1448 12.1988 12.3601 12.1988 12.6781C12.1988 12.879 12.1195 12.9588 11.8062 13.0475L10.4027 13.436C9.04147 13.81 8.43347 14.3712 8.43347 15.3064C8.43347 16.4101 9.2378 17.1536 10.4213 17.1536C10.7994 17.1946 11.1807 17.1126 11.5085 16.9197C11.8364 16.7268 12.0932 16.4333 12.2411 16.0829V17.0181H13.878V12.8744C13.8548 11.4013 12.9099 10.667 11.3709 10.667ZM10.754 15.7134C10.3284 15.7134 10.1131 15.5027 10.1131 15.1899C10.1131 14.8762 10.2676 14.7216 10.735 14.5907L12.2086 14.1744V14.2774C12.2131 14.4688 12.1784 14.6591 12.1066 14.8365C12.0349 15.014 11.9276 15.1749 11.7913 15.3094C11.6551 15.4438 11.4928 15.549 11.3144 15.6184C11.136 15.6878 10.9453 15.7204 10.754 15.7134ZM18.0272 10.667C17.6705 10.6447 17.316 10.7371 17.0156 10.9307C16.7151 11.1242 16.4845 11.4088 16.3573 11.7428V10.8072H14.6498V18.6926H16.3573V16.0922C16.4889 16.4214 16.7213 16.7006 17.0213 16.8896C17.3213 17.0786 17.6734 17.1678 18.0272 17.1443C19.4302 17.1443 20.3659 16.0499 20.3659 13.908C20.3659 11.7661 19.4446 10.667 18.0272 10.667ZM17.5594 15.5635C16.7783 15.5635 16.3104 15.0307 16.3104 13.9084C16.3104 12.7853 16.7783 12.2478 17.5501 12.2478C18.3219 12.2478 18.7053 12.7857 18.7053 13.908C18.7053 15.0307 18.3126 15.5635 17.5501 15.5635H17.5594ZM5.18278 10.8165L4.009 14.6047L2.86731 10.8165H0.982089L0 17.0042H1.56687L2.16093 13.1548L3.31613 17.0042H4.6588L5.85622 13.0847L6.42707 17.0042H8.01716L7.03971 10.8165H5.18278Z" fill="#6933B0"/>
<path d="M29.5194 15.6243C29.333 15.6323 29.147 15.6015 28.9731 15.5339C28.7993 15.4662 28.6413 15.3631 28.5094 15.2312C28.3774 15.0993 28.2743 14.9414 28.2066 14.7676C28.1389 14.5937 28.108 14.4077 28.116 14.2213H32.3255C32.3255 14.2213 32.3538 13.9034 32.3538 13.5761C32.3538 11.7057 31.2497 10.6763 29.5144 10.6763C27.6857 10.6763 26.4136 12.0093 26.4136 13.908C26.4136 15.8072 27.6672 17.1819 29.4958 17.1819C31.194 17.1819 32.3352 16.1998 32.3724 14.7592H30.6979C30.6488 15.0265 30.4994 15.2649 30.2804 15.4258C30.0614 15.5867 29.7892 15.6574 29.5194 15.6243ZM29.5194 12.0984C29.6603 12.0793 29.8035 12.0885 29.9407 12.1254C30.0779 12.1623 30.2064 12.2261 30.3187 12.3131C30.4311 12.4002 30.5249 12.5087 30.5949 12.6324C30.6648 12.7561 30.7094 12.8925 30.7262 13.0336H28.2097C28.2935 12.7509 28.4702 12.5048 28.7113 12.3351C28.9524 12.1653 29.2437 12.0819 29.538 12.0984H29.5194Z" fill="#6933B0"/>
</svg>
