<svg width="38" height="38" viewBox="0 0 38 38" fill="none" xmlns="http://www.w3.org/2000/svg">
<path d="M1.40513 19.4422L0.496623 17.8124C0.458125 18.1044 0.419627 18.3963 0.381129 18.6882C0.565919 19.1426 0.750709 19.597 0.935499 20.0514L0.43312 21.2794C0.32342 21.3441 0.213682 21.4088 0.103944 21.4736C0.0692962 21.5611 0.0346481 21.6487 0 21.7363C0 21.7363 0.692962 21.7401 1.03944 21.742C1.19343 21.5173 1.34743 21.2013 1.50142 20.9766C1.82865 20.7596 2.15584 20.5426 2.48308 20.3255C2.12379 20.0311 1.40513 19.4422 1.40513 19.4422Z" fill="#202020"/>
<path d="M2.65641 16.7329C2.46777 16.6485 2.27913 16.5641 2.09049 16.4797C2.03915 16.3985 1.98784 16.3173 1.9365 16.236C1.85436 16.1903 1.77226 16.1446 1.69011 16.0989C1.58232 16.17 1.47453 16.2411 1.36673 16.3122C1.32309 16.4734 1.27948 16.6345 1.23584 16.7958C1.46107 16.7615 1.9115 16.6929 1.9115 16.6929C2.15979 16.7063 2.40812 16.7196 2.65641 16.7329Z" fill="#202020"/>
<path d="M5.5551 21.3651C5.47616 21.4165 5.39726 21.4679 5.31836 21.5193C5.28947 21.5973 5.26061 21.6754 5.23176 21.7535C5.23176 21.7535 5.90932 21.7611 6.2481 21.7649C6.32902 21.2997 6.39058 20.9687 6.43289 20.7254C6.36611 20.586 6.29929 20.4465 6.23251 20.307C5.78979 20.3557 5.34706 20.4043 4.9043 20.453C5.01137 20.6092 5.12175 20.767 5.23549 20.9262C5.34226 21.0756 5.5551 21.3651 5.5551 21.3651Z" fill="#202020"/>
<path d="M3.85175 16.9557C3.77285 16.8587 3.69391 16.7616 3.61501 16.6644C3.35067 16.5674 3.08629 16.4702 2.82196 16.3732C2.7963 16.2945 2.77061 16.2158 2.74496 16.1371C2.68851 16.0914 2.63202 16.0457 2.57557 16C2.50113 16.0279 2.42672 16.0558 2.35228 16.0838C2.30159 16.1498 2.25089 16.2158 2.2002 16.2818C2.63907 16.4589 3.10009 16.6604 3.5217 16.8747C3.5217 16.8747 3.6646 17.1813 3.73607 17.3347C3.94304 17.3683 4.15002 17.4019 4.35703 17.4356C4.37723 17.4594 4.39747 17.4831 4.41767 17.507C4.41451 17.5148 4.41135 17.5227 4.40811 17.5305C4.40509 17.5379 4.40208 17.5452 4.39907 17.5525L4.25789 17.6222L4.36042 17.7269C4.32368 17.8087 4.28693 17.8906 4.25019 17.9725C4.14407 18.0924 4.03799 18.2122 3.93188 18.3321C3.7528 18.3032 3.57373 18.2743 3.39466 18.2455L3.55364 18.414C3.43125 18.4436 3.30882 18.4731 3.18643 18.5027C2.84014 18.4421 2.27529 18.3723 2.27529 18.3723L3.26274 21.1881C3.14339 21.2738 3.02405 21.3595 2.90471 21.4451C2.872 21.5403 2.83926 21.6355 2.80652 21.7307C2.80652 21.7307 3.58158 21.7332 3.96915 21.7345C4.06155 21.4375 4.24634 20.8207 4.24634 20.8207L4.18089 20.1429L6.29683 19.8785C6.29683 19.8785 6.60321 19.5369 6.7564 19.3661C6.7025 19.6428 6.64861 19.9195 6.59471 20.1962C6.6966 20.3612 6.80431 20.5296 6.91809 20.7008C7.03591 20.8779 7.27033 21.211 7.27033 21.211C7.15868 21.289 7.04708 21.3671 6.9354 21.4452C6.8937 21.5467 6.852 21.6483 6.8103 21.7498C6.8103 21.7498 7.6598 21.76 8.08454 21.765C8.20647 21.4604 8.32837 21.1558 8.45027 20.8512C8.42847 20.1658 8.40663 19.5946 8.38482 18.9092L8.74285 18.8978C8.52727 18.498 8.31168 18.0981 8.09609 17.6983C7.44418 17.3531 6.79231 17.0079 6.1404 16.6626C5.37757 16.7603 4.61466 16.858 3.85175 16.9557Z" fill="#202020"/>
<path d="M2.95898 17.2145C3.06476 17.1691 3.17053 17.1236 3.27631 17.0782C3.30924 17.1554 3.34217 17.2325 3.3751 17.3097C3.2364 17.2779 3.09769 17.2462 2.95898 17.2145Z" fill="#202020"/>
<path d="M12.8594 20.2144V18.1052L12.0009 20.2144H11.7178L10.8593 18.1052V20.2144H10.2109V17.202H11.1196L11.8593 19.0221L12.5991 17.202H13.5123V20.2144H12.8594Z" fill="#202020"/>
<path d="M13.8779 18.7104C13.8779 17.8027 14.5492 17.1523 15.467 17.1523C16.3893 17.1523 17.0606 17.8027 17.0606 18.7104C17.0606 19.6182 16.3894 20.2686 15.467 20.2686C14.5492 20.2686 13.8779 19.6182 13.8779 18.7104ZM16.3939 18.7104C16.3939 18.1459 16.0286 17.7214 15.467 17.7214C14.9054 17.7214 14.5446 18.1459 14.5446 18.7104C14.5446 19.2705 14.9054 19.6995 15.467 19.6995C16.0286 19.6995 16.3939 19.2705 16.3939 18.7104Z" fill="#202020"/>
<path d="M17.2798 18.7104C17.2798 17.7575 18.0104 17.1523 18.9008 17.1523C19.5355 17.1523 19.9327 17.4685 20.1611 17.8253L19.6222 18.1143C19.4852 17.902 19.225 17.7214 18.9007 17.7214C18.3482 17.7214 17.9464 18.1414 17.9464 18.7104C17.9464 19.2795 18.3482 19.6995 18.9007 19.6995C19.1701 19.6995 19.4259 19.5821 19.5492 19.4692V19.1079H18.7455V18.5478H20.1976V19.704C19.8871 20.0473 19.4533 20.2731 18.9008 20.2731C18.0104 20.2731 17.2798 19.6589 17.2798 18.7104Z" fill="#202020"/>
<path d="M20.6226 19.013V17.202H21.2801V18.9904C21.2801 19.4105 21.5267 19.6995 21.997 19.6995C22.4674 19.6995 22.7094 19.4105 22.7094 18.9904V17.202H23.3715V19.0085C23.3715 19.7583 22.924 20.2686 21.997 20.2686C21.07 20.2686 20.6226 19.7537 20.6226 19.013Z" fill="#202020"/>
<path d="M24.5813 20.2144V17.7665H23.6909V17.202H26.1201V17.7665H25.2343V20.2144L24.5813 20.2144Z" fill="#202020"/>
<path d="M28.2528 20.2144L28.0656 19.704H26.7596L26.5678 20.2144H25.8281L27.0062 17.202H27.819L28.9925 20.2144H28.2528ZM27.4126 17.8433L26.9377 19.1395H27.8875L27.4126 17.8433Z" fill="#202020"/>
<path d="M29.3647 18.7104C29.3647 17.7846 30.0451 17.1523 30.9081 17.1523C31.3921 17.1523 31.7574 17.3646 32.0177 17.6853L31.7985 17.8253C31.6068 17.5633 31.2734 17.3872 30.9081 17.3872C30.1912 17.3872 29.6387 17.9246 29.6387 18.7105C29.6387 19.4873 30.1912 20.0338 30.9081 20.0338C31.2734 20.0338 31.6068 19.8577 31.7985 19.5957L32.0177 19.7312C31.7483 20.0609 31.3921 20.2687 30.9081 20.2687C30.0451 20.2686 29.3647 19.6363 29.3647 18.7104Z" fill="#202020"/>
<path d="M35.041 20.2144V17.5542L33.9314 20.2144H33.831L32.7168 17.5542V20.2144H32.4565V17.202H32.8447L33.8812 19.686L34.9132 17.202H35.3059V20.2144H35.041Z" fill="#202020"/>
<path d="M35.8037 19.7898L35.9727 19.5956C36.169 19.8215 36.4887 20.0337 36.9225 20.0337C37.548 20.0337 37.7261 19.6905 37.7261 19.433C37.7261 18.5478 35.8996 19.0085 35.8996 17.9561C35.8996 17.4639 36.3471 17.1522 36.8996 17.1522C37.3562 17.1522 37.6941 17.3103 37.9316 17.5768L37.758 17.7665C37.5389 17.5045 37.2284 17.3871 36.8859 17.3871C36.4795 17.3871 36.1736 17.6174 36.1736 17.9426C36.1736 18.7149 38.0001 18.2904 38.0001 19.415C38.0001 19.8034 37.7398 20.2686 36.9179 20.2686C36.4156 20.2686 36.0366 20.0698 35.8037 19.7898Z" fill="#202020"/>
<path d="M10.1958 21.4312C10.1958 21.1882 10.3573 20.9919 10.6154 20.9919C10.8734 20.9919 11.0349 21.1882 11.0349 21.4312C11.0349 21.6743 10.8734 21.8722 10.6154 21.8722C10.3573 21.8722 10.1958 21.6743 10.1958 21.4312ZM10.8962 21.4312C10.8962 21.2611 10.7962 21.1083 10.6154 21.1083C10.4345 21.1083 10.3327 21.2611 10.3327 21.4312C10.3327 21.6032 10.4345 21.7559 10.6154 21.7559C10.7962 21.756 10.8962 21.6032 10.8962 21.4312Z" fill="#202020"/>
<path d="M11.1997 21.4312C11.1997 21.1829 11.37 20.9919 11.6228 20.9919C11.7773 20.9919 11.8686 21.0544 11.9335 21.1378L11.8458 21.2176C11.7896 21.1413 11.7176 21.1083 11.6298 21.1083C11.449 21.1083 11.3367 21.2454 11.3367 21.4312C11.3367 21.617 11.449 21.7559 11.6298 21.7559C11.7176 21.7559 11.7896 21.7212 11.8458 21.6465L11.9335 21.7264C11.8686 21.8098 11.7773 21.8722 11.6228 21.8722C11.37 21.8723 11.1997 21.6812 11.1997 21.4312Z" fill="#202020"/>
<path d="M12.1182 21.8514V21.0128H12.2498V21.3618H12.6922V21.0128H12.8239V21.8514H12.6922V21.4764H12.2498V21.8514H12.1182Z" fill="#202020"/>
<path d="M13.0381 21.4312C13.0381 21.1882 13.1996 20.9919 13.4576 20.9919C13.7157 20.9919 13.8772 21.1882 13.8772 21.4312C13.8772 21.6743 13.7157 21.8722 13.4576 21.8722C13.1996 21.8723 13.0381 21.6743 13.0381 21.4312ZM13.7385 21.4312C13.7385 21.2611 13.6385 21.1083 13.4576 21.1083C13.2768 21.1083 13.175 21.2611 13.175 21.4312C13.175 21.6032 13.2768 21.7559 13.4576 21.7559C13.6385 21.756 13.7385 21.6032 13.7385 21.4312Z" fill="#202020"/>
<path d="M14.0913 21.8514V21.0128H14.5583C14.7075 21.0128 14.797 21.1013 14.797 21.2281C14.797 21.3288 14.7321 21.3965 14.6601 21.4191C14.7462 21.4399 14.8146 21.5284 14.8146 21.624C14.8146 21.7594 14.7233 21.8514 14.5671 21.8514H14.0913ZM14.6619 21.2472C14.6619 21.1742 14.6163 21.1274 14.5355 21.1274H14.223V21.3635H14.5355C14.618 21.3635 14.6619 21.3132 14.6619 21.2472ZM14.6777 21.6083C14.6777 21.5406 14.6303 21.4781 14.5407 21.4781H14.223V21.7368H14.5407C14.625 21.7368 14.6777 21.6882 14.6777 21.6083Z" fill="#202020"/>
<path d="M15.5941 21.8514V21.756C15.5239 21.8323 15.4274 21.8723 15.3133 21.8723C15.1693 21.8723 15.0166 21.7768 15.0166 21.5945C15.0166 21.4069 15.1693 21.3184 15.3133 21.3184C15.4291 21.3184 15.5257 21.3549 15.5941 21.433V21.2819C15.5941 21.1691 15.5029 21.1048 15.38 21.1048C15.2782 21.1048 15.1956 21.1413 15.1201 21.2212L15.0587 21.1308C15.15 21.0371 15.2588 20.9919 15.3975 20.9919C15.5766 20.9919 15.7258 21.0718 15.7258 21.2749V21.8514H15.5941ZM15.5941 21.6743V21.5163C15.5433 21.4469 15.4537 21.4122 15.3607 21.4122C15.2378 21.4122 15.1518 21.4885 15.1518 21.5962C15.1518 21.7021 15.2378 21.7785 15.3607 21.7785C15.4537 21.7785 15.5433 21.7438 15.5941 21.6743Z" fill="#202020"/>
<path d="M16.4424 21.8514V21.0128H16.9094C17.0586 21.0128 17.1481 21.1013 17.1481 21.2281C17.1481 21.3288 17.0832 21.3965 17.0112 21.4191C17.0972 21.4399 17.1657 21.5284 17.1657 21.624C17.1657 21.7594 17.0744 21.8514 16.9182 21.8514H16.4424ZM17.013 21.2472C17.013 21.1742 16.9673 21.1274 16.8866 21.1274H16.5741V21.3635H16.8866C16.9691 21.3635 17.013 21.3132 17.013 21.2472ZM17.0288 21.6083C17.0288 21.5406 16.9814 21.4781 16.8918 21.4781H16.5741V21.7368H16.8918C16.9761 21.7368 17.0288 21.6882 17.0288 21.6083Z" fill="#202020"/>
<path d="M17.9453 21.8514V21.756C17.875 21.8323 17.7785 21.8723 17.6644 21.8723C17.5204 21.8723 17.3677 21.7768 17.3677 21.5945C17.3677 21.4069 17.5204 21.3184 17.6644 21.3184C17.7802 21.3184 17.8768 21.3549 17.9453 21.433V21.2819C17.9453 21.1691 17.854 21.1048 17.7311 21.1048C17.6293 21.1048 17.5467 21.1413 17.4712 21.2212L17.4098 21.1308C17.5011 21.0371 17.6099 20.9919 17.7487 20.9919C17.9277 20.9919 18.0769 21.0718 18.0769 21.2749V21.8514H17.9453ZM17.9453 21.6743V21.5163C17.8943 21.4469 17.8048 21.4122 17.7118 21.4122C17.5889 21.4122 17.5029 21.4885 17.5029 21.5962C17.5029 21.7021 17.5889 21.7785 17.7118 21.7785C17.8048 21.7785 17.8943 21.7438 17.9453 21.6743Z" fill="#202020"/>
<path d="M19.4516 21.0128V21.8514H18.3403V21.0128H18.472V21.7368H18.8302V21.0128H18.9618V21.7368H19.32V21.0128H19.4516Z" fill="#202020"/>
<path d="M19.6655 21.4312C19.6655 21.1882 19.841 20.9919 20.0833 20.9919C20.3397 20.9919 20.4906 21.1899 20.4906 21.4417V21.4746H19.8042C19.8148 21.6326 19.9271 21.7646 20.1097 21.7646C20.2062 21.7646 20.3046 21.7264 20.3713 21.6587L20.4344 21.7438C20.3502 21.8271 20.2361 21.8722 20.0974 21.8722C19.8463 21.8723 19.6655 21.6935 19.6655 21.4312ZM20.0816 21.0996C19.9007 21.0996 19.8112 21.2507 19.8042 21.3791H20.3607C20.3589 21.2541 20.2747 21.0996 20.0816 21.0996Z" fill="#202020"/>
<path d="M21.2965 21.1274H20.8348V21.8514H20.7031V21.0128H21.2965V21.1274Z" fill="#202020"/>
<path d="M21.4194 21.4312C21.4194 21.1882 21.5809 20.9919 21.839 20.9919C22.0971 20.9919 22.2586 21.1882 22.2586 21.4312C22.2586 21.6743 22.0971 21.8722 21.839 21.8722C21.5809 21.8722 21.4194 21.6743 21.4194 21.4312ZM22.1199 21.4312C22.1199 21.2611 22.0198 21.1083 21.839 21.1083C21.6582 21.1083 21.5564 21.2611 21.5564 21.4312C21.5564 21.6032 21.6582 21.7559 21.839 21.7559C22.0198 21.756 22.1199 21.6032 22.1199 21.4312Z" fill="#202020"/>
<path d="M22.9258 21.8514V21.0128H23.0574V21.6535L23.5016 21.0128H23.6315V21.8514H23.4999V21.1986L23.0522 21.8514H22.9258Z" fill="#202020"/>
<path d="M23.895 21.8514V21.0128H24.0267V21.3618H24.4691V21.0128H24.6007V21.8514H24.4691V21.4764H24.0267V21.8514H23.895Z" fill="#202020"/>
<path d="M25.0187 21.8514V21.1274H24.7729V21.0128H25.3979V21.1274H25.1504V21.8514H25.0187Z" fill="#202020"/>
<path d="M25.521 21.4312C25.521 21.1882 25.6965 20.9919 25.9388 20.9919C26.1952 20.9919 26.3461 21.1899 26.3461 21.4417V21.4746H25.6597C25.6702 21.6326 25.7826 21.7646 25.9652 21.7646C26.0617 21.7646 26.16 21.7264 26.2268 21.6587L26.2899 21.7438C26.2057 21.8271 26.0916 21.8722 25.9529 21.8722C25.7018 21.8723 25.521 21.6935 25.521 21.4312ZM25.937 21.0996C25.7563 21.0996 25.6667 21.2507 25.6597 21.3791H26.2162C26.2144 21.2541 26.1302 21.0996 25.937 21.0996Z" fill="#202020"/>
<path d="M26.6903 21.7247V22.1709H26.5586V21.0128H26.6903V21.1378C26.7517 21.0527 26.857 20.9919 26.9764 20.9919C27.1994 20.9919 27.3539 21.1586 27.3539 21.4312C27.3539 21.7021 27.1994 21.8722 26.9764 21.8722C26.8606 21.8723 26.7587 21.8184 26.6903 21.7247ZM27.2152 21.4312C27.2152 21.2454 27.1133 21.1083 26.943 21.1083C26.8394 21.1083 26.7358 21.169 26.6902 21.242V21.6205C26.7358 21.6935 26.8394 21.756 26.943 21.756C27.1133 21.756 27.2152 21.617 27.2152 21.4312Z" fill="#202020"/>
<path d="M27.5625 21.8514V21.0128H27.6942V21.3618H28.1365V21.0128H28.2682V21.8514H28.1365V21.4764H27.6942V21.8514H27.5625Z" fill="#202020"/>
<path d="M28.4824 21.4312C28.4824 21.1882 28.6579 20.9919 28.9002 20.9919C29.1566 20.9919 29.3075 21.1899 29.3075 21.4417V21.4746H28.6211C28.6316 21.6326 28.744 21.7646 28.9266 21.7646C29.0231 21.7646 29.1214 21.7264 29.1882 21.6587L29.2513 21.7438C29.1671 21.8271 29.053 21.8722 28.9142 21.8722C28.6632 21.8723 28.4824 21.6935 28.4824 21.4312ZM28.8985 21.0996C28.7177 21.0996 28.6281 21.2507 28.6211 21.3791H29.1776C29.1758 21.2541 29.0916 21.0996 28.8985 21.0996Z" fill="#202020"/>
<path d="M29.6745 21.8514V21.1274H29.4287V21.0128H30.0537V21.1274H29.8061V21.8514H29.6745Z" fill="#202020"/>
<path d="M30.147 21.4885V21.374H30.5683V21.4885H30.147Z" fill="#202020"/>
<path d="M31.4863 21.8514V21.1933L31.2106 21.8514H31.1615L30.8841 21.1933V21.8514H30.7524V21.0128H30.9263L31.1861 21.6344L31.4424 21.0128H31.618V21.8514H31.4863Z" fill="#202020"/>
<path d="M32.4115 21.8514V21.756C32.3413 21.8323 32.2448 21.8723 32.1307 21.8723C31.9868 21.8723 31.834 21.7768 31.834 21.5945C31.834 21.4069 31.9868 21.3184 32.1307 21.3184C32.2466 21.3184 32.3431 21.3549 32.4115 21.433V21.2819C32.4115 21.1691 32.3202 21.1048 32.1974 21.1048C32.0955 21.1048 32.013 21.1413 31.9376 21.2212L31.8761 21.1308C31.9674 21.0371 32.0763 20.9919 32.215 20.9919C32.394 20.9919 32.5433 21.0718 32.5433 21.2749V21.8514H32.4115ZM32.4115 21.6743V21.5163C32.3606 21.4469 32.2711 21.4122 32.1781 21.4122C32.0552 21.4122 31.9692 21.4885 31.9692 21.5962C31.9692 21.7021 32.0552 21.7785 32.1781 21.7785C32.2711 21.7785 32.3606 21.7438 32.4115 21.6743Z" fill="#202020"/>
<path d="M33.4 21.1274H32.9383V21.8514H32.8066V21.0128H33.4V21.1274Z" fill="#202020"/>
<path d="M34.1024 21.8514V21.756C34.0322 21.8323 33.9357 21.8723 33.8216 21.8723C33.6776 21.8723 33.5249 21.7768 33.5249 21.5945C33.5249 21.4069 33.6776 21.3184 33.8216 21.3184C33.9374 21.3184 34.034 21.3549 34.1024 21.433V21.2819C34.1024 21.1691 34.0111 21.1048 33.8883 21.1048C33.7865 21.1048 33.7039 21.1413 33.6285 21.2212L33.567 21.1308C33.6583 21.0371 33.7672 20.9919 33.9059 20.9919C34.085 20.9919 34.2342 21.0718 34.2342 21.2749V21.8514H34.1024ZM34.1024 21.6743V21.5163C34.0515 21.4469 33.962 21.4122 33.8689 21.4122C33.7461 21.4122 33.6601 21.4885 33.6601 21.5962C33.6601 21.7021 33.7461 21.7785 33.8689 21.7785C33.962 21.7785 34.0515 21.7438 34.1024 21.6743Z" fill="#202020"/>
<path d="M34.415 21.7351L34.48 21.6518C34.559 21.7264 34.6714 21.7646 34.7977 21.7646C34.9487 21.7646 35.0471 21.7073 35.0471 21.6187C35.0471 21.5146 34.9294 21.4798 34.7802 21.4798H34.5906V21.3739H34.7802C34.9206 21.3739 35.0312 21.3288 35.0312 21.2333C35.0312 21.1534 34.9241 21.0996 34.7837 21.0996C34.6644 21.0996 34.5713 21.1343 34.4993 21.2072L34.4308 21.1273C34.5098 21.0475 34.6239 20.9936 34.7784 20.9936C35.0067 20.9918 35.1682 21.0752 35.1682 21.2176C35.1682 21.3426 35.04 21.4103 34.94 21.4225C35.0382 21.4295 35.1857 21.4885 35.1857 21.6274C35.1857 21.7681 35.0418 21.8722 34.7977 21.8722C34.6275 21.8723 34.4993 21.8184 34.415 21.7351Z" fill="#202020"/>
<path d="M35.3999 21.8514V21.0128H35.5316V21.6535L35.9757 21.0128H36.1056V21.8514H35.9739V21.1986L35.5263 21.8514H35.3999Z" fill="#202020"/>
<path d="M36.3691 21.8514V21.0128H36.5008V21.3618H36.9432V21.0128H37.0748V21.8514H36.9432V21.4764H36.5008V21.8514H36.3691Z" fill="#202020"/>
<path d="M37.8681 21.8514V21.756C37.7979 21.8323 37.7013 21.8723 37.5872 21.8723C37.4433 21.8723 37.2905 21.7768 37.2905 21.5945C37.2905 21.4069 37.4433 21.3184 37.5872 21.3184C37.7031 21.3184 37.7996 21.3549 37.8681 21.433V21.2819C37.8681 21.1691 37.7768 21.1048 37.6539 21.1048C37.5521 21.1048 37.4696 21.1413 37.3941 21.2212L37.3327 21.1308C37.424 21.0371 37.5328 20.9919 37.6715 20.9919C37.8506 20.9919 37.9998 21.0718 37.9998 21.2749V21.8514H37.8681ZM37.8681 21.6743V21.5163C37.8171 21.4469 37.7276 21.4122 37.6346 21.4122C37.5117 21.4122 37.4257 21.4885 37.4257 21.5962C37.4257 21.7021 37.5117 21.7785 37.6346 21.7785C37.7277 21.7785 37.8171 21.7438 37.8681 21.6743Z" fill="#202020"/>
</svg>
