<svg width="38" height="39" viewBox="0 0 38 39" fill="none" xmlns="http://www.w3.org/2000/svg">
<path fill-rule="evenodd" clip-rule="evenodd" d="M5.73779 33.4118C10.4081 33.4118 13.9409 27.2301 17.1084 20.4808C18.6308 17.2079 20.0515 13.7793 21.4735 10.8729C23.0339 7.65026 24.6354 5.37332 26.5931 5.37332C28.2546 5.37332 29.8169 6.73703 31.3712 8.87239C34.5951 13.3049 37.382 20.8117 37.382 25.7376C37.382 29.8625 35.292 33.4118 31.0109 33.4118H5.73779Z" fill="#64CDFF"/>
<path fill-rule="evenodd" clip-rule="evenodd" d="M17.1078 20.4802C13.8987 13.9043 12.4461 9.08017 9.6059 9.08017C7.84442 9.08017 5.858 10.9606 4.05913 14.0416C2.13277 17.3096 0.617676 21.9236 0.617676 26.8856C0.617676 30.8045 2.50358 33.4112 5.73726 33.4112C10.4094 33.4112 13.9416 27.2295 17.1078 20.4802Z" fill="#2855AF"/>
</svg>
