<svg width="38" height="22" viewBox="0 0 38 22" fill="none" xmlns="http://www.w3.org/2000/svg">
<path d="M8.81906 20.0151H7.40365C7.35359 18.3206 7.21574 16.7275 6.99037 15.2348H6.97779L4.8228 20.0151H3.74517L1.60304 15.2348H1.59073C1.43183 16.668 1.33172 18.2614 1.29015 20.0151H0C0.0831471 17.8826 0.292109 15.8833 0.626065 14.0171H2.38036L4.42211 18.4244H4.43469L6.48903 14.0171H8.16756C8.53516 16.203 8.75232 18.2025 8.81906 20.0151ZM14.9574 15.5898C14.3812 17.8079 13.6208 19.4196 12.6772 20.4256C11.942 21.2 11.1365 21.5876 10.2594 21.5876C10.0255 21.5876 9.73696 21.5376 9.39507 21.4383V20.9034C9.56219 20.9205 9.75829 20.9302 9.98367 20.9302C10.3934 20.9302 10.7227 20.8503 10.9738 20.69C11.2741 20.4949 11.4242 20.2755 11.4242 20.0328C11.4242 19.8663 11.3072 19.5261 11.0736 19.0108L9.52034 15.5896H10.9109L12.0257 18.1483C12.2762 18.7294 12.3807 19.135 12.3389 19.366C12.9485 18.2112 13.3744 16.952 13.617 15.5894H14.9574V15.5898Z" fill="#5D87A1"/>
<path d="M34.7662 20.1339H30.6012V14.1068H32.0022V19.392H34.7662V20.1339ZM29.5109 20.2796L27.9004 19.7328C28.0432 19.6521 28.1798 19.5647 28.3028 19.4636C28.9873 18.9103 29.3287 18.0922 29.3287 17.0086C29.3287 15.0146 28.1914 14.0171 25.916 14.0171C24.8002 14.0171 23.9298 14.2701 23.3073 14.7764C22.6233 15.33 22.2819 16.1452 22.2819 17.223C22.2819 18.2824 22.5845 19.0597 23.19 19.5526C23.7439 19.9992 24.5789 20.2228 25.6955 20.2228C26.112 20.2228 26.4942 20.1877 26.8425 20.117L28.9391 20.9568L29.5109 20.2796ZM24.2939 18.9279C23.9391 18.5353 23.7618 17.9049 23.7618 17.0356C23.7618 15.5181 24.4318 14.7584 25.7734 14.7584C26.4747 14.7584 26.9887 14.9401 27.3173 15.3027C27.6715 15.6959 27.8497 16.3206 27.8497 17.1778C27.8497 18.7078 27.1791 19.4729 25.8383 19.4729C25.1368 19.4731 24.6228 19.292 24.2939 18.9279ZM21.6713 18.4633C21.6713 18.9745 21.3988 19.3938 20.8542 19.7222C20.3091 20.0493 19.5781 20.2133 18.662 20.2133C17.8052 20.2133 16.9745 20.025 16.1704 19.6503L16.547 19.1328C17.2389 19.3712 17.8653 19.4897 18.4277 19.4897C18.9556 19.4897 19.3681 19.4092 19.6673 19.2495C19.9662 19.0893 20.1444 18.8645 20.1444 18.5803C20.1444 18.2222 19.7815 17.9162 19.1157 17.6598C18.5017 17.4279 17.2737 16.9429 17.2737 16.9429C16.6082 16.6091 16.275 16.2508 16.275 15.6606C16.275 15.1721 16.5234 14.7777 17.0207 14.4777C17.5185 14.1765 18.1608 14.0264 18.9482 14.0264C19.7614 14.0264 20.5006 14.1764 21.1664 14.473L20.8287 14.9908C20.2592 14.8243 19.6971 14.7411 19.1426 14.7411C18.6935 14.7411 18.3467 14.8153 18.1056 14.9645C17.8625 15.113 17.7126 15.3031 17.7126 15.5362C17.7126 15.8926 18.0832 16.2025 18.7672 16.4639C19.3894 16.6963 20.6479 17.1896 20.6479 17.1896C21.3305 17.5228 21.6713 17.8778 21.6713 18.4633Z" fill="#F8981D"/>
<path d="M30.6915 8.29503C29.8333 8.27991 29.1688 8.33978 28.6111 8.50329C28.4501 8.54785 28.1941 8.54785 28.1717 8.68888C28.2587 8.74855 28.2687 8.84482 28.3442 8.92717C28.4728 9.07576 28.697 9.27567 28.9016 9.3799C29.1264 9.49924 29.352 9.61739 29.5885 9.72143C30.0055 9.90025 30.4783 10.0043 30.8847 10.1825C31.1215 10.2861 31.3569 10.4202 31.5939 10.5318C31.7105 10.5913 31.7851 10.6877 31.9364 10.7249V10.7023C31.8606 10.6354 31.8391 10.5388 31.7647 10.4644L31.4427 10.2491C31.1315 9.95952 30.7449 9.70671 30.3279 9.49904C29.9846 9.33514 29.2337 9.11236 29.0945 8.83826L29.0727 8.82314C29.3086 8.80782 29.5885 8.74855 29.8126 8.703C30.1775 8.63636 30.5101 8.65148 30.8844 8.58484C31.0566 8.55501 31.2274 8.51761 31.4002 8.48081V8.41378C31.2062 8.27991 31.0678 8.10209 30.8637 7.97558C30.3178 7.64877 29.7162 7.32911 29.0945 7.06158C28.7615 6.91259 28.3333 6.81672 27.9788 6.69001C27.8511 6.64525 27.6358 6.62317 27.5606 6.54878C27.3683 6.38528 27.2601 6.17005 27.1206 5.97651C26.8106 5.56815 26.5095 5.11502 26.242 4.68319C26.0485 4.39357 25.9309 4.10435 25.6949 3.83642C24.5899 2.57333 23.3898 1.80831 21.5454 1.05742C21.149 0.901076 20.6774 0.834441 20.1736 0.752489L19.3691 0.72305C19.1975 0.670935 19.0255 0.529509 18.8757 0.462674C18.2638 0.195337 16.6882 -0.384094 16.2382 0.380922C15.9483 0.864476 16.667 1.33988 16.9139 1.58513C17.0961 1.7554 17.3323 1.94914 17.4598 2.14249C17.5353 2.26879 17.5565 2.40286 17.632 2.53633C17.8036 2.86334 17.9641 3.22715 18.1897 3.53228C18.3074 3.68783 18.4357 3.85134 18.5861 3.99217C18.6722 4.07452 18.822 4.11092 18.8547 4.24518C18.7052 4.39317 18.6934 4.61655 18.6076 4.80233C18.2218 5.64194 18.3725 6.68205 18.9193 7.29908C19.0904 7.48486 19.4985 7.89382 20.0445 7.73708C20.5278 7.60341 20.4208 7.17993 20.5597 6.80856C20.5916 6.71885 20.5706 6.65997 20.6349 6.6011V6.61562C20.7844 6.82348 20.9354 7.02378 21.074 7.23224C21.4067 7.59605 21.9859 7.97518 22.4684 8.2272C22.7253 8.36166 22.9288 8.59161 23.2506 8.67376V8.65148H23.2293C23.1642 8.58484 23.0689 8.55501 22.9834 8.50329C22.7899 8.36942 22.5758 8.20592 22.4257 8.05753C21.9762 7.64121 21.5784 7.18033 21.2253 6.70473C21.0525 6.47399 20.9036 6.22177 20.7643 5.99143C20.6995 5.90252 20.6995 5.76845 20.5918 5.72369C20.4305 5.887 20.1955 6.02843 20.0778 6.22853C19.8737 6.54858 19.8525 6.94223 19.7767 7.35159L19.7345 7.36591C19.3929 7.30644 19.2741 7.06158 19.1444 6.85371C18.8232 6.3258 18.7692 5.47844 19.0479 4.86937C19.1225 4.71362 19.4454 4.2231 19.3166 4.07472C19.252 3.93249 19.0373 3.85154 18.9196 3.73955C18.7813 3.59872 18.6297 3.42049 18.5333 3.26415C18.2761 2.84822 18.1466 2.38735 17.8697 1.97162C17.7402 1.77788 17.5155 1.57738 17.3335 1.39895C17.1291 1.19845 16.9044 1.05722 16.7428 0.819523C16.6894 0.73777 16.6145 0.604101 16.7003 0.515187C16.7213 0.455513 16.7649 0.433235 16.8504 0.418317C16.9893 0.336962 17.3863 0.440396 17.5255 0.485151C17.923 0.596542 18.2554 0.700573 18.5872 0.85652C18.7373 0.931112 18.8984 1.07234 19.091 1.10954H19.3166C19.659 1.16125 20.0451 1.12386 20.3674 1.19109C20.9354 1.3176 21.4501 1.50318 21.9116 1.70349C23.316 2.32071 24.4742 3.19771 25.2561 4.24518C25.3844 4.41585 25.4389 4.57219 25.556 4.75022C25.7819 5.11463 26.0612 5.48619 26.2853 5.84284C26.5107 6.19193 26.7254 6.54838 27.0471 6.8384C27.2076 6.99434 27.8522 7.0761 28.1413 7.15785C28.3551 7.22449 28.6881 7.28376 28.8809 7.36551C29.2458 7.52126 29.6091 7.70008 29.9521 7.87135C30.1229 7.96046 30.6597 8.14624 30.6915 8.29503ZM19.754 1.83755C19.606 1.83649 19.4584 1.84906 19.3151 1.87495V1.88987H19.3358C19.4222 2.00862 19.5723 2.09097 19.6794 2.1946C19.7658 2.31375 19.8407 2.4319 19.9254 2.55085L19.946 2.53613C20.0973 2.46194 20.1725 2.34299 20.1725 2.16456C20.1073 2.11205 20.0973 2.06073 20.043 2.00862C19.9799 1.93422 19.8407 1.89723 19.754 1.83755Z" fill="#5D87A1"/>
<path d="M37.7692 20.0105H38.0002V19.3798H37.6537L37.371 19.8102L37.0639 19.3798H36.7302V20.0105H36.9484V19.5307H36.9606L37.2824 20.0105H37.4486L37.7692 19.5307V20.0105ZM35.9081 20.0105H36.1526V19.4867H36.4726V19.3796H35.5747V19.4867H35.9075L35.9081 20.0105Z" fill="#F8981D"/>
</svg>
