<svg width="38" height="38" viewBox="0 0 38 38" fill="none" xmlns="http://www.w3.org/2000/svg">
<g clip-path="url(#clip0_418_864)">
<mask id="mask0_418_864" style="mask-type:luminance" maskUnits="userSpaceOnUse" x="0" y="0" width="38" height="38">
<path d="M0 0H38V38H0V0Z" fill="white"/>
</mask>
<g mask="url(#mask0_418_864)">
<path fill-rule="evenodd" clip-rule="evenodd" d="M36.6766 20.2436C35.7195 21.3056 33.7963 21.3056 32.8395 20.2436C32.5129 19.881 32.3675 19.4279 32.4189 18.9327C32.4883 18.2644 32.7595 17.6959 33.1786 17.3067C33.1852 17.4187 33.1846 17.5541 33.1683 17.7216L33.1001 18.423L33.7201 18.0881C34.3729 17.7356 35.1429 17.7356 35.7955 18.0881L36.4155 18.423L36.3475 17.7216C36.3309 17.5541 36.3306 17.4187 36.3372 17.3067C36.7563 17.6959 37.0275 18.2644 37.0969 18.9327C37.1483 19.4279 37.0035 19.881 36.6766 20.2436ZM37.8432 18.8553C37.7281 17.743 37.1638 16.8316 36.2955 16.3541L36.0312 16.2087L35.8326 16.4359C35.8075 16.4647 35.6355 16.679 35.5923 17.1921C35.0821 17.0341 34.4338 17.0341 33.9238 17.1921C33.8806 16.679 33.7086 16.4647 33.6835 16.4359L33.4846 16.2087L33.2203 16.3541C32.3521 16.8313 31.7881 17.743 31.6726 18.8553C31.5995 19.5576 31.8161 20.2287 32.2821 20.7459C33.5386 22.1396 35.9775 22.1396 37.2338 20.7459C37.7001 20.2287 37.9163 19.5576 37.8432 18.8553Z" fill="#176B97"/>
<path fill-rule="evenodd" clip-rule="evenodd" d="M2.8285 16.2679C1.71907 16.2679 0.143066 17.8767 0.143066 19.3784V21.1904C0.143066 21.4373 0.343638 21.6379 0.590495 21.6379C0.837924 21.6379 1.03821 21.4373 1.03821 21.1904V19.3784C1.03821 18.3587 2.22135 17.163 2.8285 17.163C3.43535 17.163 4.61878 18.3587 4.61878 19.3784V21.1904C4.61878 21.4373 4.81907 21.6379 5.06621 21.6379C5.31335 21.6379 5.51392 21.4373 5.51392 21.1904V19.3784C5.51364 17.8767 3.93764 16.2679 2.8285 16.2679ZM9.03592 16.2679C7.55507 16.2679 6.35078 17.4724 6.35078 18.953C6.35078 20.4336 7.55507 21.6379 9.03592 21.6379C9.86992 21.6379 10.6425 21.2602 11.1556 20.601L11.1542 20.5999C11.2134 20.5239 11.2502 20.4299 11.2502 20.3262C11.2502 20.079 11.0496 19.8787 10.8028 19.8787C10.6594 19.8787 10.5328 19.9473 10.4508 20.0522L10.4494 20.051C10.1071 20.4904 9.59192 20.7424 9.03592 20.7424C8.04878 20.7424 7.24535 19.9399 7.24535 18.953C7.24535 17.9662 8.04878 17.1627 9.03592 17.1627C9.56707 17.1627 10.0399 17.459 10.3628 17.8273L8.0745 18.967L8.07507 18.9684C7.92792 19.0419 7.82621 19.1919 7.82621 19.3676C7.82621 19.6147 8.02678 19.815 8.27392 19.815C8.34564 19.815 8.41221 19.7967 8.4725 19.7664L8.47307 19.7679L11.2245 18.3979C11.3334 18.3436 11.4154 18.2476 11.4519 18.1316C11.4885 18.0156 11.4762 17.8902 11.4182 17.7833C10.9176 16.8627 9.9825 16.2679 9.03592 16.2679ZM15.9616 20.631H15.1899C14.1694 20.631 13.3999 19.9099 13.3999 18.9533V18.1853H14.3408C14.5882 18.1853 14.7888 17.985 14.7888 17.7379C14.7888 17.4904 14.5882 17.2902 14.3408 17.2902H13.3999V16.7153C13.3999 16.4682 13.1991 16.2679 12.9519 16.2679C12.7051 16.2679 12.5045 16.4682 12.5045 16.7153V18.953C12.5045 20.3959 13.6839 21.5262 15.1896 21.5262H15.9616C16.2091 21.5262 16.4094 21.3259 16.4094 21.0787C16.4094 20.8316 16.2091 20.631 15.9616 20.631ZM20.8394 19.9522C20.7025 19.9522 20.5816 20.0147 20.4994 20.1113L20.4976 20.1099C20.1568 20.5119 19.6591 20.7424 19.1322 20.7424C18.1451 20.7424 17.3419 19.9399 17.3419 18.953C17.3419 17.9662 18.1451 17.1627 19.1322 17.1627C19.5442 17.1627 19.9462 17.3062 20.2645 17.5664L20.2659 17.565C20.3431 17.6282 20.4402 17.6673 20.5479 17.6673C20.7951 17.6673 20.9954 17.467 20.9954 17.2199C20.9954 17.0802 20.9302 16.957 20.8299 16.8747L20.8311 16.8733C20.3534 16.4827 19.7502 16.2679 19.1322 16.2679C17.6516 16.2679 16.4471 17.4722 16.4471 18.953C16.4471 20.4333 17.6516 21.6376 19.1322 21.6376C19.9088 21.6376 20.6419 21.3022 21.1531 20.7179C21.1554 20.7159 21.1576 20.7136 21.1599 20.7113C21.1665 20.7033 21.1739 20.697 21.1805 20.6893L21.1791 20.6879C21.2451 20.6096 21.2868 20.5099 21.2868 20.3996C21.2868 20.1524 21.0865 19.9522 20.8394 19.9522ZM25.7285 20.1622C25.3894 20.5304 24.9148 20.7427 24.4119 20.7427C23.4248 20.7427 22.6219 19.9399 22.6219 18.9533C22.6219 17.9662 23.4248 17.163 24.4119 17.163C24.7194 17.163 25.0208 17.243 25.2865 17.3913C25.2905 17.3936 25.2936 17.3956 25.2979 17.3979C25.3791 17.4442 25.4562 17.497 25.5299 17.5556C25.6091 17.6233 25.6722 17.6922 25.7282 17.7573L25.7285 20.1622ZM26.1759 16.2679C25.9614 16.2679 25.7819 16.4193 25.7388 16.621C25.3368 16.3922 24.8791 16.2679 24.4119 16.2679C22.9316 16.2679 21.7268 17.4724 21.7268 18.953C21.7268 20.4336 22.9316 21.6379 24.4119 21.6379C24.8808 21.6379 25.3322 21.5133 25.7299 21.2879C25.7376 21.5284 25.9342 21.721 26.1759 21.721C26.4236 21.721 26.6236 21.5207 26.6236 21.2736V16.7153C26.6236 16.4682 26.4236 16.2679 26.1759 16.2679ZM31.1365 20.631H30.3645C29.3442 20.631 28.5745 19.9099 28.5745 18.9533V18.1853H29.5159C29.7631 18.1853 29.9634 17.985 29.9634 17.7379C29.9634 17.4904 29.7631 17.2902 29.5159 17.2902H28.5745V16.7153C28.5745 16.4682 28.3742 16.2679 28.1268 16.2679C27.8796 16.2679 27.6794 16.4682 27.6794 16.7153V18.953C27.6794 20.3959 28.8588 21.5262 30.3642 21.5262H31.1365C31.3836 21.5262 31.5839 21.3259 31.5839 21.0787C31.5839 20.8316 31.3836 20.631 31.1365 20.631Z" fill="black"/>
</g>
</g>
<defs>
<clipPath id="clip0_418_864">
<rect width="38" height="38" fill="white"/>
</clipPath>
</defs>
</svg>
