<svg width="38" height="38" viewBox="0 0 38 38" fill="none" xmlns="http://www.w3.org/2000/svg">
<g clip-path="url(#clip0_418_803)">
<path d="M3.77742 18.8095C3.77742 19.366 3.60865 19.8348 3.2699 20.2143C2.91641 20.6118 2.45707 20.8114 1.89479 20.8114C1.33101 20.8114 0.87317 20.6118 0.519658 20.2143C0.180776 19.8348 0.0107422 19.366 0.0107422 18.8095C0.0107422 18.2515 0.180776 17.7829 0.519658 17.4048C0.877094 17.0109 1.33644 16.814 1.89479 16.814C2.45707 16.814 2.91641 17.0109 3.2699 17.4048C3.60865 17.7829 3.77742 18.2515 3.77742 18.8095ZM2.6579 18.8095C2.6579 18.5574 2.59637 18.3447 2.47318 18.1727C2.33534 17.9771 2.14245 17.88 1.89479 17.88C1.64704 17.88 1.45422 17.9771 1.31625 18.1727C1.19178 18.3447 1.13018 18.5574 1.13018 18.8095C1.13018 19.0602 1.19178 19.2755 1.31625 19.4527C1.45422 19.6482 1.64704 19.7455 1.89479 19.7455C2.14245 19.7455 2.33534 19.6482 2.47318 19.4527C2.59637 19.2755 2.6579 19.0602 2.6579 18.8095ZM7.82523 18.8095C7.82523 19.3293 7.67257 19.7835 7.3659 20.1721C7.03784 20.5974 6.61472 20.8114 6.10054 20.8114C5.73762 20.8114 5.42975 20.7078 5.17799 20.503C5.17799 20.5501 5.18335 20.6644 5.1941 20.847C5.20479 21.0306 5.21007 21.1803 5.21007 21.2985C5.21007 21.9511 5.0119 22.2766 4.61565 22.2766C4.45356 22.2766 4.32107 22.2201 4.21523 22.1085C4.11081 21.9957 4.05855 21.8602 4.05855 21.7003V17.456C4.05855 17.3011 4.11215 17.1671 4.21925 17.0543C4.32633 16.9427 4.45897 16.8864 4.61697 16.8864C4.85522 16.8864 5.02934 17.003 5.13918 17.2355C5.37349 16.9546 5.69353 16.814 6.0992 16.814C6.61472 16.814 7.03651 17.024 7.3659 17.4455C7.67123 17.8355 7.82523 18.2897 7.82523 18.8095ZM6.70571 18.8095C6.70571 18.5574 6.64293 18.3447 6.51973 18.1727C6.38168 17.9771 6.18894 17.88 5.94119 17.88C5.69353 17.88 5.50071 17.9771 5.36274 18.1727C5.23953 18.3447 5.17799 18.5574 5.17799 18.8095C5.17799 19.0602 5.23953 19.2755 5.36274 19.4527C5.50071 19.6482 5.69353 19.7455 5.94119 19.7455C6.18894 19.7455 6.38168 19.6482 6.51973 19.4527C6.64293 19.2755 6.70571 19.0602 6.70571 18.8095ZM11.8984 18.6915C11.8984 18.8751 11.8542 19.0011 11.7658 19.0721C11.6775 19.1416 11.5396 19.1771 11.3535 19.1771H9.33285C9.33285 19.3871 9.43333 19.5485 9.63416 19.6613C9.79618 19.7494 9.99435 19.7942 10.2287 19.7942C10.4109 19.7942 10.6291 19.7349 10.8848 19.6182C11.1406 19.5 11.3052 19.4421 11.3763 19.4421C11.5061 19.4421 11.6159 19.4881 11.7069 19.5827C11.7966 19.6759 11.8422 19.7888 11.8422 19.9188C11.8422 20.2193 11.6133 20.4532 11.1552 20.6212C10.8058 20.7471 10.4509 20.8114 10.0882 20.8114C9.50435 20.8114 9.03299 20.6212 8.67282 20.2418C8.31255 19.8624 8.1319 19.3858 8.1319 18.8095C8.1319 18.2606 8.3193 17.792 8.69418 17.401C9.06773 17.0096 9.53249 16.814 10.0868 16.814C10.6023 16.814 11.0334 16.9992 11.379 17.3693C11.7243 17.7396 11.8984 18.1807 11.8984 18.6915ZM10.7791 18.4156C10.7736 18.2475 10.6947 18.0953 10.542 17.9573C10.3893 17.8196 10.2274 17.7514 10.0559 17.7514C9.87924 17.7514 9.71448 17.8196 9.56187 17.9573C9.40928 18.0953 9.33285 18.2475 9.33285 18.4156H10.7791ZM15.6596 20.1628C15.6596 20.3231 15.6075 20.4582 15.5031 20.5712C15.3973 20.6829 15.2647 20.7393 15.1027 20.7393C14.7117 20.7393 14.5161 20.4347 14.5161 19.8269C14.5161 19.7101 14.5242 19.5263 14.5402 19.2729C14.5577 19.0208 14.5658 18.8358 14.5658 18.7189C14.5658 18.0742 14.3528 17.7514 13.9284 17.7514C13.5039 17.7514 13.2923 18.0742 13.2923 18.7189C13.2923 18.8358 13.299 19.0208 13.311 19.2729C13.3245 19.5263 13.3312 19.7101 13.3312 19.8269C13.3312 20.4347 13.1383 20.7393 12.7528 20.7393C12.5907 20.7393 12.4582 20.6829 12.3537 20.5712C12.2479 20.4582 12.1957 20.3231 12.1957 20.1628V17.4548C12.1957 17.2957 12.2479 17.1607 12.3537 17.0517C12.4582 16.9414 12.5921 16.8864 12.7541 16.8864C13.0219 16.8864 13.2079 17.003 13.3124 17.2355C13.4932 16.9546 13.8131 16.814 14.2711 16.814C14.6956 16.814 15.0331 16.9242 15.2808 17.1435C15.5339 17.3786 15.6596 17.7014 15.6596 18.1124V20.1628ZM19.1718 20.0462C19.1718 20.2942 19.0074 20.4911 18.6778 20.6356C18.4168 20.7523 18.1332 20.8123 17.8464 20.8114C17.2824 20.8114 16.8246 20.6118 16.4712 20.2143C16.1323 19.8348 15.9623 19.366 15.9623 18.8095C15.9623 18.2515 16.1351 17.7803 16.4818 17.3943C16.8286 17.0071 17.2824 16.814 17.8464 16.814C18.1717 16.814 18.4515 16.8613 18.6847 16.9546C19.0098 17.0806 19.1718 17.2774 19.1718 17.5453C19.1718 17.6804 19.1291 17.7999 19.0433 17.9037C18.9577 18.006 18.8477 18.0586 18.714 18.0586C18.6228 18.0586 18.4915 18.0284 18.3203 17.9694C18.1489 17.9089 18.0124 17.88 17.9121 17.88C17.6455 17.88 17.4379 17.9732 17.2893 18.1596C17.1513 18.3276 17.0817 18.543 17.0817 18.8095C17.0817 19.0602 17.1433 19.2729 17.268 19.4449C17.4056 19.6458 17.6 19.7455 17.8476 19.7455C17.9575 19.7455 18.1073 19.714 18.2988 19.6495C18.4905 19.5867 18.6284 19.5539 18.714 19.5539C18.8386 19.5539 18.9455 19.6063 19.0367 19.7088C19.1265 19.8124 19.1718 19.9239 19.1718 20.0462ZM23.2411 20.1628C23.2411 20.3231 23.1889 20.4582 23.0844 20.5712C22.9787 20.6829 22.8449 20.7393 22.6826 20.7393C22.439 20.7393 22.265 20.6224 22.1605 20.3901C21.9263 20.6711 21.6061 20.8114 21.2005 20.8114C20.6811 20.8114 20.2553 20.5974 19.9257 20.1721C19.6258 19.7835 19.4748 19.3293 19.4748 18.8095C19.4748 18.2897 19.6258 17.8355 19.9257 17.4455C20.2606 17.024 20.6849 16.814 21.2005 16.814C21.6061 16.814 21.9263 16.9546 22.1605 17.2355C22.265 17.003 22.439 16.8864 22.6826 16.8864C22.8408 16.8864 22.9734 16.9427 23.0806 17.0543C23.1875 17.1671 23.2411 17.2998 23.2411 17.4548V20.1628ZM22.1217 18.8095C22.1217 18.5574 22.0603 18.3447 21.9369 18.1727C21.7936 17.9771 21.6008 17.88 21.3585 17.88C21.1108 17.88 20.9181 17.9771 20.78 18.1727C20.6556 18.3447 20.5941 18.5574 20.5941 18.8095C20.5941 19.0602 20.654 19.2755 20.7731 19.4527C20.9153 19.6482 21.1108 19.7455 21.3585 19.7455C21.6061 19.7455 21.799 19.6482 21.9369 19.4527C22.0603 19.2755 22.1217 19.0602 22.1217 18.8095ZM26.0973 17.3824C26.0973 17.6174 25.9808 17.7788 25.7478 17.8667C25.5323 17.9378 25.3178 18.0101 25.1037 18.0847C24.8692 18.2161 24.7528 18.4602 24.7528 18.8147V20.1628C24.7528 20.3231 24.6991 20.4582 24.5949 20.5712C24.4889 20.6829 24.3551 20.7393 24.1931 20.7393C24.0299 20.7393 23.8958 20.6829 23.7916 20.5712C23.6856 20.4582 23.6334 20.3231 23.6334 20.1628V17.4548C23.6334 17.2957 23.6856 17.1607 23.7901 17.0517C23.8958 16.9414 24.0299 16.8864 24.1919 16.8864C24.4596 16.8864 24.6456 17.003 24.7502 17.2355C24.9899 16.9546 25.2471 16.814 25.5242 16.814C25.6821 16.814 25.8174 16.8704 25.9298 16.982C26.0408 17.0949 26.0973 17.2288 26.0973 17.3824ZM29.0177 17.4323C29.0177 17.6765 28.9199 17.8301 28.7259 17.8959C28.6306 17.9286 28.4309 17.9456 28.127 17.9456V20.1628C28.127 20.3231 28.0735 20.4582 27.9693 20.5712C27.8633 20.6829 27.7295 20.7393 27.5675 20.7393C27.4096 20.7393 27.2755 20.6829 27.1683 20.5712C27.0613 20.4582 27.0078 20.3231 27.0078 20.1628V17.9456C26.7774 17.9456 26.6101 17.9167 26.5044 17.8604C26.3599 17.7816 26.2884 17.6385 26.2884 17.4323C26.2884 17.2263 26.3622 17.0858 26.5108 17.0109C26.6113 16.9557 26.7774 16.927 27.0078 16.927V16.457C27.0078 15.9043 27.1937 15.6287 27.5675 15.6287C27.9397 15.6287 28.127 15.9043 28.127 16.457V16.927C28.4309 16.927 28.6306 16.944 28.7259 16.9768C28.9199 17.0424 29.0177 17.1948 29.0177 17.4323ZM38.0107 16.7657C38.0077 16.4288 37.3726 16.2758 35.7285 16.2758C31.871 16.2758 30.8923 16.1143 29.845 15.0338C30.2856 15.6825 30.5267 16.8994 34.604 16.8389C38.858 16.7746 36.2628 17.9143 35.5077 19.2019C36.8695 18.0103 38.0066 17.2248 38.0107 16.7706V16.7657ZM32.59 20.226C32.5899 20.5392 32.3271 20.7969 32.0075 20.797C31.6848 20.797 31.4238 20.5411 31.4238 20.226C31.4238 20.2258 31.4238 20.2257 31.4238 20.2255C31.4238 19.9118 31.6871 19.6536 32.0072 19.6536C32.0074 19.6536 32.0074 19.6536 32.0075 19.6536C32.3292 19.6536 32.59 19.9095 32.59 20.226ZM35.2466 20.226C35.2464 20.5392 34.9836 20.7969 34.6641 20.797C34.3416 20.797 34.0805 20.5411 34.0805 20.226C34.0805 20.2258 34.0805 20.2257 34.0805 20.2255C34.0805 19.9118 34.3438 19.6536 34.6638 19.6536C34.6639 19.6536 34.6639 19.6536 34.6641 19.6536C34.9857 19.6536 35.2466 19.9095 35.2466 20.226Z" fill="url(#paint0_linear_418_803)"/>
</g>
<defs>
<linearGradient id="paint0_linear_418_803" x1="19.0107" y1="20.7631" x2="19.0107" y2="15.0338" gradientUnits="userSpaceOnUse">
<stop stop-color="#04B6F0"/>
<stop offset="1" stop-color="#3ECAF0"/>
</linearGradient>
<clipPath id="clip0_418_803">
<rect width="38" height="38" fill="white"/>
</clipPath>
</defs>
</svg>
