<svg width="38" height="9" viewBox="0 0 38 9" fill="none" xmlns="http://www.w3.org/2000/svg">
<g clip-path="url(#clip0_418_673)">
<path fill-rule="evenodd" clip-rule="evenodd" d="M4.56816 0.022691C3.71386 -0.0672978 2.85267 0.109518 2.10294 0.528835C1.35321 0.948152 0.751759 1.58939 0.381252 2.3644C0.0107449 3.13941 -0.110628 4.01015 0.0338162 4.85694C0.17826 5.70373 0.581431 6.485 1.18791 7.09336C1.79439 7.70172 2.57441 8.1073 3.42075 8.25437C4.26709 8.40143 5.1382 8.28275 5.91436 7.91464C6.69051 7.54653 7.3336 6.94707 7.75523 6.19864C8.17687 5.45021 8.35635 4.58956 8.269 3.735C8.17288 2.78509 7.75238 1.89731 7.07831 1.22115C6.40424 0.544988 5.51777 0.121747 4.56816 0.022691ZM4.43342 6.35818C3.97396 6.41982 3.50673 6.33594 3.0974 6.11832C2.68807 5.90071 2.35722 5.5603 2.15135 5.14494C1.94547 4.72958 1.87493 4.26015 1.94963 3.80262C2.02432 3.3451 2.24051 2.92248 2.5678 2.59417C2.89508 2.26586 3.31702 2.04835 3.77431 1.97222C4.2316 1.89609 4.70125 1.96517 5.11725 2.16974C5.53325 2.37431 5.87469 2.7041 6.09359 3.11274C6.31248 3.52139 6.39783 3.98836 6.33763 4.44801C6.27445 4.93149 6.05365 5.38066 5.70942 5.72598C5.36518 6.07129 4.9167 6.2935 4.43342 6.35818ZM10.4929 0.187185C10.3487 0.18753 10.2064 0.220022 10.0763 0.282295C9.94624 0.344568 9.83169 0.435057 9.74099 0.547176C9.65029 0.659295 9.58572 0.790225 9.552 0.930438C9.51827 1.07065 9.51622 1.21662 9.54601 1.35772C9.63724 1.81485 10.0642 2.12719 10.5294 2.12719H13.2286L9.02795 7.68623C8.99688 7.72727 8.97786 7.77615 8.97301 7.82739C8.96817 7.87864 8.97769 7.93022 9.00052 7.97635C9.02335 8.02249 9.05857 8.06135 9.10225 8.08859C9.14593 8.11583 9.19633 8.13036 9.2478 8.13056H15.837C16.3018 8.13056 16.7291 7.81829 16.8203 7.36109C16.8501 7.22001 16.8481 7.07406 16.8144 6.93386C16.7807 6.79366 16.7162 6.66274 16.6255 6.55061C16.5349 6.43849 16.4203 6.34798 16.2903 6.28566C16.1603 6.22335 16.018 6.19081 15.8738 6.19039H12.5849L16.7824 0.635677C16.8138 0.594238 16.833 0.544878 16.8379 0.493134C16.8427 0.44139 16.8331 0.38931 16.81 0.342735C16.787 0.296161 16.7514 0.256935 16.7073 0.229459C16.6632 0.201984 16.6123 0.187345 16.5603 0.187185H10.4929ZM36.8229 0.209562C36.6047 0.261436 36.4108 0.386205 36.2732 0.56324C36.1356 0.740275 36.0625 0.958975 36.0661 1.18318V4.41323L30.8322 0.248193C30.7911 0.215612 30.7417 0.19528 30.6896 0.189536C30.6375 0.183791 30.5849 0.192867 30.5377 0.21572C30.4906 0.238574 30.4508 0.274275 30.423 0.318718C30.3953 0.363161 30.3806 0.414539 30.3808 0.466943V7.13629C30.3772 7.3605 30.4503 7.57921 30.5879 7.75624C30.7255 7.93328 30.9194 8.05805 31.1376 8.10991C31.2792 8.14108 31.4261 8.14005 31.5673 8.10689C31.7085 8.07374 31.8405 8.00931 31.9535 7.91835C32.0664 7.82739 32.1576 7.71223 32.2201 7.58136C32.2826 7.45049 32.315 7.30725 32.3148 7.1622V3.9042L37.5488 8.06931C37.5898 8.10188 37.6392 8.1222 37.6913 8.12793C37.7433 8.13367 37.796 8.1246 37.8431 8.10175C37.8902 8.07891 37.93 8.04323 37.9577 7.9988C37.9855 7.95438 38.0001 7.90303 38 7.85064V1.15695C38.0002 1.01194 37.9678 0.868745 37.9052 0.73792C37.8427 0.607095 37.7515 0.491978 37.6386 0.401058C37.5256 0.310137 37.3937 0.245732 37.2525 0.212589C37.1113 0.179446 36.9645 0.178412 36.8229 0.209562ZM23.1952 1.9415C25.409 1.9415 27.0632 3.11141 27.0632 4.15789C27.0632 5.20437 25.409 6.37428 23.1952 6.37428C20.9814 6.37428 19.3273 5.20437 19.3273 4.15789C19.3273 3.11141 20.9814 1.9415 23.1952 1.9415ZM23.1952 0.00156982C19.9909 0.00156982 17.3933 1.86243 17.3933 4.15789C17.3933 6.45335 19.9909 8.31421 23.1952 8.31421C26.3996 8.31421 28.9971 6.45335 28.9971 4.15789C28.9971 1.86243 26.3995 0.00156982 23.1952 0.00156982Z" fill="#0069FF"/>
</g>
<defs>
<clipPath id="clip0_418_673">
<rect width="38" height="8.31798" fill="white"/>
</clipPath>
</defs>
</svg>
