<svg width="38" height="20" viewBox="0 0 38 20" fill="none" xmlns="http://www.w3.org/2000/svg">
<g clip-path="url(#clip0_418_216)">
<path d="M35.2053 4.16473L32.942 4.16394C32.6952 4.16394 32.4951 4.36404 32.4949 4.61092L32.4948 4.92665H32.6518C33.6737 4.92665 34.0538 5.09522 34.0538 6.0261V7.34944L35.2041 7.34983C35.451 7.34996 35.6511 7.14999 35.6513 6.90311L35.652 4.61184C35.652 4.36496 35.4521 4.16486 35.2053 4.16473ZM22.853 7.72206C22.7486 7.59093 22.5511 7.5728 22.3531 7.5728H22.2046C21.7113 7.5728 21.5177 7.72495 21.4085 8.19834L20.0376 13.8966C19.8666 14.5969 19.6261 14.7249 19.2148 14.7249C18.711 14.7249 18.5093 14.6047 18.3086 13.8939L16.7558 8.19558C16.6273 7.71838 16.4378 7.5728 15.9443 7.5728H15.8121C15.6129 7.5728 15.4145 7.59119 15.3127 7.72402C15.2107 7.85699 15.2451 8.05552 15.2977 8.25063L16.8669 13.9983C17.1612 15.0983 17.5111 16.0088 18.8184 16.0088C19.0624 16.0088 19.2881 15.9749 19.4758 15.9116C19.0793 17.1586 18.6759 17.7086 17.4865 17.8308C17.2451 17.8509 17.0883 17.8854 17.0009 18.0026C16.9101 18.1242 16.9307 18.2983 16.9632 18.4537L16.9959 18.6011C17.0668 18.9419 17.1878 19.1532 17.5704 19.1532C17.6106 19.1532 17.6539 19.1511 17.7003 19.1471C19.4764 19.0309 20.428 18.0746 20.9848 15.8467L22.885 8.24656C22.93 8.05158 22.9572 7.85305 22.853 7.72206ZM13.2956 12.1V13.2503C13.2956 14.188 12.948 14.7309 11.1708 14.7309C9.99672 14.7309 9.42597 14.306 9.42597 13.432C9.42597 12.4736 9.99856 12.1 11.4681 12.1H13.2956ZM11.1708 7.33091C10.2019 7.33091 9.59481 7.45245 9.36448 7.49856C8.95679 7.58712 8.78625 7.69906 8.78625 8.16273V8.2949C8.78625 8.47661 8.81318 8.60249 8.87086 8.69104C8.938 8.79418 9.04626 8.84647 9.19263 8.84647C9.26397 8.84647 9.34675 8.83452 9.44542 8.80981C9.67837 8.75161 10.4227 8.63126 11.2369 8.63126C12.6992 8.63126 13.2956 9.03633 13.2956 10.0292V10.9153H11.4516C9.08108 10.9153 7.9769 11.7149 7.9769 13.432C7.9769 15.0975 9.11708 16.0147 11.1874 16.0147C13.6476 16.0147 14.7447 15.1775 14.7447 13.2999V10.0292C14.7447 8.21358 13.5757 7.33091 11.1708 7.33091ZM6.52361 8.43247C6.52361 9.79982 6.17451 10.5408 4.33272 10.5408H1.49763V7.0119C1.49763 6.52262 1.6796 6.34064 2.16889 6.34064H4.33272C5.72031 6.34064 6.52361 6.68304 6.52361 8.43247ZM4.33272 4.92467H1.88798C0.581595 4.92467 -0.000976562 5.50725 -0.000976562 6.81377V15.2049C-0.000976562 15.7095 0.161022 15.8715 0.665815 15.8715H0.830972C1.33563 15.8715 1.49763 15.7095 1.49763 15.2049V11.9403H4.33272C6.84985 11.9403 8.02222 10.8256 8.02222 8.43247C8.02222 6.03924 6.84985 4.92467 4.33272 4.92467ZM35.4257 1.80001L34.284 1.79961C34.1595 1.79948 34.0586 1.69858 34.0586 1.57402L34.059 0.418205C34.0591 0.293649 34.1601 0.192871 34.2846 0.192871L35.4262 0.193268C35.5507 0.193268 35.6516 0.294306 35.6516 0.41873L35.6513 1.57455C35.6511 1.6991 35.5502 1.80001 35.4257 1.80001ZM37.6656 4.16618L35.9846 4.16552C35.8013 4.16552 35.6527 4.01679 35.6528 3.8335L35.6534 2.13176C35.6535 1.94835 35.8022 1.79975 35.9855 1.79975L37.6664 1.8004C37.8498 1.8004 37.9984 1.94914 37.9984 2.13242L37.9977 3.83429C37.9977 4.01758 37.849 4.16618 37.6656 4.16618ZM32.9409 7.34917C32.694 7.34917 32.494 7.14907 32.4941 6.90219L32.4948 4.92665H32.33C31.3081 4.92665 30.928 5.09535 30.928 6.02623V8.20451C30.9279 8.20911 30.9273 8.21371 30.9273 8.2183V8.69577C30.9271 8.71232 30.926 8.7277 30.926 8.74478V11.7884C30.926 12.1601 30.8544 12.4561 30.7066 12.686C30.4279 13.1154 29.8762 13.3105 28.9936 13.3117C28.1113 13.3105 27.5597 13.1155 27.2811 12.6865C27.1329 12.4565 27.0611 12.1603 27.0611 11.7884V8.74478C27.0611 8.7277 27.0602 8.71232 27.0599 8.69577V8.2183C27.0599 8.21371 27.0594 8.20911 27.0593 8.20451V6.02623C27.0593 5.09535 26.6792 4.92665 25.6572 4.92665H25.3355C24.3134 4.92665 23.9334 5.09535 23.9334 6.02623V11.7884C23.9334 12.7153 24.1425 13.5001 24.5463 14.1327C25.3264 15.3586 26.8375 16.0114 28.9857 16.0114C28.9883 16.0114 28.9909 16.0113 28.9936 16.0113C28.9963 16.0113 28.9988 16.0114 29.0016 16.0114C31.1498 16.0114 32.6609 15.3586 33.4409 14.1327C33.8448 13.5001 34.0538 12.7153 34.0538 11.7884V7.34944L32.9409 7.34917Z" fill="#A6C307"/>
</g>
<defs>
<clipPath id="clip0_418_216">
<rect width="38" height="18.9606" fill="white" transform="translate(0 0.192871)"/>
</clipPath>
</defs>
</svg>
