<svg width="38" height="10" viewBox="0 0 38 10" fill="none" xmlns="http://www.w3.org/2000/svg">
<g clip-path="url(#clip0_418_582)">
<path fill-rule="evenodd" clip-rule="evenodd" d="M38 0.339645C38 0.339645 37.2935 0.254913 36.4586 0.254913C35.6451 0.254913 34.96 0.339645 34.96 0.339645V2.9875H38V0.339645Z" fill="#E4003E"/>
<path fill-rule="evenodd" clip-rule="evenodd" d="M38 6.58859H34.96V9.27882C34.96 9.27882 35.8164 9.36353 36.5013 9.36353C37.1865 9.36353 38 9.25762 38 9.25762V6.58859Z" fill="#E4003E"/>
<path fill-rule="evenodd" clip-rule="evenodd" d="M33.1403 0.339767H29.3938L26.782 3.58074H25.5618V0.339767H22.3291V9.30009H25.5618V5.93203H26.7392L29.3725 9.30009H33.3759L29.4581 4.53396L33.1403 0.339767Z" fill="#242265"/>
<path fill-rule="evenodd" clip-rule="evenodd" d="M10.2118 0.339767H0V9.30009H3.27548V2.88171H6.93629V9.30009H10.2118V0.339767Z" fill="#242265"/>
<path fill-rule="evenodd" clip-rule="evenodd" d="M11.7962 2.71225L11.3252 0.339778C11.3252 0.339778 14.3866 0.106766 16.2919 0.106766C18.1973 0.106766 20.488 0.339778 20.488 0.339778C20.488 0.339778 21.1944 2.1615 21.1944 4.72463C21.1944 7.28773 20.4665 9.30012 20.4665 9.30012C20.4665 9.30012 18.2829 9.53312 16.2705 9.53312C14.2581 9.53312 11.3252 9.30012 11.3252 9.30012L11.7962 6.92764C11.7962 6.92764 13.8514 7.07593 15.6069 7.07593C17.3623 7.07593 18.0474 6.92764 18.0474 6.92764C18.0474 6.92764 18.133 6.4828 18.1759 5.97439H13.9798V3.68668H18.1973C18.1544 3.09356 18.0688 2.73344 18.0688 2.73344C18.0688 2.73344 16.6344 2.58516 15.4142 2.58516C14.1725 2.56397 11.7962 2.71225 11.7962 2.71225Z" fill="#242265"/>
</g>
<defs>
<clipPath id="clip0_418_582">
<rect width="38" height="9.64615" fill="white"/>
</clipPath>
</defs>
</svg>
