<svg width="39" height="38" viewBox="0 0 39 38" fill="none" xmlns="http://www.w3.org/2000/svg">
<path d="M7.22917 0H31.7708C35.4917 0 38.5 3.00833 38.5 6.72917V30.3208C38.5 34.0417 35.4917 37.05 31.7708 37.05H7.22917C3.50833 37.05 0.5 34.0417 0.5 30.3208V6.72917C0.5 3.00833 3.50833 0 7.22917 0Z" fill="#001E36"/>
<path d="M9.0498 25.9825V9.69C9.0498 9.57917 9.0973 9.51584 9.20814 9.51584C9.4773 9.51584 9.73064 9.51584 10.0948 9.5C10.4748 9.48417 10.8706 9.48417 11.2981 9.46834C11.7256 9.4525 12.1848 9.4525 12.6756 9.43667C13.1665 9.42084 13.6415 9.42084 14.1165 9.42084C15.4148 9.42084 16.4915 9.57917 17.3781 9.91167C18.1698 10.1808 18.8981 10.6242 19.4998 11.21C20.0065 11.7167 20.4023 12.3342 20.6556 13.015C20.8931 13.68 21.0198 14.3608 21.0198 15.0733C21.0198 16.435 20.7031 17.5592 20.0698 18.4458C19.4365 19.3325 18.5498 19.9975 17.5206 20.3775C16.444 20.7733 15.2565 20.9158 13.9581 20.9158C13.5781 20.9158 13.3248 20.9158 13.1665 20.9C13.0081 20.8842 12.7865 20.8842 12.4856 20.8842V25.9667C12.5015 26.0775 12.4223 26.1725 12.3115 26.1883C12.2956 26.1883 12.2798 26.1883 12.2481 26.1883H9.2398C9.11314 26.1883 9.0498 26.125 9.0498 25.9825ZM12.5015 12.5717V17.8917C12.7231 17.9075 12.929 17.9233 13.119 17.9233H13.9581C14.5756 17.9233 15.1931 17.8283 15.779 17.6383C16.2856 17.4958 16.729 17.195 17.0773 16.7992C17.4098 16.4033 17.5681 15.865 17.5681 15.1683C17.584 14.6775 17.4573 14.1867 17.204 13.7592C16.9348 13.3475 16.5548 13.0308 16.0956 12.8567C15.5098 12.6192 14.8765 12.5242 14.2273 12.54C13.8156 12.54 13.4515 12.54 13.1506 12.5558C12.834 12.54 12.6123 12.5558 12.5015 12.5717Z" fill="#31A8FF"/>
<path d="M30.8998 16.9259C30.4248 16.6725 29.9181 16.4984 29.3798 16.3875C28.7939 16.2609 28.2081 16.1817 27.6064 16.1817C27.2898 16.1659 26.9573 16.2134 26.6564 16.2925C26.4506 16.34 26.2764 16.4509 26.1656 16.6092C26.0864 16.7359 26.0389 16.8942 26.0389 17.0367C26.0389 17.1792 26.1023 17.3217 26.1973 17.4484C26.3398 17.6225 26.5298 17.765 26.7356 17.8759C27.0998 18.0659 27.4798 18.24 27.8598 18.3984C28.7148 18.6834 29.5381 19.0792 30.2981 19.5542C30.8206 19.8867 31.2481 20.33 31.5489 20.8684C31.8023 21.375 31.9289 21.9292 31.9131 22.4992C31.9289 23.2434 31.7073 23.9875 31.2956 24.605C30.8523 25.2384 30.2348 25.7292 29.5223 26.0142C28.7464 26.3467 27.7964 26.5209 26.6564 26.5209C25.9281 26.5209 25.2156 26.4575 24.5031 26.315C23.9489 26.22 23.3948 26.0459 22.8881 25.8084C22.7773 25.745 22.6981 25.6342 22.7139 25.5075V22.7525C22.7139 22.705 22.7298 22.6417 22.7773 22.61C22.8248 22.5784 22.8723 22.5942 22.9198 22.6259C23.5373 22.99 24.1864 23.2434 24.8831 23.4017C25.4848 23.56 26.1181 23.6392 26.7514 23.6392C27.3531 23.6392 27.7806 23.56 28.0656 23.4175C28.3189 23.3067 28.4931 23.0375 28.4931 22.7525C28.4931 22.5309 28.3664 22.325 28.1131 22.1192C27.8598 21.9134 27.3373 21.6759 26.5614 21.375C25.7539 21.09 25.0098 20.71 24.3131 20.235C23.8223 19.8867 23.4106 19.4275 23.1098 18.8892C22.8564 18.3825 22.7298 17.8284 22.7456 17.2742C22.7456 16.5934 22.9356 15.9442 23.2839 15.3584C23.6798 14.725 24.2656 14.2184 24.9464 13.9017C25.6906 13.5217 26.6248 13.3475 27.7489 13.3475C28.3981 13.3475 29.0631 13.395 29.7123 13.49C30.1873 13.5534 30.6464 13.68 31.0739 13.8542C31.1373 13.87 31.2006 13.9334 31.2323 13.9967C31.2481 14.06 31.2639 14.1234 31.2639 14.1867V16.7675C31.2639 16.8309 31.2323 16.8942 31.1848 16.9259C31.0423 16.9575 30.9631 16.9575 30.8998 16.9259Z" fill="#31A8FF"/>
</svg>
