<svg width="38" height="23" viewBox="0 0 38 23" fill="none" xmlns="http://www.w3.org/2000/svg">
<g clip-path="url(#clip0_418_39)">
<mask id="mask0_418_39" style="mask-type:luminance" maskUnits="userSpaceOnUse" x="0" y="0" width="38" height="23">
<path d="M0.534668 11.4884C0.534668 17.5023 8.80221 22.3777 19.0003 22.3777C29.1984 22.3777 37.4661 17.5023 37.4661 11.4884C37.4661 5.47444 29.1984 0.598967 19.0003 0.598967C8.80221 0.598967 0.534668 5.47444 0.534668 11.4884Z" fill="white"/>
</mask>
<g mask="url(#mask0_418_39)">
<path d="M0.534668 11.4884C0.534668 17.5023 8.80221 22.3777 19.0003 22.3777C29.1984 22.3777 37.4661 17.5023 37.4661 11.4884C37.4661 5.47444 29.1984 0.598967 19.0003 0.598967C8.80221 0.598967 0.534668 5.47444 0.534668 11.4884Z" fill="url(#paint0_radial_418_39)"/>
</g>
<mask id="mask1_418_39" style="mask-type:luminance" maskUnits="userSpaceOnUse" x="-1" y="-1" width="40" height="25">
<path d="M-0.234863 -0.640972H38.2353V23.6177H-0.234863V-0.640972Z" fill="white"/>
</mask>
<g mask="url(#mask1_418_39)">
<path d="M19.0002 21.5693C28.8 21.5693 36.7445 17.0559 36.7445 11.4884C36.7445 5.92091 28.8 1.40744 19.0002 1.40744C9.20041 1.40744 1.25586 5.92091 1.25586 11.4884C1.25586 17.0559 9.20041 21.5693 19.0002 21.5693Z" fill="#777BB3"/>
</g>
<mask id="mask2_418_39" style="mask-type:luminance" maskUnits="userSpaceOnUse" x="-1" y="-1" width="40" height="25">
<path d="M-0.234863 -0.640972H38.2353V23.6177H-0.234863V-0.640972Z" fill="white"/>
</mask>
<g mask="url(#mask2_418_39)">
<path d="M10.567 12.7382C11.3728 12.7382 11.9743 12.5716 12.355 12.2433C12.7315 11.9182 12.9916 11.3551 13.1279 10.5696C13.255 9.83543 13.2066 9.32277 12.984 9.04612C12.7565 8.76355 12.2645 8.62024 11.5218 8.62024H10.2341L9.5202 12.7382H10.567ZM6.3551 17.8109C6.29532 17.8109 6.23855 17.7809 6.20055 17.7291C6.16248 17.6774 6.14705 17.6092 6.15847 17.5434L8.05045 6.63066C8.06875 6.52516 8.15124 6.44894 8.24714 6.44894H12.3248C13.6064 6.44894 14.5603 6.83903 15.1598 7.60849C15.7626 8.382 15.9487 9.46323 15.713 10.8221C15.6171 11.3757 15.4521 11.8899 15.2227 12.3502C14.993 12.811 14.6895 13.2374 14.3203 13.6178C13.8785 14.0814 13.3784 14.4176 12.8352 14.6154C12.3007 14.8106 11.6143 14.9095 10.795 14.9095H9.14385L8.67232 17.6291C8.65402 17.7346 8.5716 17.8109 8.47569 17.8109H6.3551Z" fill="black"/>
<path d="M10.3994 8.84485H11.522C12.4184 8.84485 12.7298 9.06535 12.8356 9.19675C13.0111 9.41493 13.0442 9.87495 12.9314 10.527C12.8046 11.257 12.5697 11.7746 12.2329 12.0653C11.8882 12.3628 11.3277 12.5136 10.5672 12.5136H9.76342L10.3994 8.84485ZM12.325 6.22431H8.24726C8.05544 6.22431 7.89054 6.37675 7.85394 6.58782L5.96196 17.5006C5.93912 17.6323 5.96998 17.7685 6.04605 17.872C6.12219 17.9756 6.23559 18.0355 6.35528 18.0355H8.47581C8.66769 18.0355 8.83259 17.883 8.86919 17.672L9.3092 15.1341H10.7952C11.6355 15.1341 12.3429 15.0314 12.8976 14.8289C13.468 14.6211 13.9929 14.2688 14.4574 13.7819C14.8415 13.3857 15.158 12.9409 15.3978 12.4599C15.6376 11.9786 15.8099 11.442 15.9099 10.8649C16.158 9.43455 15.9564 8.28915 15.3109 7.46076C14.6716 6.64031 13.6669 6.22431 12.325 6.22431ZM9.27727 12.9628H10.5672C11.4221 12.9628 12.0589 12.7823 12.4774 12.4212C12.8959 12.06 13.1781 11.4572 13.3248 10.6125C13.4651 9.8015 13.4012 9.22917 13.133 8.89577C12.8645 8.56236 12.3276 8.39562 11.522 8.39562H10.0691L9.27727 12.9628ZM12.325 6.67355C13.5517 6.67355 14.4466 7.03444 15.0091 7.75628C15.5715 8.47813 15.7409 9.48569 15.5165 10.7793C15.4241 11.3121 15.2679 11.7993 15.048 12.2407C14.8278 12.6824 14.5403 13.0862 14.1849 13.4524C13.7615 13.8967 13.2911 14.2132 12.7735 14.4017C12.2559 14.5908 11.5966 14.6849 10.7952 14.6849H8.97879L8.47581 17.5862H6.35528L8.24726 6.67355H12.325Z" fill="white"/>
<path d="M20.5753 14.9095C20.5155 14.9095 20.4588 14.8796 20.4208 14.8278C20.3826 14.776 20.3672 14.708 20.3786 14.6421L21.2155 9.81364C21.2952 9.35445 21.2755 9.02486 21.1603 8.8856C21.0898 8.80047 20.8779 8.65769 20.2515 8.65769H18.7353L17.683 14.7278C17.6647 14.8333 17.5822 14.9095 17.4863 14.9095H15.3825C15.3227 14.9095 15.266 14.8796 15.2279 14.8278C15.1898 14.776 15.1744 14.7079 15.1858 14.6421L17.0778 3.72935C17.0961 3.62385 17.1786 3.54763 17.2745 3.54763H19.3783C19.4382 3.54763 19.4949 3.57758 19.5329 3.62932C19.571 3.68113 19.5864 3.74919 19.575 3.81508L19.1184 6.44895H20.7496C21.9922 6.44895 22.8348 6.69453 23.3255 7.19977C23.8258 7.71519 23.9818 8.53931 23.7895 9.64952L22.9092 14.7278C22.8909 14.8333 22.8085 14.9095 22.7125 14.9095H20.5753Z" fill="black"/>
<path d="M19.3785 3.32301H17.2747C17.0828 3.32301 16.9179 3.47545 16.8813 3.68651L14.9893 14.5993C14.9665 14.731 14.9973 14.8672 15.0735 14.9707C15.1496 15.0743 15.263 15.1342 15.3827 15.1342H17.4865C17.6783 15.1342 17.8433 14.9817 17.8799 14.7706L18.9006 8.8823H20.2517C20.877 8.8823 21.0083 9.03204 21.0136 9.03848C21.0515 9.08423 21.1014 9.29612 21.019 9.77081L20.1821 14.5993C20.1593 14.731 20.1901 14.8672 20.2663 14.9707C20.3424 15.0743 20.4558 15.1342 20.5755 15.1342H22.7127C22.9045 15.1342 23.0695 14.9817 23.1061 14.7706L23.9863 9.69242C24.1929 8.50037 24.0162 7.60617 23.4613 7.03444C22.9318 6.48929 22.0448 6.22432 20.7497 6.22432H19.3616L19.7719 3.85797C19.7947 3.72627 19.7639 3.59 19.6877 3.48653C19.6116 3.38298 19.4982 3.32301 19.3785 3.32301ZM19.3785 3.77224L18.8755 6.67356H20.7497C21.929 6.67356 22.7424 6.90431 23.1901 7.36523C23.6378 7.82644 23.7719 8.57375 23.593 9.60676L22.7127 14.6849H20.5755L21.4124 9.85654C21.5077 9.30727 21.4727 8.93261 21.3073 8.73285C21.1419 8.53309 20.7899 8.43306 20.2517 8.43306H18.5702L17.4865 14.6849H15.3827L17.2747 3.77224H19.3785Z" fill="white"/>
<path d="M27.1182 12.7382C27.924 12.7382 28.5256 12.5716 28.9062 12.2433C29.2828 11.9183 29.5429 11.3552 29.6792 10.5696C29.8063 9.83543 29.7579 9.32277 29.5353 9.04612C29.3078 8.76355 28.8158 8.62024 28.0731 8.62024H26.7854L26.0715 12.7382H27.1182ZM22.9064 17.8109C22.8466 17.8109 22.7899 17.7809 22.7519 17.7291C22.7138 17.6774 22.6983 17.6092 22.7097 17.5434L24.6017 6.63066C24.6201 6.52516 24.7025 6.44894 24.7985 6.44894H28.8761C30.1577 6.44894 31.1115 6.83903 31.7111 7.60849C32.3139 8.38192 32.5 9.46316 32.2643 10.8221C32.1683 11.3757 32.0034 11.8899 31.774 12.3502C31.5443 12.811 31.2407 13.2374 30.8716 13.6178C30.4297 14.0814 29.9296 14.4176 29.3865 14.6154C28.852 14.8106 28.1655 14.9095 27.3463 14.9095H25.695L25.2237 17.6291C25.2053 17.7346 25.1229 17.8109 25.027 17.8109H22.9064Z" fill="black"/>
<path d="M26.9507 8.84485H28.0732C28.9696 8.84485 29.281 9.06535 29.3868 9.19675C29.5623 9.41493 29.5955 9.87495 29.4826 10.5269C29.3558 11.257 29.1208 11.7746 28.7841 12.0653C28.4394 12.3628 27.8789 12.5136 27.1184 12.5136H26.3147L26.9507 8.84485ZM28.8762 6.22431H24.7985C24.6067 6.22431 24.4418 6.37675 24.4052 6.58782L22.5132 17.5006C22.4904 17.6323 22.5212 17.7685 22.5973 17.872C22.6735 17.9756 22.7869 18.0355 22.9065 18.0355H25.0271C25.2189 18.0355 25.3839 17.883 25.4205 17.672L25.8604 15.1341H27.3464C28.1867 15.1341 28.8941 15.0314 29.4488 14.8289C30.0192 14.6211 30.5442 14.2688 31.0087 13.7817C31.3929 13.3856 31.7092 12.9409 31.949 12.4599C32.1888 11.9786 32.3611 11.442 32.4611 10.8649C32.7092 9.43447 32.5076 8.28907 31.8621 7.46068C31.2228 6.64031 30.2182 6.22431 28.8762 6.22431ZM25.8285 12.9628H27.1184C27.9733 12.9628 28.6101 12.7823 29.0286 12.4212C29.4471 12.06 29.7293 11.4572 29.876 10.6125C30.0164 9.8015 29.9525 9.22917 29.6842 8.89577C29.4157 8.56236 28.8788 8.39562 28.0732 8.39562H26.6203L25.8285 12.9628ZM28.8762 6.67355C30.1029 6.67355 30.9978 7.03444 31.5603 7.75628C32.1228 8.47813 32.2921 9.48569 32.0677 10.7793C31.9753 11.3121 31.8191 11.7993 31.5992 12.2407C31.379 12.6824 31.0915 13.0862 30.7362 13.4524C30.3127 13.8967 29.8423 14.2132 29.3247 14.4017C28.8071 14.5908 28.1478 14.6849 27.3464 14.6849H25.53L25.0271 17.5862H22.9065L24.7985 6.67355H28.8762Z" fill="white"/>
</g>
</g>
<defs>
<radialGradient id="paint0_radial_418_39" cx="0" cy="0" r="1" gradientUnits="userSpaceOnUse" gradientTransform="translate(11.6215 4.42734) scale(24.2481 27.1831)">
<stop stop-color="#AEB2D5"/>
<stop offset="0.3" stop-color="#AEB2D5"/>
<stop offset="0.75" stop-color="#484C89"/>
<stop offset="1" stop-color="#484C89"/>
</radialGradient>
<clipPath id="clip0_418_39">
<rect width="38" height="22.9767" fill="white"/>
</clipPath>
</defs>
</svg>
