<svg width="38" height="38" viewBox="0 0 38 38" fill="none" xmlns="http://www.w3.org/2000/svg">
<path d="M26.9752 27.3914C27.1841 25.6396 27.1212 25.3829 28.4147 25.6666L28.743 25.6958C29.7379 25.7417 31.0387 25.5346 31.8037 25.1765C33.4486 24.4064 34.4247 23.1199 32.8015 23.4583C29.1009 24.2285 28.8464 22.9646 28.8464 22.9646C32.7545 17.1157 34.3878 9.69146 32.9779 7.87479C29.132 2.91778 22.4742 5.26173 22.3636 5.32226L22.3274 5.32956C21.5145 5.16497 20.688 5.07804 19.859 5.06993C18.1844 5.04221 16.9133 5.51261 15.9495 6.24992C15.9495 6.24992 4.07273 1.3148 4.62513 12.4562C4.74299 14.8264 7.9938 30.3917 11.87 25.69C12.768 24.6051 13.6976 23.5471 14.6574 22.5175C15.337 22.9733 16.1512 23.206 17.0051 23.1221L17.0716 23.0652C17.0516 23.2886 17.0603 23.5136 17.0977 23.7347C16.0998 24.8608 16.3927 25.0584 14.3956 25.4726C12.3754 25.8927 13.5627 26.6402 14.3371 26.8364C15.277 27.0727 17.4498 27.4082 18.919 25.3348L18.8604 25.5711C19.2523 25.8876 19.2256 27.8436 19.2812 29.2416C19.3369 30.6389 19.4295 31.9436 19.7122 32.713C19.9942 33.4817 20.3282 35.4625 22.9521 34.8951C25.1459 34.4211 26.8226 33.7392 26.9752 27.3914Z" fill="black"/>
<path d="M26.9752 27.3914C27.1841 25.6396 27.1212 25.3829 28.4147 25.6666L28.743 25.6958C29.7379 25.7417 31.0387 25.5346 31.8037 25.1765C33.4486 24.4064 34.4247 23.1199 32.8015 23.4583C29.1009 24.2285 28.8464 22.9646 28.8464 22.9646C32.7545 17.1157 34.3878 9.69146 32.9779 7.87479C29.132 2.91778 22.4742 5.26173 22.3636 5.32226L22.3274 5.32956C21.5145 5.16497 20.688 5.07804 19.859 5.06993C18.1844 5.04221 16.9133 5.51261 15.9495 6.24992C15.9495 6.24992 4.07273 1.3148 4.62513 12.4562C4.74299 14.8264 7.9938 30.3917 11.87 25.69C12.768 24.6051 13.6976 23.5471 14.6574 22.5175C15.337 22.9733 16.1512 23.206 17.0051 23.1221L17.0716 23.0652C17.0516 23.2886 17.0603 23.5136 17.0977 23.7347C16.0998 24.8608 16.3927 25.0584 14.3956 25.4726C12.3754 25.8927 13.5627 26.6402 14.3371 26.8364C15.277 27.0727 17.4498 27.4082 18.919 25.3348L18.8604 25.5711C19.2523 25.8876 19.2256 27.8436 19.2812 29.2416C19.3369 30.6389 19.4295 31.9436 19.7122 32.713C19.9942 33.4817 20.3282 35.4625 22.9521 34.8951C25.1459 34.4211 26.8226 33.7392 26.9752 27.3914Z" stroke="black" stroke-width="3.031"/>
<path d="M32.8017 23.4583C29.1004 24.2285 28.8466 22.9639 28.8466 22.9639C32.754 17.115 34.388 9.69075 32.9781 7.87408C29.1315 2.91781 22.4744 5.26176 22.3638 5.32229L22.3277 5.32958C21.5143 5.1647 20.6873 5.07753 19.8577 5.06922C18.1832 5.04151 16.9128 5.51263 15.949 6.24995C15.949 6.24995 4.07224 1.31482 4.62465 12.4562C4.74178 14.8264 7.99259 30.391 11.8696 25.69C12.7676 24.6051 13.6971 23.5472 14.6569 22.5176C15.3365 22.9734 16.1507 23.2053 17.0046 23.1221L17.0704 23.0653C17.0502 23.2789 17.0596 23.4875 17.0972 23.7347C16.0986 24.86 16.3922 25.0577 14.3951 25.4727C12.375 25.8927 13.5615 26.6402 14.3366 26.8357C15.2765 27.0727 17.4493 27.4082 18.9185 25.3348L18.8592 25.5711C19.2511 25.8876 19.5259 27.6277 19.4796 29.2059C19.4333 30.7834 19.403 31.8664 19.711 32.7123C20.0197 33.5583 20.327 35.4618 22.9517 34.8951C25.1454 34.4211 26.282 33.1922 26.4396 31.1429C26.5524 29.6858 26.8062 29.9016 26.8228 28.5991L27.0253 27.9821C27.261 26.0072 27.0629 25.3698 28.4143 25.6666L28.7425 25.6958C29.7374 25.741 31.0389 25.5339 31.8032 25.1758C33.4481 24.4057 34.4242 23.12 32.8017 23.4583Z" fill="#336791"/>
<path d="M19.0775 24.5902C18.9762 28.2651 19.1028 31.9655 19.46 32.8648C19.8164 33.764 20.58 35.5136 23.2053 34.9462C25.3983 34.4721 26.1958 33.5547 26.5422 31.5287C26.7974 30.038 27.2891 25.8986 27.352 25.0511M15.9301 6.16754C15.9301 6.16754 4.04537 1.26815 4.59778 12.4103C4.71564 14.7805 7.96717 30.3458 11.8434 25.644C13.2606 23.9244 14.5418 22.5766 14.5418 22.5766M22.3507 5.27343C21.9386 5.40324 28.9615 2.68444 32.9527 7.82741C34.3626 9.64481 32.7285 17.069 28.8205 22.9179" stroke="white" stroke-width="1.01" stroke-linecap="round" stroke-linejoin="round"/>
<path d="M28.8196 22.9179C28.8196 22.9179 29.0741 24.1825 32.7753 23.4117C34.3971 23.074 33.4217 24.3597 31.7768 25.1306C30.4269 25.7622 27.4002 25.9241 27.3511 25.0504C27.2238 22.7983 28.9439 23.4824 28.8196 22.9179ZM28.8196 22.9179C28.7075 22.4096 27.9382 21.9108 27.4292 20.6666C26.9852 19.5799 21.3375 11.2522 28.996 12.489C29.2765 12.4307 26.9982 5.14141 19.8314 5.02326C12.666 4.90439 12.9003 13.9112 12.9003 13.9112" stroke="white" stroke-width="1.01" stroke-linecap="round" stroke-linejoin="bevel"/>
<path d="M17.071 23.6888C16.0717 24.8141 16.3653 25.0117 14.3683 25.4267C12.3481 25.8467 13.5353 26.5935 14.3104 26.7897C15.2496 27.0267 17.4231 27.3622 18.8916 25.2881C19.3385 24.6565 18.8887 23.6487 18.2749 23.3919C17.9784 23.268 17.5807 23.1126 17.071 23.6888Z" stroke="white" stroke-width="1.01" stroke-linecap="round" stroke-linejoin="round"/>
<path d="M17.0058 23.6691C16.9046 23.0069 17.2213 22.2193 17.5604 21.2982C18.0694 19.9162 19.2451 18.5334 18.3051 14.1482C17.6038 10.881 12.904 13.4685 12.9011 13.9112C12.8982 14.3539 13.1137 16.1574 12.8223 18.2563C12.4427 20.9963 14.5504 23.3132 16.9784 23.0762" stroke="white" stroke-width="1.01" stroke-linecap="round" stroke-linejoin="round"/>
<path d="M15.8869 13.8447C15.8652 13.9957 16.1616 14.3997 16.5477 14.4537C16.9324 14.5084 17.2621 14.1926 17.2831 14.0409C17.304 13.89 17.0083 13.723 16.6222 13.669C16.2368 13.615 15.9071 13.6938 15.8869 13.8447Z" fill="white" stroke="white" stroke-width="0.337"/>
<path d="M27.6186 13.5363C27.6396 13.688 27.3439 14.0913 26.9577 14.1452C26.5724 14.1999 26.2427 13.8842 26.2217 13.7332C26.2014 13.5815 26.4964 13.4145 26.8825 13.3613C27.2679 13.3066 27.5976 13.3853 27.6186 13.5363Z" fill="white" stroke="white" stroke-width="0.168"/>
<path d="M28.9962 12.489C29.0598 13.6763 28.7431 14.4844 28.7026 15.7482C28.6433 17.5846 29.5703 19.6871 28.1733 21.7919" stroke="white" stroke-width="1.01" stroke-linecap="round" stroke-linejoin="round"/>
</svg>
