<svg width="38" height="13" viewBox="0 0 38 13" fill="none" xmlns="http://www.w3.org/2000/svg">
<g clip-path="url(#clip0_418_943)">
<path d="M35.7361 5.5061C36.2994 5.50466 36.8535 5.64832 37.3452 5.92324L37.351 5.91855H37.3405L37.8256 4.97246C37.4616 4.72069 36.7625 4.45133 35.783 4.45133C34.3938 4.45133 33.4788 5.14643 33.4788 6.16641C33.4788 7.32518 34.4044 7.68446 35.3768 7.83497C36.361 7.98549 36.6735 8.19464 36.6735 8.56487C36.6735 8.93509 36.3962 9.22557 35.619 9.22557C34.7508 9.22557 34.2646 8.92454 33.9291 8.68098L33.4253 9.66225C33.7799 9.92653 34.4837 10.28 35.5967 10.28C37.1015 10.28 37.981 9.58407 37.981 8.43742C37.981 7.34824 37.1132 6.94283 35.9209 6.75635C34.9836 6.60584 34.7399 6.43186 34.7399 6.07298C34.7418 5.72621 35.0429 5.5061 35.7373 5.5061H35.7361ZM16.1023 4.93845C16.1023 6.53742 14.9678 7.56874 13.0002 7.56874C12.6065 7.56874 12.2707 7.55701 11.9582 7.53355V10.0943H10.6382V2.74837C11.2513 2.59785 12.0504 2.49347 12.9533 2.49347C15.1521 2.49347 16.1019 3.47944 16.1019 4.93845H16.1023ZM14.7354 4.95018C14.7354 4.1503 14.1683 3.64051 12.9877 3.64051C12.6435 3.6423 12.2997 3.66161 11.9574 3.69837V6.39863C12.2584 6.42158 12.6057 6.43304 12.9994 6.43304C14.2503 6.43304 14.7362 5.80752 14.7362 4.95018H14.7354ZM32.5411 4.64446V9.68493C31.9857 9.95156 31.1406 10.2643 29.9244 10.2643C28.2111 10.2643 27.4472 9.4187 27.4472 8.08596V4.64563H28.768V7.70479C28.768 8.59693 28.9996 9.09538 30.0998 9.09538C30.4843 9.10219 30.8662 9.03119 31.2226 8.88662V4.64446H32.5415H32.5411ZM22.2378 4.60927H20.8748C20.5975 6.01121 20.2499 7.40571 19.625 8.69193C19.5899 8.76151 19.5672 8.84244 19.5324 8.92376C19.509 8.85417 19.4746 8.77324 19.4399 8.69193C18.8181 7.39299 18.3559 6.02343 18.0632 4.61318H16.6221C17.0517 6.60701 17.6695 8.2052 18.7467 9.94335C18.4089 10.4778 17.9175 11.0118 17.3688 11.5462L17.9781 12.6331C20.4674 10.4899 21.5652 7.98158 22.2389 4.60927H22.2378ZM24.4611 5.07723L24.4174 4.63468H23.1325V10.0864H24.4603V6.33569C24.9181 5.91269 25.8097 5.6617 26.4802 5.7004L26.8212 4.65423C25.9952 4.4959 25.0833 4.75588 24.4611 5.07723Z" fill="#202020"/>
<path fill-rule="evenodd" clip-rule="evenodd" d="M7.14886 0.000488281H2.50829L5.86807 1.73684L2.09229 9.20368L2.41152 9.36894L7.14886 0.000488281Z" fill="#0C6E6A"/>
<path fill-rule="evenodd" clip-rule="evenodd" d="M3.68612 2.65246C4.25311 2.21785 5.01592 2.14986 5.64919 2.47759C6.28246 2.80532 6.67468 3.47083 6.65847 4.19045L6.65558 6.93931C6.69854 8.02301 6.22227 9.0611 5.37655 9.72731C3.92841 10.8689 1.83677 10.6062 0.708368 9.14077C-0.420033 7.67538 -0.160438 5.55853 1.28794 4.41696C1.35472 4.36419 1.49168 4.26809 1.49168 4.26809L3.68604 2.6525L3.68612 2.65246Z" fill="url(#paint0_radial_418_943)"/>
</g>
<defs>
<radialGradient id="paint0_radial_418_943" cx="0" cy="0" r="1" gradientUnits="userSpaceOnUse" gradientTransform="translate(581.67 577.022) scale(498.969 499.477)">
<stop stop-color="#FFB148"/>
<stop offset="1" stop-color="#EFC84C"/>
</radialGradient>
<clipPath id="clip0_418_943">
<rect width="38" height="12.6667" fill="white"/>
</clipPath>
</defs>
</svg>
