<svg width="38" height="16" viewBox="0 0 38 16" fill="none" xmlns="http://www.w3.org/2000/svg">
<path fill-rule="evenodd" clip-rule="evenodd" d="M11.3361 0.429413V11.2069H0.558594V0.429413H11.3361Z" fill="black"/>
<path fill-rule="evenodd" clip-rule="evenodd" d="M0.82666 0.697128H11.0685V10.9388H0.82666V0.697128Z" fill="#FFF22D"/>
<path fill-rule="evenodd" clip-rule="evenodd" d="M10.6313 3.87129L10.2451 3.5186L8.6664 5.04683L8.22993 4.59341L8.24669 3.61934L7.86049 4.02229V5.23155L7.23437 5.85984L10.3514 8.97663L9.09163 10.2531L5.97346 7.12469L2.85549 10.2531L1.59596 8.97663L4.71275 5.85984L4.08644 5.23155V4.02229L3.70024 3.61934L3.71699 4.59341L3.28033 5.04683L1.70163 3.5186L1.31543 3.87129C1.37832 2.22753 2.68556 0.952622 3.91847 1.82241L5.53069 3.45157L5.16105 3.7873L5.97307 4.59933L6.78509 3.7873L6.41565 3.45157L8.02786 1.82241C9.26117 0.952425 10.5684 2.22753 10.6313 3.87129ZM14.3791 0.874751V4.51633H13.9882V0.478105H15.0731C15.3116 0.478105 15.5028 0.496044 15.6485 0.531924C15.7901 0.566456 15.9239 0.627096 16.0432 0.71073C16.2043 0.823298 16.331 0.973913 16.4247 1.16317C16.5185 1.35163 16.5648 1.55134 16.5648 1.76247C16.5648 2.07494 16.472 2.34365 16.2865 2.56898C16.1 2.7951 15.8679 2.91831 15.5888 2.93822L16.5648 4.51613H16.0933L14.8949 2.56898H15.2773C15.5328 2.56898 15.7402 2.49426 15.9001 2.34463C16.06 2.195 16.1406 2.002 16.1406 1.76721C16.1406 1.62527 16.1159 1.49555 16.0667 1.37904C16.0179 1.26242 15.9435 1.15826 15.849 1.07426C15.7668 1.00104 15.6686 0.948227 15.5622 0.920094C15.4504 0.889931 15.2507 0.874751 14.9639 0.874751H14.3791ZM19.6187 2.97154C19.6187 2.64783 19.5032 2.36572 19.2726 2.12423C19.0413 1.88293 18.7744 1.76267 18.4734 1.76267C18.1459 1.76267 17.8677 1.88293 17.6377 2.12423C17.4076 2.36572 17.2921 2.66479 17.2921 3.02161C17.2921 3.36168 17.4066 3.64832 17.6357 3.88213C17.8648 4.11594 18.1404 4.23324 18.4621 4.23324C18.7726 4.23324 19.0433 4.11022 19.2733 3.8632C19.5032 3.61619 19.6187 3.3189 19.6187 2.97154ZM19.6187 4.03353C19.4967 4.20958 19.3319 4.34679 19.1235 4.44713C18.9134 4.54708 18.6834 4.59816 18.4507 4.59657C18.004 4.59657 17.631 4.44339 17.3337 4.13743C17.0354 3.83166 16.887 3.45414 16.887 3.00426C16.887 2.54808 17.0394 2.16641 17.3431 1.85888C17.6469 1.55213 18.0276 1.39875 18.4848 1.39875C18.7196 1.39875 18.9345 1.44606 19.1304 1.54168C19.325 1.63613 19.4928 1.77769 19.6187 1.9535V1.46499H20.0014V4.51594H19.6187V4.03353ZM21.0161 1.10757H20.6253V0.478105H21.0161V1.10757ZM20.6251 4.51633V1.46538H21.0159V4.51633H20.6251ZM22.1914 4.51633H21.8117V1.80604H21.404V1.46519H21.7948V1.3818C21.7948 1.05908 21.8772 0.819552 22.0408 0.664402C22.2036 0.509056 22.4556 0.43158 22.7935 0.43158H22.8294V0.783672C22.595 0.787418 22.429 0.833746 22.3316 0.92384C22.2342 1.01275 22.1861 1.16612 22.1861 1.3818V1.46519H22.8296V1.80604H22.1916L22.1914 4.51633ZM23.7524 4.51633H23.3727V1.80604H22.965V1.46519H23.3557V1.3818C23.3557 1.05908 23.4381 0.819552 23.6018 0.664402C23.7646 0.509056 24.0165 0.43158 24.3544 0.43158H24.3903V0.783672C24.1559 0.787418 23.9899 0.833746 23.8925 0.92384C23.7952 1.01275 23.7467 1.16612 23.7467 1.3818V1.46519H24.3905V1.80604H23.7526L23.7524 4.51633ZM27.7622 3.11545H25.0088C25.0322 3.44763 25.1525 3.71554 25.3691 3.92096C25.5852 4.1256 25.8547 4.22772 26.1784 4.22772C26.4075 4.22772 26.6139 4.16818 26.7968 4.0499C26.9794 3.93063 27.1213 3.76582 27.2207 3.55369H27.6646C27.5245 3.89159 27.3265 4.15004 27.0728 4.33102C26.8183 4.51179 26.5238 4.60268 26.1898 4.60268C25.7459 4.60268 25.3701 4.44457 25.0632 4.12836C24.7566 3.81214 24.603 3.43166 24.603 2.98869C24.603 2.52383 24.7537 2.14039 25.0539 1.83759C25.3537 1.5336 25.7382 1.38219 26.2056 1.38219C26.6649 1.38219 27.0389 1.5403 27.3275 1.85552C27.6171 2.17174 27.7618 2.58258 27.7618 3.08785V3.11545H27.7622ZM27.3299 2.78504C27.256 2.44241 27.1197 2.18396 26.9218 2.01067C26.7239 1.83739 26.4662 1.75124 26.1486 1.75124C25.8529 1.75124 25.6023 1.84409 25.3967 2.03059C25.1915 2.21708 25.0663 2.46784 25.0202 2.78504H27.3299ZM28.6085 1.10757H28.2178V0.478105H28.6085V1.10757ZM28.2178 4.51633V1.46538H28.6085V4.51633H28.2178ZM29.0468 3.55645H29.4491V3.56789C29.4491 3.75813 29.5041 3.91525 29.6132 4.04024C29.7218 4.16522 29.8572 4.22772 30.0183 4.22772C30.1715 4.22772 30.2982 4.17942 30.4005 4.084C30.5019 3.9874 30.5529 3.86616 30.5529 3.72047C30.5529 3.57479 30.5129 3.45729 30.4325 3.36838C30.352 3.27947 30.2066 3.19608 29.9954 3.11841C29.6573 2.99815 29.4355 2.87514 29.3328 2.75015C29.2297 2.62418 29.1777 2.45562 29.1777 2.24468C29.1777 2.00614 29.2636 1.80348 29.4367 1.63788C29.6092 1.4713 29.819 1.38791 30.0644 1.38791C30.3258 1.38791 30.5322 1.46164 30.6854 1.60949C30.8386 1.75814 30.921 1.96454 30.9322 2.22851H30.5141C30.5044 2.08381 30.4591 1.97204 30.3767 1.89259C30.2943 1.81314 30.1819 1.77332 30.0398 1.77332C29.912 1.77332 29.806 1.8157 29.721 1.90185C29.6354 1.988 29.5933 2.09505 29.5933 2.2228C29.5933 2.31348 29.611 2.38938 29.6461 2.45187C29.6812 2.51338 29.7389 2.56917 29.8206 2.61944C29.8945 2.66577 30.0023 2.71033 30.1445 2.75291C30.2854 2.79549 30.3796 2.82684 30.4281 2.84675C30.6184 2.92817 30.7585 3.036 30.8486 3.17144C30.9383 3.30687 30.9831 3.47799 30.9831 3.68735C30.9831 3.94975 30.891 4.16739 30.7085 4.33969C30.5255 4.51101 30.2931 4.59716 30.0128 4.59716C29.7259 4.59716 29.4957 4.50352 29.3216 4.31604C29.1473 4.12717 29.0564 3.87444 29.0468 3.55645ZM34.4435 3.11545H31.6896C31.7135 3.44763 31.8336 3.71554 32.0504 3.92096C32.2661 4.1256 32.536 4.22772 32.8597 4.22772C33.0887 4.22772 33.2952 4.16818 33.4777 4.0499C33.6607 3.93063 33.8026 3.76582 33.9016 3.55369H34.3459C34.2057 3.89159 34.0078 4.15004 33.7541 4.33102C33.4996 4.51179 33.2051 4.60268 32.8709 4.60268C32.427 4.60268 32.0512 4.44457 31.7446 4.12836C31.4377 3.81214 31.2845 3.43166 31.2845 2.98869C31.2845 2.52383 31.4351 2.14039 31.735 1.83759C32.0348 1.5336 32.4197 1.38219 32.8871 1.38219C33.346 1.38219 33.7204 1.5403 34.0086 1.85552C34.2986 2.17174 34.4433 2.58258 34.4433 3.08785L34.4435 3.11545ZM34.0108 2.78504C33.9372 2.44241 33.8006 2.18396 33.6031 2.01067C33.4052 1.83739 33.1475 1.75124 32.8295 1.75124C32.5342 1.75124 32.2834 1.84409 32.078 2.03059C31.8728 2.21708 31.7476 2.46784 31.7015 2.78504H34.0108ZM34.8932 1.46538H35.2725V1.81294C35.3929 1.67376 35.5319 1.57145 35.6902 1.50521C35.8481 1.43798 36.0291 1.40486 36.2323 1.40486C36.4557 1.40486 36.6548 1.44646 36.8299 1.52965C36.9988 1.60783 37.1423 1.73179 37.2443 1.88746C37.3143 1.99628 37.3647 2.12403 37.3961 2.27189C37.426 2.41856 37.4414 2.63522 37.4414 2.92206V4.51613H37.056V2.8085C37.056 2.44773 36.987 2.18652 36.8496 2.02369C36.7114 1.86085 36.4908 1.77943 36.1882 1.77943C36.0104 1.77943 35.8548 1.81531 35.7204 1.88628C35.5879 1.95613 35.4781 2.06217 35.4036 2.19204C35.3532 2.28023 35.3188 2.37669 35.3022 2.47691C35.2821 2.58297 35.2727 2.76848 35.2727 3.03245V4.51574H34.8934L34.8932 1.46538ZM13.5813 15.5077L14.1516 12.5622H14.8477C15.2255 12.5622 15.5058 12.6338 15.6901 12.7775C15.8744 12.9212 15.9663 13.1394 15.9663 13.432C15.9663 13.6995 15.8778 13.9191 15.7004 14.0916C15.5229 14.2645 15.2763 14.3684 14.9609 14.4051L15.5657 15.5079H15.2219L14.53 14.1683H14.6244C14.9524 14.1683 15.2087 14.1021 15.3924 13.9688C15.5768 13.8363 15.6686 13.652 15.6686 13.4154C15.6686 13.3204 15.6515 13.2349 15.6168 13.1586C15.583 13.0839 15.5312 13.0187 15.4662 12.9687C15.3966 12.9149 15.3102 12.8771 15.2087 12.8556C15.1064 12.8341 14.9284 12.8232 14.6735 12.8232H14.3882L13.8703 15.5077H13.5813ZM18.5481 15.5077L18.595 15.2972C18.4968 15.381 18.3861 15.4491 18.2669 15.4988C18.1577 15.5435 18.0409 15.5665 17.9229 15.5666C17.6826 15.5666 17.4886 15.4988 17.3396 15.3642C17.1906 15.2297 17.1158 15.0535 17.1158 14.8358C17.1158 14.7523 17.1206 14.6661 17.1304 14.5764C17.1393 14.4867 17.1539 14.3962 17.1724 14.3065L17.3851 13.2824H17.6544L17.4216 14.4398C17.4101 14.4962 17.4009 14.5531 17.394 14.6103C17.388 14.6618 17.385 14.7136 17.3849 14.7655C17.3849 14.9356 17.4319 15.0673 17.5259 15.1605C17.6191 15.2546 17.7504 15.3015 17.9188 15.3015C18.1445 15.3015 18.3233 15.2352 18.4572 15.1032C18.5906 14.9707 18.6865 14.7651 18.7444 14.4839L18.9869 13.2822H19.2477L18.8191 15.5077H18.5481ZM20.3109 14.8747H20.5762V14.8828C20.5762 15.0091 20.6102 15.1122 20.6784 15.1915C20.7462 15.2699 20.8355 15.3098 20.9445 15.3098C21.0454 15.3098 21.1332 15.2697 21.2083 15.1897C21.283 15.1097 21.3199 15.0148 21.3199 14.907C21.3199 14.7668 21.2083 14.6221 20.9845 14.4719L20.9725 14.4646C20.7876 14.3402 20.6667 14.2344 20.6102 14.1474C20.5536 14.0605 20.525 13.9576 20.525 13.8391C20.525 13.6625 20.5831 13.5146 20.6999 13.3951C20.8166 13.2755 20.9617 13.2161 21.1342 13.2161C21.297 13.2161 21.4283 13.2646 21.5276 13.3612C21.6266 13.457 21.6763 13.585 21.6763 13.7443C21.6763 13.7685 21.6763 13.7878 21.6755 13.8009C21.6747 13.8147 21.6735 13.8251 21.672 13.8332L21.4109 13.8356C21.4109 13.8298 21.4117 13.821 21.4133 13.8078C21.4145 13.7955 21.4153 13.7867 21.4153 13.7807C21.4153 13.6849 21.3898 13.609 21.3386 13.5529C21.2873 13.4971 21.2177 13.4689 21.1298 13.4689C21.0348 13.4689 20.9553 13.5004 20.8923 13.5639C20.8296 13.6274 20.7982 13.7064 20.7982 13.8007C20.7982 13.9215 20.9153 14.0632 21.1478 14.2235C21.1689 14.2385 21.1858 14.2497 21.1966 14.2578H21.1982C21.4709 14.4449 21.6071 14.6417 21.6071 14.8485C21.6071 15.0602 21.542 15.2335 21.4131 15.3683C21.283 15.5032 21.1166 15.5708 20.9138 15.5708C20.7385 15.5708 20.5926 15.5126 20.4771 15.3959C20.362 15.2792 20.3046 15.1314 20.3046 14.9531C20.3046 14.932 20.3046 14.9161 20.3054 14.905C20.3062 14.894 20.3083 14.8843 20.3109 14.8747ZM22.8219 14.8747H23.0872V14.8828C23.0872 15.0091 23.1211 15.1122 23.1893 15.1915C23.2572 15.2699 23.3461 15.3098 23.4551 15.3098C23.556 15.3098 23.6438 15.2697 23.7193 15.1897C23.7936 15.1097 23.8308 15.0148 23.8308 14.907C23.8308 14.7668 23.7193 14.6221 23.4955 14.4719L23.4835 14.4646C23.2984 14.3402 23.1777 14.2344 23.1211 14.1474C23.0642 14.0605 23.036 13.9576 23.036 13.8391C23.036 13.6625 23.0941 13.5146 23.2108 13.3951C23.3275 13.2755 23.4722 13.2161 23.6451 13.2161C23.808 13.2161 23.9393 13.2646 24.0386 13.3612C24.1372 13.457 24.1869 13.585 24.1869 13.7443C24.1869 13.7685 24.1869 13.7878 24.1865 13.8009C24.1857 13.8147 24.1841 13.8251 24.1829 13.8332L23.9219 13.8356C23.9219 13.8298 23.9227 13.821 23.9239 13.8078C23.9252 13.7988 23.926 13.7898 23.9263 13.7807C23.9263 13.6849 23.9004 13.609 23.8496 13.5529C23.7983 13.4971 23.7287 13.4689 23.6408 13.4689C23.5454 13.4689 23.4659 13.5004 23.4032 13.5639C23.3405 13.6274 23.3092 13.7064 23.3092 13.8007C23.3092 13.9215 23.4259 14.0632 23.6587 14.2235L23.7076 14.2578H23.7092C23.9818 14.4449 24.1177 14.6417 24.1177 14.8485C24.1177 15.0602 24.053 15.2335 23.9237 15.3683C23.794 15.5032 23.6276 15.5708 23.4247 15.5708C23.2491 15.5708 23.1036 15.5126 22.9881 15.3959C22.8729 15.2792 22.8156 15.1314 22.8156 14.9531C22.8156 14.932 22.8156 14.9161 22.8164 14.905C22.8171 14.894 22.8191 14.8843 22.8219 14.8747ZM25.8202 13.0641L25.9152 12.562H26.1798L26.0847 13.0641H25.8202ZM26.0404 13.2822L25.6094 15.5077H25.3441L25.7792 13.2822H26.0404ZM29.2469 14.2978C29.2469 14.0494 29.1761 13.8494 29.0336 13.6964C28.8914 13.544 28.7043 13.4681 28.4721 13.4681C28.3647 13.4677 28.2582 13.4866 28.1575 13.5239C28.0569 13.5605 27.9653 13.6144 27.8829 13.6847C27.7713 13.7798 27.6834 13.9008 27.6191 14.0459C27.5556 14.189 27.523 14.3438 27.5233 14.5003C27.5233 14.7426 27.5964 14.9393 27.7435 15.089C27.8906 15.2392 28.0835 15.3135 28.3223 15.3135C28.5809 15.3135 28.8002 15.2161 28.9784 15.021C29.1572 14.8262 29.2469 14.5851 29.2469 14.2978ZM29.2912 15.5077H28.9979L29.0346 15.338C28.9198 15.4119 28.8011 15.4677 28.6775 15.5059C28.5539 15.5442 28.4262 15.5625 28.2945 15.5625C27.983 15.5625 27.7273 15.4624 27.5278 15.2623C27.3283 15.0622 27.2282 14.8053 27.2282 14.4922C27.2282 14.3128 27.2597 14.1437 27.324 13.9848C27.3871 13.8269 27.4818 13.6835 27.6023 13.5635C27.7118 13.4534 27.8426 13.3667 27.9866 13.3086C28.1339 13.2503 28.291 13.2209 28.4494 13.222C28.6643 13.222 28.8465 13.2613 28.9957 13.3399C29.1455 13.4192 29.2648 13.5383 29.3537 13.697L29.4365 13.2826H29.718L29.2912 15.5077ZM14.6106 9.103L14.3478 10.6263H14.9055C15.233 10.6263 15.4849 10.5648 15.6625 10.4408C15.8401 10.3168 15.9517 10.1258 15.9959 9.86909C16.0404 9.61182 15.9939 9.42059 15.8567 9.29383C15.7195 9.16668 15.49 9.1032 15.1683 9.1032L14.6106 9.103ZM14.9114 7.3587L14.677 8.71798H14.9156C15.3075 8.71798 15.5914 8.66416 15.766 8.55593C15.9411 8.44731 16.0501 8.27028 16.0925 8.02425C16.1323 7.7932 16.0858 7.62464 15.9525 7.51878C15.8187 7.41193 15.5854 7.3589 15.2533 7.3589L14.9114 7.3587ZM14.5984 6.97309H15.3501C15.8072 6.97309 16.1276 7.05924 16.3125 7.23253C16.4974 7.40582 16.5581 7.67472 16.4948 8.041C16.4631 8.22592 16.3998 8.38363 16.3052 8.51532C16.2096 8.64701 16.0832 8.75367 15.9249 8.83725C16.127 8.92814 16.2689 9.0549 16.3494 9.21852C16.43 9.38254 16.4505 9.58244 16.4095 9.81881C16.3387 10.2297 16.1731 10.5307 15.9139 10.7229C15.6544 10.9151 15.2809 11.0117 14.7943 11.0117H13.9017L14.5984 6.97309ZM16.6942 11.0115H16.2756L18.5392 6.97309H19.0163L19.8813 11.0115H19.4575L19.1933 9.7439H17.3956L16.6942 11.0115ZM19.1166 9.38057L18.7007 7.35279L17.5963 9.38057H19.1166ZM22.9484 10.5287L23.5144 6.97309H23.9083L23.2114 11.0115H22.7343L21.1326 7.45017L20.5626 11.0115H20.1719L20.8684 6.97309H21.3459L22.9484 10.5287ZM24.5719 9.76559L24.357 11.0115H23.9659L24.6628 6.97309H25.0535L24.6665 9.21635L26.9232 6.97309H27.3945L25.4267 8.92616L26.6704 11.0115H26.1821L25.1209 9.22227L24.5719 9.76559Z" fill="black"/>
</svg>
