<svg width="38" height="37" viewBox="0 0 38 37" fill="none" xmlns="http://www.w3.org/2000/svg">
<g clip-path="url(#clip0_418_83)">
<path d="M19.0002 22.1156C20.8708 22.1156 22.3872 20.4629 22.3872 18.4242C22.3872 16.3855 20.8708 14.7328 19.0002 14.7328C17.1297 14.7328 15.6133 16.3855 15.6133 18.4242C15.6133 20.4629 17.1297 22.1156 19.0002 22.1156Z" fill="#61DAFB"/>
<path d="M19.0001 25.9871C29.0373 25.9871 37.174 22.6011 37.174 18.4242C37.174 14.2473 29.0373 10.8613 19.0001 10.8613C8.96291 10.8613 0.826172 14.2473 0.826172 18.4242C0.826172 22.6011 8.96291 25.9871 19.0001 25.9871Z" stroke="#61DAFB"/>
<path d="M12.9904 22.2057C18.009 31.6795 24.7679 37.6666 28.0868 35.5781C31.4057 33.4897 30.0279 24.1166 25.0093 14.6428C19.9907 5.1689 13.2318 -0.818153 9.9129 1.27029C6.59396 3.35873 7.97181 12.7318 12.9904 22.2057Z" stroke="#61DAFB"/>
<path d="M12.9908 14.6428C7.97221 24.1166 6.59437 33.4897 9.9133 35.5781C13.2322 37.6666 19.9911 31.6795 25.0097 22.2057C30.0283 12.7318 31.4062 3.35874 28.0872 1.2703C24.7683 -0.818144 18.0094 5.16891 12.9908 14.6428Z" stroke="#61DAFB"/>
</g>
<defs>
<clipPath id="clip0_418_83">
<rect width="38" height="36.8485" fill="white"/>
</clipPath>
</defs>
</svg>
