<svg width="38" height="7" viewBox="0 0 38 7" fill="none" xmlns="http://www.w3.org/2000/svg">
<g clip-path="url(#clip0_418_917)">
<path d="M7.7812 5.72762C8.20049 5.72762 8.54588 5.57274 8.76476 5.34742C8.79086 5.32165 8.8247 5.30512 8.86109 5.30038C8.89749 5.29563 8.93443 5.30292 8.96629 5.32114L9.72929 5.75893C9.7435 5.76688 9.7558 5.77783 9.76533 5.79101C9.77487 5.8042 9.78141 5.8193 9.7845 5.83527C9.7876 5.85124 9.78716 5.86769 9.78323 5.88348C9.7793 5.89926 9.77197 5.914 9.76175 5.92667C9.31392 6.50871 8.62649 6.83971 7.76329 6.83971C6.16451 6.83971 5.15576 5.74663 5.15576 4.33038C5.15576 2.91413 6.17403 1.82104 7.66924 1.82104C9.07769 1.82104 10.0764 2.93314 10.0764 4.33038C10.0761 4.46704 10.0654 4.60348 10.0445 4.73854C10.0405 4.7653 10.027 4.78974 10.0064 4.80732C9.98584 4.8249 9.95958 4.83443 9.93249 4.83415H6.51774C6.50871 4.83406 6.49979 4.83616 6.49174 4.84026C6.4837 4.84437 6.47676 4.85036 6.47154 4.85772C6.46631 4.86508 6.46295 4.8736 6.46173 4.88254C6.46052 4.89148 6.46149 4.90058 6.46456 4.90907C6.65433 5.48273 7.16151 5.72762 7.7812 5.72762ZM8.7754 3.88252C8.78403 3.88278 8.7926 3.88103 8.80045 3.87742C8.80829 3.87382 8.81519 3.86845 8.82061 3.86173C8.82603 3.85502 8.82983 3.84714 8.83169 3.83872C8.83356 3.8303 8.83345 3.82156 8.83138 3.81319C8.66344 3.17971 8.16466 2.92251 7.66812 2.92251C7.03723 2.92251 6.59947 3.24736 6.43937 3.81263C6.43719 3.82104 6.43701 3.82984 6.43883 3.83834C6.44064 3.84683 6.44442 3.85478 6.44985 3.86157C6.45529 3.86835 6.46223 3.87378 6.47012 3.87741C6.47802 3.88105 6.48666 3.8828 6.49535 3.88252H8.7754Z" fill="#0068FF"/>
<path d="M12.1532 3.13109V5.19984C12.1532 5.68404 12.4829 5.71982 13.111 5.69075C13.1262 5.68999 13.1414 5.69232 13.1556 5.6976C13.1698 5.70288 13.1828 5.71099 13.1938 5.72145C13.2048 5.73191 13.2136 5.7445 13.2196 5.75844C13.2255 5.77239 13.2286 5.7874 13.2286 5.80257V6.69716C13.2287 6.72498 13.2185 6.75185 13.1998 6.77253C13.1812 6.79321 13.1555 6.80621 13.1278 6.80899C11.4831 6.96834 10.9256 6.45954 10.9256 5.20152V3.13109H10.2096C10.1799 3.13109 10.1514 3.11931 10.1304 3.09834C10.1095 3.07737 10.0977 3.04893 10.0977 3.01927V2.06876C10.0977 2.0391 10.1095 2.01066 10.1304 1.98969C10.1514 1.96872 10.1799 1.95694 10.2096 1.95694H10.9256V1.11826C10.9256 1.08227 10.9372 1.04725 10.9587 1.01835C10.9801 0.989458 11.0104 0.968225 11.0448 0.957789L12.0088 0.666488C12.0255 0.66143 12.0432 0.660346 12.0604 0.663323C12.0776 0.6663 12.0938 0.673254 12.1079 0.683631C12.1219 0.694007 12.1333 0.707518 12.1412 0.723085C12.1491 0.738651 12.1532 0.75584 12.1532 0.77328V1.95694H13.1166C13.1463 1.95694 13.1748 1.96872 13.1958 1.98969C13.2168 2.01066 13.2286 2.0391 13.2286 2.06876V3.01927C13.2286 3.04893 13.2168 3.07737 13.1958 3.09834C13.1748 3.11931 13.1463 3.13109 13.1166 3.13109H12.1532Z" fill="#0068FF"/>
<path d="M18.3399 2.06874V6.59761C18.3399 6.62727 18.3281 6.65571 18.3071 6.67668C18.2861 6.69766 18.2576 6.70944 18.2279 6.70944H17.2242C17.1945 6.70944 17.166 6.69766 17.145 6.67668C17.124 6.65571 17.1122 6.62727 17.1122 6.59761V6.15032C16.7696 6.57804 16.2558 6.84419 15.561 6.84419C14.2954 6.84419 13.2485 5.7511 13.2485 4.33485C13.2485 2.9186 14.2954 1.82104 15.5622 1.82104C16.2569 1.82104 16.7708 2.08719 17.1134 2.51491V2.06874C17.1134 2.03908 17.1252 2.01063 17.1462 1.98966C17.1671 1.96869 17.1956 1.95691 17.2253 1.95691H18.229C18.2585 1.95721 18.2867 1.96912 18.3075 1.99006C18.3282 2.011 18.3399 2.03927 18.3399 2.06874ZM17.1122 4.33317C17.1122 3.53475 16.5524 2.99128 15.7894 2.99128C15.0376 2.99128 14.4762 3.53307 14.4762 4.33317C14.4762 5.13328 15.036 5.67506 15.7894 5.67506C16.5508 5.67059 17.1122 5.1288 17.1122 4.33038V4.33317Z" fill="#0068FF"/>
<path d="M18.7669 0.771587C18.7641 0.669142 18.7819 0.567182 18.8193 0.471726C18.8566 0.376271 18.9127 0.289256 18.9843 0.215819C19.0558 0.142381 19.1414 0.0840115 19.2359 0.0441552C19.3305 0.00429902 19.432 -0.0162354 19.5346 -0.0162354C19.6372 -0.0162354 19.7388 0.00429902 19.8333 0.0441552C19.9279 0.0840115 20.0134 0.142381 20.085 0.215819C20.1566 0.289256 20.2127 0.376271 20.25 0.471726C20.2874 0.567182 20.3052 0.669142 20.3024 0.771587C20.297 0.971379 20.2137 1.16118 20.0703 1.30058C19.927 1.43999 19.7347 1.51799 19.5346 1.51799C19.3345 1.51799 19.1423 1.43999 18.9989 1.30058C18.8555 1.16118 18.7723 0.971379 18.7669 0.771587ZM19.0328 1.95692H20.0371C20.0667 1.95692 20.0952 1.9687 20.1162 1.98967C20.1372 2.01065 20.149 2.03909 20.149 2.06875V6.59762C20.149 6.62728 20.1372 6.65573 20.1162 6.6767C20.0952 6.69767 20.0667 6.70945 20.0371 6.70945H19.0328C19.0031 6.70945 18.9746 6.69767 18.9536 6.6767C18.9326 6.65573 18.9208 6.62728 18.9208 6.59762V2.06875C18.9208 2.03909 18.9326 2.01065 18.9536 1.98967C18.9746 1.9687 19.0031 1.95692 19.0328 1.95692Z" fill="#0068FF"/>
<path d="M20.8317 1.13423e-08H21.8348C21.864 -1.308e-05 21.8919 0.0113067 21.9128 0.0315577C21.9337 0.0518087 21.9459 0.0793971 21.9468 0.108469V6.59762C21.9459 6.6267 21.9337 6.65428 21.9128 6.67454C21.8919 6.69479 21.864 6.70611 21.8348 6.70609H20.8317C20.8026 6.70611 20.7746 6.69479 20.7537 6.67454C20.7328 6.65428 20.7206 6.6267 20.7197 6.59762V0.108469C20.7206 0.0793971 20.7328 0.0518087 20.7537 0.0315577C20.7746 0.0113067 20.8026 -1.308e-05 20.8317 1.13423e-08Z" fill="#0068FF"/>
<path d="M22.5176 4.33038C22.5176 2.91413 23.5812 1.82104 25.0299 1.82104C25.9195 1.82104 26.697 2.26834 27.1051 2.94767C27.1129 2.96039 27.1182 2.97455 27.1204 2.98932C27.1227 3.00409 27.122 3.01916 27.1184 3.03365C27.1147 3.04814 27.1082 3.06175 27.0992 3.07368C27.0902 3.08561 27.0789 3.09562 27.0659 3.10311L26.2497 3.57836C26.213 3.59997 26.1695 3.60685 26.1279 3.59761C26.0864 3.58838 26.0499 3.56371 26.0258 3.5286C25.8137 3.21773 25.4459 3.02539 25.0182 3.02539C24.2854 3.02539 23.743 3.56718 23.743 4.32758C23.743 5.07848 24.2854 5.62027 25.0182 5.62027C25.4543 5.62027 25.8237 5.43576 26.0353 5.12545C26.0592 5.09098 26.0952 5.06669 26.1361 5.05738C26.177 5.04806 26.22 5.0544 26.2564 5.07513L27.0799 5.54535C27.0931 5.55283 27.1046 5.56291 27.1138 5.57497C27.1229 5.58704 27.1295 5.60083 27.1332 5.61552C27.1369 5.63021 27.1375 5.64549 27.1351 5.66044C27.1327 5.67538 27.1272 5.68968 27.1191 5.70246C26.8962 6.05407 26.587 6.34292 26.2208 6.54157C25.8547 6.74022 25.4438 6.84208 25.0271 6.83748C23.5834 6.83971 22.5176 5.74663 22.5176 4.33038Z" fill="black"/>
<path d="M30.368 1.9748V3.10646C30.368 3.12167 30.3649 3.13674 30.3589 3.15072C30.3529 3.1647 30.3441 3.17732 30.3331 3.18778C30.322 3.19825 30.3089 3.20636 30.2946 3.2116C30.2803 3.21684 30.2651 3.21912 30.2499 3.21828C29.6341 3.18921 28.9215 3.49784 28.9215 4.43493V6.59761C28.9215 6.62726 28.9097 6.65571 28.8887 6.67668C28.8677 6.69765 28.8392 6.70943 28.8095 6.70943H27.8058C27.7761 6.70943 27.7476 6.69765 27.7266 6.67668C27.7056 6.65571 27.6938 6.62726 27.6938 6.59761V2.06873C27.6938 2.03907 27.7056 2.01063 27.7266 1.98966C27.7476 1.96869 27.7761 1.9569 27.8058 1.9569H28.8095C28.8392 1.9569 28.8677 1.96869 28.8887 1.98966C28.9097 2.01063 28.9215 2.03907 28.9215 2.06873V2.77154C29.1527 2.16769 29.6912 1.89596 30.2499 1.86241C30.2651 1.86157 30.2804 1.86386 30.2947 1.86914C30.3091 1.87442 30.3222 1.88257 30.3333 1.8931C30.3443 1.90363 30.3531 1.91631 30.3591 1.93036C30.3651 1.94441 30.3681 1.95953 30.368 1.9748Z" fill="black"/>
<path d="M38.0002 3.77911V6.59764C38.0002 6.6273 37.9884 6.65574 37.9674 6.67671C37.9464 6.69768 37.918 6.70946 37.8883 6.70946H36.8845C36.8549 6.70946 36.8264 6.69768 36.8054 6.67671C36.7844 6.65574 36.7726 6.6273 36.7726 6.59764V3.86466C36.7726 3.30554 36.4871 2.96168 35.9732 2.96168C35.4308 2.96168 35.0882 3.32287 35.0882 4.03575V6.59764C35.0882 6.6273 35.0764 6.65574 35.0554 6.67671C35.0344 6.69768 35.0059 6.70946 34.9762 6.70946H33.9725C33.9428 6.70946 33.9143 6.69768 33.8933 6.67671C33.8723 6.65574 33.8605 6.6273 33.8605 6.59764V3.86466C33.8605 3.30554 33.575 2.96168 33.0611 2.96168C32.5377 2.96168 32.1655 3.32287 32.1655 4.03575V6.59764C32.1655 6.6273 32.1537 6.65574 32.1327 6.67671C32.1117 6.69768 32.0832 6.70946 32.0535 6.70946H31.0509C31.0212 6.70946 30.9928 6.69768 30.9718 6.67671C30.9508 6.65574 30.939 6.6273 30.939 6.59764V2.06876C30.939 2.0391 30.9508 2.01066 30.9718 1.98969C30.9928 1.96872 31.0212 1.95694 31.0509 1.95694H32.0546C32.0843 1.95694 32.1128 1.96872 32.1338 1.98969C32.1548 2.01066 32.1666 2.0391 32.1666 2.06876V2.46015C32.4331 2.06093 32.8803 1.82331 33.4894 1.82331C34.0794 1.82331 34.5172 2.07044 34.7836 2.50767C35.0786 2.07994 35.5545 1.82331 36.2016 1.82331C37.2865 1.82107 38.0002 2.59098 38.0002 3.77911Z" fill="black"/>
<path d="M4.93123 1.81152H0.871601C0.640284 1.81197 0.418593 1.90406 0.255184 2.06759C0.0917751 2.23111 -4.27731e-07 2.45271 0 2.68375L0 6.73794C0 6.76759 0.0117956 6.79604 0.032792 6.81701C0.0537884 6.83798 0.0822656 6.84976 0.111959 6.84976H1.12407C1.15376 6.84976 1.18224 6.83798 1.20324 6.81701C1.22423 6.79604 1.23603 6.76759 1.23603 6.73794V4.52885C1.2359 4.29749 1.16392 4.07186 1.03002 3.88307L0.619693 3.30382L3.98518 6.66469C3.9956 6.67526 4.00802 6.68365 4.02171 6.68937C4.03541 6.6951 4.0501 6.69805 4.06495 6.69805C4.0798 6.69805 4.0945 6.6951 4.10819 6.68937C4.12189 6.68365 4.1343 6.67526 4.14472 6.66469L4.85902 5.95069C4.8696 5.94029 4.878 5.92789 4.88373 5.91421C4.88947 5.90053 4.89242 5.88585 4.89242 5.87102C4.89242 5.85619 4.88947 5.84151 4.88373 5.82783C4.878 5.81415 4.8696 5.80175 4.85902 5.79134L1.49689 2.43382L2.07124 2.84031C2.26026 2.97405 2.48616 3.04593 2.7178 3.04606H4.93123C4.96093 3.04606 4.9894 3.03428 5.0104 3.01331C5.0314 2.99234 5.04319 2.9639 5.04319 2.93424V1.92335C5.04319 1.89369 5.0314 1.86525 5.0104 1.84428C4.9894 1.8233 4.96093 1.81152 4.93123 1.81152Z" fill="#0068FF"/>
<path d="M4.92899 0H0.111959C0.0501257 0 0 0.0500654 0 0.111824V1.12942C0 1.19118 0.0501257 1.24125 0.111959 1.24125H4.92899C4.99083 1.24125 5.04095 1.19118 5.04095 1.12942V0.111824C5.04095 0.0500654 4.99083 0 4.92899 0Z" fill="#0068FF"/>
</g>
<defs>
<clipPath id="clip0_418_917">
<rect width="38" height="6.83805" fill="white"/>
</clipPath>
</defs>
</svg>
