<svg width="38" height="5" viewBox="0 0 38 5" fill="none" xmlns="http://www.w3.org/2000/svg">
<g clip-path="url(#clip0_418_145)">
<path d="M0.379003 0.0561175C0.231391 0.123939 0.0997375 0.263571 0.0438845 0.411183C0.015958 0.486984 0 1.19711 0 2.49769V4.46851H0.917585V3.23176H2.13837L2.45753 3.85013L2.7727 4.46851H3.30331C3.59055 4.46851 3.82992 4.45654 3.82992 4.44457C3.82992 4.42861 3.66635 4.10147 3.46289 3.71848L3.09984 3.01633L3.19559 2.95648C3.73417 2.60142 3.97354 1.90326 3.82992 1.10536C3.73816 0.618637 3.50278 0.27554 3.13974 0.11596C2.93627 0.0242014 2.90037 0.0202117 1.71549 0.0122328C0.758005 0.00425386 0.474751 0.0122328 0.379003 0.0561175ZM2.69291 0.957745C2.75675 0.981682 2.82058 1.05349 2.85648 1.14525C2.93228 1.32478 2.94026 1.78357 2.87244 1.91921C2.70089 2.25034 2.48945 2.31418 1.58782 2.31418H0.917585V0.91785H1.75139C2.21018 0.91785 2.63307 0.933808 2.69291 0.957745ZM5.18635 0.03617C4.79139 0.155855 4.50814 0.439109 4.38845 0.826091C4.2927 1.13727 4.18898 1.87134 4.18898 2.22641C4.18898 2.5695 4.28472 3.26767 4.3685 3.55092C4.51612 4.04163 4.76745 4.29297 5.23024 4.41265C5.42971 4.46452 5.64115 4.4725 6.31937 4.46053C7.09732 4.44856 7.17711 4.43659 7.3726 4.35281C7.93512 4.10147 8.17848 3.46315 8.17848 2.23439C8.17449 0.941787 7.92315 0.303466 7.32871 0.084044C7.11727 0.00824308 7.02551 0.000264168 6.19171 0.00425386C5.69302 0.00425386 5.2422 0.0202117 5.18635 0.03617ZM7.04147 1.00961C7.30877 1.37664 7.30478 3.18389 7.03349 3.45118C6.9537 3.53496 5.41774 3.53895 5.34992 3.45916C5.16242 3.23176 5.09459 1.91921 5.23822 1.30483C5.29806 1.06147 5.32997 0.985671 5.3978 0.957745C5.44567 0.937797 5.82467 0.925829 6.23559 0.929818C6.90982 0.937797 6.9936 0.945776 7.04147 1.00961ZM9.04021 0.0880332C8.95244 0.139897 8.84472 0.243624 8.80084 0.319425C8.72105 0.455068 8.71706 0.526879 8.70509 2.12268C8.69711 3.23575 8.70908 3.83816 8.73701 3.94987C8.80483 4.19722 8.98037 4.37675 9.21974 4.42462C9.46709 4.48047 11.2265 4.48047 11.5416 4.42861C12.156 4.32887 12.4712 3.96982 12.5151 3.31155C12.543 2.94053 12.4831 2.66525 12.3276 2.4179L12.2119 2.23837L12.3595 1.95113C12.5031 1.67585 12.5071 1.64793 12.5071 1.26095C12.5071 0.929818 12.4871 0.822102 12.4153 0.658532C12.2996 0.407194 12.16 0.259582 11.9087 0.127928L11.7092 0.0202117L10.4525 0.00824308C9.20777 0.000264168 9.1958 0.000264168 9.04021 0.0880332ZM11.5097 0.965724C11.5656 1.02158 11.6015 1.28887 11.5656 1.41255C11.5456 1.48436 11.4818 1.5841 11.4259 1.63995C11.3262 1.7357 11.3102 1.7357 10.4884 1.74767L9.65459 1.75963V0.91386L10.5682 0.925829C11.0709 0.933808 11.4938 0.949766 11.5097 0.965724ZM11.3342 2.74504C11.4938 2.80887 11.5815 2.98042 11.5775 3.20782C11.5735 3.35145 11.5536 3.42326 11.5057 3.45916C11.4539 3.49906 11.2025 3.51103 10.5443 3.51103H9.65459V2.66525L10.4445 2.68121C10.8754 2.69318 11.2783 2.7211 11.3342 2.74504ZM13.8515 0.084044C13.4646 0.235645 13.2691 0.506931 13.1175 1.10536C13.0417 1.40856 13.0297 1.56814 13.0297 2.23439C13.0297 2.96047 13.0377 3.04026 13.1374 3.41129C13.2611 3.8621 13.3768 4.05759 13.6082 4.22914C13.8954 4.4326 13.9832 4.44856 15.0005 4.44856C16.0178 4.44856 16.1056 4.4326 16.3929 4.22914C16.6243 4.05759 16.7399 3.8621 16.8636 3.41129C16.9634 3.04026 16.9713 2.96047 16.9713 2.23439C16.9713 1.56814 16.9594 1.40856 16.8836 1.10536C16.732 0.498952 16.5365 0.231656 16.1375 0.084044C15.9341 0.00824308 15.8343 0.000264168 14.9886 0.00425386C14.1548 0.00425386 14.043 0.0122328 13.8515 0.084044ZM15.7745 0.957745C15.8822 0.99764 15.9301 1.12131 16.0059 1.57213C16.1016 2.12667 16.0178 3.17192 15.8583 3.41528C15.7984 3.51103 15.7944 3.51103 15.0005 3.51103C14.067 3.51103 14.1228 3.53895 14.0191 3.00835C13.8715 2.27428 13.9912 1.0495 14.2146 0.957745C14.3343 0.909871 15.6468 0.909871 15.7745 0.957745Z" fill="#276EB8"/>
<path d="M17.7174 0.123962L17.5938 0.247637V4.19724L17.7094 4.31294C17.8132 4.41268 17.8571 4.42863 18.0605 4.42863C18.256 4.42863 18.3119 4.41268 18.3837 4.33688C18.5233 4.18926 18.5512 4.01772 18.5512 3.32354V2.67325H19.1377L19.4329 2.92858C20.0234 3.43525 20.2268 3.70653 20.2268 3.97782C20.2268 4.12942 20.2468 4.1773 20.3625 4.29299C20.4821 4.41268 20.522 4.42863 20.7016 4.42863C20.8691 4.42863 20.925 4.40869 21.0327 4.31294C21.1604 4.20123 21.1644 4.18527 21.1604 3.89404C21.1564 3.6427 21.1364 3.55094 21.0327 3.3395C20.8931 3.06024 20.4861 2.56155 20.2308 2.35808L20.0633 2.22643L20.3226 1.99105C20.6337 1.70381 20.921 1.33278 21.0566 1.04155C21.1324 0.873989 21.1564 0.754304 21.1604 0.530892C21.1644 0.243648 21.1604 0.227689 21.0327 0.115983C20.917 0.0122561 20.8731 0.000287533 20.6497 0.000287533C20.4183 0.000287533 20.3824 0.0122561 20.3106 0.104015C20.2547 0.175826 20.2268 0.267585 20.2268 0.387269C20.2268 0.483018 20.2029 0.618661 20.171 0.690472C20.1031 0.858031 19.7999 1.18916 19.4329 1.50433L19.1377 1.75567H18.5512V1.10538C18.5512 0.750314 18.5313 0.391259 18.5113 0.311469C18.4515 0.096036 18.3079 0.000287533 18.0486 0.000287533C17.869 0.000287533 17.8212 0.0162458 17.7174 0.123962ZM22.7961 0.0561409C22.2575 0.227689 21.9623 0.610682 21.7548 1.39262C21.6591 1.7437 21.6511 1.86339 21.6351 2.87672C21.6112 4.07357 21.6271 4.20522 21.8107 4.34884C21.9423 4.45257 22.2814 4.45656 22.4051 4.35682C22.5487 4.24113 22.5806 4.12942 22.5806 3.71451V3.31157H24.6552V3.75441C24.6552 4.18926 24.6552 4.19724 24.7709 4.31294C24.8746 4.41268 24.9185 4.42863 25.114 4.42863C25.3174 4.42863 25.3533 4.41667 25.461 4.30097L25.5767 4.17331L25.5648 2.89667C25.5488 1.71577 25.5408 1.5921 25.461 1.3248C25.2696 0.694461 24.9903 0.2995 24.6153 0.123962C24.4078 0.0282145 24.352 0.0202351 23.6777 0.0122561C23.1671 0.00427723 22.9118 0.0162458 22.7961 0.0561409ZM24.1724 0.961758C24.3919 1.03756 24.5794 1.52029 24.6312 2.1227L24.6512 2.39399H22.5687L22.5966 2.07483C22.6445 1.51231 22.8639 0.985695 23.0673 0.9458C23.2628 0.909894 24.0528 0.921863 24.1724 0.961758ZM26.8294 0.0561409C26.4385 0.179815 26.2191 0.371312 26.0834 0.718398C26.0156 0.893936 25.9956 1.0216 25.9956 1.33677C25.9956 1.97509 26.1871 2.33814 26.6379 2.55756C26.8175 2.64533 26.8893 2.65331 27.6752 2.67325C28.4891 2.6932 28.525 2.69719 28.6128 2.78496C28.7284 2.90066 28.7404 3.23976 28.6327 3.40333L28.5649 3.51105H27.4917C26.4784 3.51105 26.4145 3.51504 26.3188 3.59084C26.0954 3.76638 26.0874 4.14937 26.2988 4.3289L26.4185 4.42863H27.5795C28.2258 4.42863 28.8082 4.40869 28.888 4.38874C29.1075 4.3289 29.3428 4.09751 29.4904 3.79829C29.6141 3.54695 29.6221 3.51105 29.6221 3.09215C29.6221 2.70118 29.6101 2.62937 29.5184 2.43388C29.3867 2.15462 29.2072 1.94716 29.0117 1.85142C28.884 1.78758 28.7364 1.77163 27.9545 1.75567C26.8973 1.73173 26.9292 1.74769 26.9292 1.33677C26.9292 0.921863 26.8693 0.94181 28.142 0.917873L29.2431 0.897926L29.3508 0.790209C29.4466 0.694461 29.4585 0.646587 29.4745 0.343385L29.4944 0.000287533L28.2417 0.00427723C27.3481 0.00427723 26.9451 0.0202351 26.8294 0.0561409ZM30.7791 0.0561409C30.6913 0.0840673 30.5676 0.135931 30.4998 0.167847C29.9851 0.439133 29.7697 1.34874 30.0649 1.99504C30.1886 2.26632 30.3242 2.40995 30.5796 2.54559C30.7711 2.64932 30.803 2.65331 31.577 2.66527C32.0158 2.66926 32.4227 2.69719 32.4826 2.71714C32.6222 2.77299 32.69 2.97646 32.6541 3.21583C32.6102 3.51903 32.6421 3.51105 31.4333 3.51105H30.3522L30.2365 3.62674C30.1367 3.73047 30.1208 3.77436 30.1208 3.96984C30.1208 4.16533 30.1367 4.20921 30.2365 4.31294L30.3522 4.42863H31.557C32.8975 4.42863 32.9294 4.42465 33.2087 4.15735C33.452 3.92197 33.5637 3.6427 33.5837 3.18391C33.6076 2.65331 33.5079 2.34213 33.2126 2.05089C33.081 1.91924 32.9493 1.82748 32.8496 1.79955C32.7618 1.77562 32.3629 1.75567 31.952 1.75567C31.541 1.75567 31.1541 1.7437 31.0862 1.73173C30.9426 1.70381 30.8788 1.58013 30.8788 1.33677C30.8788 1.09341 30.9426 0.969737 31.0862 0.94181C31.1541 0.929842 31.6368 0.917873 32.1634 0.917873C33.4041 0.917873 33.4321 0.901915 33.4321 0.2995V0.000287533L32.1873 0.00427723C31.2977 0.00427723 30.8908 0.0202351 30.7791 0.0561409ZM35.1515 0.0800776C35.0359 0.119973 34.8763 0.203753 34.8005 0.263595C34.4813 0.506954 34.1941 1.14527 34.1143 1.79556C34.0544 2.25037 34.0584 4.02171 34.1143 4.18527C34.1701 4.34087 34.3297 4.42863 34.5651 4.42863C34.7087 4.42863 34.7725 4.4047 34.8763 4.31294L35.0079 4.19724L35.0199 3.75441L35.0359 3.31157H37.0545L37.0705 3.75441L37.0825 4.19724L37.2141 4.31294C37.3178 4.40869 37.3777 4.42863 37.5413 4.42863C37.7048 4.42863 37.7647 4.40869 37.8684 4.31294L38 4.19724L37.9961 2.94454C37.9921 1.79955 37.9881 1.67189 37.9083 1.38464C37.7288 0.726377 37.4615 0.327427 37.0745 0.135931C36.8471 0.0242248 36.8271 0.0202351 36.105 0.0122561C35.4547 0.000287533 35.343 0.00826693 35.1515 0.0800776ZM36.7473 1.07745C36.9069 1.26496 37.0266 1.66391 37.0505 2.06286L37.0745 2.39399H35.0279V2.15063C35.0279 1.64396 35.2513 1.05352 35.4747 0.957768C35.5266 0.937821 35.8058 0.925852 36.101 0.929842L36.6317 0.937821L36.7473 1.07745Z" fill="#D61E2F"/>
</g>
<defs>
<clipPath id="clip0_418_145">
<rect width="38" height="4.4688" fill="white"/>
</clipPath>
</defs>
</svg>
