<svg width="31" height="39" viewBox="0 0 31 39" fill="none" xmlns="http://www.w3.org/2000/svg">
<g clip-path="url(#clip0_418_119)">
<path d="M0 8.74014L4.60117 16.9735V21.9831L0 30.1911V8.74014Z" fill="#5B58A3"/>
<path d="M17.6699 13.9715L21.9798 11.3305H30.8053L17.6699 19.3675V13.9715Z" fill="#D90652"/>
<path d="M17.6447 8.70214L17.67 19.5923L13.0562 16.7423V0.468811L17.6447 8.70214Z" fill="#FBB81E"/>
<path d="M30.8053 11.321H21.9798L17.6447 8.70214L13.0562 0.468811L30.7895 11.321H30.8053Z" fill="#ED7029"/>
<path d="M17.67 30.2355V24.9535L13.0562 22.1732V38.4688L17.67 30.2355Z" fill="#64B332"/>
<path d="M21.9703 27.6198L4.60117 16.9671L0 8.74014L30.7863 27.6071H21.9703V27.6198Z" fill="#1B87C9"/>
<path d="M13.0596 38.4688L17.6702 30.2355L21.9706 27.6166H30.7866L13.0596 38.4688Z" fill="#0A8036"/>
<path d="M0 30.1911L13.0942 22.1731L8.6925 19.4688L4.60117 21.9831L0 30.1911Z" fill="#984A96"/>
</g>
<defs>
<clipPath id="clip0_418_119">
<rect width="30.8053" height="38" fill="white" transform="translate(0 0.468811)"/>
</clipPath>
</defs>
</svg>
