<svg width="38" height="6" viewBox="0 0 38 6" fill="none" xmlns="http://www.w3.org/2000/svg">
<g clip-path="url(#clip0_418_730)">
<path d="M27.5399 3.695V3.97715C27.5399 4.36009 27.4046 4.6557 27.1072 4.81693C26.8367 4.96474 26.4647 5.03863 25.9982 5.03863C25.6262 5.03863 25.2477 5.01177 24.8757 4.95801L24.7609 4.94458V4.83038V4.36682V4.2123L24.9164 4.23917C25.4437 4.32651 25.8088 4.36682 26.0118 4.36682C26.2753 4.36682 26.4513 4.33995 26.5595 4.29964C26.6068 4.27948 26.6271 4.27277 26.6405 4.23246C26.6609 4.19886 26.6743 4.16528 26.6675 4.10481V3.76219C26.6675 3.65469 26.6339 3.60767 26.5932 3.5808C26.5325 3.54048 26.4174 3.51362 26.2146 3.51362H25.8495C25.4978 3.51362 25.2072 3.4397 24.9976 3.27176C24.788 3.10379 24.6866 2.86867 24.6866 2.5865V2.28417C24.6866 1.97515 24.8353 1.74001 25.1192 1.5922C25.3898 1.45113 25.7752 1.38394 26.2619 1.38394C26.3701 1.38394 26.7014 1.4041 27.2491 1.43768L27.3776 1.44441V1.57204V2.00873V2.16996L27.222 2.1431C26.8976 2.08263 26.5729 2.05576 26.2417 2.04905C25.9238 2.04905 25.7413 2.08263 25.6601 2.12294C25.5992 2.15654 25.5587 2.21028 25.5587 2.32449V2.59994C25.5587 2.66039 25.579 2.70071 25.6399 2.72757C25.7074 2.76789 25.8293 2.79476 26.0184 2.79476H26.2551H26.3904C26.7421 2.79476 27.0327 2.86194 27.2357 3.01646C27.4385 3.17098 27.5399 3.40612 27.5399 3.695ZM23.2665 0.268726H23.1313V0.470271V4.83709V4.97145H23.2665H23.8683H24.0036V4.83709V0.470271V0.268726H23.8683H23.2665ZM31.1978 2.62681V3.34565V3.49346H31.0627H29.0341V3.83608C29.0341 4.03091 29.1018 4.14512 29.21 4.20559C29.3385 4.28619 29.5481 4.33322 29.8523 4.33322C30.1499 4.33322 30.4946 4.27948 30.9004 4.1787L31.0693 4.13841V4.31306V4.76991V4.8774L30.9611 4.90427C30.5691 4.99161 30.1633 5.03863 29.7643 5.04535C29.2573 5.04535 28.8583 4.96474 28.5812 4.77662C28.2904 4.58179 28.1551 4.28619 28.1551 3.91671V2.62681C28.1551 2.20357 28.277 1.87437 28.5473 1.66611C28.811 1.47128 29.21 1.38394 29.717 1.38394C30.1904 1.38394 30.5691 1.46457 30.8192 1.65938C31.083 1.85421 31.1978 2.19683 31.1978 2.62681ZM30.3257 2.43869C30.3257 2.27075 30.2715 2.18341 30.2106 2.14981C30.1228 2.09607 29.9605 2.06247 29.6834 2.06247C29.4262 2.06247 29.2573 2.09607 29.1559 2.14981C29.0882 2.19012 29.0341 2.27075 29.0341 2.44542V2.82836H30.3257V2.43869ZM21.6573 1.45113H21.522V1.58549V4.03762C21.522 4.16527 21.4816 4.22572 21.4072 4.25933C21.3056 4.30635 21.1096 4.33995 20.7715 4.33995C20.6565 4.33995 20.5485 4.33322 20.4335 4.29964C20.3725 4.28619 20.3389 4.26604 20.2982 4.21901C20.2711 4.18543 20.2509 4.15183 20.2373 4.10481C20.2238 4.04434 20.217 3.99731 20.2238 3.93684V1.58549V1.45113H20.0886H19.4868H19.3515V1.58549V3.97044C19.3515 4.30635 19.4395 4.58179 19.6357 4.76991C19.8385 4.96474 20.1766 5.03863 20.6092 5.03863C20.9405 5.03863 21.211 4.99832 21.4138 4.91098C21.4545 4.89083 21.495 4.87067 21.5357 4.8438V4.97145H21.6707H22.2725H22.4078V4.83709V1.58549V1.45113H22.2725H21.6573ZM37.29 2.5865C37.0196 2.5865 36.783 2.73431 36.6679 2.95601H35.877L35.5252 0H34.795L33.7739 3.92342L33.5104 2.82164H31.9551V3.49346H32.9018L33.3954 5.57609H34.0986L35.0114 2.12965L35.2074 3.51362L35.2279 3.62782H36.6679C36.7898 3.84952 37.0196 3.99731 37.29 3.99731C37.6822 3.99731 38 3.68156 38 3.29192C38 2.90225 37.6822 2.5865 37.29 2.5865ZM18.5537 0.886804C18.6214 1.02117 18.6619 1.33692 18.6619 1.33692V2.24388C18.6619 2.65368 18.4996 2.96943 18.1615 3.15082C17.8437 3.31878 17.4178 3.39939 16.8836 3.39939H16.3629V4.83709V4.97145H16.2279H15.5786H15.4435V4.83709V0.476983V0.34262H15.5786H16.9918C17.1743 0.34262 17.3299 0.349352 17.4583 0.356064C17.6004 0.369509 17.7491 0.389645 17.8844 0.423246C18.0196 0.450114 18.1615 0.510584 18.2766 0.584477C18.3914 0.665103 18.4862 0.772598 18.5537 0.886804ZM17.7559 1.41081C17.7627 1.33021 17.7423 1.26303 17.695 1.20256C17.6409 1.13537 17.5868 1.10177 17.5056 1.08835C17.4178 1.06148 17.3299 1.04804 17.2421 1.03459C17.1675 1.02788 17.0798 1.02788 16.9647 1.02788H16.3766V2.72757H16.9784C17.2216 2.72757 17.4042 2.68726 17.5733 2.59994C17.7018 2.53276 17.7693 2.41853 17.7693 2.21699L17.7559 1.41081ZM2.00818 2.20357H1.48753C1.21707 2.20357 1.06834 2.16997 0.993948 2.12294C0.933086 2.08263 0.892525 2.02218 0.892525 1.90124V1.4041C0.892525 1.24287 0.946613 1.14882 1.03453 1.10177C1.08184 1.0749 1.16299 1.04804 1.29146 1.02788C1.41992 1.00772 1.5822 1.00101 1.78505 1.00101C2.05551 1.00101 2.43417 1.04132 2.921 1.11522L3.07651 1.14209V0.987566V0.483715V0.362776L2.95481 0.349352C2.58293 0.302327 2.20427 0.275438 1.82563 0.275438C1.17651 0.275438 0.696433 0.356064 0.412465 0.550897C0.13523 0.745709 0 1.04132 0 1.42426V1.77361C0 2.13638 0.0878958 2.43869 0.290741 2.64697C0.500361 2.86194 0.851964 2.95601 1.29822 2.95601H1.80533C2.07579 2.95601 2.2178 2.9963 2.28541 3.04332C2.34627 3.08364 2.38683 3.17098 2.38683 3.33221V3.89655C2.38683 3.98389 2.37331 4.03762 2.34627 4.09136C2.31922 4.14512 2.29216 4.16528 2.22455 4.19214C2.08932 4.25261 1.87295 4.28619 1.57545 4.28619C1.20357 4.28619 0.764048 4.23246 0.243407 4.11825L0.0811425 4.08465V4.25261V4.79678V4.91098L0.202846 4.93114C0.642345 4.99832 1.09537 5.03192 1.54164 5.03863C2.10285 5.03863 2.54912 4.9513 2.83986 4.74975C3.15766 4.53476 3.29289 4.16527 3.29289 3.67485V3.3591C3.29289 2.98959 3.21174 2.68726 3.01565 2.49245C2.81281 2.28417 2.4612 2.20357 2.00818 2.20357ZM14.4968 0.268726H14.632V0.470271V4.83709V4.97145H14.4968H13.9085H13.7733V4.83709C13.7395 4.85725 13.7125 4.87067 13.6787 4.89083C13.4623 4.99161 13.1715 5.03863 12.8334 5.03863C12.3601 5.03863 11.995 4.96474 11.7651 4.79007C11.5217 4.60194 11.4271 4.27948 11.4271 3.86966V2.43869C11.4271 2.08263 11.5352 1.80048 11.7854 1.6258C12.0221 1.45784 12.3939 1.38394 12.8673 1.38394C13.1174 1.38394 13.3744 1.41754 13.611 1.49144C13.6651 1.51159 13.7192 1.53175 13.7733 1.55862C13.7733 1.37723 13.7666 1.22271 13.7666 1.11522V0.470271V0.268726H13.9018H14.3683H14.4968ZM13.7666 2.37824C13.7666 2.2909 13.726 2.22372 13.6178 2.16996C13.4961 2.10952 13.3 2.07592 13.016 2.07592C12.8402 2.07592 12.705 2.08263 12.59 2.09607C12.4751 2.10952 12.4142 2.12965 12.3804 2.1431C12.3399 2.16325 12.2925 2.21699 12.2925 2.37824V3.98389C12.2925 4.13841 12.3399 4.2123 12.4142 4.25933C12.5021 4.31306 12.6779 4.35337 12.9619 4.35337C13.2865 4.35337 13.4961 4.31306 13.6178 4.25261C13.7192 4.20559 13.7666 4.12496 13.7666 3.98389V2.37824ZM6.99146 2.62681V3.34565V3.49346H6.85623H4.82775V3.83608C4.82775 4.03091 4.89537 4.14512 5.00357 4.20559C5.13202 4.28619 5.34164 4.33322 5.64591 4.33322C5.94341 4.33322 6.28826 4.27948 6.69395 4.1787L6.86299 4.13841V4.31306V4.76991V4.8774L6.75481 4.90427C6.36263 4.99161 5.95693 5.03863 5.55802 5.04535C5.05765 5.04535 4.65196 4.96474 4.37473 4.77662C4.08399 4.58179 3.94876 4.28619 3.94876 3.91671V2.62681C3.94876 2.20357 4.07046 1.87437 4.34092 1.66611C4.60463 1.47128 5.00357 1.38394 5.51068 1.38394C5.98399 1.38394 6.36263 1.46457 6.61281 1.65938C6.88327 1.85421 6.99146 2.19683 6.99146 2.62681ZM6.12597 2.82164L6.11922 2.43869C6.11922 2.27075 6.06513 2.18341 6.00427 2.14981C5.91637 2.09607 5.75409 2.06247 5.47687 2.06247C5.21992 2.06247 5.05088 2.09607 4.94946 2.14981C4.88184 2.19012 4.82775 2.27075 4.82775 2.44542L4.83453 2.82836H6.12597V2.82164ZM9.5 1.38394C9.16868 1.38394 8.89822 1.42426 8.69537 1.51159C8.65481 1.53175 8.61423 1.55191 8.57367 1.57878V1.45113H8.43844H7.84341H7.70818V1.58549V4.83709V4.97145H7.84341H8.44519H8.58042V4.83709V2.48572C8.58042 2.30433 8.63453 2.21699 8.69537 2.1767C8.77651 2.12294 8.97261 2.08263 9.33096 2.08263C9.44591 2.08263 9.55409 2.08936 9.66904 2.12294C9.7299 2.13638 9.76371 2.15654 9.80427 2.20357C9.83132 2.23715 9.8516 2.27075 9.85836 2.31777C9.87188 2.37824 9.87866 2.42527 9.87188 2.48572V4.83709V4.97145H10.0071H10.6089H10.7441V4.83709V2.45214C10.7441 2.11623 10.6562 1.84079 10.4669 1.65267C10.2708 1.45784 9.93274 1.38394 9.5 1.38394Z" fill="#199FC0"/>
</g>
<defs>
<clipPath id="clip0_418_730">
<rect width="38" height="5.57609" fill="white"/>
</clipPath>
</defs>
</svg>
