<svg width="38" height="19" viewBox="0 0 38 19" fill="none" xmlns="http://www.w3.org/2000/svg">
<g clip-path="url(#clip0_418_247)">
<path fill-rule="evenodd" clip-rule="evenodd" d="M38 9.46147C38 6.75923 36.6911 4.627 34.1895 4.627C31.6772 4.627 30.1572 6.75923 30.1572 9.44036C30.1572 12.6176 31.9517 14.222 34.5272 14.222C35.7834 14.222 36.7334 13.937 37.4511 13.5359V11.4248C36.7334 11.7837 35.91 12.0054 34.865 12.0054C33.8411 12.0054 32.9333 11.6465 32.8172 10.4009H37.9789C37.9789 10.2637 38 9.7148 38 9.46147ZM32.7856 8.45868C32.7856 7.2659 33.5139 6.76979 34.1789 6.76979C34.8228 6.76979 35.5089 7.2659 35.5089 8.45868H32.7856Z" fill="#635BFF"/>
<path fill-rule="evenodd" clip-rule="evenodd" d="M26.083 4.627C25.0486 4.627 24.3836 5.11256 24.0141 5.45034L23.8769 4.79589H21.5547V17.1037L24.1936 16.5443L24.2041 13.557C24.5841 13.8315 25.1436 14.222 26.0725 14.222C27.9619 14.222 29.6825 12.702 29.6825 9.35591C29.6719 6.29479 27.9303 4.627 26.083 4.627ZM25.4497 11.8998C24.8269 11.8998 24.4575 11.6781 24.2041 11.4037L24.1936 7.48757C24.468 7.18146 24.848 6.97034 25.4497 6.97034C26.4103 6.97034 27.0753 8.04702 27.0753 9.4298C27.0753 10.8443 26.4208 11.8998 25.4497 11.8998Z" fill="#635BFF"/>
<path fill-rule="evenodd" clip-rule="evenodd" d="M17.9233 4.00422L20.5728 3.43422V1.29143L17.9233 1.85087V4.00422Z" fill="#635BFF"/>
<path d="M20.5728 4.80644H17.9233V14.0426H20.5728V4.80644Z" fill="#635BFF"/>
<path fill-rule="evenodd" clip-rule="evenodd" d="M15.0842 5.58757L14.9153 4.80645H12.6353V14.0426H15.2742V7.78313C15.8969 6.97035 16.9525 7.11813 17.2797 7.23424V4.80645C16.9419 4.67978 15.7069 4.44756 15.0842 5.58757Z" fill="#635BFF"/>
<path fill-rule="evenodd" clip-rule="evenodd" d="M9.80634 2.51588L7.23077 3.06477L7.22021 11.5198C7.22021 13.082 8.39189 14.2326 9.95412 14.2326C10.8197 14.2326 11.453 14.0743 11.8013 13.8843V11.7415C11.4636 11.8787 9.79578 12.3643 9.79578 10.802V7.05479H11.8013V4.80644H9.79578L9.80634 2.51588Z" fill="#635BFF"/>
<path fill-rule="evenodd" clip-rule="evenodd" d="M2.67057 7.48757C2.67057 7.0759 3.00835 6.91757 3.5678 6.91757C4.37002 6.91757 5.38336 7.16034 6.18559 7.59312V5.11256C5.30947 4.76422 4.44391 4.627 3.5678 4.627C1.42501 4.627 0 5.74589 0 7.61424C0 10.5276 4.01113 10.0631 4.01113 11.3193C4.01113 11.8048 3.58891 11.9631 2.99779 11.9631C2.12168 11.9631 1.00278 11.6043 0.116112 11.1187V13.6309C1.09778 14.0532 2.09001 14.2326 2.99779 14.2326C5.19336 14.2326 6.70281 13.1454 6.70281 11.2559C6.69226 8.11035 2.67057 8.6698 2.67057 7.48757Z" fill="#635BFF"/>
</g>
<defs>
<clipPath id="clip0_418_247">
<rect width="38" height="18.0662" fill="white" transform="translate(0 0.192871)"/>
</clipPath>
</defs>
</svg>
