<svg width="38" height="37" viewBox="0 0 38 37" fill="none" xmlns="http://www.w3.org/2000/svg">
<g clip-path="url(#clip0_654_2)">
<path d="M0 0H38V17.8009C38 22.7002 35.3864 27.2275 31.1438 29.6773L19.0001 36.6897L6.85633 29.6773C2.61357 27.2275 4.35528e-06 22.7002 4.35528e-06 17.8009L0 0Z" fill="#FFDD2D"/>
<path fill-rule="evenodd" clip-rule="evenodd" d="M10.4829 9.17241V15.0791C11.2906 14.1669 12.7592 13.5497 14.4383 13.5497H16.263V20.4161C16.263 22.2428 15.7666 24.0316 15.0302 24.9111H22.9674C22.2325 24.0307 21.7373 22.2441 21.7373 20.4196V13.5497H23.5621C25.2412 13.5497 26.7097 14.1669 27.5174 15.0791V9.17241H10.4829Z" fill="#333333"/>
</g>
<defs>
<clipPath id="clip0_654_2">
<rect width="38" height="36.6897" fill="white"/>
</clipPath>
</defs>
</svg>
