<svg width="38" height="38" viewBox="0 0 38 38" fill="none" xmlns="http://www.w3.org/2000/svg">
<g clip-path="url(#clip0_418_773)">
<path d="M19.9246 16.8594V30.0327H17.4673V15.9347L19.9246 16.8594Z" fill="#202020"/>
<path d="M10.1079 15.6307C10.1079 12.2613 11.9446 10.4247 14.0979 10.4247C16.2512 10.4247 16.5552 10.7287 18.9999 11.9573C21.4446 13.186 22.0652 13.49 23.2939 13.49C24.5226 13.49 25.1306 12.5653 25.1306 10.7287H27.2712C27.5752 14.402 25.4346 15.9347 23.2812 15.9347C21.1279 15.9347 20.5199 15.6307 18.3792 14.402C16.2386 13.1733 15.6179 12.8693 14.3892 12.8693C13.1606 12.8693 12.5526 13.794 12.2486 15.9347L10.1079 15.6307Z" fill="#202020"/>
<path d="M19 38C8.52467 38 0 29.4753 0 19C0 8.52467 8.52467 0 19 0C29.4753 0 38 8.52467 38 19C38 29.4753 29.4753 38 19 38ZM19 1.22867C9.196 1.22867 1.22867 9.196 1.22867 19C1.22867 28.804 9.196 36.7713 19 36.7713C28.804 36.7713 36.7713 28.804 36.7713 19C36.7713 9.196 28.804 1.22867 19 1.22867Z" fill="#202020"/>
</g>
<defs>
<clipPath id="clip0_418_773">
<rect width="38" height="38" fill="white"/>
</clipPath>
</defs>
</svg>
