<svg width="38" height="35" viewBox="0 0 38 35" fill="none" xmlns="http://www.w3.org/2000/svg">
<g clip-path="url(#clip0_418_735)">
<path d="M33.3218 12.7072C33.0516 11.1752 32.2402 6.9394 28.8156 5.13695C26.4725 3.96534 22.6874 2.61352 17.6403 3.78512C14.1258 4.59619 13.0442 5.7678 12.0529 7.02953C10.8814 8.56163 10.8814 10.6344 10.7012 13.1579C10.7012 13.6085 10.3406 13.8788 9.89018 13.8788C7.72696 13.7887 5.47384 13.6085 3.22071 13.4282C2.77027 13.4282 2.40974 13.6986 2.31984 14.1492C2.0492 21.0887 3.58125 24.7837 7.36642 26.9467C9.25901 28.0281 11.3319 28.659 14.7565 27.938C14.8469 28.0281 14.8469 28.2084 14.9368 28.2985C16.9197 33.075 16.5592 34.4269 21.3356 33.7059C22.1466 33.6158 22.9575 33.3454 23.769 33.075C27.6441 31.4528 32.1503 27.5775 32.1503 23.3418C32.2402 18.5653 33.8626 16.4023 33.3218 12.7072Z" fill="#FCB43D"/>
<path d="M25.4815 7.11963C33.773 18.5652 17.0099 20.4578 16.0186 13.6986C15.0274 7.39003 23.4087 4.2357 25.4815 7.11963Z" fill="white"/>
<path d="M25.7515 10.0938C25.1207 8.56168 23.3181 7.20985 21.6057 7.57034C21.1553 7.66043 21.2452 8.29132 21.6961 8.20119C23.1378 7.93083 24.6703 9.10244 25.1207 10.3641C25.301 10.7246 25.9317 10.4543 25.7515 10.0938Z" fill="#131313"/>
<path d="M17.1899 24.8739C16.9197 24.8739 16.7394 24.964 16.6491 24.964C16.1986 25.0542 15.7477 24.6937 15.7477 24.2431C15.6578 23.7924 16.0184 23.3418 16.4688 23.3418C16.9197 23.2517 20.8851 22.8011 22.0567 20.548C22.2369 20.0974 22.7777 20.0073 23.2282 20.1875C23.6786 20.3678 23.769 20.9085 23.5887 21.3591C22.2369 23.8826 18.632 24.6937 17.1899 24.8739Z" fill="#131313"/>
<path d="M8.98895 19.0159C9.43939 18.8357 9.71002 18.4752 9.61965 18.0246C9.52975 17.5739 9.07885 17.3937 8.53804 17.5739C8.0876 17.7542 7.81744 18.1147 7.90734 18.5653C8.08761 19.0159 8.53805 19.1962 8.98895 19.0159Z" fill="#131313"/>
<path d="M8.98871 20.7282C9.34925 20.6381 9.52951 20.3677 9.43915 20.0072C9.34925 19.7368 8.98871 19.5566 8.71808 19.6467C8.35754 19.827 8.17773 20.0973 8.17773 20.3677C8.26764 20.7282 8.62817 20.8183 8.98871 20.7282Z" fill="#131313"/>
<path d="M10.9715 20.0072C11.332 19.9171 11.5123 19.6467 11.4224 19.2862C11.332 19.0158 10.9715 18.8356 10.7013 18.9257C10.3408 19.0158 10.1605 19.2862 10.2504 19.6467C10.3408 19.9171 10.6109 20.0973 10.9715 20.0072Z" fill="#131313"/>
<path d="M23.4083 13.4282C23.5886 11.9863 23.0478 10.7246 22.1465 10.6344C21.2456 10.4542 20.3442 11.5357 20.0736 12.8875C19.8933 14.3295 20.4341 15.5912 21.3355 15.6813C22.3267 15.8616 23.2281 14.7801 23.4083 13.4282Z" fill="#131313"/>
<path d="M15.1169 13.158C15.3875 12.1666 15.027 11.1753 14.3958 10.995C13.7651 10.8148 12.9541 11.4456 12.6835 12.437C12.4133 13.4284 12.7739 14.4197 13.4046 14.6C14.0353 14.7802 14.8467 14.1493 15.1169 13.158Z" fill="#131313"/>
<path d="M22.0566 13.158C22.0566 13.6987 22.5071 14.0592 22.958 14.0592C23.0479 14.0592 23.1383 14.0592 23.2282 13.9691C23.3181 13.7888 23.3181 13.6086 23.4084 13.4283C23.4983 13.0678 23.4983 12.7073 23.4084 12.3468C23.2282 12.2567 23.1383 12.2567 22.958 12.2567C22.5071 12.1666 22.0566 12.6172 22.0566 13.158Z" fill="white"/>
<path d="M14.6664 12.1666C14.2155 12.1666 13.9453 12.5271 13.9453 12.8876C13.9453 13.3381 14.3058 13.6085 14.6664 13.6085C14.7563 13.6085 14.8467 13.6085 14.9366 13.5184C15.0269 13.3381 15.0269 13.2481 15.1168 13.0678C15.2072 12.8876 15.2072 12.6172 15.2072 12.4369C15.1168 12.3468 14.8467 12.1666 14.6664 12.1666Z" fill="white"/>
<path d="M37.4675 4.05553C35.0341 0.450624 29.4467 1.98272 23.8588 0C23.4983 1.08147 23.4983 2.07281 23.7689 2.88392C23.1378 2.79379 22.4171 2.7037 21.6057 2.7037C20.975 2.7037 20.3443 2.7037 19.6232 2.79379C19.6232 2.7037 19.6232 2.7037 19.6232 2.61357C18.9021 -0.180269 9.79975 2.7037 7.36636 1.1716C7.63699 4.23579 9.34931 5.94811 11.0616 8.11105C10.6107 9.46288 10.6107 11.1752 10.4305 13.0678C10.4305 13.5184 10.0704 13.7888 9.61948 13.7888C8.71814 13.7888 7.81726 13.6987 6.91592 13.6987C6.10495 11.8061 -0.744786 10.5444 0.0666528 15.0505C0.427189 17.1234 1.23817 18.7455 2.13951 19.5567C2.77022 23.3418 4.30227 25.7751 7.1861 27.4875C8.44797 28.2085 10.1603 28.659 12.1428 28.659C13.1345 28.659 13.5849 28.7492 14.8468 28.4788C14.9367 28.569 15.0271 28.7492 15.0271 28.8393C16.8293 32.985 16.0183 34.6072 19.6232 34.6072C20.2539 34.6072 20.975 34.5171 21.6961 34.4269C22.5974 34.3368 23.4084 34.0664 24.2194 33.706C28.2752 32.0837 33.7727 28.2085 33.7727 23.8825C33.8626 19.0159 34.4034 16.6727 33.9529 13.1579C36.3858 11.4456 37.4675 8.02092 37.9179 6.3086C38.0083 5.49749 37.9179 4.68637 37.4675 4.05553ZM31.97 23.7924C31.97 27.5776 26.833 30.7319 23.4084 32.0837C22.6873 32.3541 21.9662 32.5343 21.2452 32.6245C20.6145 32.7146 19.9837 32.8047 19.4429 32.8047C17.0096 32.8047 18.0912 32.1739 16.3788 28.0282C16.3788 27.9381 16.2885 27.848 16.1986 27.7578C16.1986 27.7578 16.1986 27.6677 16.1082 27.6677L15.5679 26.406L14.2156 26.6764C13.2244 26.8566 12.8638 26.8566 11.8726 26.8566C10.2502 26.8566 8.80851 26.4961 7.7269 25.8653C5.83431 24.7838 4.6628 23.3418 3.94173 21.1789C3.76146 20.6381 3.94173 20.0073 4.39263 19.6468C5.11324 19.106 5.74441 18.0246 6.19485 16.3122C6.37512 15.6814 7.00582 15.2308 7.63699 15.2308C8.1778 15.2308 8.71814 15.3209 9.25894 15.3209C10.5208 15.3209 11.6024 14.3295 11.6923 13.0678C11.6923 12.6172 11.7827 12.1666 11.7827 11.8061C11.8726 10.7246 11.963 9.73328 12.1428 9.0123C12.7739 8.11105 13.9455 7.66043 14.9367 7.57034C15.3876 7.57034 15.3876 6.84931 14.9367 6.93945C14.2156 6.93945 13.495 7.2098 12.7739 7.57034C13.5849 6.57896 14.3959 5.58762 17.6403 4.77651C18.9021 4.50615 20.0737 4.32588 21.2452 4.32588C22.3268 4.32588 23.4084 4.41602 24.49 4.68637C26.7431 7.29994 30.9787 9.37279 31.8801 13.5184C32.6007 16.7629 32.0603 19.106 31.97 23.7924Z" fill="#131313"/>
<path d="M2.31965 13.879C2.77009 13.6987 3.04026 13.3382 2.95036 12.8876C2.86 12.437 2.40956 12.2568 1.86875 12.437C1.41831 12.6172 1.14768 12.9777 1.23804 13.4284C1.32794 13.7889 1.86875 13.9691 2.31965 13.879Z" fill="white"/>
</g>
<defs>
<clipPath id="clip0_418_735">
<rect width="38" height="34.7561" fill="white"/>
</clipPath>
</defs>
</svg>
