<svg width="38" height="38" viewBox="0 0 38 38" fill="none" xmlns="http://www.w3.org/2000/svg">
<path d="M3 18.36C3 11.1192 3 7.49884 5.24942 5.24942C7.49884 3 11.1192 3 18.36 3H19.64C26.8808 3 30.5011 3 32.7506 5.24942C35 7.49884 35 11.1192 35 18.36V19.64C35 26.8808 35 30.5011 32.7506 32.7506C30.5011 35 26.8808 35 19.64 35H18.36C11.1192 35 7.49884 35 5.24942 32.7506C3 30.5011 3 26.8808 3 19.64V18.36Z" fill="#0077FF"/>
<path d="M19.9824 26C12.4659 26 8.17864 21.1201 8 13H11.7651C11.8888 18.96 14.6645 21.4845 16.8631 22.005V13H20.4086V18.1401C22.5797 17.9189 24.8605 15.5766 25.63 13H29.1754C28.5845 16.1752 26.111 18.5175 24.3521 19.4805C26.111 20.2613 28.9282 22.3043 30 26H26.0973C25.2591 23.5275 23.1706 21.6146 20.4086 21.3544V26H19.9824Z" fill="white"/>
</svg>
