<svg width="38" height="13" viewBox="0 0 38 13" fill="none" xmlns="http://www.w3.org/2000/svg">
<g clip-path="url(#clip0_418_626)">
<path d="M15.6063 2.25615C16.0085 2.25615 16.3346 1.89286 16.3346 1.44471C16.3346 0.996559 16.0085 0.633263 15.6063 0.633263C15.204 0.633263 14.8779 0.996559 14.8779 1.44471C14.8779 1.89286 15.204 2.25615 15.6063 2.25615Z" fill="#7A166E"/>
<path d="M13.5257 8.86019C14.573 8.86019 15.4221 7.90779 15.4221 6.73294C15.4221 5.55809 14.573 4.60568 13.5257 4.60568C12.4784 4.60568 11.6294 5.55809 11.6294 6.73294C11.6294 7.90779 12.4784 8.86019 13.5257 8.86019Z" fill="#E20F82"/>
<path d="M36.4947 3.24592C37.2937 3.24592 37.9414 2.5193 37.9414 1.62296C37.9414 0.726624 37.2937 0 36.4947 0C35.6956 0 35.0479 0.726624 35.0479 1.62296C35.0479 2.5193 35.6956 3.24592 36.4947 3.24592Z" fill="#E20F82"/>
<path d="M2.82811 8.46261C4.39003 8.46261 5.65622 7.0649 5.65622 5.34074C5.65622 3.61658 4.39003 2.21887 2.82811 2.21887C1.26619 2.21887 0 3.61658 0 5.34074C0 7.0649 1.26619 8.46261 2.82811 8.46261Z" fill="#7A166E"/>
<path d="M3.24367 10.2409C4.04272 10.2409 4.69047 9.51424 4.69047 8.6179C4.69047 7.72157 4.04272 6.99494 3.24367 6.99494C2.44463 6.99494 1.79688 7.72157 1.79688 8.6179C1.79688 9.51424 2.44463 10.2409 3.24367 10.2409Z" fill="#8E1A7F"/>
<path d="M10.9712 9.26906C12.5237 9.26906 13.7822 7.87305 13.7822 6.15099C13.7822 4.42892 12.5237 3.03291 10.9712 3.03291C9.41869 3.03291 8.16016 4.42892 8.16016 6.15099C8.16016 7.87305 9.41869 9.26906 10.9712 9.26906Z" fill="#B2348B"/>
<path d="M14.8179 9.26906C16.3703 9.26906 17.6289 7.87305 17.6289 6.15099C17.6289 4.42892 16.3703 3.03291 14.8179 3.03291C13.2654 3.03291 12.0068 4.42892 12.0068 6.15099C12.0068 7.87305 13.2654 9.26906 14.8179 9.26906Z" fill="#7A166E"/>
<path d="M13.5259 10.8418C15.0783 10.8418 16.3369 9.44582 16.3369 7.72376C16.3369 6.00169 15.0783 4.60568 13.5259 4.60568C11.9734 4.60568 10.7148 6.00169 10.7148 7.72376C10.7148 9.44582 11.9734 10.8418 13.5259 10.8418Z" fill="#7A166E"/>
<path d="M11.0508 11.43C11.8498 11.43 12.4976 10.7033 12.4976 9.80699C12.4976 8.91065 11.8498 8.18403 11.0508 8.18403C10.2518 8.18403 9.604 8.91065 9.604 9.80699C9.604 10.7033 10.2518 11.43 11.0508 11.43Z" fill="#8E1A7F"/>
<path d="M13.7818 8.45706C14.851 8.45706 15.7179 7.50944 15.7179 6.34048C15.7179 5.17153 14.851 4.2239 13.7818 4.2239C12.7125 4.2239 11.8457 5.17153 11.8457 6.34048C11.8457 7.50944 12.7125 8.45706 13.7818 8.45706Z" fill="#E20F82"/>
<path d="M12.5243 11.8457C12.9265 11.8457 13.2526 11.4824 13.2526 11.0343C13.2526 10.5861 12.9265 10.2228 12.5243 10.2228C12.122 10.2228 11.7959 10.5861 11.7959 11.0343C11.7959 11.4824 12.122 11.8457 12.5243 11.8457Z" fill="#E20F82"/>
<path d="M28.5845 10.8306C30.1369 10.8306 31.3955 9.43459 31.3955 7.71252C31.3955 5.99045 30.1369 4.59444 28.5845 4.59444C27.032 4.59444 25.7734 5.99045 25.7734 7.71252C25.7734 9.43459 27.032 10.8306 28.5845 10.8306Z" fill="#B2348B"/>
<path d="M25.4829 9.26906C27.0354 9.26906 28.2939 7.87305 28.2939 6.15099C28.2939 4.42892 27.0354 3.03291 25.4829 3.03291C23.9304 3.03291 22.6719 4.42892 22.6719 6.15099C22.6719 7.87305 23.9304 9.26906 25.4829 9.26906Z" fill="#B2348B"/>
<path d="M21.2529 11.6659C23.6565 11.6659 25.605 9.50622 25.605 6.8421C25.605 4.17799 23.6565 2.0183 21.2529 2.0183C18.8494 2.0183 16.9009 4.17799 16.9009 6.8421C16.9009 9.50622 18.8494 11.6659 21.2529 11.6659Z" fill="#B2348B"/>
<path d="M17.4243 5.26414C18.2234 5.26414 18.8711 4.53752 18.8711 3.64118C18.8711 2.74484 18.2234 2.01822 17.4243 2.01822C16.6253 2.01822 15.9775 2.74484 15.9775 3.64118C15.9775 4.53752 16.6253 5.26414 17.4243 5.26414Z" fill="#E20F82"/>
<path d="M23.31 8.86959C24.8625 8.86959 26.1211 7.47358 26.1211 5.75151C26.1211 4.02945 24.8625 2.63344 23.31 2.63344C21.7576 2.63344 20.499 4.02945 20.499 5.75151C20.499 7.47358 21.7576 8.86959 23.31 8.86959Z" fill="#7A166E"/>
<path d="M27.6875 7.26629C29.24 7.26629 30.4985 5.87028 30.4985 4.14821C30.4985 2.42615 29.24 1.03014 27.6875 1.03014C26.135 1.03014 24.8765 2.42615 24.8765 4.14821C24.8765 5.87028 26.135 7.26629 27.6875 7.26629Z" fill="#E20F82"/>
<path d="M26.9297 9.15695C27.7288 9.15695 28.3765 8.43032 28.3765 7.53399C28.3765 6.63765 27.7288 5.91103 26.9297 5.91103C26.1307 5.91103 25.4829 6.63765 25.4829 7.53399C25.4829 8.43032 26.1307 9.15695 26.9297 9.15695Z" fill="#E20F82"/>
<path d="M26.1602 12.0635C26.9592 12.0635 27.607 11.3369 27.607 10.4405C27.607 9.54419 26.9592 8.81757 26.1602 8.81757C25.3611 8.81757 24.7134 9.54419 24.7134 10.4405C24.7134 11.3369 25.3611 12.0635 26.1602 12.0635Z" fill="#8E1A7F"/>
<path d="M24.8768 10.2228C25.2791 10.2228 25.6052 9.85946 25.6052 9.41131C25.6052 8.96316 25.2791 8.59986 24.8768 8.59986C24.4745 8.59986 24.1484 8.96316 24.1484 9.41131C24.1484 9.85946 24.4745 10.2228 24.8768 10.2228Z" fill="#E20F82"/>
<path d="M16.7734 10.6521C18.3259 10.6521 19.5844 9.25605 19.5844 7.53398C19.5844 5.81192 18.3259 4.41591 16.7734 4.41591C15.2209 4.41591 13.9624 5.81192 13.9624 7.53398C13.9624 9.25605 15.2209 10.6521 16.7734 10.6521Z" fill="#E20F82"/>
<path d="M32.0459 10.2556C33.5984 10.2556 34.8569 8.8596 34.8569 7.13753C34.8569 5.41547 33.5984 4.01945 32.0459 4.01945C30.4934 4.01945 29.2349 5.41547 29.2349 7.13753C29.2349 8.8596 30.4934 10.2556 32.0459 10.2556Z" fill="#7A166E"/>
<path d="M35.1889 9.8774C36.7414 9.8774 38 8.48139 38 6.75933C38 5.03726 36.7414 3.64125 35.1889 3.64125C33.6365 3.64125 32.3779 5.03726 32.3779 6.75933C32.3779 8.48139 33.6365 9.8774 35.1889 9.8774Z" fill="#E20F82"/>
<path d="M32.0459 7.26629C33.5984 7.26629 34.8569 5.87028 34.8569 4.14821C34.8569 2.42615 33.5984 1.03014 32.0459 1.03014C30.4934 1.03014 29.2349 2.42615 29.2349 4.14821C29.2349 5.87028 30.4934 7.26629 32.0459 7.26629Z" fill="#B2348B"/>
<path d="M30.5247 11.0342C30.927 11.0342 31.2531 10.6709 31.2531 10.2228C31.2531 9.7746 30.927 9.41131 30.5247 9.41131C30.1225 9.41131 29.7964 9.7746 29.7964 10.2228C29.7964 10.6709 30.1225 11.0342 30.5247 11.0342Z" fill="#8E1A7F"/>
<path d="M31.0579 2.25615C31.4602 2.25615 31.7863 1.89286 31.7863 1.44471C31.7863 0.996559 31.4602 0.633263 31.0579 0.633263C30.6557 0.633263 30.3296 0.996559 30.3296 1.44471C30.3296 1.89286 30.6557 2.25615 31.0579 2.25615Z" fill="#E20F82"/>
<path d="M6.05467 11.859C7.60715 11.859 8.86569 10.463 8.86569 8.7409C8.86569 7.01884 7.60715 5.62283 6.05467 5.62283C4.50219 5.62283 3.24365 7.01884 3.24365 8.7409C3.24365 10.463 4.50219 11.859 6.05467 11.859Z" fill="#8E1A7F"/>
<path d="M7.67039 7.24712C9.22287 7.24712 10.4814 5.85111 10.4814 4.12905C10.4814 2.40698 9.22287 1.01097 7.67039 1.01097C6.11791 1.01097 4.85938 2.40698 4.85938 4.12905C4.85938 5.85111 6.11791 7.24712 7.67039 7.24712Z" fill="#E20F82"/>
<path d="M9.22268 10.0856C10.0217 10.0856 10.6695 9.35894 10.6695 8.46261C10.6695 7.56627 10.0217 6.83965 9.22268 6.83965C8.42363 6.83965 7.77588 7.56627 7.77588 8.46261C7.77588 9.35894 8.42363 10.0856 9.22268 10.0856Z" fill="#E20F82"/>
<path d="M3.24758 3.24592C4.04662 3.24592 4.69438 2.5193 4.69438 1.62296C4.69438 0.726624 4.04662 0 3.24758 0C2.44853 0 1.80078 0.726624 1.80078 1.62296C1.80078 2.5193 2.44853 3.24592 3.24758 3.24592Z" fill="#E20F82"/>
<path d="M2.81165 8.82929L1.74609 4.59936H2.44512L3.26379 7.84816L4.14127 4.59901L4.79282 4.59936L5.67339 7.86543L6.49572 4.60013L7.19467 4.59901L6.12869 8.82852L5.31853 8.82768L4.46729 5.66881L3.61527 8.82845L2.81165 8.82929Z" fill="white"/>
<path d="M8.34216 4.60153H7.67676V8.82655H8.34216V4.60153Z" fill="white"/>
<path d="M9.76441 8.16387H11.3842V8.82655H9.11279V4.60153H9.76441V8.16387Z" fill="white"/>
<path d="M13.431 4.60638C13.977 4.60638 14.4313 4.8111 14.7893 5.21556C15.1518 5.62002 15.3353 6.122 15.3353 6.7165C15.3353 7.30624 15.1518 7.80807 14.7893 8.21745C14.4313 8.6219 13.977 8.82663 13.431 8.82663H11.8662V4.60168H13.431V4.60638ZM13.431 8.16872C13.8072 8.16872 14.1147 8.03224 14.3442 7.75935C14.5828 7.48646 14.7021 7.13557 14.7021 6.72135C14.7021 6.29744 14.5826 5.9561 14.3442 5.68342C14.1102 5.41052 13.8026 5.27404 13.431 5.27404H12.5223V8.16872H13.431Z" fill="white"/>
<path d="M18.8457 7.61964C18.8457 7.96576 18.7309 8.25339 18.4969 8.48262C18.2629 8.71184 17.9876 8.8288 17.648 8.8288H15.9458V4.60168H17.524C17.8498 4.60168 18.1252 4.71864 18.35 4.93804C18.5794 5.16235 18.6896 5.44022 18.6896 5.77174C18.6896 6.14236 18.5519 6.42515 18.2858 6.63478C18.6345 6.82982 18.8456 7.18085 18.8456 7.61971M16.6019 5.2546V6.36624H17.5288C17.8179 6.36624 18.0381 6.12249 18.0381 5.81049C18.0381 5.49849 17.8179 5.2546 17.5288 5.2546H16.6019ZM17.6526 8.17518C17.9555 8.17518 18.1942 7.91675 18.1942 7.58545C18.1942 7.25414 17.9557 6.99571 17.6526 6.99571H16.6019V8.18052H17.6526V8.17518Z" fill="white"/>
<path d="M20.1169 8.1657H21.879V8.82873H19.4653V4.60153H21.8515V5.26463H20.1169V6.36168H21.7093V7.01986H20.1169V8.1657Z" fill="white"/>
<path d="M24.733 8.82873L23.8889 7.28805H23.118V8.82873H22.4663V4.60168H24.0586C24.4166 4.60168 24.7194 4.73331 24.9626 5.00143C25.2104 5.25993 25.3389 5.58169 25.3389 5.962C25.3389 6.4983 25.0223 6.99073 24.5497 7.18576L25.4536 8.82859L24.733 8.82873ZM23.1177 5.25523V6.66911H24.0538C24.4025 6.66911 24.6778 6.35712 24.6778 5.96221C24.6778 5.57214 24.3979 5.25523 24.0538 5.25523H23.1177Z" fill="white"/>
<path d="M28.2158 8.8288L27.3762 7.28728H26.6053V8.8288H25.9536V4.59929H27.5459C27.9039 4.59929 28.2067 4.73107 28.4499 4.99947C28.6977 5.25797 28.8262 5.57993 28.8262 5.96045C28.8262 6.49704 28.5097 6.98975 28.037 7.18492L28.9409 8.82887L28.2158 8.8288ZM26.6051 5.25305V6.66771H27.5411C27.8899 6.66771 28.1652 6.3555 28.1652 5.96038C28.1652 5.5701 27.8853 5.25305 27.5411 5.25305H26.6051Z" fill="white"/>
<path d="M30.0701 4.59978H29.4185V8.82873H30.0701V4.59978Z" fill="white"/>
<path d="M31.4925 8.1657H33.2546V8.82873H30.8408V4.60153H33.227V5.26463H31.4925V6.36168H33.0848V7.01986H31.4925V8.1657Z" fill="white"/>
<path d="M33.7086 7.86627L34.273 7.51524C34.4335 7.99264 34.7594 8.22671 35.2595 8.22671C35.7552 8.22671 35.9981 8.00254 35.9981 7.67117C35.9981 7.49565 35.9293 7.36928 35.8008 7.28124C35.6724 7.18871 35.4337 7.08635 35.0942 6.97935C34.7132 6.85755 34.5251 6.77962 34.259 6.59441C34.0019 6.39945 33.8735 6.12171 33.8735 5.74154C33.8735 5.36636 33.9974 5.07395 34.2498 4.8547C34.4976 4.63053 34.8004 4.52332 35.1538 4.52332C35.7916 4.52332 36.2826 4.87436 36.5395 5.45405L35.9888 5.79034C35.8237 5.40048 35.5438 5.2006 35.1537 5.2006C34.7728 5.2006 34.5296 5.40526 34.5296 5.72715C34.5296 6.03908 34.7224 6.18525 35.3327 6.38506C35.4841 6.43869 35.5942 6.47766 35.6633 6.50693C35.7367 6.5313 35.833 6.57517 35.9569 6.62874C36.0854 6.68231 36.1864 6.74564 36.246 6.79927C36.4571 6.97479 36.6821 7.26221 36.6544 7.66667C36.6544 8.04684 36.5259 8.35378 36.2644 8.57802C36.0074 8.80212 35.6679 8.90933 35.2457 8.90933C34.4748 8.90448 33.9149 8.51463 33.7085 7.86648" fill="white"/>
</g>
<defs>
<clipPath id="clip0_418_626">
<rect width="38" height="12.0635" fill="white"/>
</clipPath>
</defs>
</svg>
