<svg width="38" height="38" viewBox="0 0 38 38" fill="none" xmlns="http://www.w3.org/2000/svg">
<g clip-path="url(#clip0_418_762)">
<path d="M2.88916 18.9995C2.88916 25.4971 6.59501 31.1122 11.9688 33.7731L4.28395 12.319C3.39006 14.3605 2.88916 16.6197 2.88916 18.9995Z" fill="#21759B"/>
<path d="M29.8753 18.1712C29.8753 16.1425 29.1601 14.7375 28.5467 13.644C27.73 12.2918 26.9646 11.1468 26.9646 9.79459C26.9646 8.28562 28.0878 6.88098 29.6699 6.88098C29.7413 6.88098 29.8091 6.89003 29.8786 6.89409C27.0124 4.2185 23.1938 2.5849 18.9996 2.5849C13.3714 2.5849 8.41969 5.52725 5.53906 9.98387C5.91704 9.99543 6.27324 10.0035 6.57581 10.0035C8.2609 10.0035 10.8693 9.79521 10.8693 9.79521C11.7378 9.74305 11.8401 11.0427 10.9726 11.1474C10.9726 11.1474 10.0999 11.252 9.12874 11.3039L14.9954 29.0844L18.521 18.3105L16.011 11.3032C15.1435 11.2514 14.3217 11.1468 14.3217 11.1468C13.4535 11.0949 13.5553 9.74242 14.4234 9.79459C14.4234 9.79459 17.084 10.0029 18.667 10.0029C20.3518 10.0029 22.9605 9.79459 22.9605 9.79459C23.8295 9.74242 23.9316 11.0421 23.0638 11.1468C23.0638 11.1468 22.1892 11.2514 21.2199 11.3032L27.0418 28.9492L28.6488 23.4777C29.3452 21.2073 29.8753 19.5765 29.8753 18.1712Z" fill="#21759B"/>
<path d="M19.2819 20.4354L14.4482 34.747C15.8915 35.1793 17.4178 35.4158 18.9992 35.4158C20.8753 35.4158 22.6744 35.0853 24.3491 34.4853C24.3059 34.415 24.2667 34.3404 24.2345 34.2591L19.2819 20.4354Z" fill="#21759B"/>
<path d="M33.1356 11.124C33.2049 11.6468 33.2441 12.2081 33.2441 12.8119C33.2441 14.4777 32.9388 16.3502 32.0192 18.6916L27.0981 33.1887C31.8876 30.3429 35.1092 25.0558 35.1092 18.9999C35.1095 16.1459 34.394 13.4622 33.1356 11.124Z" fill="#21759B"/>
<path d="M18.9994 -0.135071C8.64458 -0.135071 0.219727 8.44865 0.219727 18.9996C0.219727 29.5517 8.64458 38.1351 18.9994 38.1351C29.354 38.1351 37.7801 29.5517 37.7801 18.9996C37.7798 8.44865 29.354 -0.135071 18.9994 -0.135071ZM18.9994 37.258C9.11942 37.258 1.08082 29.0672 1.08082 18.9996C1.08082 8.93248 9.11911 0.742323 18.9994 0.742323C28.8792 0.742323 36.9172 8.93248 36.9172 18.9996C36.9172 29.0672 28.8792 37.258 18.9994 37.258Z" fill="#21759B"/>
</g>
<defs>
<clipPath id="clip0_418_762">
<rect width="38" height="38" fill="white"/>
</clipPath>
</defs>
</svg>
