<svg width="32" height="32" viewBox="0 0 32 32" fill="none" xmlns="http://www.w3.org/2000/svg">
<g clip-path="url(#clip0_418_210)">
<path d="M0.22998 16C0.22998 7.25524 7.31698 0.166656 16.0633 0.166656C24.8065 0.166656 31.8966 7.25524 31.8966 16C31.8966 24.7447 24.8065 31.8333 16.0633 31.8333C7.31698 31.8333 0.22998 24.7447 0.22998 16Z" fill="#FC3F1D"/>
<path d="M18.0902 9.13783H16.6272C13.945 9.13783 12.5343 10.4963 12.5343 12.4993C12.5343 14.7634 13.5096 15.8243 15.5125 17.1843L17.1671 18.299L12.4124 25.4034H8.85938L13.1265 19.0479C10.6723 17.2888 9.29479 15.5804 9.29479 12.6908C9.29479 9.06817 11.8202 6.595 16.6098 6.595H21.3645V25.386H18.0902V9.13783Z" fill="white"/>
</g>
<defs>
<clipPath id="clip0_418_210">
<rect width="32" height="32" fill="white"/>
</clipPath>
</defs>
</svg>
