<svg width="38" height="38" viewBox="0 0 38 38" fill="none" xmlns="http://www.w3.org/2000/svg">
<path d="M3 19C3 11.956 3 8.43333 4.95933 6.07267C5.29521 5.66791 5.66791 5.29521 6.07267 4.95933C8.43333 3 11.956 3 19 3C26.044 3 29.5667 3 31.9273 4.95933C32.3321 5.29522 32.7048 5.66793 33.0407 6.07267C35 8.43333 35 11.956 35 19C35 26.044 35 29.5667 33.0407 31.9273C32.7048 32.3321 32.3321 32.7048 31.9273 33.0407C29.5667 35 26.044 35 19 35C11.956 35 8.43333 35 6.07267 33.0407C5.66793 32.7048 5.29522 32.3321 4.95933 31.9273C3 29.5667 3 26.044 3 19Z" fill="#FFE033"/>
<path d="M27.2609 25.4668C25.4034 27.186 22.9803 28.2233 20.3357 28.2233C14.7887 28.2233 10.6324 23.7192 10.6324 18.5709C10.6324 13.7291 14.314 9.77674 18.8794 9.77674C23.1871 9.77674 26.2955 13.2787 26.2955 17.0697C26.2955 20.6244 23.6212 23.5071 20.3357 23.5071C17.3297 23.5071 15.208 21.1194 15.208 18.5709C15.208 16.283 16.8956 14.4922 18.8807 14.4922C20.6377 14.4922 21.7211 15.8353 21.7211 17.0697C21.7211 18.1421 21.0023 18.789 20.3363 18.789C20.0999 18.789 20.0098 18.737 19.9151 18.6755C20.1302 18.3852 20.2371 18.009 20.1824 17.616C20.1575 17.4362 20.0991 17.2633 20.0105 17.1072C19.9219 16.9511 19.8047 16.8148 19.6658 16.7062C19.5269 16.5976 19.369 16.5187 19.201 16.4741C19.033 16.4296 18.8583 16.4202 18.6868 16.4464C18.0697 16.543 17.6781 16.9826 17.4843 17.3088C17.2615 17.6881 17.145 18.1254 17.148 18.5709C17.148 20.3901 18.7647 21.5657 20.3363 21.5657C22.6299 21.5677 24.3554 19.467 24.3554 17.0697C24.3554 14.1363 21.9304 11.7161 18.8807 11.7161C15.3381 11.7161 12.5737 14.8602 12.5737 18.5702C12.5737 22.7758 15.9932 26.2818 20.337 26.2818C25.1393 26.2818 28.9311 22.0897 28.9311 17.0684C28.9311 11.6702 24.5719 7 18.8807 7C12.8262 7 8 12.2334 8 18.5709C8 25.3371 13.4181 31 20.337 31C23.6469 31 26.6832 29.6967 29 27.5534L27.2609 25.4668Z" fill="black"/>
</svg>
