<svg width="38" height="8" viewBox="0 0 38 8" fill="none" xmlns="http://www.w3.org/2000/svg">
<g clip-path="url(#clip0_418_701)">
<path d="M17.7712 6.14371H18.5221L19.5688 2.25269V6.14371H20.4108V1.0012H19.2503L18.2036 4.77844L17.1569 1.0012H15.9736V6.14371H16.7018V2.25269L17.7712 6.14371ZM23.9377 3.59521C23.9377 2.68503 23.4826 2.34371 22.5497 2.34371C21.9581 2.34371 21.503 2.52575 21.2299 2.68503V3.41317C21.4575 3.23114 21.9808 3.0491 22.4359 3.0491C22.8682 3.0491 23.0503 3.20838 23.0503 3.59521V3.8H22.9138C21.5712 3.8 20.9569 4.25509 20.9569 5.00599C20.9569 5.75689 21.412 6.18922 22.0946 6.18922C22.6179 6.18922 22.8455 6.02994 23.0048 5.8479H23.0503C23.0503 5.93892 23.0958 6.07545 23.1185 6.14371H23.9832C23.9605 5.8479 23.9377 5.52934 23.9377 5.23353V3.59521ZM23.0503 5.25629C22.9365 5.41557 22.7317 5.5521 22.4132 5.5521C22.0491 5.5521 21.867 5.32455 21.867 5.00599C21.867 4.57365 22.1629 4.41437 22.9365 4.41437H23.073V5.25629H23.0503ZM25.4623 2.41198H24.6431V7.21317H25.5305V5.71138C25.7581 6.05269 26.0766 6.21198 26.4635 6.21198C27.3281 6.21198 27.9197 5.52934 27.9197 4.27784C27.9197 3.02635 27.3509 2.34371 26.509 2.34371C26.0994 2.34371 25.7581 2.52575 25.5078 2.88982L25.4623 2.41198ZM26.2132 5.52934C25.7581 5.52934 25.5078 5.14252 25.5078 4.3006C25.5078 3.43593 25.7581 3.0491 26.2587 3.0491C26.7365 3.0491 26.9868 3.43593 26.9868 4.27784C26.9868 5.14252 26.7365 5.52934 26.2132 5.52934ZM30.673 6.14371H31.6742L30.2635 4.14132L31.515 2.41198H30.6275L29.376 4.14132V2.41198H28.4886V6.14371H29.376V4.32335L30.673 6.14371ZM34.6323 5.89341V5.16527C34.3593 5.34731 33.9042 5.50659 33.4718 5.50659C32.8347 5.50659 32.5844 5.21078 32.5389 4.57365H34.6551V4.09581C34.6551 2.7988 34.0862 2.32096 33.1988 2.32096C32.1293 2.32096 31.606 3.14012 31.606 4.27784C31.606 5.57485 32.2431 6.21198 33.3581 6.21198C33.9724 6.21198 34.382 6.07545 34.6323 5.89341ZM33.1988 3.0491C33.6311 3.0491 33.7676 3.41317 33.7676 3.86826V3.93653H32.5389C32.5617 3.34491 32.7892 3.0491 33.1988 3.0491ZM37.8179 3.11737V2.41198H34.8599V3.11737H35.9066V6.14371H36.794V3.11737H37.8179Z" fill="black"/>
<path d="M10.7171 7.05389C12.6058 7.05389 14.1303 5.52934 14.1303 3.64072C14.1303 1.7521 12.6058 0.227547 10.7171 0.227547C8.82851 0.227547 7.30396 1.7521 7.30396 3.64072C7.2812 5.52934 8.82851 7.05389 10.7171 7.05389Z" fill="#FED42B"/>
<path d="M3.41317 7.05389C5.29822 7.05389 6.82635 5.52576 6.82635 3.64072C6.82635 1.75568 5.29822 0.227547 3.41317 0.227547C1.52813 0.227547 0 1.75568 0 3.64072C0 5.52576 1.52813 7.05389 3.41317 7.05389Z" fill="#FC3F1D"/>
<path d="M3.91382 2.13892H3.5725C2.98089 2.13892 2.68508 2.43473 2.68508 2.88982C2.68508 3.39042 2.88987 3.64072 3.3222 3.93653L3.66352 4.18683L2.68508 5.71138H1.88867L2.82161 4.32335C2.2755 3.93653 1.97969 3.57246 1.97969 2.93533C1.97969 2.13892 2.5258 1.59282 3.5725 1.59282H4.61921V5.68862H3.93658V2.13892H3.91382Z" fill="white"/>
<mask id="mask0_418_701" style="mask-type:luminance" maskUnits="userSpaceOnUse" x="7" y="0" width="8" height="8">
<path d="M10.7171 7.05389C12.6058 7.05389 14.1303 5.52934 14.1303 3.64072C14.1303 1.7521 12.6058 0.227547 10.7171 0.227547C8.82851 0.227547 7.30396 1.7521 7.30396 3.64072C7.2812 5.52934 8.82851 7.05389 10.7171 7.05389Z" fill="white"/>
</mask>
<g mask="url(#mask0_418_701)">
<path d="M9.03338 2.09341L6.02979 6.02994L6.82619 6.94012L9.05613 3.98204L8.82859 5.59761L10.0801 6.02994L11.6046 3.59521C11.5364 4.0503 11.4226 5.09701 12.4238 5.41557C13.9939 5.89341 15.3591 3.07186 15.9963 1.63832L15.0861 1.16048C14.3807 2.63952 13.2885 4.27785 12.8561 4.16407C12.4238 4.0503 12.8106 2.66228 13.0609 1.77485V1.7521L11.6729 1.27425L10.0118 3.98204L10.2394 2.503L9.03338 2.09341Z" fill="black"/>
</g>
</g>
<defs>
<clipPath id="clip0_418_701">
<rect width="38" height="7.28144" fill="white"/>
</clipPath>
</defs>
</svg>
