<svg width="38" height="10" viewBox="0 0 38 10" fill="none" xmlns="http://www.w3.org/2000/svg">
<g clip-path="url(#clip0_418_133)">
<path d="M19.5111 2.78601H18.2614L17.377 4.32652H16.9217L16.9073 0.992584H15.7241V7.0138H16.9073L16.9217 5.3612H17.3741L18.5484 7.0138H19.8591L18.3281 4.82374L19.5111 2.78601Z" fill="#0A2540"/>
<path d="M28.4655 4.76917C28.225 4.61498 27.9646 4.49411 27.6912 4.4099L27.4302 4.31218L27.3596 4.28591C27.1975 4.22568 27.0272 4.16237 27.0213 3.99891C27.0199 3.95038 27.0308 3.90227 27.053 3.85904C27.0753 3.81581 27.1083 3.7789 27.1491 3.75174C27.2346 3.69321 27.335 3.65938 27.4389 3.65401C27.6655 3.63851 27.89 3.70488 28.071 3.84084L28.103 3.86095L28.7352 3.13955L28.7032 3.1137C28.6245 3.04415 28.539 2.98254 28.448 2.92975C28.285 2.8373 28.1076 2.77222 27.9232 2.73718C27.6575 2.68115 27.3828 2.68115 27.1171 2.73718C26.8602 2.77088 26.6165 2.8699 26.4095 3.0246C26.2772 3.1272 26.1666 3.25464 26.084 3.39962C26.0015 3.5446 25.9485 3.7043 25.9282 3.86957C25.8919 4.16784 25.9683 4.46885 26.1428 4.71455C26.3745 4.96882 26.6773 5.14892 27.0126 5.23188L27.0649 5.24914L27.1838 5.28937C27.6129 5.43308 27.7348 5.49055 27.8043 5.57678C27.8366 5.62015 27.8549 5.6723 27.8565 5.72622C27.8565 5.9303 27.6042 6.01364 27.4332 6.06537C27.3135 6.08764 27.1906 6.08537 27.0719 6.05867C26.9532 6.03197 26.8412 5.98144 26.743 5.91017C26.584 5.80481 26.448 5.66898 26.3429 5.51068C26.3253 5.5288 26.2672 5.58638 26.1912 5.66165C25.9779 5.87294 25.6239 6.2236 25.6325 6.23207L25.6528 6.26081C25.9685 6.65265 26.4109 6.92467 26.9053 7.03107C27.0183 7.05272 27.1328 7.06712 27.2476 7.07418H27.3665C27.757 7.0823 28.1398 6.96427 28.4568 6.73791C28.6712 6.5876 28.8356 6.37751 28.9295 6.13435C28.9865 5.97111 29.0066 5.79747 28.9886 5.62565C28.9706 5.45382 28.9148 5.28802 28.825 5.13992C28.7333 4.99222 28.6108 4.86578 28.4655 4.76917Z" fill="#0A2540"/>
<path d="M31.5163 4.40986C31.7887 4.49409 32.0483 4.61496 32.2876 4.76911C32.4303 4.86574 32.5507 4.9911 32.6413 5.137C32.731 5.28512 32.7869 5.45092 32.8049 5.62273C32.8229 5.79456 32.8027 5.9682 32.7457 6.13144C32.652 6.3746 32.4875 6.58467 32.273 6.735C31.956 6.96134 31.5733 7.07937 31.1827 7.07126H31.0639C30.949 7.06439 30.8347 7.04999 30.7217 7.02816C30.2272 6.92176 29.7849 6.64974 29.469 6.2579L29.4459 6.22916C29.4402 6.22161 29.7197 5.94357 29.9312 5.7335C30.0422 5.62316 30.1343 5.53152 30.1563 5.50776C30.263 5.6648 30.3987 5.80036 30.5565 5.90726C30.6552 5.9786 30.7676 6.02916 30.8867 6.05586C31.0059 6.08254 31.1293 6.08479 31.2495 6.06246C31.4206 6.01073 31.6699 5.92737 31.6699 5.72332C31.6715 5.66934 31.654 5.61652 31.6206 5.57386C31.551 5.48764 31.4293 5.43016 30.9972 5.28646L30.8783 5.24621L30.829 5.22897C30.4936 5.14602 30.1907 4.96592 29.959 4.71164C29.7832 4.46664 29.7066 4.16503 29.7445 3.86666C29.7657 3.70141 29.8197 3.54194 29.9033 3.39743C29.9869 3.25292 30.0985 3.1262 30.2316 3.02456C30.439 2.87076 30.6826 2.77184 30.9392 2.73714C31.2059 2.68104 31.4815 2.68104 31.7482 2.73714C31.9317 2.77229 32.1082 2.83736 32.2702 2.92972C32.3626 2.98177 32.449 3.04343 32.5283 3.11364L32.5573 3.13951L31.9252 3.86092L31.8962 3.84079C31.7149 3.70531 31.4905 3.639 31.264 3.65397C31.16 3.65934 31.0596 3.69317 30.974 3.7517C30.9343 3.77994 30.9019 3.81701 30.8792 3.85993C30.8565 3.90286 30.8443 3.95043 30.8435 3.99887C30.8522 4.16269 31.0205 4.22591 31.1857 4.28627L31.2523 4.31214L31.5163 4.40986Z" fill="#0A2540"/>
<path fill-rule="evenodd" clip-rule="evenodd" d="M23.3968 2.78599V3.19986H23.3446C23.0208 2.87848 22.5821 2.69671 22.1238 2.69402C21.8429 2.68852 21.5639 2.74172 21.3052 2.85018C21.0463 2.95862 20.8135 3.11988 20.6218 3.32345C20.2351 3.75266 20.0276 4.31168 20.0418 4.88695C20.0268 5.47186 20.2338 6.04108 20.6218 6.48206C20.8089 6.68576 21.0381 6.84715 21.2938 6.95526C21.5495 7.06338 21.8256 7.11568 22.1035 7.10862C22.5623 7.10008 23.0036 6.93225 23.3503 6.63439H23.3968V7.00515H24.6263V2.78599H23.3968ZM23.4576 4.90994C23.4701 5.24995 23.3555 5.58252 23.1358 5.84402C23.0305 5.96085 22.9006 6.05334 22.7553 6.11492C22.6101 6.17651 22.4529 6.20568 22.2949 6.20041C22.1418 6.20296 21.9899 6.17121 21.8508 6.10751C21.7118 6.04381 21.5889 5.94981 21.4916 5.83252C21.2746 5.56561 21.1633 5.22941 21.1785 4.88695C21.1686 4.55478 21.2822 4.23059 21.4975 3.97586C21.5966 3.86035 21.7203 3.76798 21.8596 3.70538C21.9991 3.64278 22.1506 3.61148 22.3036 3.61374C22.4605 3.60889 22.6165 3.63859 22.7605 3.70072C22.9043 3.76285 23.0325 3.85584 23.1358 3.97299C23.3553 4.23564 23.4699 4.56908 23.4576 4.90994Z" fill="#0A2540"/>
<path fill-rule="evenodd" clip-rule="evenodd" d="M36.7703 3.1999V2.78604H37.9997V7.0052H36.7703V6.63444H36.7239C36.377 6.9323 35.9357 7.10011 35.477 7.10866C35.199 7.11571 34.9229 7.06341 34.6673 6.95531C34.4116 6.8472 34.1823 6.68581 33.9952 6.48211C33.6072 6.04113 33.4003 5.47191 33.4153 4.887C33.4012 4.31173 33.6085 3.75271 33.9952 3.32348C34.1877 3.12013 34.4212 2.95904 34.6803 2.85063C34.9396 2.74221 35.2189 2.68888 35.5002 2.69407C35.9575 2.6975 36.3949 2.87921 36.718 3.1999H36.7703ZM36.5093 5.84407C36.7302 5.58326 36.8449 5.2502 36.8312 4.90998C36.8447 4.56891 36.73 4.235 36.5093 3.97303C36.406 3.85588 36.2777 3.76288 36.1339 3.70077C35.99 3.63864 35.8339 3.60893 35.677 3.61377C35.524 3.61153 35.3725 3.64281 35.2332 3.70543C35.0937 3.76803 34.97 3.8604 34.8709 3.97591C34.6556 4.23063 34.5422 4.55483 34.552 4.887C34.5367 5.22946 34.6482 5.56566 34.8652 5.83257C34.9625 5.94986 35.0852 6.04384 35.2243 6.10754C35.3633 6.17124 35.5152 6.203 35.6683 6.20046C35.8263 6.20573 35.9835 6.17654 36.1287 6.11496C36.2742 6.05337 36.404 5.9609 36.5093 5.84407Z" fill="#0A2540"/>
<path fill-rule="evenodd" clip-rule="evenodd" d="M3.77749 4.54911C3.7843 2.05364 5.84757 0.0192261 8.4403 0.0192261C11.0078 0.0192261 13.1327 2.06037 13.1031 4.5615C13.1031 7.06263 11.0078 9.10377 8.4403 9.10377C5.877 9.10377 3.78434 7.09797 3.77749 4.57394V7.95383H2.12484L0 1.34165H3.77749V4.54911ZM6.69911 4.5615C6.69911 5.48145 7.49593 6.25767 8.4403 6.25767C9.41419 6.25767 10.1815 5.48145 10.1815 4.5615C10.1815 3.64154 9.38469 2.86534 8.4403 2.86534C7.49593 2.86534 6.69911 3.64154 6.69911 4.5615Z" fill="#0070F0"/>
</g>
<defs>
<clipPath id="clip0_418_133">
<rect width="38" height="9.14286" fill="white" transform="translate(0 0.0192261)"/>
</clipPath>
</defs>
</svg>
