<svg width="190" height="37" viewBox="0 0 190 37" fill="none" xmlns="http://www.w3.org/2000/svg">
<path fill-rule="evenodd" clip-rule="evenodd" d="M49.5104 20.0962H49.0924C49.0089 20.0962 48.9531 20.1241 48.9253 20.152C48.8974 20.1798 48.8417 20.2355 48.8138 20.2634L45.0522 24.7216L44.3277 25.6132H44.2999L45.3308 20.2634C45.3587 20.1798 45.3308 20.1241 45.303 20.0962C45.2751 20.0684 45.2472 20.0684 45.1637 20.0684H44.7178C44.6621 20.0684 44.6064 20.0684 44.5785 20.0962C44.5506 20.1241 44.5228 20.1798 44.4949 20.2634L43.1853 26.9786C43.1575 27.09 43.2132 27.1458 43.3246 27.1458H43.7426C43.8262 27.1458 43.8819 27.1179 43.9098 27.09C43.9376 27.0622 43.9934 27.0064 44.0491 26.9507L47.755 22.5482L48.5909 21.5451H48.6188L47.5599 26.9507C47.5321 27.0622 47.5878 27.1458 47.6993 27.1458H48.1451C48.2565 27.1458 48.3401 27.09 48.368 26.9507L49.6776 20.2077C49.6776 20.1241 49.6219 20.0962 49.5104 20.0962ZM54.8045 21.9631H54.498C54.4144 21.9631 54.3587 21.991 54.303 22.0188C54.2472 22.0467 54.2194 22.1024 54.1915 22.186L53.8293 24.0529H51.1544L51.5166 22.186C51.5445 22.1024 51.5166 22.0467 51.4887 22.0188C51.4609 21.991 51.4051 21.9631 51.3215 21.9631H50.9872C50.9036 21.9631 50.8479 21.991 50.7921 22.0188C50.7364 22.0467 50.7085 22.1024 50.7085 22.186L49.789 26.9507C49.7612 27.09 49.8169 27.1736 49.9841 27.1736H50.3185C50.4578 27.1736 50.5692 27.09 50.5971 26.9507L51.015 24.7495H53.69L53.272 26.9507C53.2441 27.09 53.3277 27.1736 53.4949 27.1736H53.8014C53.9407 27.1736 54.0522 27.09 54.0801 26.9507L54.9996 22.186C55.0274 22.1024 54.9996 22.0467 54.9717 22.0188C54.9438 21.991 54.8881 21.9631 54.8045 21.9631ZM62.9965 21.991C62.8014 21.9074 62.5506 21.8516 62.2163 21.8516C61.8541 21.8516 61.4918 21.9352 61.1296 22.1024C60.7674 22.2696 60.433 22.4368 60.1265 22.6318C60.0708 22.3811 59.9593 22.186 59.7643 22.0467C59.5692 21.9074 59.2906 21.8516 58.9005 21.8516C58.7333 21.8516 58.5661 21.8795 58.3711 21.9074C58.2039 21.9631 58.0367 21.991 57.8695 22.0746C57.7023 22.1303 57.563 22.2139 57.3958 22.2975C57.2565 22.3811 57.1172 22.4646 57.0058 22.5204H56.9779L57.0615 22.1581C57.0893 22.0467 57.0336 21.9631 56.9222 21.9631H56.4763C56.3649 21.9631 56.2813 22.0188 56.2534 22.1581L55.3061 27.0064C55.2782 27.1179 55.3339 27.2015 55.4454 27.2015H55.8912C56.0027 27.2015 56.0863 27.1458 56.1141 27.0064L56.8386 23.217C56.9779 23.1612 57.1172 23.0776 57.2844 23.0219C57.4516 22.9383 57.6188 22.8826 57.7859 22.8269C57.9531 22.7711 58.0924 22.7154 58.2596 22.6876C58.3989 22.6597 58.5383 22.6318 58.6776 22.6318C59.0119 22.6318 59.207 22.7154 59.2627 22.9105C59.3184 23.1055 59.3184 23.3841 59.2627 23.7185L58.6219 27.0064C58.594 27.1179 58.6219 27.2015 58.7333 27.2015H59.207C59.3185 27.2015 59.402 27.1458 59.4299 27.0064L60.0429 23.8021C60.0429 23.7742 60.0708 23.7185 60.0708 23.6628C60.0708 23.6071 60.0986 23.5513 60.0986 23.4956C60.0986 23.4399 60.1265 23.3841 60.1265 23.3284C60.1265 23.2727 60.1265 23.2448 60.1265 23.217C60.238 23.1612 60.3494 23.1055 60.5166 23.0219C60.6838 22.9383 60.8231 22.8826 60.9903 22.8269C61.1575 22.7711 61.3246 22.7154 61.4918 22.6597C61.659 22.604 61.7983 22.604 61.9376 22.604C62.2441 22.604 62.4671 22.6876 62.5506 22.8547C62.6342 23.0219 62.6342 23.3284 62.5506 23.7742L61.9098 26.9786C61.8819 27.09 61.9376 27.1736 62.0491 27.1736H62.4949C62.6064 27.1736 62.69 27.1179 62.7178 26.9786L63.3308 23.7742C63.3866 23.4956 63.4144 23.217 63.4423 22.9941C63.4423 22.7711 63.4144 22.5482 63.3308 22.3811C63.303 22.2139 63.1915 22.0745 62.9965 21.991ZM68.3463 22.186C68.207 22.0745 68.0119 21.991 67.8169 21.9352C67.6219 21.8795 67.3989 21.8516 67.176 21.8516C66.6745 21.8516 66.2287 21.9352 65.9222 22.1024C65.5878 22.2696 65.3092 22.4646 65.1141 22.7154C64.8912 22.9662 64.7519 23.2448 64.6404 23.5235C64.529 23.8021 64.4454 24.0807 64.4175 24.3037C64.3618 24.5266 64.3061 24.7773 64.2503 25.0002C64.1946 25.251 64.1667 25.4739 64.1667 25.7247C64.1667 26.0033 64.1946 26.2541 64.2782 26.4492C64.3618 26.6442 64.4732 26.7835 64.6404 26.895C64.8076 27.0064 64.9748 27.09 65.1977 27.1458C65.4206 27.2015 65.6714 27.2015 65.95 27.2015C66.0893 27.2015 66.2287 27.2015 66.3958 27.2015C66.563 27.2015 66.7024 27.1736 66.8695 27.1736C67.0367 27.1458 67.176 27.1179 67.3432 27.09C67.4825 27.0622 67.6219 27.0064 67.7612 26.9786C67.8726 26.9228 67.9284 26.8393 67.9284 26.7557V26.5328C67.9284 26.4492 67.9005 26.4213 67.8726 26.3934C67.8448 26.3656 67.789 26.3656 67.7054 26.3934C67.594 26.4213 67.4825 26.4213 67.3432 26.4213C67.2039 26.4213 67.0646 26.4492 66.9253 26.4492C66.7859 26.4492 66.6745 26.477 66.5352 26.477C66.4237 26.477 66.3123 26.477 66.2287 26.477C66.0893 26.477 65.95 26.477 65.8107 26.477C65.6714 26.477 65.5321 26.4492 65.4206 26.3934C65.3092 26.3377 65.1977 26.282 65.142 26.1705C65.0584 26.0591 65.0305 25.9198 65.0305 25.7247C65.0305 25.5575 65.0584 25.3903 65.0862 25.1953C65.2813 25.1953 65.5321 25.1953 65.8107 25.1674C66.0893 25.1396 66.368 25.1117 66.6188 25.056C66.8974 25.0002 67.176 24.9167 67.4268 24.8331C67.7054 24.7216 67.9284 24.6102 68.1234 24.443C68.3185 24.2758 68.4856 24.1086 68.6249 23.8857C68.7643 23.6628 68.82 23.412 68.82 23.1055C68.82 22.9105 68.7643 22.7154 68.6807 22.5482C68.625 22.4368 68.4856 22.2975 68.3463 22.186ZM67.8448 23.7464C67.7333 23.8857 67.6218 23.9972 67.4547 24.1086C67.2875 24.2201 67.1203 24.2758 66.8974 24.3594C66.7023 24.4151 66.4794 24.4708 66.2844 24.4987C66.0893 24.5266 65.8664 24.5544 65.6714 24.5823C65.4763 24.6102 65.3092 24.6102 65.1698 24.6102L65.2813 24.1922C65.337 24.0529 65.3649 23.9136 65.4485 23.7185C65.5042 23.5513 65.6157 23.3563 65.755 23.1891C65.8943 23.0219 66.0615 22.8826 66.2844 22.7711C66.5073 22.6597 66.7859 22.604 67.1203 22.604C67.3711 22.604 67.5661 22.6597 67.7333 22.7433C67.9005 22.8547 67.9841 23.0219 67.9841 23.2448C68.0119 23.4399 67.9562 23.6071 67.8448 23.7464ZM72.8881 21.8795C72.7209 21.8795 72.5259 21.9074 72.3308 21.9631C72.1358 22.0188 71.9407 22.0746 71.7736 22.1581C71.6064 22.2417 71.4392 22.2975 71.272 22.3811C71.1327 22.4646 70.9934 22.5204 70.9098 22.5761H70.8819L70.9655 22.1581C70.9934 22.0467 70.9376 21.9631 70.8262 21.9631H70.3804C70.2689 21.9631 70.1853 22.0188 70.1575 22.1581L68.8757 28.8454C68.8479 28.929 68.8479 28.9848 68.8757 29.0126C68.9036 29.0405 68.9314 29.0684 69.015 29.0684H69.4609C69.5445 29.0684 69.6002 29.0405 69.628 29.0126C69.6559 28.9848 69.6838 28.929 69.6838 28.8454L70.046 26.9786C70.3246 27.09 70.5754 27.1736 70.8541 27.2015C71.1048 27.2572 71.3556 27.2572 71.5506 27.2572C71.9407 27.2572 72.2751 27.2015 72.5537 27.1179C72.8324 27.0343 73.0553 26.8671 73.2503 26.6721C73.4454 26.477 73.5847 26.2541 73.6962 25.9476C73.8076 25.669 73.9191 25.3346 74.0027 24.9724C74.0305 24.8609 74.0584 24.7216 74.0863 24.5823C74.1141 24.443 74.142 24.2758 74.1698 24.1365C74.1977 23.9971 74.1977 23.83 74.2256 23.6906C74.2256 23.5513 74.2534 23.4399 74.2534 23.3284C74.2534 22.8269 74.142 22.4646 73.9469 22.2139C73.724 21.991 73.3897 21.8795 72.8881 21.8795ZM73.3618 23.8021C73.3339 23.9414 73.3339 24.0807 73.3061 24.2201C73.2782 24.3594 73.2503 24.4987 73.2503 24.638C73.2225 24.7773 73.1946 24.9167 73.1667 25.0281C73.0831 25.3067 73.0274 25.5575 72.9438 25.7526C72.8602 25.9476 72.7488 26.1148 72.6373 26.2263C72.5259 26.3377 72.3866 26.4213 72.2194 26.477C72.0522 26.5328 71.885 26.5606 71.69 26.5606C71.4671 26.5606 71.2163 26.5328 70.9655 26.5049C70.7147 26.477 70.464 26.4213 70.1853 26.3098L70.7705 23.2448C70.8819 23.1891 71.0212 23.1334 71.1606 23.0498C71.3277 22.9662 71.4949 22.9105 71.6621 22.8547C71.8293 22.799 72.0243 22.7433 72.1915 22.6876C72.3587 22.6318 72.5259 22.6318 72.6373 22.6318C72.8881 22.6318 73.0832 22.6876 73.1946 22.799C73.3061 22.9105 73.3618 23.1334 73.3618 23.4677C73.3897 23.5513 73.3897 23.6628 73.3618 23.8021ZM79.659 21.9631H79.3525C79.2689 21.9631 79.2132 21.991 79.1575 22.0188C79.1017 22.0467 79.0739 22.1024 79.046 22.186L78.6838 24.0529H76.0089L76.3711 22.186C76.3989 22.1024 76.3711 22.0467 76.3432 22.0188C76.3154 21.991 76.2596 21.9631 76.176 21.9631H75.8417C75.7581 21.9631 75.7024 21.991 75.6466 22.0188C75.5909 22.0467 75.563 22.1024 75.563 22.186L74.6435 26.9507C74.6157 27.09 74.6714 27.1736 74.8386 27.1736H75.1729C75.3123 27.1736 75.4237 27.09 75.4516 26.9507L75.8695 24.7495H78.5445L78.1265 26.9507C78.0986 27.09 78.1822 27.1736 78.3494 27.1736H78.6559C78.7952 27.1736 78.9067 27.09 78.9345 26.9507L79.854 22.186C79.8819 22.1024 79.8541 22.0467 79.8262 22.0188C79.7705 21.991 79.7147 21.9631 79.659 21.9631ZM84.5352 22.186C84.3958 22.0745 84.2008 21.991 84.0058 21.9352C83.8107 21.8795 83.5878 21.8516 83.3649 21.8516C82.8633 21.8516 82.4175 21.9352 82.111 22.1024C81.7766 22.2696 81.498 22.4646 81.303 22.7154C81.0801 22.9662 80.9407 23.2448 80.8293 23.5235C80.7178 23.8021 80.6342 24.0807 80.6064 24.3037C80.5506 24.5266 80.4949 24.7773 80.4392 25.0002C80.3835 25.251 80.3556 25.4739 80.3556 25.7247C80.3556 26.0033 80.3835 26.2541 80.4671 26.4492C80.5506 26.6442 80.6621 26.7835 80.8293 26.895C80.9965 27.0064 81.1636 27.09 81.3866 27.1458C81.6095 27.2015 81.8602 27.2015 82.1389 27.2015C82.2782 27.2015 82.4175 27.2015 82.5847 27.2015C82.7519 27.2015 82.8912 27.1736 83.0584 27.1736C83.2256 27.1458 83.3649 27.1179 83.5321 27.09C83.6714 27.0622 83.8107 27.0064 83.95 26.9786C84.0615 26.9228 84.1172 26.8393 84.1172 26.7557V26.5328C84.1172 26.4492 84.0893 26.4213 84.0615 26.3934C84.0336 26.3656 83.9779 26.3656 83.8943 26.3934C83.7828 26.4213 83.6714 26.4213 83.5321 26.4213C83.3927 26.4213 83.2534 26.4492 83.1141 26.4492C82.9748 26.4492 82.8633 26.477 82.724 26.477C82.6126 26.477 82.5011 26.477 82.4175 26.477C82.2782 26.477 82.1389 26.477 81.9996 26.477C81.8602 26.477 81.7209 26.4492 81.6095 26.3934C81.498 26.3377 81.3866 26.282 81.3308 26.1705C81.2472 26.0591 81.2194 25.9198 81.2194 25.7247C81.2194 25.5575 81.2472 25.3903 81.2751 25.1953C81.4701 25.1953 81.7209 25.1953 81.9996 25.1674C82.2782 25.1396 82.5568 25.1117 82.8076 25.056C83.0862 25.0002 83.3649 24.9167 83.6157 24.8331C83.8943 24.7216 84.1172 24.6102 84.3123 24.443C84.5073 24.2758 84.6745 24.1086 84.8138 23.8857C84.9531 23.6628 85.0088 23.412 85.0088 23.1055C85.0088 22.9105 84.9531 22.7154 84.8695 22.5482C84.8138 22.4368 84.6745 22.2975 84.5352 22.186ZM84.0336 23.7464C83.9222 23.8857 83.8107 23.9972 83.6435 24.1086C83.4763 24.2201 83.3092 24.2758 83.0862 24.3594C82.8912 24.4151 82.6683 24.4708 82.4732 24.4987C82.2782 24.5266 82.0553 24.5544 81.8602 24.5823C81.6652 24.6102 81.498 24.6102 81.3587 24.6102L81.4701 24.1922C81.5259 24.0529 81.5537 23.9136 81.6373 23.7185C81.6931 23.5513 81.8045 23.3563 81.9438 23.1891C82.0831 23.0219 82.2503 22.8826 82.4732 22.7711C82.6962 22.6597 82.9748 22.604 83.3092 22.604C83.5599 22.604 83.755 22.6597 83.9222 22.7433C84.0893 22.8547 84.1729 23.0219 84.1729 23.2448C84.2008 23.4399 84.1451 23.6071 84.0336 23.7464ZM93.0336 21.991C92.8386 21.9074 92.5878 21.8516 92.2534 21.8516C91.8912 21.8516 91.529 21.9352 91.1667 22.1024C90.8045 22.2696 90.4701 22.4368 90.1636 22.6318C90.1079 22.3811 89.9965 22.186 89.8014 22.0467C89.6064 21.9074 89.3277 21.8516 88.9376 21.8516C88.7705 21.8516 88.6033 21.8795 88.4082 21.9074C88.241 21.9631 88.0739 21.991 87.9067 22.0746C87.7395 22.1303 87.6002 22.2139 87.433 22.2975C87.2937 22.3811 87.1544 22.4646 87.0429 22.5204H87.015L87.0986 22.1581C87.1265 22.0467 87.0708 21.9631 86.9593 21.9631H86.5135C86.402 21.9631 86.3184 22.0188 86.2906 22.1581L85.3432 27.0064C85.3153 27.1179 85.3711 27.2015 85.4825 27.2015H85.9284C86.0398 27.2015 86.1234 27.1458 86.1513 27.0064L86.8757 23.217C87.015 23.1612 87.1544 23.0776 87.3215 23.0219C87.4887 22.9383 87.6559 22.8826 87.8231 22.8269C87.9903 22.7711 88.1575 22.7154 88.2968 22.6876C88.4361 22.6597 88.5754 22.6318 88.7147 22.6318C89.0491 22.6318 89.2441 22.7154 89.2999 22.9105C89.3556 23.1055 89.3835 23.3841 89.2999 23.7185L88.659 27.0064C88.6311 27.1179 88.659 27.2015 88.7705 27.2015H89.2441C89.3556 27.2015 89.4392 27.1458 89.467 27.0064L90.0801 23.8021C90.0801 23.7742 90.1079 23.7185 90.1079 23.6628C90.1079 23.6071 90.1358 23.5513 90.1358 23.4956C90.1358 23.4399 90.1636 23.3841 90.1636 23.3284C90.1636 23.2727 90.1636 23.2448 90.1636 23.217C90.2751 23.1612 90.4144 23.1055 90.5537 23.0219C90.6931 22.9383 90.8602 22.8826 91.0274 22.8269C91.1946 22.7711 91.3618 22.7154 91.529 22.6597C91.6962 22.604 91.8355 22.604 91.9748 22.604C92.3092 22.604 92.5042 22.6876 92.5878 22.8547C92.6714 23.0219 92.6714 23.3284 92.5878 23.7742L91.9469 26.9786C91.9191 27.09 91.9748 27.1736 92.0863 27.1736H92.5321C92.6435 27.1736 92.7271 27.1179 92.755 26.9786L93.368 23.7742C93.4237 23.4956 93.4516 23.217 93.4794 22.9941C93.4794 22.7711 93.4516 22.5482 93.368 22.3811C93.3401 22.2139 93.2287 22.0745 93.0336 21.991ZM97.5754 23.3006H94.6776C94.6218 23.3006 94.5661 23.3006 94.5661 23.3284C94.5383 23.3563 94.5104 23.3841 94.5104 23.4399L94.4268 23.8857C94.3989 23.9693 94.4547 24.025 94.5661 24.025H97.464C97.5754 24.025 97.6311 23.9693 97.659 23.8857L97.7426 23.4399C97.7705 23.3841 97.7426 23.3563 97.7147 23.3284C97.659 23.3284 97.6311 23.3006 97.5754 23.3006ZM102.953 21.9631H102.563C102.479 21.9631 102.424 21.9631 102.396 21.991C102.368 22.0188 102.34 22.0467 102.34 22.1024L102.312 22.2417C102.061 22.1024 101.811 22.0188 101.56 21.9352C101.309 21.8795 101.058 21.8238 100.863 21.8238C100.445 21.8238 100.083 21.8795 99.8045 22.0188C99.5259 22.1303 99.2751 22.3253 99.0801 22.5482C98.885 22.7711 98.7178 23.0776 98.6064 23.412C98.4949 23.7464 98.3835 24.1365 98.2999 24.5823C98.2441 24.7773 98.2163 25.0002 98.1884 25.1953C98.1605 25.3903 98.1605 25.5854 98.1605 25.7526C98.1605 26.2263 98.272 26.5885 98.4671 26.8393C98.69 27.09 99.0243 27.2015 99.5259 27.2015C99.9438 27.2015 100.306 27.1179 100.613 26.9786C100.919 26.8393 101.226 26.6721 101.504 26.5049L101.421 26.9228C101.393 27.0343 101.448 27.1179 101.56 27.1179H102.006C102.117 27.1179 102.201 27.0622 102.201 26.9228L103.148 22.1024C103.176 22.0188 103.148 21.9631 103.148 21.9352C103.092 21.9631 103.037 21.9631 102.953 21.9631ZM101.588 25.9198C101.476 25.9755 101.365 26.0312 101.198 26.0869C101.031 26.1427 100.863 26.2263 100.696 26.282C100.529 26.3377 100.334 26.3934 100.167 26.4492C99.9996 26.5049 99.8324 26.5049 99.7209 26.5049C99.4701 26.5049 99.2751 26.4492 99.1636 26.3656C99.0522 26.2541 98.9686 26.0591 98.9686 25.7247C98.9686 25.6133 98.9686 25.4461 98.9965 25.2789C99.0243 25.0838 99.0522 24.8888 99.1079 24.6659C99.1915 24.2758 99.2472 23.9693 99.3587 23.6906C99.4423 23.4399 99.5537 23.217 99.6652 23.0498C99.7766 22.8826 99.9438 22.7711 100.111 22.7154C100.278 22.6597 100.473 22.604 100.724 22.604C101.198 22.604 101.699 22.7154 102.201 22.9383L101.588 25.9198ZM107.383 22.1024C107.077 21.9074 106.659 21.8238 106.13 21.8238C105.851 21.8238 105.572 21.8516 105.294 21.8795C105.015 21.9074 104.736 21.991 104.541 22.0746C104.43 22.1303 104.374 22.186 104.374 22.2975V22.5204C104.374 22.604 104.374 22.6318 104.43 22.6597C104.486 22.6876 104.541 22.6876 104.597 22.6597C104.82 22.6318 105.071 22.604 105.349 22.5761C105.628 22.5482 105.851 22.5482 106.046 22.5482C106.687 22.5482 107.021 22.7154 107.021 23.0776C107.021 23.3284 106.938 23.5235 106.743 23.6628C106.548 23.8021 106.213 23.9414 105.739 24.0529C105.461 24.1086 105.21 24.1922 104.959 24.2758C104.709 24.3594 104.486 24.4708 104.291 24.638C104.096 24.7773 103.928 24.9724 103.817 25.2232C103.705 25.4739 103.65 25.7804 103.65 26.1705C103.65 26.5606 103.817 26.8393 104.123 27.0064C104.458 27.1736 104.876 27.2851 105.433 27.2851C105.712 27.2851 105.99 27.2572 106.297 27.2293C106.603 27.2015 106.882 27.1179 107.105 27.0343C107.216 26.9786 107.272 26.895 107.272 26.8114V26.5328C107.272 26.4492 107.244 26.4213 107.216 26.3934C107.188 26.3656 107.105 26.3656 107.049 26.3934C106.938 26.4213 106.826 26.4213 106.687 26.4492C106.548 26.477 106.408 26.477 106.297 26.477C106.157 26.477 106.046 26.5049 105.907 26.5049C105.795 26.5049 105.684 26.5049 105.6 26.5049C105.377 26.5049 105.21 26.5049 105.071 26.477C104.931 26.4492 104.82 26.4213 104.736 26.3656C104.653 26.3098 104.597 26.2541 104.569 26.1984C104.541 26.1427 104.513 26.0591 104.513 25.9755C104.513 25.7804 104.541 25.6132 104.625 25.4739C104.681 25.3346 104.792 25.2232 104.904 25.1396C105.015 25.056 105.154 24.9724 105.294 24.9167C105.433 24.8609 105.6 24.8331 105.739 24.7773C106.074 24.6937 106.38 24.638 106.631 24.5544C106.91 24.4708 107.133 24.3594 107.328 24.2201C107.523 24.0807 107.662 23.9136 107.774 23.7185C107.885 23.5235 107.941 23.2727 107.941 22.9662C107.829 22.5761 107.69 22.2975 107.383 22.1024ZM112.538 22.186C112.399 22.0745 112.204 21.991 112.009 21.9352C111.814 21.8795 111.591 21.8516 111.368 21.8516C110.866 21.8516 110.421 21.9352 110.114 22.1024C109.78 22.2696 109.501 22.4646 109.306 22.7154C109.083 22.9662 108.944 23.2448 108.832 23.5235C108.721 23.8021 108.637 24.0807 108.609 24.3037C108.554 24.5266 108.498 24.7773 108.442 25.0002C108.387 25.251 108.359 25.4739 108.359 25.7247C108.359 26.0033 108.387 26.2541 108.47 26.4492C108.554 26.6442 108.665 26.7835 108.832 26.895C109 27.0064 109.167 27.09 109.39 27.1458C109.613 27.2015 109.863 27.2015 110.142 27.2015C110.281 27.2015 110.421 27.2015 110.588 27.2015C110.755 27.2015 110.894 27.1736 111.061 27.1736C111.229 27.1458 111.368 27.1179 111.535 27.09C111.674 27.0622 111.814 27.0064 111.953 26.9786C112.065 26.9228 112.12 26.8393 112.12 26.7557V26.5328C112.12 26.4492 112.092 26.4213 112.065 26.3934C112.037 26.3656 111.981 26.3656 111.897 26.3934C111.786 26.4213 111.674 26.4213 111.535 26.4213C111.396 26.4213 111.257 26.4492 111.117 26.4492C110.978 26.4492 110.866 26.477 110.727 26.477C110.616 26.477 110.504 26.477 110.421 26.477C110.281 26.477 110.142 26.477 110.003 26.477C109.863 26.477 109.724 26.4492 109.613 26.3934C109.501 26.3377 109.39 26.282 109.334 26.1705C109.25 26.0591 109.222 25.9198 109.222 25.7247C109.222 25.5575 109.25 25.3903 109.278 25.1953C109.473 25.1953 109.724 25.1953 110.003 25.1674C110.281 25.1396 110.56 25.1117 110.811 25.056C111.089 25.0002 111.368 24.9167 111.619 24.8331C111.897 24.7216 112.12 24.6102 112.315 24.443C112.51 24.2758 112.678 24.1086 112.817 23.8857C112.956 23.6628 113.012 23.412 113.012 23.1055C113.012 22.9105 112.956 22.7154 112.873 22.5482C112.789 22.4368 112.678 22.2975 112.538 22.186ZM112.037 23.7464C111.925 23.8857 111.814 23.9972 111.647 24.1086C111.479 24.2201 111.312 24.2758 111.089 24.3594C110.894 24.4151 110.671 24.4708 110.476 24.4987C110.281 24.5266 110.058 24.5544 109.863 24.5823C109.668 24.6102 109.501 24.6102 109.362 24.6102L109.473 24.1922C109.529 24.0529 109.557 23.9136 109.64 23.7185C109.696 23.5513 109.808 23.3563 109.947 23.1891C110.086 23.0219 110.253 22.8826 110.476 22.7711C110.699 22.6597 110.978 22.604 111.312 22.604C111.563 22.604 111.758 22.6597 111.925 22.7433C112.092 22.8547 112.176 23.0219 112.176 23.2448C112.204 23.4399 112.148 23.6071 112.037 23.7464ZM118.445 21.9631H118.139C118.055 21.9631 118 21.991 117.944 22.0188C117.888 22.0467 117.86 22.1024 117.832 22.186L117.47 24.0529H114.795L115.157 22.186C115.185 22.1024 115.157 22.0467 115.13 22.0188C115.102 21.991 115.046 21.9631 114.962 21.9631H114.628C114.544 21.9631 114.489 21.991 114.433 22.0188C114.377 22.0467 114.349 22.1024 114.349 22.186L113.43 26.9507C113.402 27.09 113.458 27.1736 113.625 27.1736H113.959C114.099 27.1736 114.21 27.09 114.238 26.9507L114.656 24.7495H117.331L116.913 26.9507C116.885 27.09 116.969 27.1736 117.136 27.1736H117.442C117.582 27.1736 117.693 27.09 117.721 26.9507L118.64 22.186C118.668 22.1024 118.64 22.0467 118.613 22.0188C118.557 21.991 118.501 21.9631 118.445 21.9631ZM126.637 21.991C126.442 21.9074 126.192 21.8516 125.857 21.8516C125.495 21.8516 125.133 21.9352 124.77 22.1024C124.408 22.2696 124.074 22.4368 123.767 22.6318C123.712 22.3811 123.6 22.186 123.405 22.0467C123.21 21.9074 122.931 21.8516 122.541 21.8516C122.374 21.8516 122.207 21.8795 122.012 21.9074C121.845 21.9631 121.678 21.991 121.51 22.0746C121.343 22.1303 121.204 22.2139 121.037 22.2975C120.897 22.3811 120.758 22.4646 120.647 22.5204H120.619L120.702 22.1581C120.73 22.0467 120.674 21.9631 120.563 21.9631H120.117C120.006 21.9631 119.922 22.0188 119.894 22.1581L118.947 27.0064C118.919 27.1179 118.975 27.2015 119.086 27.2015H119.532C119.644 27.2015 119.727 27.1458 119.755 27.0064L120.479 23.217C120.619 23.1612 120.758 23.0776 120.925 23.0219C121.092 22.9383 121.26 22.8826 121.427 22.8269C121.594 22.7711 121.761 22.7154 121.9 22.6876C122.04 22.6597 122.179 22.6318 122.318 22.6318C122.653 22.6318 122.848 22.7154 122.904 22.9105C122.959 23.1055 122.959 23.3841 122.904 23.7185L122.263 27.0064C122.235 27.1179 122.263 27.2015 122.374 27.2015H122.848C122.959 27.2015 123.043 27.1458 123.071 27.0064L123.684 23.8021C123.684 23.7742 123.712 23.7185 123.712 23.6628C123.712 23.6071 123.739 23.5513 123.739 23.4956C123.739 23.4399 123.767 23.3841 123.767 23.3284C123.767 23.2727 123.767 23.2448 123.767 23.217C123.879 23.1612 124.018 23.1055 124.157 23.0219C124.325 22.9383 124.464 22.8826 124.631 22.8269C124.798 22.7711 124.965 22.7154 125.133 22.6597C125.3 22.604 125.439 22.604 125.579 22.604C125.913 22.604 126.108 22.6876 126.192 22.8547C126.275 23.0219 126.275 23.3284 126.192 23.7742L125.551 26.9786C125.523 27.09 125.579 27.1736 125.69 27.1736H126.136C126.247 27.1736 126.331 27.1179 126.359 26.9786L126.972 23.7742C127.027 23.4956 127.055 23.217 127.083 22.9941C127.083 22.7711 127.055 22.5482 126.972 22.3811C126.944 22.2139 126.805 22.0745 126.637 21.991ZM132.294 22.3253C132.322 22.2696 132.322 22.2417 132.322 22.186C132.322 22.1303 132.294 22.1024 132.238 22.1024C132.126 22.0467 132.015 22.0188 131.848 21.991C131.709 21.9631 131.541 21.9352 131.402 21.9074C131.235 21.8795 131.096 21.8795 130.956 21.8795C130.817 21.8795 130.678 21.8795 130.566 21.8795C130.092 21.8795 129.702 21.9631 129.396 22.1024C129.089 22.2417 128.866 22.4368 128.671 22.6876C128.476 22.9383 128.337 23.1891 128.253 23.5235C128.17 23.83 128.086 24.1643 128.003 24.4987C127.947 24.7216 127.919 24.9445 127.891 25.1674C127.863 25.3903 127.835 25.5854 127.835 25.7804C127.835 25.9755 127.863 26.1705 127.919 26.3377C127.975 26.5328 128.058 26.6999 128.198 26.8393C128.337 26.9786 128.504 27.09 128.727 27.1736C128.95 27.2572 129.229 27.3129 129.591 27.3129C129.87 27.3129 130.148 27.2851 130.455 27.2572C130.761 27.2294 131.04 27.1458 131.263 27.0622C131.374 27.0064 131.43 26.9228 131.43 26.8393V26.6163C131.43 26.5328 131.402 26.5049 131.374 26.477C131.346 26.4492 131.291 26.4492 131.207 26.477C131.096 26.5049 130.984 26.5049 130.845 26.5049C130.705 26.5049 130.566 26.5328 130.427 26.5328C130.287 26.5328 130.148 26.5606 130.037 26.5606C129.925 26.5606 129.814 26.5606 129.73 26.5606C129.368 26.5606 129.117 26.477 128.978 26.3377C128.811 26.1984 128.727 25.9476 128.755 25.5575C128.755 25.4182 128.755 25.251 128.783 25.0838C128.811 24.9167 128.839 24.7216 128.866 24.5266C128.95 24.1643 129.006 23.8578 129.117 23.6071C129.201 23.3563 129.312 23.1612 129.452 23.0219C129.591 22.8826 129.73 22.7711 129.897 22.7154C130.065 22.6597 130.287 22.6318 130.51 22.6318C130.705 22.6318 130.928 22.6318 131.207 22.6597C131.458 22.6876 131.709 22.7154 131.931 22.7154C132.015 22.7154 132.071 22.7154 132.127 22.7154C132.182 22.7154 132.21 22.6597 132.238 22.604L132.294 22.3253ZM139.817 21.991C139.622 21.9074 139.371 21.8516 139.037 21.8516C138.674 21.8516 138.312 21.9352 137.95 22.1024C137.588 22.2696 137.253 22.4368 136.947 22.6318C136.891 22.3811 136.78 22.186 136.585 22.0467C136.39 21.9074 136.111 21.8516 135.721 21.8516C135.554 21.8516 135.387 21.8795 135.192 21.9074C135.024 21.9631 134.857 21.991 134.69 22.0746C134.523 22.1303 134.383 22.2139 134.216 22.2975C134.077 22.3811 133.938 22.4646 133.826 22.5204L133.91 22.1581C133.938 22.0467 133.882 21.9631 133.77 21.9631H133.325C133.213 21.9631 133.13 22.0188 133.102 22.1581L132.154 27.0064C132.126 27.1179 132.182 27.2015 132.294 27.2015H132.739C132.851 27.2015 132.935 27.1458 132.962 27.0064L133.687 23.217C133.826 23.1612 133.965 23.0776 134.133 23.0219C134.3 22.9383 134.467 22.8826 134.634 22.8269C134.801 22.7711 134.969 22.7154 135.108 22.6876C135.247 22.6597 135.387 22.6318 135.526 22.6318C135.86 22.6318 136.055 22.7154 136.111 22.9105C136.167 23.1055 136.167 23.3841 136.111 23.7185L135.47 27.0064C135.442 27.1179 135.47 27.2015 135.582 27.2015H136.055C136.167 27.2015 136.25 27.1458 136.278 27.0064L136.891 23.8021C136.891 23.7742 136.919 23.7185 136.919 23.6628C136.919 23.6071 136.947 23.5513 136.947 23.4956C136.947 23.4399 136.975 23.3841 136.975 23.3284C136.975 23.2727 136.975 23.2448 136.975 23.217C137.086 23.1612 137.198 23.1055 137.365 23.0219C137.532 22.9383 137.671 22.8826 137.839 22.8269C138.006 22.7711 138.173 22.7154 138.34 22.6597C138.507 22.604 138.647 22.604 138.786 22.604C139.12 22.604 139.315 22.6876 139.399 22.8547C139.483 23.0219 139.483 23.3284 139.399 23.7742L138.758 26.9786C138.73 27.09 138.786 27.1736 138.897 27.1736H139.343C139.455 27.1736 139.538 27.1179 139.566 26.9786L140.179 23.7742C140.235 23.4956 140.263 23.217 140.291 22.9941C140.291 22.7711 140.263 22.5482 140.179 22.3811C140.151 22.2139 140.012 22.0745 139.817 21.991ZM145.39 23.7742C145.501 23.5792 145.557 23.3563 145.557 23.1055C145.557 22.8826 145.501 22.6876 145.418 22.5204C145.334 22.3532 145.195 22.2417 145.055 22.1303C144.888 22.0188 144.721 21.9631 144.526 21.9074C144.331 21.8516 144.108 21.8516 143.857 21.8516C143.272 21.8516 142.743 22.0188 142.297 22.3253C141.851 22.6318 141.572 23.1334 141.433 23.7742L140.876 26.5606C140.848 26.6442 140.848 26.7278 140.876 26.8114C140.876 26.895 140.931 26.9507 141.043 27.0064C141.154 27.0622 141.294 27.09 141.461 27.1179C141.628 27.1458 141.795 27.1736 141.99 27.2015C142.185 27.2293 142.352 27.2294 142.548 27.2572C142.743 27.2572 142.91 27.2851 143.077 27.2851C143.579 27.2851 143.996 27.2015 144.331 27.0343C144.637 26.8671 144.888 26.6999 145.055 26.477C145.222 26.2541 145.334 26.0591 145.39 25.8362C145.445 25.6132 145.473 25.4461 145.473 25.3346C145.473 25.251 145.473 25.1674 145.445 25.0838C145.445 25.0002 145.418 24.8888 145.362 24.7773C145.306 24.6659 145.25 24.5823 145.167 24.4708C145.083 24.3872 144.944 24.3037 144.777 24.2201C145.083 24.1365 145.278 23.9693 145.39 23.7742ZM143.216 24.5544H143.746C143.941 24.5544 144.108 24.5823 144.219 24.638C144.331 24.6937 144.442 24.7495 144.526 24.8331C144.609 24.9167 144.665 25.0002 144.693 25.0838C144.721 25.1674 144.749 25.251 144.749 25.3346C144.749 25.5018 144.721 25.6411 144.665 25.8083C144.609 25.9476 144.526 26.0869 144.387 26.1984C144.275 26.3098 144.108 26.3934 143.913 26.4492C143.718 26.5049 143.495 26.5328 143.216 26.5328C142.882 26.5049 142.631 26.5049 142.408 26.477C142.185 26.4492 141.99 26.4492 141.823 26.3934L142.297 23.9693C142.325 23.8021 142.38 23.6349 142.436 23.4677C142.492 23.3006 142.603 23.1612 142.715 23.0219C142.826 22.8826 142.993 22.7711 143.188 22.6876C143.383 22.604 143.606 22.5761 143.885 22.5761C144.136 22.5761 144.359 22.6318 144.526 22.7154C144.721 22.799 144.805 22.9383 144.805 23.1334C144.805 23.2727 144.777 23.3841 144.693 23.4956C144.609 23.5792 144.498 23.6628 144.359 23.7185C144.219 23.7742 144.08 23.83 143.885 23.8578C143.718 23.8857 143.523 23.9136 143.328 23.9136C143.244 23.9136 143.188 23.9136 143.188 23.9414C143.161 23.9693 143.161 23.9972 143.161 24.025L143.105 24.4151C143.021 24.5266 143.077 24.5544 143.216 24.5544ZM150.99 22.7711C150.907 22.5482 150.767 22.3811 150.6 22.2417C150.433 22.1024 150.238 22.0188 149.987 21.9352C149.736 21.8795 149.486 21.8516 149.179 21.8516C148.761 21.8516 148.399 21.9074 148.092 22.0467C147.786 22.186 147.563 22.3811 147.34 22.604C147.145 22.8547 146.978 23.1334 146.866 23.4399C146.755 23.7464 146.644 24.1086 146.588 24.4708C146.56 24.638 146.532 24.8331 146.504 25.0002C146.476 25.1674 146.476 25.3625 146.476 25.5297C146.476 26.1427 146.644 26.5885 146.95 26.8393C147.284 27.1179 147.73 27.2293 148.343 27.2293C148.817 27.2293 149.207 27.1736 149.513 27.0343C149.82 26.895 150.071 26.6999 150.266 26.4492C150.461 26.1984 150.628 25.9198 150.739 25.5575C150.851 25.2232 150.935 24.8331 151.018 24.443C151.046 24.3037 151.074 24.1365 151.102 23.9971C151.13 23.83 151.13 23.6906 151.13 23.5235C151.13 23.2448 151.074 22.9941 150.99 22.7711ZM150.266 24.0807C150.238 24.2479 150.21 24.3872 150.182 24.5544C150.126 24.8331 150.071 25.0838 149.987 25.3346C149.931 25.5854 149.82 25.7804 149.681 25.9476C149.541 26.1148 149.374 26.2541 149.179 26.3656C148.984 26.477 148.705 26.5049 148.399 26.5049C148.037 26.5049 147.758 26.4213 147.591 26.282C147.424 26.1427 147.34 25.864 147.34 25.5018C147.34 25.3346 147.34 25.1674 147.368 25.0281C147.396 24.8609 147.424 24.7216 147.452 24.5544C147.507 24.3037 147.563 24.0529 147.619 23.8021C147.674 23.5792 147.786 23.3563 147.897 23.1891C148.009 23.0219 148.176 22.8547 148.371 22.7711C148.566 22.6597 148.817 22.604 149.151 22.604C149.513 22.604 149.792 22.6876 149.987 22.8269C150.182 22.9662 150.294 23.2448 150.294 23.6349C150.294 23.7742 150.266 23.9136 150.266 24.0807Z" fill="white"/>
<path fill-rule="evenodd" clip-rule="evenodd" d="M18.098 0H11.1765C9.58128 0 8.01174 1.31224 7.65151 2.90751L6.03051 9.98331C5.97905 10.1892 6.13343 10.4207 6.365 10.4207H15.8852C16.0396 10.4207 16.1939 10.3178 16.2197 10.1377L18.4325 0.437412C18.5096 0.231571 18.3295 0 18.098 0ZM14.4443 16.1586H4.92411C4.76973 16.1586 4.61535 16.2615 4.58962 16.4416L0.00964877 36.5626C-0.0160814 36.6655 0.00964906 36.7684 0.0868396 36.8713C0.16403 36.9485 0.24122 37 0.369871 37H6.77669C8.62926 37 10.5333 35.4819 10.945 33.6294L14.8045 16.6217C14.8302 16.5188 14.8045 16.4159 14.7273 16.3129C14.6501 16.21 14.5472 16.1586 14.4443 16.1586ZM30.7572 16.1586L21.237 16.1328C21.0827 16.1328 20.9283 16.2357 20.9026 16.4159L18.664 26.1419C18.6383 26.2448 18.664 26.3477 18.7412 26.4506C18.8184 26.5278 18.8956 26.5793 19.0243 26.5793H25.8428C27.438 26.5793 29.1105 25.2928 29.4964 23.7232L31.1432 16.6217C31.1689 16.5188 31.1432 16.4159 31.066 16.3129C30.9631 16.21 30.8859 16.1586 30.7572 16.1586ZM32.0695 0H24.9422C24.7878 0 24.6334 0.10292 24.6077 0.283032L22.3434 10.009C22.3177 10.112 22.3434 10.2149 22.4206 10.3178C22.4978 10.395 22.575 10.4465 22.7037 10.4465H32.2753C32.4297 10.4465 32.5841 10.3435 32.6098 10.1634L34.308 2.90751C34.6682 1.28651 33.6647 0 32.0695 0Z" fill="#CC0000"/>
<path fill-rule="evenodd" clip-rule="evenodd" d="M59.7546 0.309017C59.7031 0.180366 59.5745 0.128906 59.3686 0.128906H48.4076C48.2017 0.128906 48.0473 0.180366 47.9702 0.283287C47.8672 0.386208 47.8158 0.514859 47.79 0.66924L44.9597 15.1811C44.934 15.3354 44.934 15.4641 45.0112 15.567C45.0626 15.6699 45.217 15.6957 45.3971 15.6957H48.176C48.3818 15.6957 48.5105 15.6442 48.5877 15.5156C48.6649 15.3869 48.7163 15.284 48.7421 15.1811L51.032 3.31945H55.4576L53.1677 15.1811C53.1419 15.3354 53.1419 15.4641 53.2191 15.567C53.2706 15.6699 53.425 15.6957 53.6051 15.6957H56.3839C56.5898 15.6957 56.7441 15.6442 56.8213 15.5156C56.8985 15.3869 56.9243 15.284 56.95 15.1811L59.7803 0.66924C59.806 0.540589 59.806 0.411937 59.7546 0.309017ZM71.1788 4.11708H68.5543C68.3485 4.11708 68.1941 4.16854 68.1169 4.29719C68.0397 4.42585 67.9882 4.52877 67.9625 4.63169L66.5731 11.8361C66.3158 11.9391 65.9556 12.0677 65.5181 12.2221C65.0807 12.3765 64.6948 12.4537 64.3345 12.4537C63.8457 12.4537 63.5112 12.325 63.3568 12.0677C63.2024 11.8104 63.1767 11.3473 63.3053 10.704L64.4889 4.60596C64.5147 4.45158 64.5147 4.32293 64.4632 4.22001C64.4117 4.11708 64.2831 4.09135 64.0772 4.09135H61.427C61.1955 4.09135 61.0668 4.14281 60.9896 4.27146C60.9124 4.40012 60.861 4.50304 60.8352 4.60596L59.523 11.2958C59.4201 11.8876 59.3429 12.4537 59.2657 12.994C59.2142 13.5343 59.2657 14.0232 59.3944 14.4349C59.523 14.8466 59.806 15.1811 60.2177 15.4384C60.6294 15.6957 61.2469 15.8243 62.0703 15.8243C62.6106 15.8243 63.2539 15.7214 63.9486 15.4898C64.669 15.2583 65.338 14.9495 65.9556 14.5378L66.007 14.5635L65.8784 15.1296C65.8526 15.2583 65.8784 15.3612 65.9041 15.4898C65.9298 15.5927 66.0585 15.6442 66.29 15.6442H68.9403C69.1461 15.6442 69.2747 15.5927 69.3519 15.5156C69.4291 15.4126 69.4806 15.3097 69.5063 15.1296L71.5647 4.60596C71.6934 4.2972 71.539 4.11708 71.1788 4.11708ZM81.265 8.95436C81.651 8.54267 82.0884 7.89942 82.5515 7.02459L83.7866 4.70888C83.8638 4.58023 83.8895 4.45158 83.8638 4.32292C83.838 4.19427 83.7094 4.14281 83.5035 4.14281H81.1364C80.8019 4.14281 80.5703 4.19427 80.4416 4.27146C80.313 4.34866 80.1843 4.52877 80.0557 4.76034L78.7949 6.9474C78.4862 7.48774 78.1774 7.84796 77.8944 7.97661C77.5856 8.13099 77.2768 8.20818 76.9423 8.20818H76.402L77.0967 4.63169C77.1225 4.52877 77.1225 4.42585 77.0967 4.29719C77.0453 4.19427 76.9423 4.14281 76.7365 4.14281H74.0606C73.8805 4.14281 73.7261 4.19427 73.6489 4.27146C73.546 4.37439 73.4945 4.47731 73.4688 4.63169L71.4361 15.2068C71.4104 15.3354 71.4104 15.4641 71.4618 15.567C71.5133 15.6699 71.6419 15.6957 71.822 15.6957H74.498C74.7038 15.6957 74.8582 15.6442 74.9097 15.5413C74.9611 15.4384 75.0126 15.3354 75.0383 15.2068L75.8102 11.1929H76.6593C76.9938 11.1929 77.3026 11.2958 77.6113 11.5016C77.9201 11.7075 78.1002 12.0934 78.1774 12.6595L78.4604 14.8723C78.5119 15.1811 78.5633 15.3869 78.6663 15.5156C78.7435 15.6185 78.975 15.6699 79.361 15.6699H81.5223C81.7282 15.6699 81.8568 15.6185 81.934 15.4898C82.0112 15.3612 82.0369 15.2325 82.0112 15.1039L81.7024 12.6595C81.6252 11.9391 81.4709 11.3215 81.2136 10.8069C80.9563 10.2923 80.5703 9.93211 80.0042 9.77772L80.03 9.72626C80.4416 9.64907 80.8791 9.36604 81.265 8.95436ZM93.7699 4.83753C93.7184 4.70888 93.5898 4.58023 93.3839 4.50304C92.9208 4.2972 92.3805 4.11708 91.7115 4.03989C91.0682 3.93697 90.4507 3.91124 89.8846 3.91124C88.7268 3.91124 87.7748 4.06562 87.0286 4.37439C86.2824 4.68315 85.6649 5.09483 85.2017 5.60943C84.7386 6.12404 84.3784 6.71583 84.1211 7.41055C83.8638 8.07953 83.6837 8.79998 83.5293 9.57188C83.4521 9.9321 83.4006 10.3181 83.3492 10.7297C83.2977 11.1414 83.2977 11.5274 83.2977 11.8619C83.2977 12.4022 83.3749 12.9168 83.5035 13.4057C83.6322 13.8946 83.8638 14.332 84.1983 14.6922C84.5327 15.0781 84.9959 15.3612 85.5877 15.5927C86.1795 15.7986 86.9257 15.9272 87.8262 15.9272C88.1092 15.9272 88.418 15.9272 88.7268 15.9015C89.0355 15.8758 89.37 15.85 89.7045 15.7986C90.039 15.7471 90.3478 15.6957 90.6565 15.6185C90.9653 15.5413 91.2483 15.4641 91.4799 15.3869C91.8658 15.2325 92.0974 15.0781 92.2003 14.9495C92.2775 14.8208 92.329 14.5893 92.329 14.3062V12.9683C92.329 12.711 92.2775 12.5566 92.1746 12.5309C92.0717 12.5051 91.8916 12.5051 91.6343 12.5309C91.1197 12.5823 90.6308 12.6338 90.1419 12.6595C89.6531 12.6852 89.2414 12.711 88.9326 12.711C88.3151 12.711 87.8777 12.5823 87.5946 12.325C87.3116 12.0677 87.1572 11.656 87.1572 11.0642C87.1572 10.8841 87.1572 10.704 87.183 10.4982C87.2087 10.2923 87.2344 10.0608 87.2601 9.77772C87.4403 8.82571 87.7233 8.13099 88.1607 7.71931C88.5724 7.30763 89.1899 7.07606 89.9618 7.07606C90.322 7.07606 90.6823 7.10178 91.0425 7.12751C91.4027 7.15324 91.8144 7.20471 92.3033 7.25617C92.4576 7.2819 92.5863 7.2819 92.6892 7.2819C92.7921 7.2819 92.8951 7.2819 92.9465 7.25617C92.998 7.23044 93.0752 7.17898 93.1009 7.12751C93.1524 7.05032 93.2038 6.9474 93.2296 6.84448L93.667 5.40359C93.8213 5.14629 93.8213 4.96618 93.7699 4.83753ZM104.216 5.71235C103.985 5.3264 103.676 4.99191 103.316 4.73461C102.93 4.47731 102.492 4.29719 101.978 4.16854C101.463 4.03989 100.949 3.98843 100.408 3.98843C99.3019 3.98843 98.3756 4.14281 97.6294 4.42585C96.8832 4.73461 96.2657 5.12056 95.7511 5.5837C95.2622 6.07258 94.8506 6.61291 94.5933 7.20471C94.3102 7.7965 94.1044 8.38829 93.95 8.98009C93.8213 9.46896 93.7184 9.95783 93.6412 10.4724C93.564 10.987 93.5126 11.4759 93.5126 11.9905C93.5126 12.6852 93.6155 13.3028 93.8471 13.7916C94.0529 14.2805 94.3617 14.6922 94.7476 15.0267C95.1336 15.3354 95.5967 15.567 96.1628 15.7214C96.7031 15.85 97.3207 15.9272 97.9896 15.9272C98.3241 15.9272 98.6586 15.9272 99.0446 15.9015C99.4305 15.8758 99.7907 15.85 100.177 15.7986C100.563 15.7471 100.923 15.6957 101.257 15.6442C101.592 15.567 101.901 15.4898 102.158 15.3869C102.492 15.2583 102.724 15.1296 102.827 15.0009C102.93 14.8723 102.981 14.6407 102.981 14.332V13.1998C102.981 12.994 102.93 12.8653 102.827 12.8139C102.724 12.7624 102.57 12.7624 102.415 12.8139C101.772 12.8911 101.18 12.9425 100.691 12.9683C100.202 12.994 99.6878 13.0197 99.1475 13.0197C98.8645 13.0197 98.6072 13.0197 98.3756 12.994C98.144 12.9683 97.9382 12.9425 97.7581 12.8653C97.5779 12.8139 97.4493 12.711 97.3721 12.5823C97.2692 12.4537 97.2435 12.2993 97.2435 12.0677C97.2435 11.8619 97.2692 11.656 97.3464 11.4759C98.0668 11.4502 98.8387 11.373 99.6878 11.2443C100.537 11.1157 101.335 10.9099 102.055 10.6011C102.801 10.2923 103.393 9.85491 103.882 9.31458C104.371 8.74852 104.628 8.00234 104.628 7.10178C104.577 6.56145 104.448 6.09831 104.216 5.71235ZM100.46 8.25964C100.254 8.46548 99.9966 8.61987 99.6878 8.74852C99.3791 8.87717 99.0446 8.98009 98.6586 9.03155C98.2727 9.08301 97.9124 9.13447 97.578 9.1602C97.6551 8.9029 97.7581 8.61987 97.8353 8.33683C97.9382 8.0538 98.0668 7.7965 98.2212 7.56493C98.3756 7.33336 98.5814 7.15324 98.813 6.99886C99.0446 6.84448 99.3276 6.76729 99.6878 6.76729C100.022 6.76729 100.28 6.84448 100.46 6.97313C100.64 7.10178 100.717 7.2819 100.717 7.51347C100.768 7.82223 100.666 8.0538 100.46 8.25964ZM117.596 4.52877C117.596 4.42585 117.57 4.34866 117.519 4.27146C117.467 4.19427 117.339 4.14281 117.159 4.14281H110.417C110.031 4.14281 109.723 4.16854 109.465 4.24574C109.208 4.2972 108.976 4.42585 108.822 4.5545C108.642 4.70888 108.488 4.88899 108.385 5.14629C108.256 5.40359 108.153 5.71236 108.05 6.07258L106.841 10.8069C106.661 11.4759 106.403 12.0163 106.069 12.4022C105.734 12.7882 105.246 13.0712 104.602 13.2256C104.371 13.3028 104.216 13.3799 104.139 13.4829C104.062 13.5601 104.01 13.6887 104.01 13.8688L104.113 15.5156C104.139 15.6957 104.165 15.8243 104.242 15.9015C104.319 15.9787 104.474 16.0302 104.705 16.0302C105.683 16.0302 106.506 15.9015 107.15 15.6185C107.793 15.3354 108.307 14.9752 108.719 14.5121C109.105 14.0489 109.414 13.5086 109.645 12.8911C109.851 12.2736 110.057 11.6303 110.237 10.9356L111.138 7.05033H113.556C113.299 8.43976 113.016 9.77772 112.759 11.1414C112.501 12.4794 112.218 13.8431 111.961 15.2325V15.3097C111.961 15.3354 111.961 15.3612 111.961 15.3612V15.3869C111.961 15.6185 112.116 15.7214 112.424 15.7214H115.023C115.255 15.7214 115.409 15.6699 115.486 15.567C115.563 15.4641 115.615 15.3612 115.641 15.2325L117.673 4.63169V4.52877H117.596ZM127.425 8.10526C127.09 7.87369 126.705 7.71931 126.267 7.61639C125.83 7.5392 125.367 7.48774 124.903 7.48774C124.415 7.48774 123.926 7.5392 123.488 7.61639C123.051 7.69358 122.588 7.82223 122.15 7.95088C122.15 7.92515 122.15 7.92515 122.125 7.92515C122.227 7.41055 122.33 6.89594 122.433 6.38134C122.536 5.86674 122.639 5.35213 122.716 4.83753C122.742 4.68315 122.768 4.58023 122.768 4.50304C122.768 4.24574 122.588 4.11708 122.253 4.11708H119.809C119.526 4.11708 119.346 4.16854 119.268 4.29719C119.191 4.42585 119.14 4.60596 119.088 4.86326C118.78 6.38134 118.497 7.92515 118.214 9.44323C117.931 10.9613 117.622 12.4794 117.313 14.0232C117.287 14.1004 117.287 14.1776 117.287 14.229C117.287 14.2805 117.287 14.3577 117.287 14.4092C117.287 14.5893 117.313 14.7179 117.39 14.8466C117.467 14.9752 117.596 15.0781 117.776 15.1811C118.033 15.3097 118.368 15.4126 118.754 15.5156C119.14 15.6185 119.552 15.6957 119.963 15.7471C120.401 15.7986 120.838 15.85 121.275 15.8758C121.739 15.9015 122.176 15.9015 122.588 15.9015C123.591 15.9015 124.466 15.7986 125.161 15.567C125.855 15.3612 126.421 15.0524 126.885 14.6665C127.348 14.2805 127.708 13.8431 127.94 13.3542C128.171 12.8396 128.351 12.2993 128.454 11.7332C128.48 11.6046 128.506 11.4245 128.531 11.2186C128.557 11.0128 128.557 10.8584 128.557 10.7297C128.557 10.0608 128.454 9.52042 128.248 9.08301C128.017 8.67132 127.759 8.33683 127.425 8.10526ZM124.337 12.4794C124.106 12.8139 123.617 12.994 122.896 12.994C122.613 12.994 122.33 12.994 122.047 12.9683C121.764 12.9425 121.507 12.9168 121.275 12.8911L121.713 10.6526C122.047 10.5496 122.33 10.4724 122.613 10.421C122.871 10.3695 123.179 10.3438 123.54 10.3438C123.977 10.3438 124.286 10.4467 124.44 10.6268C124.595 10.8069 124.672 11.0385 124.698 11.2958C124.698 11.7332 124.569 12.1449 124.337 12.4794ZM149.579 0.309017C149.527 0.180366 149.399 0.128906 149.193 0.128906H138.232C138.026 0.128906 137.871 0.180366 137.794 0.283287C137.691 0.386208 137.64 0.514859 137.614 0.66924L134.784 15.1811C134.758 15.3354 134.758 15.4641 134.835 15.567C134.887 15.6699 135.041 15.6957 135.221 15.6957H138C138.206 15.6957 138.335 15.6442 138.412 15.5156C138.489 15.3869 138.54 15.284 138.566 15.1811L140.856 3.31945H145.282L142.992 15.1811C142.966 15.3354 142.966 15.4641 143.043 15.567C143.095 15.6699 143.249 15.6957 143.429 15.6957H146.182C146.388 15.6957 146.542 15.6442 146.62 15.5156C146.697 15.3869 146.723 15.284 146.748 15.1811L149.579 0.66924C149.63 0.540589 149.604 0.411937 149.579 0.309017ZM161.672 4.52877C161.672 4.42585 161.646 4.34866 161.595 4.27146C161.543 4.19427 161.415 4.14281 161.234 4.14281H154.519C154.133 4.14281 153.824 4.16854 153.567 4.24574C153.31 4.2972 153.078 4.42585 152.924 4.5545C152.743 4.70888 152.589 4.88899 152.486 5.14629C152.358 5.40359 152.255 5.71236 152.152 6.07258L150.942 10.8069C150.762 11.4759 150.505 12.0163 150.17 12.4022C149.836 12.7882 149.347 13.0712 148.704 13.2256C148.472 13.3028 148.318 13.3799 148.241 13.4829C148.163 13.5601 148.112 13.6887 148.112 13.8688L148.215 15.5156C148.241 15.6957 148.266 15.8243 148.344 15.9015C148.421 15.9787 148.575 16.0302 148.807 16.0302C149.785 16.0302 150.608 15.9015 151.251 15.6185C151.894 15.3354 152.409 14.9752 152.821 14.5121C153.207 14.0489 153.515 13.5086 153.747 12.8911C153.953 12.2736 154.159 11.6303 154.339 10.9356L155.239 7.05033H157.658C157.401 8.43976 157.118 9.77772 156.86 11.1414C156.603 12.4794 156.32 13.8431 156.063 15.2325V15.3097C156.063 15.3354 156.063 15.3612 156.063 15.3612V15.3869C156.063 15.6185 156.217 15.7214 156.526 15.7214H159.125C159.356 15.7214 159.51 15.6699 159.588 15.567C159.665 15.4641 159.716 15.3612 159.742 15.2325L161.775 4.63169V4.52877H161.672ZM176.956 5.14629C176.595 4.76034 176.132 4.47731 175.566 4.24574C175 4.03989 174.28 3.91124 173.405 3.91124C172.479 3.91124 171.655 4.03989 170.986 4.29719C170.317 4.5545 169.751 4.91472 169.288 5.3264C168.825 5.73808 168.465 6.22696 168.182 6.74156C167.899 7.25617 167.693 7.77077 167.538 8.28537H166.303C166.432 7.66785 166.535 7.07605 166.663 6.45853C166.766 5.84101 166.895 5.22348 167.024 4.60596V4.45158C167.024 4.34865 166.998 4.27146 166.947 4.19427C166.895 4.11708 166.792 4.06562 166.612 4.06562H163.988C163.782 4.06562 163.627 4.11708 163.55 4.22001C163.473 4.32293 163.396 4.45158 163.37 4.60596L161.337 15.1039V15.2583C161.337 15.4898 161.466 15.6185 161.723 15.6185H164.374C164.579 15.6185 164.734 15.567 164.811 15.4641C164.888 15.3612 164.94 15.2325 164.965 15.1039C165.094 14.4092 165.223 13.7144 165.351 13.0197C165.48 12.325 165.634 11.6303 165.763 10.9356H167.049C167.049 11.0128 167.049 11.09 167.049 11.1929C167.049 11.2958 167.049 11.373 167.049 11.4502C167.049 12.0677 167.127 12.6595 167.307 13.1741C167.461 13.7144 167.718 14.1776 168.079 14.5635C168.439 14.9495 168.902 15.2583 169.468 15.4641C170.034 15.6699 170.729 15.7986 171.526 15.7986C172.35 15.7986 173.07 15.7214 173.688 15.5413C174.305 15.3612 174.82 15.1296 175.257 14.8208C175.695 14.5121 176.055 14.1519 176.338 13.7659C176.621 13.3542 176.853 12.9425 177.033 12.4794C177.213 12.0162 177.367 11.5531 177.47 11.09C177.573 10.6268 177.676 10.1637 177.753 9.72626C177.856 9.23739 177.908 8.6456 177.908 7.95088C177.908 7.41055 177.83 6.92167 177.702 6.40707C177.547 5.96966 177.316 5.53224 176.956 5.14629ZM174.125 9.90637C173.945 10.8584 173.688 11.5788 173.379 12.042C173.07 12.5309 172.556 12.7624 171.861 12.7624C171.398 12.7624 171.063 12.6338 170.883 12.4022C170.703 12.1706 170.626 11.7847 170.626 11.2958C170.626 11.1157 170.652 10.9099 170.677 10.6526C170.703 10.421 170.755 10.1637 170.806 9.90637C170.986 8.98009 171.243 8.25964 171.552 7.7965C171.861 7.33336 172.324 7.07606 172.942 7.07606C173.482 7.07606 173.842 7.20471 174.022 7.43628C174.202 7.66785 174.305 8.0538 174.305 8.54268C174.28 8.92863 174.228 9.39177 174.125 9.90637ZM189.1 4.83753C189.049 4.70888 188.92 4.58023 188.714 4.50304C188.251 4.2972 187.711 4.11708 187.042 4.03989C186.399 3.93697 185.781 3.91124 185.215 3.91124C184.057 3.91124 183.105 4.06562 182.359 4.37439C181.613 4.68315 180.995 5.09483 180.532 5.60943C180.069 6.12404 179.709 6.71583 179.451 7.41055C179.194 8.07953 179.014 8.79998 178.86 9.57188C178.782 9.9321 178.731 10.3181 178.679 10.7297C178.628 11.1414 178.628 11.5274 178.628 11.8619C178.628 12.4022 178.705 12.9168 178.834 13.4057C178.963 13.8946 179.194 14.332 179.529 14.6922C179.863 15.0781 180.326 15.3612 180.918 15.5927C181.51 15.7986 182.256 15.9272 183.157 15.9272C183.44 15.9272 183.748 15.9272 184.057 15.9015C184.366 15.8758 184.7 15.85 185.035 15.7986C185.369 15.7471 185.678 15.6957 185.987 15.6185C186.296 15.5413 186.579 15.4641 186.81 15.3869C187.196 15.2325 187.428 15.0781 187.531 14.9495C187.608 14.8208 187.659 14.5893 187.659 14.3062V12.9683C187.659 12.711 187.608 12.5566 187.505 12.5309C187.402 12.5051 187.222 12.5051 186.965 12.5309C186.45 12.5823 185.961 12.6338 185.472 12.6595C184.983 12.6852 184.572 12.711 184.263 12.711C183.645 12.711 183.208 12.5823 182.925 12.325C182.642 12.0677 182.488 11.656 182.488 11.0642C182.488 10.8841 182.488 10.704 182.513 10.4982C182.539 10.2923 182.565 10.0608 182.59 9.77772C182.771 8.82571 183.054 8.13099 183.491 7.71931C183.903 7.30763 184.52 7.07606 185.292 7.07606C185.652 7.07606 186.013 7.10178 186.373 7.12751C186.733 7.15324 187.145 7.20471 187.634 7.25617C187.788 7.2819 187.917 7.2819 188.02 7.2819C188.122 7.2819 188.225 7.2819 188.277 7.25617C188.328 7.23044 188.405 7.17898 188.431 7.12751C188.483 7.05032 188.534 6.9474 188.56 6.84448L188.997 5.40359C189.152 5.14629 189.177 4.96618 189.1 4.83753Z" fill="white"/>
</svg>
