<svg width="35" height="37" viewBox="0 0 35 37" fill="none" xmlns="http://www.w3.org/2000/svg">
<path fill-rule="evenodd" clip-rule="evenodd" d="M18.098 0H11.1765C9.58128 0 8.01174 1.31224 7.65151 2.90751L6.03051 9.98331C5.97905 10.1892 6.13343 10.4207 6.365 10.4207H15.8852C16.0396 10.4207 16.1939 10.3178 16.2197 10.1377L18.4325 0.437412C18.5096 0.231571 18.3295 0 18.098 0ZM14.4443 16.1586H4.92411C4.76973 16.1586 4.61535 16.2615 4.58962 16.4416L0.00964877 36.5626C-0.0160814 36.6655 0.00964906 36.7684 0.0868396 36.8713C0.16403 36.9485 0.24122 37 0.369871 37H6.77669C8.62926 37 10.5333 35.4819 10.945 33.6294L14.8045 16.6217C14.8302 16.5188 14.8045 16.4159 14.7273 16.3129C14.6501 16.21 14.5472 16.1586 14.4443 16.1586ZM30.7572 16.1586L21.237 16.1328C21.0827 16.1328 20.9283 16.2357 20.9026 16.4159L18.664 26.1419C18.6383 26.2448 18.664 26.3477 18.7412 26.4506C18.8184 26.5278 18.8956 26.5793 19.0243 26.5793H25.8428C27.438 26.5793 29.1105 25.2928 29.4964 23.7232L31.1432 16.6217C31.1689 16.5188 31.1432 16.4159 31.066 16.3129C30.9631 16.21 30.8859 16.1586 30.7572 16.1586ZM32.0695 0H24.9422C24.7878 0 24.6334 0.10292 24.6077 0.283032L22.3434 10.009C22.3177 10.112 22.3434 10.2149 22.4206 10.3178C22.4978 10.395 22.575 10.4465 22.7037 10.4465H32.2753C32.4297 10.4465 32.5841 10.3435 32.6098 10.1634L34.308 2.90751C34.6682 1.28651 33.6647 0 32.0695 0Z" fill="#CC0000"/>
</svg>
