<svg width="183" height="56" viewBox="0 0 183 56" fill="none" xmlns="http://www.w3.org/2000/svg">
<g clip-path="url(#clip0_4311_258)">
<path fill-rule="evenodd" clip-rule="evenodd" d="M111.653 21.5385H117.97L104.855 55.3933L94.9894 32.6414L85.1837 55.3933L72.0693 21.5385H78.3859L85.9658 43.0163L94.9293 19.9003L104.133 43.0163L111.653 21.5385ZM147.447 29.2438C148.771 31.61 149.492 34.4616 149.492 37.7378C149.492 40.9534 148.831 43.805 147.447 46.2319C146.063 48.5981 144.078 50.4789 141.612 51.8137C139.205 53.1484 136.318 53.8765 133.009 53.8765H122.722V21.5385H133.009C136.318 21.5385 139.145 22.2059 141.612 23.6013C144.078 24.8754 146.003 26.7562 147.447 29.2438ZM143.958 37.7378C143.958 35.857 143.717 34.2795 143.176 32.9448C142.574 31.61 141.792 30.4572 140.83 29.4865C139.867 28.5764 138.724 27.8483 137.341 27.363C136.017 26.9383 134.513 26.6956 132.949 26.6956H128.257V48.6587H132.949C134.513 48.6587 135.957 48.416 137.341 47.9307C138.664 47.506 139.867 46.8386 140.83 45.8678C141.792 45.0184 142.574 43.8657 143.176 42.4095C143.657 41.0748 143.958 39.4973 143.958 37.7378ZM172.292 45.4431H160.561L156.892 53.7552H150.816L166.457 19.7183L182.098 53.7552H176.022L172.292 45.4431ZM166.397 30.6392L162.126 40.8321H170.788L166.397 30.6392Z" fill="#333333"/>
<path fill-rule="evenodd" clip-rule="evenodd" d="M55.2246 21.4778L38.8016 33.7942L45.84 55.3326L28.0333 41.9848L10.2266 55.3326L16.7838 35.1896H21.2355V41.9848H28.0333V35.1896H21.2355V28.3337H14.4377V21.4778H21.2355V28.3337H28.0333V21.4778H21.2355L28.0333 0.485382L34.8311 21.4778H55.2246ZM14.3173 33.5515H9.14377V28.3337H14.3173V33.5515ZM0.72168 21.4778H5.59446V26.2709H0.72168V21.4778Z" fill="#F2CF7F"/>
</g>
<defs>
<clipPath id="clip0_4311_258">
<rect width="183" height="56" fill="white"/>
</clipPath>
</defs>
</svg>
