<svg width="238" height="134" viewBox="0 0 238 134" fill="none" xmlns="http://www.w3.org/2000/svg">
    <g opacity="0.4" filter="url(#filter0_f_2286_2)">
        <path d="M145.609 13.2539H214.348V121.91L229.131 131.056H145.609V13.2539Z" fill="#202020"/>
    </g>
    <path d="M210.547 0.822466H29.4028C27.8548 0.81203 26.366 1.41196 25.2638 2.49035C24.1615 3.56873 23.536 5.03728 23.5249 6.57309V126.79H24.3654V5.76539C24.3646 5.5142 24.384 5.26334 24.4233 5.01519C24.4233 4.93416 24.4497 4.85574 24.4655 4.77471C24.4813 4.69368 24.5024 4.61527 24.5234 4.53685C24.5445 4.45843 24.5656 4.38001 24.5919 4.30421C24.7966 3.65106 25.1377 3.04807 25.5931 2.53458C25.6458 2.47446 25.7011 2.41696 25.7565 2.35945L25.8408 2.2758C26.0974 2.02376 26.381 1.80026 26.6865 1.60925C26.7893 1.54652 26.892 1.48379 27 1.4289C27.108 1.374 27.2134 1.31911 27.3267 1.26945L27.5507 1.17796C28.1386 0.951011 28.7641 0.834883 29.3949 0.835536H210.547C211.382 0.834884 212.205 1.03964 212.942 1.43151C213.047 1.4864 213.152 1.54914 213.255 1.61187C213.358 1.67461 213.519 1.78962 213.648 1.88633L213.835 2.03532C213.927 2.11113 214.014 2.19216 214.098 2.2758L214.18 2.35945C214.238 2.41696 214.291 2.47446 214.343 2.53458C215.135 3.42259 215.571 4.56704 215.571 5.75232V126.79H216.422V6.21237C216.318 4.74081 215.652 3.36396 214.561 2.36246C213.469 1.36096 212.034 0.81021 210.547 0.822466Z"
          fill="url(#paint0_linear_2286_2)"/>
    <path d="M23.5117 5.75269C23.5236 4.2171 24.1492 2.74896 25.2513 1.67072C26.3535 0.592486 27.8419 -0.00767231 29.3897 0.0020699H210.547C212.094 -0.00767231 213.583 0.592486 214.685 1.67072C215.787 2.74896 216.413 4.2171 216.425 5.75269V6.21274C216.321 4.74073 215.655 3.3635 214.562 2.36194C213.47 1.36037 212.034 0.809915 210.547 0.822841H29.4028C27.8548 0.812405 26.366 1.41234 25.2638 2.49072C24.1615 3.56911 23.536 5.03766 23.5249 6.57346L23.5117 5.75269Z"
          fill="url(#paint1_linear_2286_2)"/>
    <path d="M215.566 123.424H24.3655V126.791H215.566V123.424Z" fill="#EBEBEB"/>
    <path d="M215.566 5.77956V123.424H24.3655V5.77956C24.3711 4.46282 24.9035 3.20218 25.8456 2.27478C26.7878 1.34739 28.0626 0.829155 29.3898 0.834018H210.547C211.873 0.830544 213.147 1.34939 214.088 2.27664C215.029 3.20388 215.56 4.46373 215.566 5.77956Z"
          fill="white"/>
    <path d="M216.417 126.791V127.099H215.566V127.097H24.3654V127.099H23.5249V126.791H216.417Z"
          fill="url(#paint2_linear_2286_2)"/>
    <path d="M119 127.277H0V130.851H119V127.277Z" fill="url(#paint3_linear_2286_2)"/>
    <path d="M238 127.1H0V127.277H238V127.1Z" fill="url(#paint4_linear_2286_2)"/>
    <path d="M238 127.277H119V130.851H238V127.277Z" fill="url(#paint5_linear_2286_2)"/>
    <path d="M119 127.277H0V130.639H119V127.277Z" fill="url(#paint6_linear_2286_2)"/>
    <path d="M238 127.277H119V130.639H238V127.277Z" fill="url(#paint7_linear_2286_2)"/>
    <path d="M135.938 127.1C135.938 127.825 135.647 128.521 135.13 129.034C134.612 129.547 133.911 129.836 133.18 129.836H104.818C104.456 129.836 104.097 129.766 103.762 129.628C103.428 129.49 103.124 129.289 102.868 129.035C102.612 128.78 102.409 128.479 102.271 128.147C102.132 127.815 102.061 127.459 102.062 127.1H135.938Z"
          fill="url(#paint8_linear_2286_2)"/>
    <path d="M135.938 127.1C135.937 127.825 135.647 128.521 135.129 129.034C134.612 129.547 133.911 129.836 133.18 129.836H104.82C104.458 129.836 104.099 129.766 103.765 129.628C103.43 129.49 103.126 129.289 102.87 129.035C102.615 128.78 102.412 128.479 102.273 128.147C102.135 127.815 102.064 127.459 102.064 127.1H101.927V127.303C101.928 128.029 102.219 128.724 102.736 129.237C103.253 129.75 103.955 130.038 104.686 130.038H133.311C133.674 130.038 134.032 129.968 134.367 129.83C134.702 129.693 135.006 129.492 135.262 129.238C135.518 128.984 135.721 128.682 135.86 128.35C135.999 128.019 136.07 127.663 136.07 127.303V127.1H135.938Z"
          fill="url(#paint9_linear_2286_2)"/>
    <path d="M0 130.85C8.45382 132.944 17.1354 133.997 25.8487 133.986H212.151C220.865 133.997 229.546 132.944 238 130.85H0Z"
          fill="url(#paint10_linear_2286_2)"/>
    <path d="M211.608 8.00195H28.3198V120.518H211.608V8.00195Z" fill="url(#paint11_linear_2286_2)"/>
    <g opacity="0.2">
        <path style="mix-blend-mode:darken" opacity="0.25"
              d="M210.547 7.21803e-05H189.746L59.8569 127.097H216.417V5.75331C216.406 4.21863 215.781 2.75101 214.681 1.67243C213.58 0.593856 212.094 -0.00758241 210.547 7.21803e-05ZM214.085 2.26373L214.101 2.2768L214.122 2.30032L214.085 2.26373Z"
              fill="url(#paint12_linear_2286_2)"/>
    </g>
    <defs>
        <filter id="filter0_f_2286_2" x="129.609" y="-2.74609" width="115.522" height="149.803"
                filterUnits="userSpaceOnUse" color-interpolation-filters="sRGB">
            <feFlood flood-opacity="0" result="BackgroundImageFix"/>
            <feBlend mode="normal" in="SourceGraphic" in2="BackgroundImageFix" result="shape"/>
            <feGaussianBlur stdDeviation="8" result="effect1_foregroundBlur_2286_2"/>
        </filter>
        <linearGradient id="paint0_linear_2286_2" x1="96.5658" y1="119.16" x2="95.8976" y2="120.701"
                        gradientUnits="userSpaceOnUse">
            <stop stop-color="#EFEFEF"/>
            <stop offset="0.31" stop-color="#E7E7E7"/>
            <stop offset="0.45" stop-color="#E2E2E2"/>
        </linearGradient>
        <linearGradient id="paint1_linear_2286_2" x1="119.964" y1="6.57346" x2="119.964" y2="-0.00054408"
                        gradientUnits="userSpaceOnUse">
            <stop stop-color="#EFEFEF"/>
            <stop offset="0.31" stop-color="#E7E7E7"/>
            <stop offset="0.45" stop-color="#E2E2E2"/>
            <stop offset="1" stop-color="#C5C5C5"/>
        </linearGradient>
        <linearGradient id="paint2_linear_2286_2" x1="23.5249" y1="126.945" x2="216.417" y2="126.945"
                        gradientUnits="userSpaceOnUse">
            <stop stop-color="#EFEFEF"/>
            <stop offset="0.31" stop-color="#E7E7E7"/>
            <stop offset="0.45" stop-color="#E2E2E2"/>
            <stop offset="1" stop-color="#C5C5C5"/>
        </linearGradient>
        <linearGradient id="paint3_linear_2286_2" x1="0" y1="129.063" x2="119" y2="129.063"
                        gradientUnits="userSpaceOnUse">
            <stop stop-color="#929292"/>
            <stop offset="0.01" stop-color="#C1C1C1"/>
            <stop offset="0.03" stop-color="#B2B2B2"/>
            <stop offset="0.05" stop-color="#9C9C9C"/>
            <stop offset="0.07" stop-color="#A4A4A4"/>
            <stop offset="0.09" stop-color="#AFAFAF"/>
            <stop offset="1" stop-color="#CFCFCF"/>
        </linearGradient>
        <linearGradient id="paint4_linear_2286_2" x1="0" y1="127.188" x2="238" y2="127.188"
                        gradientUnits="userSpaceOnUse">
            <stop stop-color="#666666"/>
            <stop offset="0.01" stop-color="#D5D5D5"/>
            <stop offset="0.02" stop-color="#D2D2D2"/>
            <stop offset="0.09" stop-color="#BCBCBC"/>
            <stop offset="0.99" stop-color="white"/>
        </linearGradient>
        <linearGradient id="paint5_linear_2286_2" x1="119" y1="129.063" x2="238" y2="129.063"
                        gradientUnits="userSpaceOnUse">
            <stop stop-color="#CFCFCF"/>
            <stop offset="0.91" stop-color="#AFAFAF"/>
            <stop offset="0.93" stop-color="#A4A4A4"/>
            <stop offset="0.95" stop-color="#9C9C9C"/>
            <stop offset="0.97" stop-color="#B2B2B2"/>
            <stop offset="0.99" stop-color="#C1C1C1"/>
            <stop offset="1" stop-color="#929292"/>
        </linearGradient>
        <linearGradient id="paint6_linear_2286_2" x1="0" y1="128.958" x2="119" y2="128.958"
                        gradientUnits="userSpaceOnUse">
            <stop stop-color="#666666"/>
            <stop offset="0.01" stop-color="#D5D5D5"/>
            <stop offset="0.02" stop-color="#D2D2D2"/>
            <stop offset="0.09" stop-color="#BCBCBC"/>
            <stop offset="0.99" stop-color="white"/>
        </linearGradient>
        <linearGradient id="paint7_linear_2286_2" x1="119" y1="128.958" x2="238" y2="128.958"
                        gradientUnits="userSpaceOnUse">
            <stop stop-color="#F1F1F1"/>
            <stop offset="0.91" stop-color="#B2B2B2"/>
            <stop offset="0.93" stop-color="#8E8E8E"/>
            <stop offset="0.94" stop-color="#787878"/>
            <stop offset="0.95" stop-color="#707070"/>
            <stop offset="0.96" stop-color="#868686"/>
            <stop offset="0.98" stop-color="#BDBDBD"/>
            <stop offset="0.99" stop-color="#D5D5D5"/>
            <stop offset="1" stop-color="#666666"/>
        </linearGradient>
        <linearGradient id="paint8_linear_2286_2" x1="102.062" y1="128.469" x2="135.938" y2="128.469"
                        gradientUnits="userSpaceOnUse">
            <stop stop-color="#9F9F9F"/>
            <stop offset="0.04" stop-color="#ACACAC"/>
            <stop offset="0.51" stop-color="#E5E5E5"/>
            <stop offset="0.96" stop-color="#ACACAC"/>
            <stop offset="1" stop-color="#9F9F9F"/>
        </linearGradient>
        <linearGradient id="paint9_linear_2286_2" x1="101.927" y1="128.569" x2="136.07" y2="128.569"
                        gradientUnits="userSpaceOnUse">
            <stop stop-color="#F7F7F7"/>
            <stop offset="0.52" stop-color="#F8F8F8"/>
            <stop offset="1" stop-color="#F7F7F7"/>
        </linearGradient>
        <linearGradient id="paint10_linear_2286_2" x1="119" y1="133.999" x2="119" y2="130.85"
                        gradientUnits="userSpaceOnUse">
            <stop stop-color="#575757"/>
            <stop offset="0.74" stop-color="#B9B9B9"/>
            <stop offset="0.85" stop-color="#B6B6B6"/>
            <stop offset="0.94" stop-color="#ACACAC"/>
            <stop offset="1" stop-color="#9F9F9F"/>
        </linearGradient>
        <linearGradient id="paint11_linear_2286_2" x1="197.468" y1="12.0249" x2="37.6917" y2="121.678"
                        gradientUnits="userSpaceOnUse">
            <stop stop-color="#F17154"/>
            <stop offset="1" stop-color="#F8A16C"/>
        </linearGradient>
        <linearGradient id="paint12_linear_2286_2" x1="138.109" y1="132.387" x2="138.781" y2="8.97621"
                        gradientUnits="userSpaceOnUse">
            <stop/>
            <stop offset="0.37" stop-color="#020202"/>
            <stop offset="0.51" stop-color="#090909"/>
            <stop offset="0.6" stop-color="#141414"/>
            <stop offset="0.68" stop-color="#252525"/>
            <stop offset="0.75" stop-color="#3B3B3B"/>
            <stop offset="0.8" stop-color="#575757"/>
            <stop offset="0.86" stop-color="#777777"/>
            <stop offset="0.91" stop-color="#9D9D9D"/>
            <stop offset="0.95" stop-color="#C8C8C8"/>
            <stop offset="0.99" stop-color="#F6F6F6"/>
            <stop offset="1" stop-color="white"/>
        </linearGradient>
    </defs>
</svg>
